<svg width="3550" height="1420" viewBox="0 0 3550 1420" fill="none" xmlns="http://www.w3.org/2000/svg">
<g clip-path="url(#clip0_2013_697)">
<path d="M3550 0H0V1420H3550V0Z" fill="white"/>
<path d="M3383.14 785.37C3383.14 788.137 3383.14 790.924 3383.14 793.73C3382.72 841.99 3375.85 891.27 3363.88 939.17C3362.08 946.384 3360.16 953.564 3358.13 960.71C3325.63 1075.21 3264.65 1179.59 3194.31 1240.09L3192.09 1241.98L2829.09 1241.63L2446.36 1241.26L320.279 1239.26C320.279 1239.26 294.919 1200.75 269.489 1142.15C268.536 1139.97 267.589 1137.76 266.649 1135.51C262.879 1126.61 259.139 1117.29 255.499 1107.6C252.986 1100.93 250.533 1094.09 248.139 1087.07C247.779 1086.07 247.419 1084.95 247.059 1083.87C246.219 1081.35 245.386 1078.81 244.559 1076.24C244.279 1075.39 244.009 1074.55 243.739 1073.68C239.789 1061.24 236.129 1048.37 232.879 1035.18C230.486 1025.54 228.346 1015.74 226.459 1005.77C219.959 971.36 216.759 935.37 219.129 899.42C219.503 893.827 220.009 888.237 220.649 882.65C226.349 833.3 243.239 784.52 277.159 740.56C299.069 712.15 328.099 685.78 365.829 662.56C408.489 636.31 449.729 623.75 491.659 616.32C608.019 595.72 729.659 614.73 901.659 490.91C913.139 482.644 924.846 473.724 936.779 464.15C1016.61 400.01 1092.64 346.57 1165.19 302.49L1167.88 300.86C1383.61 172.08 1543.21 351.93 1706.36 359.12C1988.18 371.54 1994.76 197.33 2515.94 394.05H2516.01C2526.49 398.01 2537.19 402.12 2548.1 406.38C2585.78 421.002 2625 431.292 2665 437.05C2672.75 438.19 2680.49 439.124 2688.22 439.85C2722.7 443.212 2757.47 441.799 2791.56 435.65C3001.51 397.13 3145.25 422.71 3238.42 484.71C3241.42 486.71 3244.42 488.71 3247.26 490.83C3264.8 503.34 3280.97 517.681 3295.48 533.61C3327.54 568.86 3349.89 610.31 3363.99 655.37C3368.21 668.885 3371.7 682.619 3374.44 696.51C3376.71 707.944 3378.53 719.524 3379.9 731.25C3381.82 747.852 3382.9 764.54 3383.13 781.25C3383.12 782.63 3383.13 784 3383.14 785.37Z" fill="#FBFBFB"/>
<path d="M1174.53 960.71H915.251L912.541 940.9C912.482 940.468 912.361 940.047 912.181 939.65C913.861 909.23 920.721 884.31 921.931 866.59C924.741 857 922.931 851.46 920.321 848.3L922.461 848.62C911.661 839.1 906.331 774.56 905.901 769.01C905.827 768.094 905.7 767.182 905.521 766.28C904.521 760.2 901.601 745.65 894.521 739.87L864.851 742C864.851 742 853.411 747.45 844.941 772.57C842.763 775.299 841.379 778.576 840.941 782.04C839.551 793.31 846.691 797.65 846.691 797.65C846.631 797.21 846.601 796.77 846.581 796.33C847.581 809.27 850.821 825.25 856.751 825.89C856.751 825.89 859.231 826 862.851 825.76C862.952 830.647 862.353 835.523 861.071 840.24C860.421 840.35 859.771 840.47 859.131 840.6C858.729 840.657 858.332 840.74 857.941 840.85H857.831C857.513 840.913 857.199 840.997 856.891 841.1C855.071 841.56 853.061 842.34 851.351 842.92C851.351 842.92 832.231 848.14 804.491 893.69H800.371C799.831 893.46 799.301 893.22 798.781 892.96C798.287 892.716 797.779 892.499 797.261 892.31L797.461 887.74L798.031 874.83L798.301 868.65H799.151L798.611 864.47H779.201L778.401 868.65H779.261L779.641 874.83L780.441 887.74L780.601 890.29C779.472 890.375 778.391 890.777 777.481 891.45C777.206 891.749 777.001 892.104 776.88 892.492C776.759 892.879 776.725 893.288 776.781 893.69H767.471L767.731 887.74L768.291 874.83L768.561 868.65H769.421L768.881 864.47H749.451L748.651 868.65H749.511L749.901 874.83L750.701 887.74L751.061 893.55L748.531 893.19C746.661 892.612 744.839 891.889 743.081 891.03C738.371 888.67 725.791 887.1 723.081 889.62C720.371 892.14 725.911 902.35 737.381 902.62C740.484 902.679 743.581 902.936 746.651 903.39C756.529 907.926 766.663 911.883 777.001 915.24C782.551 917 788.341 918.64 793.871 919.88C798.577 920.985 803.367 921.695 808.191 922C813.34 919.807 818.249 917.089 822.841 913.89C825.631 914.98 828.641 916.11 831.771 917.22L830.351 933.82C829.831 937.57 829.601 948.51 829.521 960.68H584.661C583.221 950.47 580.901 937.93 580.431 932.76C579.691 924.66 580.001 914.97 580.591 905.25C588.231 902.7 595.491 899.85 601.001 897.57C606.114 901.319 611.632 904.483 617.451 907C618.001 907 618.571 906.94 619.141 906.89H619.211L620.881 906.73H621.111L622.661 906.54L623.101 906.48L624.471 906.28L625.151 906.17L626.311 905.98L627.221 905.81L628.171 905.63L629.291 905.41L630.061 905.25L631.351 904.97L631.791 904.88H631.891C633.201 904.59 634.521 904.28 635.891 903.94L636.121 903.89C637.441 903.55 638.761 903.2 640.121 902.83L640.411 902.76C641.721 902.39 643.041 902.01 644.341 901.62C644.441 901.62 644.541 901.62 644.641 901.53C646.021 901.12 647.391 900.7 648.741 900.27C659.051 896.874 669.155 892.88 679.001 888.31C682.071 887.856 685.168 887.599 688.271 887.54C699.751 887.23 705.271 877.01 702.581 874.54C699.891 872.07 687.331 873.6 682.581 875.96C680.823 876.819 679.001 877.542 677.131 878.12C660.741 880.49 648.071 881.12 639.711 881.93C640.301 880.21 640.211 878.73 639.381 877.93C636.921 875.61 626.591 876.54 620.571 878.46C591.291 838.34 570.841 825.58 570.841 825.58C570.496 825.404 570.138 825.254 569.771 825.13C583.261 815.42 564.831 815.05 568.771 782.52C570.711 766.68 565.771 741.34 534.161 745.39C502.551 749.44 492.601 780.48 499.001 794.29C505.401 808.1 489.821 811.43 484.941 826.29C480.751 839.05 479.281 854.89 472.501 862C453.701 881.69 482.691 910.48 507.631 913.5C507.683 916.126 507.602 918.752 507.391 921.37C507.29 922.428 507.133 923.479 506.921 924.52C505.181 933.52 499.331 948.9 495.621 960.71H477.911C474.877 960.718 471.969 961.927 469.823 964.073C467.678 966.218 466.469 969.126 466.461 972.16V1228.64C466.469 1231.67 467.678 1234.58 469.823 1236.73C471.969 1238.87 474.877 1240.08 477.911 1240.09H1174.53C1177.57 1240.08 1180.48 1238.87 1182.62 1236.73C1184.77 1234.58 1185.98 1231.68 1185.99 1228.64V972.16C1185.98 969.125 1184.77 966.217 1182.62 964.072C1180.48 961.927 1177.57 960.718 1174.53 960.71ZM582.001 885.72C582.111 884.12 582.221 882.55 582.321 881.03C583.671 882.52 585.031 883.93 586.381 885.28L582.001 885.72Z" fill="#ABB1B4"/>
<path d="M1939.8 960.71H1756.14L1753.43 940.9C1753.37 940.468 1753.25 940.047 1753.07 939.65C1754.75 909.23 1761.61 884.31 1762.82 866.59C1765.63 857 1763.82 851.46 1761.21 848.3L1763.35 848.62C1752.55 839.1 1747.22 774.56 1746.79 769.01C1746.72 768.094 1746.59 767.182 1746.41 766.28C1745.41 760.2 1742.49 745.65 1735.41 739.87L1705.74 742C1705.74 742 1694.3 747.45 1685.83 772.57C1683.65 775.299 1682.27 778.576 1681.83 782.04C1680.44 793.31 1687.58 797.65 1687.58 797.65C1687.52 797.21 1687.49 796.77 1687.47 796.33C1688.47 809.27 1691.71 825.25 1697.64 825.89C1697.64 825.89 1700.12 826 1703.74 825.76C1703.84 830.647 1703.24 835.523 1701.96 840.24L1699.96 840.6C1699.56 840.657 1699.16 840.74 1698.77 840.85H1698.66C1698.34 840.913 1698.03 840.997 1697.72 841.1C1695.9 841.56 1693.89 842.34 1692.18 842.92C1692.18 842.92 1673.06 848.14 1645.31 893.69H1641.2C1640.66 893.46 1640.13 893.22 1639.61 892.96C1639.11 892.718 1638.61 892.501 1638.09 892.31L1638.29 887.74L1638.86 874.83L1639.13 868.65H1639.98L1639.44 864.47H1620.02L1619.22 868.65H1620.07L1620.46 874.83L1621.26 887.74L1621.42 890.29C1620.29 890.375 1619.21 890.777 1618.3 891.45C1618.03 891.749 1617.82 892.104 1617.7 892.492C1617.58 892.879 1617.54 893.288 1617.6 893.69H1608.29L1608.55 887.74L1609.11 874.83L1609.38 868.65H1610.24L1609.69 864.47H1590.27L1589.47 868.65H1590.33L1590.69 874.34C1588.99 874.686 1587.33 875.226 1585.75 875.95C1583.99 876.806 1582.17 877.528 1580.3 878.11C1563.9 880.48 1551.24 881.11 1542.87 881.92C1543.46 880.2 1543.38 878.72 1542.55 877.92C1540.08 875.6 1529.76 876.53 1523.73 878.45C1494.45 838.33 1474.01 825.57 1474.01 825.57C1473.66 825.396 1473.3 825.246 1472.93 825.12C1486.42 815.41 1467.99 815.04 1471.93 782.51C1473.87 766.67 1468.93 741.33 1437.31 745.38C1405.69 749.43 1395.74 780.5 1402.11 794.31C1408.48 808.12 1392.93 811.45 1388.05 826.31C1383.86 839.07 1382.4 854.91 1375.61 862.02C1356.81 881.71 1385.81 910.5 1410.74 913.52C1410.79 916.146 1410.71 918.772 1410.5 921.39C1410.41 922.448 1410.25 923.5 1410.04 924.54C1408.29 933.54 1402.45 948.92 1398.73 960.73H1292.76C1289.85 960.751 1287.06 961.917 1285 963.975C1282.95 966.033 1281.78 968.819 1281.76 971.73V1229.03C1281.78 1231.94 1282.95 1234.73 1285 1236.79C1287.06 1238.84 1289.85 1240.01 1292.76 1240.03H1939.76C1942.67 1240.01 1945.46 1238.84 1947.51 1236.79C1949.57 1234.73 1950.74 1231.94 1950.76 1229.03V971.75C1950.75 968.839 1949.59 966.049 1947.54 963.983C1945.49 961.917 1942.71 960.742 1939.8 960.71ZM1485.23 885.71C1485.35 884.11 1485.45 882.54 1485.55 881.02C1486.9 882.51 1488.26 883.92 1489.61 885.27L1485.23 885.71ZM1487.92 960.71C1486.47 950.5 1484.15 937.96 1483.68 932.79C1482.95 924.69 1483.25 915 1483.84 905.28C1491.48 902.73 1498.74 899.88 1504.25 897.6C1509.37 901.323 1514.89 904.459 1520.71 906.95C1521.26 906.95 1521.82 906.89 1522.39 906.84H1522.47L1524.13 906.68H1524.36L1525.91 906.49L1526.35 906.43L1527.72 906.23L1528.4 906.12L1529.56 905.93L1530.47 905.76L1531.47 905.58L1532.59 905.36L1533.36 905.2L1534.65 904.92L1535.1 904.83H1535.2C1536.5 904.54 1537.82 904.23 1539.15 903.89L1539.38 903.84C1540.69 903.5 1542.01 903.15 1543.38 902.78L1543.67 902.71C1544.98 902.34 1546.3 901.96 1547.61 901.57L1547.9 901.48C1549.28 901.07 1550.65 900.65 1552 900.22C1556.51 898.79 1560.94 897.22 1565 895.66C1566.52 897.816 1568.53 899.577 1570.87 900.795C1573.21 902.013 1575.8 902.653 1578.44 902.66C1581.54 902.719 1584.64 902.976 1587.71 903.43C1597.57 907.962 1607.68 911.919 1618 915.28C1623.54 917.04 1629.34 918.68 1634.87 919.92C1639.58 921.037 1644.38 921.756 1649.21 922.07C1654.36 919.877 1659.27 917.159 1663.86 913.96C1666.65 915.05 1669.66 916.18 1672.79 917.29L1671.37 933.89C1670.85 937.64 1670.62 948.58 1670.54 960.75L1487.92 960.71ZM1591.47 887.54H1591.58V887.71L1591.95 893.52L1589.41 893.16C1587.55 892.58 1585.75 891.857 1584 891C1582.59 890.353 1581.11 889.857 1579.6 889.52L1582.24 888.32C1585.3 887.864 1588.38 887.603 1591.47 887.54Z" fill="#ABB1B4"/>
<path d="M3028.42 746.13C3028.42 744.93 3027.42 731.93 3007.65 731.25C3007.65 731.25 3017.38 732.41 3019.06 736.69C3019.06 736.69 3012.44 731.41 3007.06 733.11C3001.68 734.81 2998.49 744.26 2998.46 747.37C2998.43 750.48 3001.46 760.51 3004.85 761.37C3006.22 761.645 3007.63 761.645 3009 761.37C3008.02 762.898 3007.13 764.485 3006.34 766.12C2998.44 782.33 3006.59 798.18 3013.27 796.43C3017.56 795.3 3018.78 802.62 3018.78 802.62L3060.44 768.89C3060.44 768.89 3045.12 737.22 3028.42 746.13Z" fill="#2C3A64"/>
<path d="M3130.65 931.92C3130.65 931.92 3142.77 931.46 3144.79 933.48C3146.81 935.5 3145.79 945.61 3142.01 948.9C3138.23 952.19 3127.86 939.8 3127.86 939.8L3130.65 931.92Z" fill="#ED985F"/>
<path d="M3049 840.48C3049 840.48 3034.65 847.87 3035.55 867.96C3036.45 888.05 3063.72 923.26 3077.4 931.62C3088.23 938.25 3129.47 940.05 3129.47 940.05L3130.68 931.92C3130.68 931.92 3092.15 916.27 3086.68 910.25C3075.07 897.34 3059.71 836 3049 840.48Z" fill="#ED985F"/>
<path d="M3052.37 877.26C3052.17 877.81 3051.94 878.36 3051.68 878.9C3044.68 894.07 3022.87 919.36 3021.87 936.71C3021.54 942.71 3022.29 950.24 3024.74 960.11C3036.84 1008.75 2941.26 967.31 2946.66 954.72C2957.41 929.72 2972.41 893.97 2972.41 893.97C2972.41 893.79 2972.27 868.64 2972.41 858.75V858.5C2972.41 858.04 2972.41 857.6 2972.41 857.19V856.71C2972.49 854.77 2972.47 852.827 2972.35 850.89C2975.09 840.94 2980.35 824.33 2980.35 824.33C2987.82 821.33 3001.1 823.1 3001.1 823.1C3001.56 823.1 3004.5 823.37 3006.82 823.63C3016.82 824.75 3035.52 831.4 3036.05 832.45C3036.05 832.45 3040.45 834.28 3041.3 834.64C3043.25 835.473 3044.96 836.26 3046.43 837C3052.43 840 3054.76 842.13 3054.76 842.13C3047.54 846.79 3057.92 862.53 3052.37 877.26Z" fill="#739CF3"/>
<path d="M3022.89 948.82L3013.55 951.27V951.18C2997.36 955.48 2954.13 939.18 2954.13 939.18C2954.13 939.18 2938.44 953 2940.5 986C2941.5 1002.12 2937.58 1004.21 2942.32 1003.45C2955.97 1001.26 3004.05 1003.45 3004.18 1003.45L3004.74 1001.07C3006.02 1000.92 3007.11 1000.78 3007.81 1000.67C3010.23 1000.26 3012.58 999.95 3014.81 999.73C3019.76 999.216 3024.74 999.006 3029.71 999.1C3029.9 999.103 3030.09 999.066 3030.27 998.991C3030.45 998.916 3030.61 998.805 3030.74 998.664C3030.87 998.524 3030.97 998.357 3031.03 998.176C3031.09 997.994 3031.12 997.801 3031.1 997.61C3027.23 957.31 3022.89 948.82 3022.89 948.82Z" fill="#35488B"/>
<path d="M3037.38 821.549C3036.17 826.399 3035.3 831.07 3036 832.45C3034.77 833.955 3033.25 835.201 3031.53 836.115C3029.82 837.03 3027.94 837.596 3026 837.78C3016.5 838.71 3006.8 823.63 3006.8 823.63C3010.21 821.86 3016.32 813.21 3019.85 798.77L3021.05 799.33L3041.13 808.77C3041.13 808.77 3039 815.289 3037.38 821.549Z" fill="#FFB27D"/>
<path d="M3048.14 868.65C3048.14 868.16 3046.89 867.45 3044.9 866.65C3045.48 861.33 3046.21 851.86 3046.38 837.03C3044.91 836.29 3043.2 835.503 3041.25 834.67C3041.5 840.67 3041.62 854.19 3038.66 864.39C3030.87 861.84 3019.94 858.9 3012.46 856.97C3011.59 851.7 3009.46 840.97 3004.46 823.4L2998.76 822.89C2998.76 822.89 3005.64 841.14 3005.61 855.26L3004.34 854.96C3000.64 854.17 2999.08 869.65 2998.76 870.53C2993.19 886.1 2978.86 884.2 2973.99 884.78C2969.12 885.36 2940.21 944.95 2939.93 955.51C2939.65 966.07 3008.47 972.4 3025.51 971.39C3042.55 970.38 3048.4 871.56 3048.14 868.65Z" fill="#2C3A64"/>
<path d="M3041.09 808.77C3041.09 808.77 3038.96 815.29 3037.39 821.55C3025.65 818.28 3022.09 805.94 3021.02 799.33L3041.09 808.77Z" fill="#ED985F"/>
<path d="M3043.56 815.68C3043.56 815.68 3015.49 809.18 3019.81 791.76C3024.13 774.34 3023.41 761.76 3041.51 765.19C3059.61 768.62 3061.44 776.1 3061.41 782.27C3061.38 788.44 3051 816.92 3043.56 815.68Z" fill="#FFB27D"/>
<path d="M3063 772.38C3060 766.06 3056.43 766.38 3054.21 767.52C3041.02 755.32 3028.08 765.29 3028.08 765.29C3024.95 772.595 3019.37 778.583 3012.31 782.23C3012.31 782.23 3016.62 786.65 3029.12 786.55C3032.94 786.55 3036.78 784.77 3040.27 782.35C3035.91 786.639 3030.98 790.313 3025.63 793.27C3041.28 790.27 3051.77 772.16 3052.85 770.27C3054.17 772.27 3056.71 776.39 3056.92 779.91C3057.21 784.69 3055.57 793.98 3058.3 794.33C3058.29 794.3 3067.52 781.85 3063 772.38Z" fill="#2C3A64"/>
<path d="M3072.94 945.11L3070.59 953.71C3070.59 953.71 3066.99 953.07 3061.45 951.96H3061.34L3060.76 951.85C3057.28 951.14 3053.09 950.25 3048.58 949.22C3034.14 945.91 3016.46 941.09 3008.22 935.88C2993.05 926.26 2971.56 872.33 2970.55 849.82C2970.5 848.63 2970.47 847.49 2970.5 846.41C2970.65 827.02 2980.3 824.41 2980.3 824.41C2984.19 822.8 2988.7 829.53 2993.3 839.95C3003.04 861.8 3013.41 899.95 3020 911.31C3022.77 916.11 3038.42 925.84 3052 933.64C3056.75 936.37 3061.24 938.87 3064.84 940.84C3069.71 943.41 3072.94 945.11 3072.94 945.11Z" fill="#FFB27D"/>
<path d="M2993.33 839.87C2980.44 836.31 2970.49 846.38 2970.49 846.38C2970.65 826.99 2980.31 824.38 2980.31 824.38C2984.19 822.72 2988.69 829.45 2993.33 839.87Z" fill="#739CF3"/>
<path d="M3054.71 842.13C3054.71 842.13 3061.47 853.92 3062.48 856.96C3062.48 856.96 3053.71 856.62 3050.17 863.36C3050.17 863.36 3050.48 843.82 3054.71 842.13Z" fill="#739CF3"/>
<path d="M3110 970.13C3120.67 970.13 3130.91 965.889 3138.46 958.341C3146.01 950.793 3150.25 940.555 3150.25 929.88H3069.75C3069.75 940.555 3073.99 950.793 3081.54 958.341C3089.09 965.889 3099.33 970.13 3110 970.13Z" fill="#4B6079"/>
<path d="M3115.59 965.24C3110.39 966.26 3105.02 966.115 3099.88 964.816C3094.74 963.518 3089.95 961.097 3085.85 957.729C3081.76 954.361 3078.46 950.128 3076.19 945.333C3073.92 940.539 3072.74 935.303 3072.74 930H3086.6C3086.6 938.323 3089.49 946.387 3094.78 952.815C3100.07 959.242 3107.42 963.634 3115.59 965.24Z" fill="#263238"/>
<path d="M3096.72 925.29C3096.72 925.29 3086.72 910.29 3082.27 911.29C3077.82 912.29 3090.12 919.03 3094.56 924.6L3096.72 925.29Z" fill="#D8DFEB"/>
<path d="M3147.52 929.88H3072.38C3074.46 928.05 3078.98 925.16 3086.38 925.63C3086.38 925.63 3094.01 924.83 3098.11 921.76C3102.21 918.69 3114.49 917.43 3121.2 922.67C3127.91 927.91 3135.43 926.54 3139.53 927.22C3143 927.8 3146.2 928.29 3147.52 929.88Z" fill="#F0D170"/>
<path d="M3100.68 953.45C3096.38 955.23 3090.31 961.54 3080.68 957.75C3074.41 955.36 3067.98 953.425 3061.43 951.96H3061.32L3060.74 951.85L3064.53 940.72L3064.86 940.8C3067.07 941.3 3080.03 944.13 3086.02 942.8C3092.6 941.28 3103.72 949.25 3103.72 949.25C3103.72 949.25 3105 951.68 3100.68 953.45Z" fill="#FFB27D"/>
<path d="M3100.68 953.45C3096.38 955.23 3090.31 961.54 3080.68 957.75C3074.41 955.36 3067.98 953.425 3061.43 951.96H3061.32L3060.74 951.85C3057.26 951.14 3053.07 950.25 3048.56 949.22C3051.45 944.552 3052.66 939.038 3051.99 933.59C3056.74 936.32 3061.23 938.82 3064.83 940.79C3067.04 941.29 3080 944.12 3085.99 942.79C3092.57 941.27 3103.69 949.24 3103.69 949.24C3103.69 949.24 3105 951.68 3100.68 953.45Z" fill="#739CF3"/>
<path d="M2814.73 960.71C2809.07 960.71 2804.45 965.71 2804.45 971.71V1229C2804.45 1235.08 2809.07 1240 2814.73 1240H3194.3C3213.3 1223.7 3231.53 1204.21 3248.74 1182.2C3255.6 1173.45 3262.27 1164.31 3268.74 1154.78C3270.13 1152.78 3271.5 1150.73 3272.86 1148.64C3283.66 1132.35 3293.91 1115.08 3303.5 1097.01C3306.28 1091.75 3309.01 1086.42 3311.69 1081.01C3318.73 1066.81 3325.34 1052.21 3331.52 1037.21C3331.59 1037.08 3331.64 1036.95 3331.68 1036.81C3336.11 1026.09 3340.28 1015.19 3344.2 1004.12C3349.28 989.833 3353.91 975.323 3358.09 960.59L2814.73 960.71Z" fill="#263238"/>
<path d="M2454.72 756.85C2454.72 756.85 2456.57 753.05 2465.84 754.09C2475.11 755.13 2477.72 763.46 2478.15 769.01C2478.5 773.47 2482 815.94 2488.96 837.45C2489.33 838.596 2489.39 839.815 2489.16 840.994C2488.92 842.172 2488.39 843.271 2487.61 844.185C2486.83 845.1 2485.83 845.801 2484.7 846.222C2483.57 846.643 2482.36 846.77 2481.17 846.59L2460.17 843.43L2454.72 756.85Z" fill="#163560"/>
<path d="M2452 757.51C2452 757.51 2461.89 754.18 2467.09 759.12C2472.29 764.06 2469.35 770.61 2469.35 770.61L2452 757.51Z" fill="#F3BBAE"/>
<path d="M2420.82 777C2420.82 777 2421 755.2 2456.09 757.71C2459.03 757.899 2461.87 758.842 2464.33 760.446C2466.8 762.05 2468.82 764.262 2470.18 766.87C2474.18 774.59 2475.85 788.16 2463.1 809.93L2420.82 777Z" fill="#163560"/>
<path d="M2465.23 841L2457.33 871.9L2434.49 873L2423.12 856C2433.75 847.94 2435.25 833.82 2435.12 825.44C2435.12 825.36 2435.12 825.28 2435.12 825.19C2435.09 822.997 2434.91 820.809 2434.58 818.64L2450.79 813.7L2463.13 809.94C2462.16 816.898 2461.98 823.942 2462.58 830.94C2463.36 838.42 2465.23 841 2465.23 841Z" fill="#E49963"/>
<path d="M2488.29 1000.81L2405.41 1000.71C2405.41 1000.71 2415.72 945.13 2410 926.92C2404.28 908.71 2410.28 882.1 2410.28 882.1C2418.6 862.32 2420.72 843.81 2424.43 842.84C2426.43 842.31 2428.1 841.21 2430.1 840.84C2462.66 834.33 2489.1 846.18 2489.1 846.18C2496.41 864.53 2480.76 878.32 2480.01 919.76C2479.28 960.47 2488.29 1000.81 2488.29 1000.81Z" fill="#E49963"/>
<path d="M2491.54 847.47C2487.54 840.12 2465.81 840 2465.81 840C2463.81 842.49 2452.65 850.45 2438.86 850.37C2425.07 850.29 2431.39 840.54 2431.39 840.54C2430.89 840.603 2430.39 840.713 2429.91 840.87C2427.3 841.781 2425.05 843.493 2423.48 845.76C2423.57 843.95 2423.62 842.88 2423.62 842.88C2423.62 842.88 2403.36 848.41 2374.3 897.74C2373.44 899.2 2370.99 898.96 2365.3 897.85C2358.04 896.44 2343.21 896.62 2320.84 893.34C2320.84 893.34 2320.07 893.89 2319.84 896.34C2319.73 898.7 2319.4 901.045 2318.84 903.34C2328.73 907.896 2338.88 911.87 2349.24 915.24C2354.78 917 2360.57 918.64 2366.1 919.88C2370.81 920.997 2375.61 921.717 2380.45 922.03C2380.45 922.03 2392 917.59 2405.53 905.93C2404.42 913.79 2403.87 919.42 2403.92 920.05C2404.2 926.253 2404.1 932.468 2403.64 938.66C2403.64 938.66 2462.37 954.66 2479.64 946.44C2482.5 945.09 2484.22 943.07 2484.37 940.22C2486.07 908.22 2493.57 882.22 2494.3 864.32C2494.61 857.51 2493.91 851.85 2491.54 847.47Z" fill="#F4BE61"/>
<path d="M2466.62 882.45C2469.05 881.693 2471.63 881.539 2474.13 882.001C2476.63 882.463 2478.99 883.528 2480.99 885.103C2482.99 886.678 2484.57 888.717 2485.61 891.042C2486.64 893.367 2487.1 895.91 2486.93 898.45C2486.23 909.26 2485.37 921.87 2484.39 940.23C2484.24 943.08 2482.52 945.1 2479.66 946.45L2462.85 911.57L2466.62 882.46V882.45Z" fill="#F2A83D"/>
<path d="M2492.77 999.13L2484.77 940.9C2484.65 940.059 2484.31 939.267 2483.77 938.61C2473.72 925.95 2472.68 886.4 2472.65 871.31C2472.67 869.779 2472.08 868.301 2471.02 867.199C2469.96 866.096 2468.5 865.457 2466.97 865.42C2467.2 864.74 2473.26 846.17 2477.97 841.11L2475.89 840.78C2474.73 840.6 2472.67 840.4 2472.67 840.4C2472.67 840.4 2464.02 852.62 2460.2 865.46H2459.96C2445.89 867.192 2431.67 867.192 2417.6 865.46H2418.94C2418.94 865.46 2425.17 846.55 2429.94 840.87C2427.81 841.411 2425.71 842.079 2423.66 842.87C2420.66 847.12 2415.22 855.33 2412.38 864.79C2411.29 864.885 2410.28 865.362 2409.51 866.137C2408.75 866.912 2408.28 867.934 2408.2 869.02L2405.85 896.37L2402.64 933.84C2401.49 942.13 2401.78 985.48 2401.91 999.84C2401.9 1001.05 2402.38 1002.21 2403.22 1003.07C2404.07 1003.93 2405.22 1004.42 2406.43 1004.44H2488.33C2488.99 1004.43 2489.63 1004.27 2490.22 1003.99C2490.81 1003.7 2491.33 1003.3 2491.75 1002.79C2492.17 1002.29 2492.48 1001.7 2492.66 1001.07C2492.83 1000.44 2492.87 999.778 2492.77 999.13Z" fill="#263238"/>
<path d="M2462.55 830.92C2452.74 825.68 2437.55 825.42 2435.1 825.42H2434.76L2435.09 825.17C2436.71 823.98 2444 818.61 2450.76 813.68L2463.1 809.92C2462.13 816.877 2461.95 823.921 2462.55 830.92Z" fill="#D68D5D"/>
<path d="M2429 825.87C2429 825.87 2463.82 827.46 2464.48 805.76C2465.14 784.06 2470.07 769.65 2447.87 767.76C2425.67 765.87 2421.09 773.98 2419.11 781.17C2417.13 788.36 2420 824.9 2429 825.87Z" fill="#E49963"/>
<path d="M2432.79 776.3C2432.79 776.3 2417.28 785.61 2418.93 797.63C2418.93 797.63 2411.8 793.29 2413.19 782.02C2414.58 770.75 2425.85 763.63 2435.39 763.63C2440.96 763.61 2446.53 764.018 2452.04 764.85L2432.79 776.3Z" fill="#163560"/>
<path d="M2429.9 772.52C2423.72 775.8 2449.27 778.52 2450.83 788.96C2452.39 799.4 2464.57 803.35 2464.57 803.35C2464.57 803.35 2480 746 2429.9 772.52Z" fill="#163560"/>
<path d="M2424.82 814.06C2424.82 814.06 2425.08 816.27 2430.45 816.57C2430.45 816.57 2434.96 816.82 2435.11 814.45C2435.11 814.45 2431 812.26 2424.82 814.06Z" fill="white"/>
<path d="M2378.61 906.11C2378.61 906.11 2402.44 918.11 2423.1 923.04C2428.52 924.423 2434.06 925.313 2439.65 925.7C2439.65 925.7 2461.87 918.87 2478.82 895.12C2511.57 849.25 2486.29 844.3 2486.29 844.3C2486.29 844.3 2464.41 857.95 2433.51 901.4C2432.43 902.92 2429.71 902.58 2422.69 901.16C2415.18 899.64 2400.24 899.82 2379.61 896.79C2379.27 897.831 2379.08 898.915 2379.05 900.01C2378.59 905.41 2378.61 906.11 2378.61 906.11Z" fill="#F4BE61"/>
<path d="M2365.28 897.85C2358.09 896.45 2342.8 896.34 2320.8 893.16C2318.92 892.578 2317.1 891.853 2315.33 890.99C2310.62 888.63 2298.04 887.06 2295.33 889.58C2292.62 892.1 2298.16 902.31 2309.64 902.58C2312.74 902.642 2315.83 902.896 2318.89 903.34C2328.75 907.881 2338.87 911.841 2349.2 915.2C2354.74 916.96 2360.53 918.6 2366.06 919.84C2367.82 912.578 2367.55 904.97 2365.28 897.85Z" fill="#A86337"/>
<path d="M2370.56 868.61L2370.29 874.78L2369.72 887.7L2369.47 893.65H2353.07L2352.7 887.7L2351.89 874.78L2351.51 868.61H2370.56Z" fill="#F3BBAE"/>
<path d="M2370.87 864.43H2351.45L2350.65 868.61H2371.42L2370.87 864.43Z" fill="#DCE3F1"/>
<path d="M2370.29 874.78L2369.72 887.7H2352.7L2351.89 874.78H2370.29Z" fill="#DFAFA3"/>
<path d="M2340.82 868.61L2340.55 874.78L2339.98 887.7L2339.72 893.65H2323.33L2322.95 887.7L2322.15 874.78L2321.77 868.61H2340.82Z" fill="#F3BBAE"/>
<path d="M2341.13 864.43H2321.71L2320.91 868.61H2341.68L2341.13 864.43Z" fill="#DCE3F1"/>
<path d="M2340.55 874.78L2339.98 887.7H2322.95L2322.15 874.78H2340.55Z" fill="#DFAFA3"/>
<path d="M2384.74 898H2306.83C2306.26 898 2305.71 897.772 2305.3 897.367C2304.9 896.962 2304.67 896.413 2304.67 895.84C2304.67 895.266 2304.9 894.716 2305.3 894.309C2305.71 893.902 2306.26 893.673 2306.83 893.67H2384.74C2385.31 893.673 2385.86 893.902 2386.27 894.309C2386.67 894.716 2386.9 895.266 2386.9 895.84C2386.9 896.413 2386.67 896.962 2386.27 897.367C2385.86 897.772 2385.31 898 2384.74 898Z" fill="#1C468A"/>
<path d="M2423.1 923C2421.32 919.639 2420.36 915.909 2420.29 912.108C2420.22 908.308 2421.04 904.544 2422.69 901.12C2415.18 899.6 2400.13 898.94 2379.5 895.92C2376.59 895.174 2373.76 894.145 2371.05 892.85C2366.05 890.33 2352.59 888.65 2349.74 891.34C2346.89 894.03 2352.74 904.93 2365.01 905.27C2369.45 905.28 2373.88 905.773 2378.21 906.74C2380.16 907.71 2403.32 918.29 2423.1 923Z" fill="#B77446"/>
<path d="M2437.11 742C2437.11 742 2425.67 747.45 2417.19 772.57H2429.9L2437.11 742Z" fill="#263238"/>
<path d="M2429.9 772.52C2429.9 772.52 2465.77 773.08 2478.15 769.01C2478.15 769.01 2475.82 747.26 2466.81 739.87L2437.11 741.98C2437.11 741.98 2428.13 763.48 2429.9 772.52Z" fill="#374D86"/>
<path d="M2746.79 960.71H2050.16C2043.84 960.71 2038.71 965.836 2038.71 972.16V1228.65C2038.71 1234.97 2043.84 1240.1 2050.16 1240.1H2746.79C2753.11 1240.1 2758.24 1234.97 2758.24 1228.65V972.16C2758.24 965.836 2753.11 960.71 2746.79 960.71Z" fill="#263238"/>
<path d="M3295.35 1245H183.881C183.085 1245 182.322 1244.68 181.76 1244.12C181.197 1243.56 180.881 1242.8 180.881 1242C180.881 1241.2 181.197 1240.44 181.76 1239.88C182.322 1239.32 183.085 1239 183.881 1239H3295.35C3296.15 1239 3296.91 1239.32 3297.47 1239.88C3298.03 1240.44 3298.35 1241.2 3298.35 1242C3298.35 1242.8 3298.03 1243.56 3297.47 1244.12C3296.91 1244.68 3296.15 1245 3295.35 1245Z" fill="#2E3552"/>
<path d="M2548 406.33C2537.33 402.47 2526.64 398.36 2515.91 394H2515.84C1994.66 197.28 1988.08 371.49 1706.26 359.07C1543.11 351.88 1383.51 172.07 1167.78 300.81L1165.09 302.44V386.73C1165.09 397.53 1176.35 406.35 1190.09 406.35H1983.18V1226.41C1983.18 1233.31 1988.41 1238.97 1994.79 1238.97C1996.34 1238.96 1997.87 1238.62 1999.28 1237.99C2000.69 1237.35 2001.95 1236.43 2002.99 1235.28C2005.21 1232.86 2006.42 1229.69 2006.4 1226.41V406.33H2548Z" fill="#EDEDED"/>
<path d="M2734.54 490.83H2082.37C2077.69 490.83 2073.89 494.627 2073.89 499.31V646.89C2073.89 651.573 2077.69 655.37 2082.37 655.37H2734.54C2739.22 655.37 2743.02 651.573 2743.02 646.89V499.31C2743.02 494.627 2739.22 490.83 2734.54 490.83Z" fill="#EDEDED"/>
<path d="M2273.18 524.74H2128.38C2126.21 524.74 2124.13 525.602 2122.6 527.136C2121.06 528.67 2120.2 530.751 2120.2 532.92C2120.2 535.09 2121.06 537.17 2122.6 538.704C2124.13 540.238 2126.21 541.1 2128.38 541.1H2273.18C2275.35 541.1 2277.43 540.238 2278.96 538.704C2280.5 537.17 2281.36 535.09 2281.36 532.92C2281.36 530.751 2280.5 528.67 2278.96 527.136C2277.43 525.602 2275.35 524.74 2273.18 524.74Z" fill="#4B6079"/>
<path d="M2273.18 564.92H2128.38C2126.21 564.92 2124.13 565.782 2122.6 567.316C2121.06 568.85 2120.2 570.93 2120.2 573.1C2120.2 575.269 2121.06 577.35 2122.6 578.884C2124.13 580.418 2126.21 581.28 2128.38 581.28H2273.18C2275.35 581.28 2277.43 580.418 2278.96 578.884C2280.5 577.35 2281.36 575.269 2281.36 573.1C2281.36 570.93 2280.5 568.85 2278.96 567.316C2277.43 565.782 2275.35 564.92 2273.18 564.92Z" fill="#4B6079"/>
<path d="M2273.18 605.1H2128.38C2126.21 605.1 2124.13 605.961 2122.6 607.495C2121.06 609.03 2120.2 611.11 2120.2 613.28C2120.2 615.449 2121.06 617.53 2122.6 619.064C2124.13 620.598 2126.21 621.46 2128.38 621.46H2273.18C2275.35 621.46 2277.43 620.598 2278.96 619.064C2280.5 617.53 2281.36 615.449 2281.36 613.28C2281.36 611.11 2280.5 609.03 2278.96 607.495C2277.43 605.961 2275.35 605.1 2273.18 605.1Z" fill="#4B6079"/>
<path d="M2490.61 524.74H2345.81C2343.64 524.74 2341.56 525.602 2340.02 527.136C2338.49 528.67 2337.63 530.751 2337.63 532.92C2337.63 535.09 2338.49 537.17 2340.02 538.704C2341.56 540.238 2343.64 541.1 2345.81 541.1H2490.61C2492.78 541.1 2494.86 540.238 2496.39 538.704C2497.93 537.17 2498.79 535.09 2498.79 532.92C2498.79 530.751 2497.93 528.67 2496.39 527.136C2494.86 525.602 2492.78 524.74 2490.61 524.74Z" fill="#4B6079"/>
<path d="M2490.61 564.92H2345.81C2343.64 564.92 2341.56 565.782 2340.02 567.316C2338.49 568.85 2337.63 570.93 2337.63 573.1C2337.63 575.269 2338.49 577.35 2340.02 578.884C2341.56 580.418 2343.64 581.28 2345.81 581.28H2490.61C2492.78 581.28 2494.86 580.418 2496.39 578.884C2497.93 577.35 2498.79 575.269 2498.79 573.1C2498.79 570.93 2497.93 568.85 2496.39 567.316C2494.86 565.782 2492.78 564.92 2490.61 564.92Z" fill="#4B6079"/>
<path d="M2490.61 605.1H2345.81C2343.64 605.1 2341.56 605.961 2340.02 607.495C2338.49 609.03 2337.63 611.11 2337.63 613.28C2337.63 615.449 2338.49 617.53 2340.02 619.064C2341.56 620.598 2343.64 621.46 2345.81 621.46H2490.61C2492.78 621.46 2494.86 620.598 2496.39 619.064C2497.93 617.53 2498.79 615.449 2498.79 613.28C2498.79 611.11 2497.93 609.03 2496.39 607.495C2494.86 605.961 2492.78 605.1 2490.61 605.1Z" fill="#4B6079"/>
<path d="M2697.12 524.74H2542.3C2535.3 524.74 2529.63 530.413 2529.63 537.41V608.8C2529.63 615.798 2535.3 621.47 2542.3 621.47H2697.12C2704.12 621.47 2709.79 615.798 2709.79 608.8V537.41C2709.79 530.413 2704.12 524.74 2697.12 524.74Z" fill="#4B6079"/>
<path d="M1907.35 490.83H1255.18C1250.5 490.83 1246.7 494.627 1246.7 499.31V646.89C1246.7 651.573 1250.5 655.37 1255.18 655.37H1907.35C1912.03 655.37 1915.83 651.573 1915.83 646.89V499.31C1915.83 494.627 1912.03 490.83 1907.35 490.83Z" fill="#EDEDED"/>
<path d="M1446 524.74H1301.2C1299.03 524.74 1296.95 525.602 1295.42 527.136C1293.88 528.67 1293.02 530.751 1293.02 532.92C1293.02 535.09 1293.88 537.17 1295.42 538.704C1296.95 540.238 1299.03 541.1 1301.2 541.1H1446C1448.17 541.1 1450.25 540.238 1451.78 538.704C1453.32 537.17 1454.18 535.09 1454.18 532.92C1454.18 530.751 1453.32 528.67 1451.78 527.136C1450.25 525.602 1448.17 524.74 1446 524.74Z" fill="#4B6079"/>
<path d="M1446 564.92H1301.2C1299.03 564.92 1296.95 565.782 1295.42 567.316C1293.88 568.85 1293.02 570.93 1293.02 573.1C1293.02 575.269 1293.88 577.35 1295.42 578.884C1296.95 580.418 1299.03 581.28 1301.2 581.28H1446C1448.17 581.28 1450.25 580.418 1451.78 578.884C1453.32 577.35 1454.18 575.269 1454.18 573.1C1454.18 570.93 1453.32 568.85 1451.78 567.316C1450.25 565.782 1448.17 564.92 1446 564.92Z" fill="#4B6079"/>
<path d="M1446 605.1H1301.2C1299.03 605.1 1296.95 605.961 1295.42 607.495C1293.88 609.03 1293.02 611.11 1293.02 613.28C1293.02 615.449 1293.88 617.53 1295.42 619.064C1296.95 620.598 1299.03 621.46 1301.2 621.46H1446C1448.17 621.46 1450.25 620.598 1451.78 619.064C1453.32 617.53 1454.18 615.449 1454.18 613.28C1454.18 611.11 1453.32 609.03 1451.78 607.495C1450.25 605.961 1448.17 605.1 1446 605.1Z" fill="#4B6079"/>
<path d="M1663.43 524.74H1518.63C1516.46 524.74 1514.38 525.602 1512.85 527.136C1511.31 528.67 1510.45 530.751 1510.45 532.92C1510.45 535.09 1511.31 537.17 1512.85 538.704C1514.38 540.238 1516.46 541.1 1518.63 541.1H1663.43C1665.6 541.1 1667.68 540.238 1669.21 538.704C1670.75 537.17 1671.61 535.09 1671.61 532.92C1671.61 530.751 1670.75 528.67 1669.21 527.136C1667.68 525.602 1665.6 524.74 1663.43 524.74Z" fill="#4B6079"/>
<path d="M1663.43 564.92H1518.63C1516.46 564.92 1514.38 565.782 1512.85 567.316C1511.31 568.85 1510.45 570.93 1510.45 573.1C1510.45 575.269 1511.31 577.35 1512.85 578.884C1514.38 580.418 1516.46 581.28 1518.63 581.28H1663.43C1665.6 581.28 1667.68 580.418 1669.21 578.884C1670.75 577.35 1671.61 575.269 1671.61 573.1C1671.61 570.93 1670.75 568.85 1669.21 567.316C1667.68 565.782 1665.6 564.92 1663.43 564.92Z" fill="#4B6079"/>
<path d="M1663.43 605.1H1518.63C1516.46 605.1 1514.38 605.961 1512.85 607.495C1511.31 609.03 1510.45 611.11 1510.45 613.28C1510.45 615.449 1511.31 617.53 1512.85 619.064C1514.38 620.598 1516.46 621.46 1518.63 621.46H1663.43C1665.6 621.46 1667.68 620.598 1669.21 619.064C1670.75 617.53 1671.61 615.449 1671.61 613.28C1671.61 611.11 1670.75 609.03 1669.21 607.495C1667.68 605.961 1665.6 605.1 1663.43 605.1Z" fill="#4B6079"/>
<path d="M1869.94 524.74H1715.12C1708.12 524.74 1702.45 530.413 1702.45 537.41V608.8C1702.45 615.798 1708.12 621.47 1715.12 621.47H1869.94C1876.94 621.47 1882.61 615.798 1882.61 608.8V537.41C1882.61 530.413 1876.94 524.74 1869.94 524.74Z" fill="#4B6079"/>
<path d="M1160.79 499.31V646.9C1160.78 649.146 1159.89 651.299 1158.3 652.887C1156.71 654.476 1154.56 655.372 1152.31 655.38H500.13C497.883 655.375 495.729 654.479 494.14 652.89C492.551 651.301 491.656 649.147 491.65 646.9V616.25C608.01 595.65 729.65 614.66 901.65 490.84H1152.36C1154.6 490.858 1156.74 491.758 1158.32 493.343C1159.89 494.929 1160.78 497.073 1160.79 499.31Z" fill="#EDEDED"/>
<path d="M3364 655.37H2811.69C2807.69 655.37 2804.45 651.56 2804.45 646.9V499.3C2804.45 494.65 2807.71 490.83 2811.69 490.83H3264.28C3279.49 503.583 3293.3 517.924 3305.46 533.61C3332.83 568.86 3351.92 610.31 3364 655.37Z" fill="#EDEDED"/>
<path d="M2967.88 524.74H2845.37C2841.2 524.74 2837.81 528.125 2837.81 532.3V533.54C2837.81 537.715 2841.2 541.1 2845.37 541.1H2967.88C2972.06 541.1 2975.44 537.715 2975.44 533.54V532.3C2975.44 528.125 2972.06 524.74 2967.88 524.74Z" fill="#4B6079"/>
<path d="M2967.88 564.92H2845.37C2841.2 564.92 2837.81 568.305 2837.81 572.48V573.72C2837.81 577.895 2841.2 581.28 2845.37 581.28H2967.88C2972.06 581.28 2975.44 577.895 2975.44 573.72V572.48C2975.44 568.305 2972.06 564.92 2967.88 564.92Z" fill="#4B6079"/>
<path d="M2967.88 605.1H2845.37C2841.2 605.1 2837.81 608.484 2837.81 612.66V613.9C2837.81 618.075 2841.2 621.46 2845.37 621.46H2967.88C2972.06 621.46 2975.44 618.075 2975.44 613.9V612.66C2975.44 608.484 2972.06 605.1 2967.88 605.1Z" fill="#4B6079"/>
<path d="M3153.56 524.74H3031.05C3026.88 524.74 3023.49 528.125 3023.49 532.3V533.54C3023.49 537.715 3026.88 541.1 3031.05 541.1H3153.56C3157.74 541.1 3161.12 537.715 3161.12 533.54V532.3C3161.12 528.125 3157.74 524.74 3153.56 524.74Z" fill="#4B6079"/>
<path d="M3153.56 564.92H3031.05C3026.88 564.92 3023.49 568.305 3023.49 572.48V573.72C3023.49 577.895 3026.88 581.28 3031.05 581.28H3153.56C3157.74 581.28 3161.12 577.895 3161.12 573.72V572.48C3161.12 568.305 3157.74 564.92 3153.56 564.92Z" fill="#4B6079"/>
<path d="M3153.56 605.1H3031.05C3026.88 605.1 3023.49 608.484 3023.49 612.66V613.9C3023.49 618.075 3026.88 621.46 3031.05 621.46H3153.56C3157.74 621.46 3161.12 618.075 3161.12 613.9V612.66C3161.12 608.484 3157.74 605.1 3153.56 605.1Z" fill="#4B6079"/>
<path d="M3249.6 524.74H3206.71C3202.77 524.74 3199.58 527.932 3199.58 531.87V614.34C3199.58 618.278 3202.77 621.47 3206.71 621.47H3249.6C3253.54 621.47 3256.73 618.278 3256.73 614.34V531.87C3256.73 527.932 3253.54 524.74 3249.6 524.74Z" fill="#4B6079"/>
<path d="M2226.13 913.38H2283.48L2292.65 950.38H2235.96L2226.13 913.38Z" fill="#263238"/>
<path d="M2241.56 925.35H2266.79L2276.46 961.18H2249.92L2241.56 925.35Z" fill="#263238"/>
<path d="M2266.79 925.35H2268.5L2279.13 961.18H2276.24L2266.79 925.35Z" fill="#8FB0E2"/>
<path d="M2283.48 913.38H2284.47L2293.76 950.38H2292.65L2283.48 913.38Z" fill="#8FB0E2"/>
<path d="M2817.97 890.22H2903.11L2916.73 945.15H2832.56L2817.97 890.22Z" fill="#263238"/>
<path d="M2840.87 907.99H2878.33L2892.69 961.18H2853.28L2840.87 907.99Z" fill="#263238"/>
<path d="M2878.33 907.99H2880.87L2896.65 961.18H2892.36L2878.33 907.99Z" fill="#8FB0E2"/>
<path d="M2903.11 890.22H2904.59L2918.37 945.15H2916.73L2903.11 890.22Z" fill="#8FB0E2"/>
<path d="M2154.49 1233.45C2154.92 1238.79 2162.49 1238.32 2171.06 1237.26C2179.63 1236.2 2177.29 1238.86 2189.26 1238.94C2201.23 1239.02 2205.33 1235.03 2205.9 1233.31C2206.41 1231.79 2200.63 1230.55 2194.45 1229.1L2192.11 1228.54C2185.11 1226.87 2178.9 1222.85 2174.51 1217.15C2169.32 1210.49 2164.57 1180.15 2164.57 1180.15L2145.86 1183.64C2145.86 1183.64 2156.75 1209.64 2157.86 1218.13C2158.36 1221.95 2155.64 1224.5 2155 1227.85C2154.58 1229.69 2154.4 1231.57 2154.49 1233.45Z" fill="#B77446"/>
<path d="M2171 1237.73C2174.4 1236.9 2177.29 1238.86 2189.26 1238.94C2201.23 1239.02 2205.33 1235.03 2205.9 1233.31C2206.41 1231.79 2200.63 1230.55 2194.45 1229.1L2194.38 1229.21C2188.93 1231.87 2182.87 1233 2176.83 1232.49C2168.83 1231.74 2160.56 1228.49 2155.01 1227.89C2154.59 1229.71 2154.41 1231.58 2154.49 1233.45C2154.92 1238.79 2160.86 1240.22 2171 1237.73Z" fill="#365DA4"/>
<path d="M2171.22 1202C2171.22 1202 2166.32 1205.24 2161.71 1206.08C2154.8 1207.34 2151.59 1205.94 2151.59 1205.94C2151.59 1205.94 2118.34 1122.47 2120.24 1094.26C2120.29 1093.58 2120.31 1092.86 2120.32 1092.1C2120.21 1085.75 2119.59 1079.43 2118.46 1073.18C2118.01 1070.43 2117.46 1067.54 2116.92 1064.56C2115.59 1057.56 2113.92 1050.1 2112.12 1042.45C2111.33 1039.09 2110.49 1035.69 2109.65 1032.3C2101.29 998.92 2091.08 966.03 2091.08 966.03C2091.08 966.03 2151.08 946.44 2154.46 964.75C2155.76 971.75 2160.1 999.91 2158.15 1042.91C2156.63 1073.93 2157.44 1105.01 2160.58 1135.91C2162.68 1158.15 2166.23 1180.23 2171.22 1202Z" fill="#365DA4"/>
<path d="M2120.32 1092.11C2120.21 1085.76 2119.59 1079.44 2118.46 1073.19C2118.01 1070.44 2117.46 1067.55 2116.92 1064.57C2115.59 1057.57 2113.92 1050.11 2112.12 1042.46C2111.33 1039.1 2110.49 1035.7 2109.65 1032.31C2110.83 1022.12 2111.79 1015.13 2111.79 1015.13C2111.79 1015.13 2136.7 1049 2120.32 1092.11Z" fill="#285493"/>
<path d="M2078.8 1233.45C2079.24 1238.79 2086.8 1238.79 2095.32 1237.73C2103.84 1236.67 2101.6 1238.86 2113.58 1238.94C2125.56 1239.02 2129.65 1235.03 2130.21 1233.31C2130.72 1231.79 2124.94 1230.55 2118.76 1229.1L2116.43 1228.54C2109.43 1226.82 2104.81 1221.65 2098.83 1217.15C2093.16 1212.88 2097.12 1192.15 2097.12 1192.15L2079.53 1185.86C2079.53 1185.86 2082.18 1206.67 2082.18 1218.12C2082.18 1221.98 2079.97 1224.49 2079.33 1227.84C2078.9 1229.68 2078.73 1231.57 2078.8 1233.45Z" fill="#B77446"/>
<path d="M2095.32 1237.73C2097.32 1237.27 2101.6 1238.86 2113.58 1238.94C2125.56 1239.02 2129.65 1235.03 2130.21 1233.31C2130.72 1231.79 2124.94 1230.55 2118.76 1229.1L2118.69 1229.21C2113.25 1231.87 2107.19 1233 2101.15 1232.49C2093.1 1231.74 2084.88 1228.49 2079.33 1227.89C2078.91 1229.71 2078.73 1231.58 2078.8 1233.45C2079.24 1238.79 2084.34 1240.28 2095.32 1237.73Z" fill="#365DA4"/>
<path d="M2127.21 959.51C2127.21 959.51 2107.7 1056.79 2104.4 1109.73C2101.1 1162.67 2096.98 1206.51 2096.98 1206.51C2094.03 1207.48 2090.94 1207.9 2087.84 1207.77C2084.68 1207.58 2081.57 1206.94 2078.59 1205.88C2078.59 1205.88 2059.24 1126.22 2065.65 1094.34C2072.06 1062.46 2066.72 1033.04 2063.65 1006.59C2059.24 968.67 2076.21 951.05 2088.06 939.03C2099.91 927.01 2127.21 959.51 2127.21 959.51Z" fill="#365DA4"/>
<path d="M2141.05 781.34C2142.99 765.5 2138.05 740.16 2106.43 744.21C2074.81 748.26 2064.86 779.32 2071.23 793.13C2077.6 806.94 2062.06 810.28 2057.17 825.13C2052.98 837.89 2051.52 853.74 2044.73 860.85C2022.85 883.77 2065.73 919.03 2091.6 911.59C2138.69 898.05 2144.76 896.03 2143.09 859.03C2142.23 840.03 2127.48 832.72 2136.85 827.23C2159.47 814 2136.66 817.18 2141.05 781.34Z" fill="#163560"/>
<path d="M2134.1 822.3C2130.6 821.496 2127.05 820.908 2123.48 820.54C2120.37 811.19 2122.05 801.41 2122.05 801.41L2098.54 794.25C2097.4 819.25 2095.16 822.38 2094.69 822.76C2089.38 824.026 2084.17 825.698 2079.11 827.76C2079.11 827.76 2094.11 913.67 2087.68 930.06C2083.76 940.078 2080.78 950.439 2078.78 961.01L2148.78 961.88C2148.78 961.88 2147.78 905.6 2151.02 885.69C2154.26 865.78 2134.1 822.3 2134.1 822.3Z" fill="#A86337"/>
<path d="M2128.19 803C2128.19 803 2100.04 808.65 2096.79 791.06C2093.54 773.47 2087.71 762.36 2105.55 758.01C2123.39 753.66 2128.13 759.72 2130.65 765.32C2133.17 770.92 2135.43 801.08 2128.19 803Z" fill="#B77446"/>
<path d="M2250.31 880.11C2250.1 877.66 2249.31 877.11 2249.31 877.11C2226.94 880.4 2212.11 880.21 2204.85 881.63C2199.14 882.73 2196.85 882.89 2195.85 881.51C2164.95 838.06 2143.08 824.41 2143.08 824.41C2143.08 824.41 2140.74 823.02 2131.62 821.76C2131.62 821.76 2130.31 838.29 2121.82 839.69C2107.13 842.11 2095.29 828.69 2091.82 823.24C2091.82 823.24 2074.95 827.5 2070 833.14C2066.44 837.2 2066.91 846.9 2068 853C2068.23 854.501 2068.6 855.98 2069.08 857.42C2070.08 860.18 2074.08 880.42 2075.87 888.51C2075.87 888.71 2075.96 888.9 2075.99 889.08C2076.12 889.62 2076.23 890.08 2076.33 890.48C2076.43 890.91 2076.52 891.24 2076.59 891.48C2076.66 891.72 2076.67 891.74 2076.72 891.87C2079.67 900.591 2080.79 909.827 2080 919C2079.84 920.464 2079.57 921.915 2079.2 923.34C2076.85 935.34 2067.08 959.14 2065.05 970.05C2066.22 972.51 2068.87 974.46 2072.05 976.05C2076.38 977.967 2080.9 979.415 2085.53 980.37C2090.06 981.348 2094.65 982.079 2099.26 982.56C2102.26 982.9 2105.46 983.18 2108.73 983.37L2110.11 983.45C2131.19 984.45 2154.79 983.97 2157.87 973.95C2159.34 969.14 2153.46 940.23 2152.68 931.64C2151.31 916.55 2153.54 895.89 2154.55 879.88C2171.85 898.95 2189.71 905.81 2189.71 905.81C2194.54 905.497 2199.34 904.774 2204.05 903.65C2209.58 902.42 2215.37 900.78 2220.91 899.02C2231.27 895.649 2241.42 891.672 2251.31 887.11C2250.75 884.814 2250.42 882.47 2250.31 880.11Z" fill="#80BDCC"/>
<path d="M2114.43 753.62C2114.43 753.62 2114.93 759.62 2105.67 769.71C2096.41 779.8 2098.62 797.88 2098.62 797.88C2098.62 797.88 2083.01 768.55 2091.34 759.18C2099.67 749.81 2114.43 753.62 2114.43 753.62Z" fill="#163560"/>
<path d="M2103.11 745.86C2103.11 745.86 2117.11 741.18 2131 754.86C2137 760.75 2136.08 772.34 2132.88 779.07C2132.88 779.07 2127.95 764.66 2119 761.51C2110.05 758.36 2103.11 745.86 2103.11 745.86Z" fill="#163560"/>
<path d="M2119.42 794.35C2119.42 794.35 2120.18 796.44 2125.48 795.49C2125.48 795.49 2129.93 794.7 2129.48 792.36C2129.52 792.36 2125 791.18 2119.42 794.35Z" fill="white"/>
<path d="M2125.08 951.13C2121.08 964.68 2118.76 975.82 2108.73 983.36C2105.46 983.17 2102.26 982.89 2099.26 982.55C2094.65 982.07 2090.06 981.339 2085.53 980.36C2080.9 979.406 2076.38 977.958 2072.05 976.04C2068.83 974.49 2066.18 972.54 2065.05 970.04C2067.05 959.13 2076.85 935.38 2079.2 923.33C2079.42 922.287 2079.57 921.232 2079.66 920.17C2080.42 910.639 2079.43 901.048 2076.75 891.87L2076.36 890.5C2076.27 890.21 2076.16 889.72 2076.02 889.1C2076.02 888.92 2075.94 888.73 2075.9 888.53C2074.29 880.88 2070.08 856.91 2069.01 853.78C2068.54 852.217 2068.19 850.618 2067.96 849L2076.38 840.9C2076.38 840.9 2124.72 861.53 2135.38 890.01C2146.04 918.49 2130.81 931.7 2125.08 951.13Z" fill="#5F9AA8"/>
<path d="M2220.91 899C2210.21 902.39 2198.57 905.36 2189.71 905.79C2189.71 905.79 2171.61 898.84 2154.21 879.49C2153.47 876.2 2152.77 870.68 2156.75 872.27C2162.34 874.51 2183 901.04 2190.82 901.6C2196.42 902 2212.33 900.12 2220.91 899Z" fill="#5F9AA8"/>
<path d="M2182.74 891.45C2182.74 891.45 2158.92 903.45 2138.26 908.37C2132.83 909.743 2127.29 910.623 2121.7 911C2121.7 911 2099.49 904.17 2082.53 880.42C2049.79 834.55 2075.07 829.6 2075.07 829.6C2075.07 829.6 2096.95 843.25 2127.84 886.71C2128.92 888.23 2131.64 887.88 2138.67 886.46C2146.18 884.95 2161.12 885.13 2181.75 882.1C2182.08 883.139 2182.27 884.219 2182.3 885.31C2182.77 890.74 2182.74 891.45 2182.74 891.45Z" fill="#80BDCC"/>
<path d="M2274.78 873.34C2272.11 870.83 2259.53 872.4 2254.78 874.76C2253.02 875.62 2251.19 876.342 2249.31 876.92C2227.31 880.11 2212.02 880.22 2204.83 881.62C2202.54 888.739 2202.26 896.351 2204.01 903.62C2209.54 902.39 2215.33 900.75 2220.87 898.99C2231.19 895.624 2241.31 891.664 2251.18 887.13C2254.25 886.681 2257.34 886.427 2260.44 886.37C2272 886.07 2277.45 875.86 2274.78 873.34Z" fill="#A86337"/>
<path d="M2211.62 876.74C2208.76 874.06 2195.34 875.74 2190.31 878.25C2187.6 879.553 2184.77 880.581 2181.86 881.32C2161.23 884.32 2146.19 885.01 2138.68 886.52C2140.32 889.946 2141.14 893.709 2141.07 897.509C2141 901.308 2140.04 905.038 2138.27 908.4C2158.04 903.66 2181.21 893.07 2183.15 892.18C2187.49 891.214 2191.92 890.718 2196.36 890.7C2208.6 890.34 2214.47 879.43 2211.62 876.74Z" fill="#B77446"/>
<path opacity="0.6" d="M3383.14 785.37C3383.14 788.137 3383.14 790.923 3383.14 793.73C3382.72 841.99 3375.85 891.27 3363.88 939.17H3170C3164.15 939.17 3159.37 933.47 3159.37 926.5V743.92C3159.37 736.92 3164.15 731.25 3170 731.25H3379.89C3381.81 747.851 3382.89 764.539 3383.12 781.25C3383.12 782.63 3383.13 784 3383.14 785.37Z" fill="#EDEDED"/>
<path d="M3346.76 790.17H3252.28L3252.92 777.43H3251.2C3250.7 771.67 3240.2 773.43 3239.98 777.43H3237.98L3238.8 790.17H3229.49L3230.13 777.43H3228.41C3227.91 771.67 3217.41 773.43 3217.19 777.43H3215.19L3216.01 790.17H3206.7L3207.34 777.43H3205.62C3205.12 771.67 3194.62 773.43 3194.4 777.43H3192.4L3193.22 790.17H3187.63C3186.69 790.172 3185.8 790.544 3185.14 791.206C3184.48 791.868 3184.11 792.765 3184.11 793.7V795.24C3184.11 796.174 3184.48 797.07 3185.14 797.732C3185.8 798.394 3186.69 798.767 3187.63 798.77H3346.88C3347.81 798.767 3348.71 798.394 3349.37 797.733C3350.03 797.071 3350.41 796.175 3350.41 795.24V793.7C3350.41 793.226 3350.31 792.758 3350.13 792.322C3349.94 791.886 3349.67 791.492 3349.33 791.163C3348.99 790.834 3348.59 790.577 3348.15 790.406C3347.7 790.235 3347.23 790.155 3346.76 790.17Z" fill="#4B6079"/>
<path d="M3346.76 863.36H3187.52C3185.57 863.36 3183.99 864.941 3183.99 866.89V868.43C3183.99 870.38 3185.57 871.96 3187.52 871.96H3346.76C3348.71 871.96 3350.29 870.38 3350.29 868.43V866.89C3350.29 864.941 3348.71 863.36 3346.76 863.36Z" fill="#4B6079"/>
<path d="M3245.58 842.39C3244.63 835.57 3238.47 836.55 3233.02 831.97C3227.57 827.39 3217.39 835.84 3209.33 838.66C3204.02 840.51 3201.6 846.66 3200.56 850.66H3192.28L3195.59 863.4H3250.32L3252.92 850.66H3245.92C3246.07 847.898 3245.96 845.129 3245.58 842.39Z" fill="#4B6079"/>
<path d="M3320.44 842.39C3319.44 835.57 3313.33 836.55 3307.88 831.97C3302.43 827.39 3292.25 835.84 3284.19 838.66C3278.88 840.51 3276.45 846.66 3275.42 850.66H3267.14L3270.45 863.4H3325.18L3327.78 850.66H3320.78C3320.93 847.898 3320.82 845.129 3320.44 842.39Z" fill="#4B6079"/>
<path d="M3325.18 790.11L3327.78 777.37H3320.78C3320.92 774.622 3320.8 771.866 3320.42 769.14C3319.42 762.32 3313.31 763.3 3307.86 758.72C3302.41 754.14 3292.23 762.6 3284.17 765.41C3278.86 767.27 3276.43 773.41 3275.4 777.41H3267.12L3270.43 790.151L3325.18 790.11Z" fill="#4B6079"/>
<path d="M3346.76 915.89H3252.28L3252.92 903.15H3251.2C3250.7 897.39 3240.2 899.15 3239.98 903.15H3237.98L3238.8 915.89H3229.49L3230.13 903.15H3228.41C3227.91 897.39 3217.41 899.15 3217.19 903.15H3215.19L3216.01 915.89H3206.7L3207.34 903.15H3205.62C3205.12 897.39 3194.62 899.15 3194.4 903.15H3192.4L3193.22 915.89H3187.63C3186.69 915.893 3185.8 916.266 3185.14 916.928C3184.48 917.589 3184.11 918.486 3184.11 919.42V921C3184.11 921.935 3184.48 922.831 3185.14 923.493C3185.8 924.154 3186.69 924.528 3187.63 924.53H3346.88C3347.81 924.528 3348.71 924.155 3349.37 923.493C3350.03 922.832 3350.41 921.936 3350.41 921V919.46C3350.41 918.983 3350.32 918.511 3350.14 918.07C3349.96 917.63 3349.69 917.231 3349.34 916.898C3349 916.564 3348.6 916.303 3348.15 916.13C3347.71 915.957 3347.24 915.875 3346.76 915.89Z" fill="#4B6079"/>
<path d="M3320.44 894.86C3319.44 888.04 3313.33 889.02 3307.88 884.45C3302.43 879.88 3292.25 888.32 3284.19 891.13C3278.88 892.99 3276.45 899.13 3275.42 903.13H3267.14L3270.45 915.86H3325.18L3327.78 903.13H3320.78C3320.93 900.369 3320.82 897.6 3320.44 894.86Z" fill="#4B6079"/>
<path d="M494.43 1041.47H494.37C493.447 1041.51 492.546 1041.18 491.864 1040.56C491.182 1039.94 490.774 1039.07 490.73 1038.15C492.81 909.36 443 810.34 442.5 809.36C441.66 807.71 441.82 804.03 447.19 803.56C451.88 803.15 454.79 804.17 455.63 805.82C455.76 806.07 466.87 829.63 479.21 870.59C490.58 908.36 499.21 970.19 498.12 1038.24C498.048 1039.15 497.622 1040 496.933 1040.61C496.243 1041.21 495.345 1041.52 494.43 1041.47Z" fill="#263238"/>
<path d="M605.489 1041.47C604.567 1041.51 603.666 1041.18 602.984 1040.56C602.301 1039.94 601.893 1039.07 601.849 1038.15C603.919 909.36 554.119 810.34 553.609 809.36C552.769 807.71 552.929 804.03 558.299 803.56C562.989 803.15 565.899 804.17 566.739 805.82C566.869 806.07 577.979 829.63 590.319 870.59C601.699 908.36 610.319 970.19 609.229 1038.24C609.16 1039.16 608.728 1040.02 608.027 1040.63C607.326 1041.23 606.413 1041.54 605.489 1041.47Z" fill="#263238"/>
<path d="M461.54 848.9C460.714 848.932 459.901 848.68 459.239 848.185C458.576 847.69 458.103 846.982 457.9 846.18C457.839 845.733 457.869 845.279 457.988 844.844C458.107 844.409 458.313 844.003 458.593 843.649C458.873 843.296 459.222 843.003 459.619 842.789C460.015 842.574 460.451 842.442 460.9 842.4C464.1 841.91 539.64 830.64 573.45 840.05C573.889 840.141 574.303 840.323 574.667 840.584C575.031 840.846 575.337 841.18 575.564 841.566C575.791 841.952 575.934 842.382 575.985 842.827C576.036 843.272 575.994 843.723 575.86 844.15C575.493 845.019 574.815 845.72 573.959 846.116C573.103 846.511 572.13 846.574 571.23 846.29C539.12 837.36 462.91 848.74 462.15 848.86C461.948 848.887 461.744 848.901 461.54 848.9Z" fill="#263238"/>
<path d="M470.18 870.59C469.353 870.624 468.54 870.372 467.877 869.877C467.214 869.381 466.742 868.673 466.54 867.87C466.477 867.423 466.506 866.968 466.625 866.533C466.743 866.097 466.949 865.69 467.229 865.337C467.51 864.983 467.86 864.69 468.257 864.476C468.654 864.262 469.091 864.13 469.54 864.09C472.74 863.6 548.27 852.32 582.08 861.74C582.519 861.832 582.934 862.014 583.298 862.275C583.662 862.536 583.968 862.87 584.196 863.256C584.424 863.641 584.568 864.071 584.621 864.516C584.673 864.961 584.632 865.412 584.5 865.84C584.133 866.709 583.455 867.41 582.599 867.805C581.743 868.201 580.77 868.263 579.87 867.98C547.74 859.04 471.55 870.43 470.78 870.54C470.582 870.575 470.381 870.592 470.18 870.59Z" fill="#263238"/>
<path d="M489.999 1041.47H717.599C717.599 1041.47 712.299 1019.47 580.479 1022.76C487.199 1025.08 489.999 1041.47 489.999 1041.47Z" fill="#263238"/>
<path d="M471.471 1239C497.861 1121.53 491.071 1049.45 491.041 1048.54C490.971 1046.73 494.761 1045.09 496.801 1045.03C498.841 1044.97 507.971 1044.5 509.031 1046.03C510.411 1048.03 515.721 1136.86 476.391 1239.03L471.471 1239Z" fill="#263238"/>
<path d="M664.691 1239C638.301 1121.53 645.091 1049.45 645.121 1048.54C645.181 1046.73 641.391 1045.09 639.361 1045.03C637.331 1044.97 628.181 1044.5 627.131 1046.03C625.751 1048.03 620.431 1136.86 659.761 1239.03L664.691 1239Z" fill="#263238"/>
<path d="M726.101 1239C699.711 1121.53 706.491 1049.45 706.531 1048.54C706.591 1046.73 702.801 1045.09 700.761 1045.03C698.721 1044.97 689.591 1044.5 688.541 1046.03C687.161 1048.03 681.841 1136.86 721.171 1239.03L726.101 1239Z" fill="#263238"/>
<path d="M538.289 1239C564.679 1121.53 557.889 1049.45 557.859 1048.54C557.789 1046.73 561.579 1045.09 563.619 1045.03C565.659 1044.97 574.789 1044.5 575.849 1046.03C577.229 1048.03 582.539 1136.86 543.209 1239.03L538.289 1239Z" fill="#263238"/>
<path d="M718.89 1048.49H489C488.07 1048.49 487.179 1048.12 486.521 1047.46C485.864 1046.8 485.493 1045.91 485.49 1044.98C485.493 1044.05 485.864 1043.16 486.521 1042.5C487.179 1041.84 488.07 1041.47 489 1041.47H718.89C719.82 1041.47 720.712 1041.84 721.369 1042.5C722.027 1043.16 722.398 1044.05 722.4 1044.98C722.398 1045.91 722.027 1046.8 721.369 1047.46C720.712 1048.12 719.82 1048.49 718.89 1048.49Z" fill="#404A4F"/>
<path d="M1488.19 1071.08C1487.41 1071.11 1486.65 1070.83 1486.07 1070.3C1485.49 1069.77 1485.14 1069.04 1485.09 1068.26C1486.86 958.78 1444.53 874.61 1444.09 873.77C1443.37 872.37 1443.51 869.24 1448.09 868.84C1452.09 868.5 1454.55 869.36 1455.27 870.77C1455.38 870.98 1464.82 891.01 1475.27 925.83C1484.94 957.93 1492.27 1010.49 1491.35 1068.34C1491.28 1069.12 1490.92 1069.84 1490.33 1070.35C1489.74 1070.86 1488.97 1071.12 1488.19 1071.08Z" fill="#263238"/>
<path d="M1582.6 1071.08C1581.82 1071.1 1581.06 1070.82 1580.48 1070.3C1579.91 1069.77 1579.56 1069.04 1579.51 1068.26C1581.27 958.78 1538.93 874.61 1538.51 873.77C1537.79 872.37 1537.93 869.24 1542.51 868.84C1546.51 868.5 1548.97 869.36 1549.69 870.77C1549.8 870.98 1559.24 891.01 1569.69 925.83C1579.36 957.93 1586.69 1010.49 1585.76 1068.34C1585.69 1069.12 1585.33 1069.84 1584.74 1070.35C1584.15 1070.86 1583.38 1071.12 1582.6 1071.08Z" fill="#263238"/>
<path d="M1460.23 907.39C1459.53 907.417 1458.84 907.202 1458.27 906.779C1457.71 906.357 1457.31 905.753 1457.14 905.07C1457.09 904.689 1457.12 904.301 1457.22 903.931C1457.32 903.56 1457.5 903.214 1457.74 902.914C1457.98 902.614 1458.28 902.366 1458.62 902.185C1458.96 902.003 1459.33 901.893 1459.71 901.86C1462.43 901.45 1526.63 891.86 1555.37 899.86C1555.74 899.937 1556.1 900.092 1556.41 900.314C1556.72 900.536 1556.98 900.821 1557.17 901.149C1557.37 901.478 1557.49 901.843 1557.53 902.222C1557.58 902.601 1557.54 902.985 1557.43 903.35C1557.12 904.09 1556.54 904.687 1555.81 905.023C1555.08 905.36 1554.26 905.412 1553.49 905.17C1526.2 897.58 1461.41 907.25 1460.76 907.35C1460.59 907.378 1460.41 907.392 1460.23 907.39Z" fill="#263238"/>
<path d="M1467.57 925.83C1466.87 925.858 1466.18 925.642 1465.61 925.22C1465.05 924.797 1464.65 924.193 1464.48 923.51C1464.43 923.13 1464.46 922.743 1464.56 922.373C1464.66 922.003 1464.84 921.658 1465.07 921.358C1465.31 921.058 1465.61 920.81 1465.95 920.628C1466.29 920.446 1466.66 920.334 1467.04 920.3C1469.77 919.89 1533.97 910.3 1562.71 918.3C1563.08 918.378 1563.44 918.533 1563.75 918.755C1564.06 918.977 1564.32 919.261 1564.51 919.59C1564.71 919.918 1564.83 920.284 1564.87 920.663C1564.92 921.042 1564.88 921.426 1564.77 921.79C1564.46 922.527 1563.88 923.121 1563.15 923.457C1562.42 923.793 1561.6 923.848 1560.83 923.61C1533.52 916.01 1468.75 925.69 1468.1 925.79C1467.93 925.813 1467.75 925.827 1467.57 925.83Z" fill="#263238"/>
<path d="M1484.42 1071.08H1677.9C1677.9 1071.08 1673.39 1052.39 1561.34 1055.18C1482 1057.15 1484.42 1071.08 1484.42 1071.08Z" fill="#263238"/>
<path d="M1468.67 1239C1491.1 1139.14 1485.33 1077.87 1485.3 1077.1C1485.3 1075.56 1488.47 1074.17 1490.2 1074.1C1491.93 1074.03 1499.7 1073.64 1500.6 1074.96C1501.77 1076.68 1506.29 1152.18 1472.85 1238.96L1468.67 1239Z" fill="#263238"/>
<path d="M1632.92 1239C1610.48 1139.14 1616.25 1077.87 1616.28 1077.1C1616.34 1075.56 1613.12 1074.17 1611.38 1074.1C1609.64 1074.03 1601.88 1073.64 1600.99 1074.96C1599.81 1076.68 1595.3 1152.18 1628.73 1238.96L1632.92 1239Z" fill="#263238"/>
<path d="M1685.12 1239C1662.69 1139.14 1668.45 1077.87 1668.48 1077.1C1668.54 1075.56 1665.32 1074.17 1663.58 1074.1C1661.84 1074.03 1654.08 1073.64 1653.19 1074.96C1652.01 1076.68 1647.5 1152.18 1680.93 1238.96L1685.12 1239Z" fill="#263238"/>
<path d="M1525.47 1239C1547.9 1139.14 1542.13 1077.87 1542.1 1077.1C1542.1 1075.56 1545.27 1074.17 1547 1074.1C1548.73 1074.03 1556.5 1073.64 1557.4 1074.96C1558.57 1076.68 1563.09 1152.18 1529.66 1238.96L1525.47 1239Z" fill="#263238"/>
<path d="M1679 1077.05H1483.55C1482.76 1077.05 1481.99 1076.73 1481.43 1076.17C1480.87 1075.61 1480.55 1074.85 1480.55 1074.05C1480.55 1073.25 1480.87 1072.49 1481.43 1071.93C1481.99 1071.37 1482.76 1071.05 1483.55 1071.05H1679C1679.8 1071.05 1680.56 1071.37 1681.12 1071.93C1681.68 1072.49 1682 1073.25 1682 1074.05C1682 1074.85 1681.68 1075.61 1681.12 1076.17C1680.56 1076.73 1679.8 1077.05 1679 1077.05Z" fill="#263238"/>
<path d="M1386.18 1042.37C1387.1 1042.41 1388.01 1042.08 1388.69 1041.46C1389.37 1040.84 1389.78 1039.97 1389.83 1039.05C1387.75 910.26 1437.55 811.24 1438.06 810.25C1438.9 808.6 1438.74 804.92 1433.37 804.46C1428.68 804.05 1425.77 805.07 1424.93 806.72C1424.8 806.97 1413.69 830.53 1401.35 871.49C1389.97 909.26 1381.35 971.09 1382.44 1039.14C1382.51 1040.06 1382.95 1040.92 1383.65 1041.52C1384.35 1042.13 1385.26 1042.43 1386.18 1042.37Z" fill="#263238"/>
<path d="M1275.12 1042.37H1275.17C1276.09 1042.41 1276.99 1042.08 1277.68 1041.46C1278.36 1040.84 1278.77 1039.97 1278.81 1039.05C1276.74 910.26 1326.54 811.24 1327.04 810.25C1327.88 808.6 1327.72 804.92 1322.36 804.46C1317.67 804.05 1314.76 805.07 1313.91 806.72C1313.79 806.97 1302.68 830.53 1290.34 871.49C1278.96 909.26 1270.34 971.09 1271.42 1039.14C1271.49 1040.05 1271.92 1040.9 1272.61 1041.51C1273.3 1042.11 1274.2 1042.42 1275.12 1042.37Z" fill="#263238"/>
<path d="M1419.07 849.8C1419.9 849.833 1420.71 849.581 1421.37 849.085C1422.03 848.59 1422.5 847.881 1422.7 847.08C1422.76 846.632 1422.74 846.177 1422.62 845.741C1422.5 845.305 1422.3 844.897 1422.01 844.543C1421.73 844.189 1421.38 843.897 1420.99 843.683C1420.59 843.469 1420.15 843.338 1419.7 843.3C1416.51 842.81 1340.97 831.54 1307.16 840.95C1306.72 841.041 1306.31 841.223 1305.94 841.484C1305.58 841.745 1305.27 842.079 1305.04 842.465C1304.82 842.851 1304.67 843.28 1304.62 843.725C1304.57 844.17 1304.61 844.621 1304.74 845.05C1305.11 845.919 1305.79 846.62 1306.65 847.016C1307.5 847.411 1308.48 847.473 1309.38 847.19C1341.49 838.26 1417.69 849.64 1418.46 849.75C1418.66 849.785 1418.87 849.802 1419.07 849.8Z" fill="#263238"/>
<path d="M1410.43 871.49C1411.26 871.524 1412.07 871.272 1412.73 870.777C1413.4 870.282 1413.87 869.573 1414.07 868.77C1414.13 868.323 1414.1 867.869 1413.98 867.434C1413.86 866.999 1413.66 866.593 1413.38 866.239C1413.1 865.886 1412.75 865.593 1412.35 865.379C1411.95 865.164 1411.52 865.032 1411.07 864.99C1407.87 864.5 1332.34 853.22 1298.53 862.63C1298.09 862.723 1297.68 862.906 1297.31 863.168C1296.95 863.43 1296.64 863.765 1296.41 864.152C1296.19 864.538 1296.04 864.968 1295.99 865.414C1295.94 865.859 1295.98 866.311 1296.11 866.74C1296.48 867.609 1297.15 868.31 1298.01 868.706C1298.87 869.101 1299.84 869.164 1300.74 868.88C1332.87 859.94 1409.06 871.33 1409.83 871.44C1410.03 871.475 1410.23 871.492 1410.43 871.49Z" fill="#263238"/>
<path d="M1390.62 1042.37H1163C1163 1042.37 1168.3 1020.37 1300.11 1023.66C1393.41 1026 1390.62 1042.37 1390.62 1042.37Z" fill="#263238"/>
<path d="M1409.14 1239.84C1382.75 1122.38 1389.54 1050.3 1389.57 1049.39C1389.64 1047.58 1385.85 1045.94 1383.81 1045.88C1381.77 1045.82 1372.63 1045.35 1371.58 1046.88C1370.2 1048.88 1364.88 1137.72 1404.22 1239.83L1409.14 1239.84Z" fill="#263238"/>
<path d="M1215.92 1239.84C1242.31 1122.38 1235.52 1050.3 1235.49 1049.39C1235.42 1047.58 1239.21 1045.94 1241.25 1045.88C1243.29 1045.82 1252.43 1045.35 1253.48 1046.88C1254.86 1048.88 1260.18 1137.72 1220.84 1239.83L1215.92 1239.84Z" fill="#263238"/>
<path d="M1154.51 1239.84C1180.9 1122.38 1174.11 1050.3 1174.08 1049.39C1174.01 1047.58 1177.81 1045.94 1179.85 1045.88C1181.89 1045.82 1191.02 1045.35 1192.07 1046.88C1193.45 1048.88 1198.77 1137.72 1159.44 1239.83L1154.51 1239.84Z" fill="#263238"/>
<path d="M1342.32 1239.84C1315.93 1122.38 1322.72 1050.3 1322.75 1049.39C1322.82 1047.58 1319.03 1045.94 1316.99 1045.88C1314.95 1045.82 1305.81 1045.35 1304.76 1046.88C1303.38 1048.88 1298.06 1137.72 1337.4 1239.83L1342.32 1239.84Z" fill="#263238"/>
<path d="M1161.72 1049.39H1391.63C1392.56 1049.39 1393.45 1049.02 1394.11 1048.36C1394.77 1047.7 1395.14 1046.81 1395.14 1045.88C1395.14 1044.95 1394.77 1044.06 1394.11 1043.4C1393.45 1042.74 1392.56 1042.37 1391.63 1042.37H1161.72C1160.79 1042.37 1159.9 1042.74 1159.24 1043.4C1158.58 1044.06 1158.21 1044.95 1158.21 1045.88C1158.21 1046.81 1158.58 1047.7 1159.24 1048.36C1159.9 1049.02 1160.79 1049.39 1161.72 1049.39Z" fill="#404A4F"/>
<path d="M776.18 878.53C776.18 878.53 789.49 870.25 795.26 871.53C801.03 872.81 816.85 877.31 817.35 883.83C817.85 890.35 794.76 900.65 777.69 894.88C760.62 889.11 776.18 878.53 776.18 878.53Z" fill="#E49963"/>
<path d="M705.64 1225.79C705.614 1227.1 705.968 1228.39 706.658 1229.5C707.348 1230.62 708.345 1231.51 709.53 1232.07C714.05 1234.57 721.28 1232.66 729.92 1232.28C731.03 1232.28 732.75 1234.37 733.63 1234.37H734.86C743.42 1234.58 742.51 1237.14 758.77 1238.53C777.3 1240.12 784.13 1234.44 785.23 1231.86C786.14 1229.67 778.23 1227.19 769.31 1224.35L768.01 1223.93C766.83 1223.56 765.64 1223.16 764.46 1222.78C753.88 1219.26 743.46 1215.09 740.86 1204.38C738.11 1193.03 746.39 1161.33 746.39 1161.33L717.02 1158.16C717.02 1158.16 714.19 1191.29 712.34 1201.62C711.34 1207.13 708.85 1211.51 707.34 1216.24C707.233 1216.57 707.133 1216.9 707.04 1217.24C706.193 1220.01 705.722 1222.89 705.64 1225.79Z" fill="#D38957"/>
<path d="M785.271 1231.88C784.681 1233.26 783.461 1237.3 775.681 1238.94H746.201L745.931 1238.82C738.511 1235.51 730.465 1233.84 722.341 1233.92C719.526 1233.97 716.711 1233.85 713.911 1233.57C712.573 1233.41 711.276 1233 710.081 1232.38C709.911 1232.28 709.751 1232.19 709.591 1232.08C709.442 1232 709.298 1231.92 709.161 1231.82C708.901 1231.66 708.651 1231.48 708.411 1231.29C708.284 1231.2 708.164 1231.11 708.051 1231.01C707.941 1230.91 707.821 1230.81 707.721 1230.7L707.481 1230.47C707.351 1230.33 707.221 1230.17 707.091 1230.01L706.881 1229.72C706.806 1229.62 706.739 1229.51 706.681 1229.4C706.625 1229.31 706.575 1229.22 706.531 1229.12C706.495 1229.06 706.464 1229 706.441 1228.93C706.441 1228.84 706.351 1228.74 706.311 1228.65C706.249 1228.51 706.195 1228.37 706.151 1228.23C706.108 1228.12 706.075 1228.01 706.051 1227.89C706.003 1227.74 705.967 1227.59 705.941 1227.43C705.91 1227.31 705.89 1227.18 705.881 1227.06C705.876 1226.97 705.876 1226.89 705.881 1226.8C705.881 1226.68 705.881 1226.55 705.881 1226.43C705.881 1226.31 705.881 1226.07 705.881 1225.89C705.881 1225.74 705.881 1225.58 705.881 1225.43C705.881 1225.28 705.881 1225.13 705.881 1224.97V1224.49C705.881 1224.33 705.881 1224.18 705.881 1224.01C705.881 1223.84 705.881 1223.55 705.961 1223.32V1223.19C705.961 1223.05 705.961 1222.9 706.031 1222.76C706.101 1222.62 706.101 1222.32 706.131 1222.11C706.201 1221.73 706.271 1221.36 706.351 1220.99C706.351 1220.84 706.421 1220.69 706.461 1220.53C706.541 1220.18 706.621 1219.83 706.711 1219.48L706.841 1218.96C706.931 1218.61 707.031 1218.26 707.121 1217.96C707.121 1217.79 707.211 1217.61 707.261 1217.44C707.351 1217.11 707.451 1216.77 707.561 1216.44C716.391 1218.44 728.671 1224.65 741.041 1226.97L741.601 1227.07C747.421 1228.07 753.367 1228.11 759.201 1227.19C762.708 1226.66 766.153 1225.78 769.481 1224.55C778.231 1227.21 786.181 1229.69 785.271 1231.88Z" fill="#2F5791"/>
<path d="M722.34 1238.94V1236.77V1235.1V1233.92V1233.04L721.8 1232.96L708.59 1230.88L709.08 1231.81L709.09 1231.82H709.1L709.42 1232.42L710.39 1234.24H710.4L712.91 1238.94H722.34Z" fill="#2F5791"/>
<path d="M553.891 943.32L649.001 934.26C649.001 934.26 794.511 934.92 808.071 954.12C808.071 954.12 834.071 972.12 804.681 1046.57C775.291 1121.02 740.821 1195.41 740.821 1195.41C733.996 1196.98 726.968 1197.47 719.991 1196.87C716.222 1196.46 712.486 1195.79 708.811 1194.87C708.811 1194.87 715.441 1083.79 730.131 1040.57C744.821 997.35 749.331 1005.75 723.351 1008.15C697.371 1010.55 613.781 1029.76 575.351 1024.96C536.921 1020.16 553.891 943.32 553.891 943.32Z" fill="#4B6079"/>
<path d="M687.31 1225.79C687.287 1227.1 687.643 1228.39 688.335 1229.5C689.027 1230.62 690.025 1231.51 691.21 1232.07C695.74 1234.57 702.96 1232.66 711.61 1232.28C712.72 1232.28 714.43 1234.37 715.32 1234.37H716.55C725.1 1234.58 724.2 1237.14 740.46 1238.53C758.99 1240.12 765.82 1234.44 766.91 1231.86C767.83 1229.67 759.91 1227.19 750.99 1224.35L749.7 1223.93C748.51 1223.56 747.32 1223.16 746.14 1222.78C735.56 1219.26 725.14 1215.09 722.55 1204.38C719.79 1193.03 728.08 1161.33 728.08 1161.33L698.71 1158.16C698.71 1158.16 695.87 1191.29 694.03 1201.62C693.03 1207.13 690.54 1211.51 689.03 1216.24C688.93 1216.57 688.83 1216.9 688.74 1217.24C687.882 1220.01 687.401 1222.89 687.31 1225.79Z" fill="#E49963"/>
<path d="M540.6 950.07L629.76 942.54C629.76 942.54 775.28 943.18 788.84 961.78C788.84 961.78 810.84 975.56 781.46 1047.65C752.08 1119.74 722.34 1199.08 722.34 1199.08C717.506 1199.64 712.63 1199.72 707.78 1199.33C697.78 1198.52 694.41 1195.26 694.41 1195.26C694.41 1195.26 696.49 1096.62 711.17 1054.76C725.85 1012.9 731.5 1017.16 705.52 1019.48C679.54 1021.8 606.52 1040.03 556.15 1030.39C518.13 1023.11 540.6 950.07 540.6 950.07Z" fill="#263238"/>
<path d="M704.01 1233.04V1238.94H694.59L690.77 1231.82L690.76 1231.81L690.27 1230.88L703.479 1232.96L704.01 1233.04Z" fill="#365DA4"/>
<path d="M782.68 895.74C782.545 896.559 782.303 897.355 781.96 898.11C778.2 906.39 699.88 916.94 690.09 911.67C685.71 909.31 679.35 869.82 673.66 826.87C666.66 773.78 660.59 715.4 660.59 715.4C660.59 715.4 693.1 725.66 696.87 743C700.64 760.34 701.39 867.26 711.18 872.53C720.97 877.8 762.39 873.28 776.69 875.53C776.69 875.52 784.18 887.37 782.68 895.74Z" fill="#778BBE"/>
<path d="M662.72 592.34C656.64 587.45 647.8 588.06 642.12 588.4C643.366 587.351 644.86 586.638 646.46 586.33C642.93 585.81 635.06 589.33 635.06 589.33C635.06 589.33 605.24 574 591.43 613.2C591.43 613.2 593.81 610.2 597.08 606.88C589.08 629.41 597.16 663.49 622.31 669.55C638.65 673.49 725.1 642.44 662.72 592.34Z" fill="#163560"/>
<path d="M662.92 724C663.09 724.08 647.16 732.35 635.18 729.07C623.91 726 616.54 711.38 616.7 711.35C621.47 710.35 622.85 703.84 622.7 675.66L624.85 676.08L661.13 683.27C661.13 683.27 660.31 694.69 660.28 705.44C660.31 714.49 660.86 723.06 662.92 724Z" fill="#E49963"/>
<path d="M661.18 683.29C661.18 683.29 660.36 694.71 660.33 705.46C640.03 704.89 629.33 686.37 624.9 676.1L661.18 683.29Z" fill="#D68D5D"/>
<path d="M621.16 672.16C621.16 672.16 610.52 655.34 608 641C606.18 630.74 611.41 592.7 649.63 598.18C657.329 599.245 664.69 602.027 671.17 606.32C679.47 611.92 691.45 624.03 678.06 657.22L674.58 668.43L621.16 672.16Z" fill="#163560"/>
<path d="M667.999 693.47C667.999 693.47 619.999 694.27 619.939 664.34C619.879 634.41 613.679 614.34 644.349 612.6C675.019 610.86 680.989 622.24 683.429 632.23C685.869 642.22 680.459 692.5 667.999 693.47Z" fill="#E49963"/>
<path d="M666.19 611.87C666.19 611.87 653 647 632.85 652.16C612.7 657.32 603.91 651.95 603.91 651.95C613.868 643.201 620.478 631.264 622.61 618.18C622.61 618.18 656.26 595.16 666.19 611.87Z" fill="#163560"/>
<path d="M679.711 759.72C678.871 756.31 686.061 753.72 687.821 756.78C691.121 762.47 691.821 769.64 693.101 775.36C696.861 791.68 693.101 814.02 693.101 814.02L679.711 759.72Z" fill="#5F709A"/>
<path d="M662.93 614.72C662.93 614.72 672.75 622.56 675.14 630.18C677.53 637.8 678.61 653.48 683.19 652.95C683.19 652.95 693.09 629.09 681.96 615.59C670.15 601.28 662.93 614.72 662.93 614.72Z" fill="#163560"/>
<path d="M657.289 675.34C657.289 675.34 658.179 679.14 667.639 678.55C667.639 678.55 675.579 678.06 675.329 673.88C675.329 673.88 667.629 670.91 657.289 675.34Z" fill="white"/>
<path d="M782.68 895.74C782.545 896.558 782.303 897.355 781.96 898.11C778.2 906.39 699.88 916.94 690.09 911.67C685.71 909.31 678.03 860.21 683.56 816.28C689.47 841.4 691.28 892.92 705.14 895.35C720.87 898.1 762.14 892.85 782.68 895.74Z" fill="#5F709A"/>
<path d="M695.999 816C676.529 909.84 692.819 924.25 682.709 933.48C682.709 933.48 673.709 937.38 673.709 937.48C663.169 946.62 662.909 935.54 629.769 949.9C613.989 956.75 593.769 965.82 576.079 971.18C570.04 973.095 563.847 974.487 557.569 975.34C546.929 976.59 538.979 974.73 536.389 967.54C528.859 946.64 565.009 891.14 555.969 853.27C555.889 852.95 555.819 852.61 555.749 852.27C555.094 848.551 554.943 844.76 555.299 841C556.989 819.87 570.299 789.16 584.159 762.94C599.429 734.01 615.269 710.55 616.699 711.39C656.959 735.29 660.589 715.39 660.589 715.39C660.589 715.39 702.669 784 695.999 816Z" fill="#778BBE"/>
<path d="M676.899 936.14C666.359 945.28 662.899 935.52 629.759 949.88C613.979 956.73 593.759 965.8 576.069 971.16C567.069 972.73 560.309 974.16 557.559 975.32C546.919 976.57 538.969 974.71 536.379 967.52C528.849 946.62 564.999 891.12 555.959 853.25C555.879 852.93 555.809 852.59 555.739 852.25C554.993 848.548 554.844 844.75 555.299 841C557.209 824.95 569.019 807.53 582.389 782.16C591.389 791.61 658.529 780.65 642.639 874.03C637.769 902.64 672.719 913.93 676.899 936.14Z" fill="#5F709A"/>
<path d="M790.73 894C792.845 896.414 795.646 898.124 798.758 898.904C801.871 899.684 805.147 899.495 808.15 898.364C811.153 897.233 813.739 895.212 815.563 892.572C817.388 889.933 818.363 886.799 818.36 883.59V877.44C818.358 876.772 818.315 876.104 818.23 875.44H786.91C786.935 879.347 787.168 883.249 787.61 887.13C788.025 889.656 789.101 892.026 790.73 894Z" fill="#263238"/>
<path d="M815.661 875.5H811.421C811.505 876.163 811.549 876.831 811.551 877.5V883.65C811.539 887.465 810.15 891.147 807.641 894.021C805.131 896.894 801.669 898.765 797.891 899.29C798.593 899.391 799.301 899.441 800.011 899.44C804.193 899.427 808.201 897.759 811.158 894.8C814.114 891.841 815.78 887.833 815.791 883.65V877.5C815.794 876.831 815.75 876.163 815.661 875.5Z" fill="#878B8D"/>
<path d="M796.13 899.97H809.02V898.04H796.13V899.97Z" fill="#263238"/>
<path d="M673.64 940.91C673.64 940.91 688.45 937.4 695.23 940.16C702.01 942.92 715.56 949.95 714.31 953.71C713.06 957.47 696.99 959.49 690.21 955.71C683.43 951.93 678.41 956.71 670.13 953.95C661.85 951.19 673.64 940.91 673.64 940.91Z" fill="#E49963"/>
<path d="M616.701 711.37C616.701 711.37 562.071 712.1 552.281 738.46C542.491 764.82 545.501 857.46 559.811 885.31C574.121 913.16 655.451 950.83 664.491 952.31C673.531 953.79 679.171 939.89 678.791 938.38C678.411 936.87 593.321 868 593.701 860.83C594.081 853.66 616.701 711.37 616.701 711.37Z" fill="#778BBE"/>
<path d="M1029.14 820.76C1029.14 820.76 1015.14 803.85 1012.14 801.85C1009.14 799.85 995.961 796.35 995.201 797.05C994.441 797.75 994.421 798.78 996.051 800.22C997.681 801.66 1003.91 805.3 1003.05 805.71C1002.19 806.12 983.361 796.71 980.651 799.91C977.941 803.11 982.181 816.06 989.431 822.29C996.681 828.52 1018.31 831.18 1019.67 832.05C1031.21 839.42 1029.14 820.76 1029.14 820.76Z" fill="#ED975D"/>
<path d="M1159.94 1226.32C1159.95 1227.6 1159.59 1228.86 1158.9 1229.94C1158.21 1231.02 1157.22 1231.87 1156.05 1232.4C1151.52 1234.82 1143.58 1235.06 1134.93 1234.7C1133.83 1234.7 1132.83 1234.62 1131.93 1234.62H1130.7C1122.15 1234.82 1123.05 1237.3 1106.79 1238.62C1088.26 1240.15 1081.43 1234.62 1080.34 1232.16C1079.42 1230.03 1087.34 1227.63 1096.26 1224.88L1097.55 1224.48L1101.11 1223.36C1111.69 1219.95 1122.11 1215.91 1124.7 1205.54C1127.46 1194.54 1119.18 1163.83 1119.18 1163.83L1148.55 1160.76C1148.55 1160.76 1151.38 1192.86 1153.22 1202.86C1154.22 1208.2 1156.72 1212.45 1158.22 1217.02C1158.32 1217.34 1158.42 1217.66 1158.51 1218.02C1159.37 1220.71 1159.85 1223.5 1159.94 1226.32Z" fill="#E49963"/>
<path d="M1159.94 1226.32C1159.95 1227.6 1159.59 1228.86 1158.9 1229.94C1158.21 1231.02 1157.22 1231.87 1156.05 1232.4C1151.23 1234.56 1143.41 1234.88 1134.95 1234.64C1133.84 1234.64 1132.85 1234.64 1131.95 1234.64H1130.72C1122.17 1234.84 1123.07 1237.32 1106.81 1238.64C1088.28 1240.17 1081.45 1234.64 1080.36 1232.18C1079.44 1230.05 1087.36 1227.65 1096.28 1224.9C1105.4 1228.1 1115.19 1228.91 1124.71 1227.25C1137.08 1224.99 1149.36 1219.03 1158.2 1217.04C1158.3 1217.36 1158.4 1217.68 1158.49 1218.04C1159.35 1220.72 1159.84 1223.51 1159.94 1226.32Z" fill="#F3BBAE"/>
<path d="M969.36 1190.94C967.73 1199.1 956.1 1197.74 943.11 1194.57C930.12 1191.4 933.21 1195.17 914.72 1193.12C896.23 1191.07 890.63 1184.18 890.07 1181.43C889.57 1178.99 898.7 1178.13 908.5 1177L912.21 1176.56C923.27 1175.17 931.37 1168.03 941.42 1162.17C950.94 1156.62 965.14 1133.99 965.14 1133.99L990.49 1135.99C990.49 1135.99 977.19 1156.2 972.04 1164.99C969.04 1170.16 969.18 1176.99 969.56 1182.27C969.879 1185.16 969.812 1188.07 969.36 1190.94Z" fill="#E49963"/>
<path d="M943.11 1194.57C930.11 1191.39 933.21 1195.17 914.72 1193.12C896.23 1191.07 890.63 1184.18 890.07 1181.43C889.57 1178.99 898.7 1178.13 908.5 1177L908.59 1177.19C916.513 1182.27 925.663 1185.12 935.07 1185.42C947.61 1185.72 960.89 1182.13 969.56 1182.27C969.879 1185.16 969.812 1188.07 969.36 1190.94C967.73 1199.1 956.1 1197.74 943.11 1194.57Z" fill="#F3BBAE"/>
<path d="M1066.52 1028.83L1121.16 1175.88C1126.69 1176.29 1132.25 1175.78 1137.61 1174.37C1145.01 1172.24 1153.5 1166.63 1153.5 1166.63C1153.5 1166.63 1139.94 1025.44 1115.09 996.07C1090.24 966.7 1066.52 1028.83 1066.52 1028.83Z" fill="#365DA4"/>
<path d="M1282.64 969.34C1282.64 969.34 1125.64 916.25 1090.64 927.54C1055.64 938.83 950.471 1148 950.471 1148C950.471 1148 952.841 1151.16 959.321 1153.59C965.321 1155.85 979.921 1155.7 979.921 1155.7C979.921 1155.7 1074.8 1074.37 1086.1 1050.7C1097.4 1027.03 1101.91 1004.38 1113.21 1006.64C1124.51 1008.9 1258.92 1061.99 1289.42 1030.36C1319.92 998.73 1311.94 957.64 1311.94 957.64L1282.64 969.34Z" fill="#466AA5"/>
<path d="M1186.7 722.36C1184.19 717.18 1181.38 707.99 1180.01 691.6C1180.22 693.22 1183.01 713.9 1191.01 725.6C1223.66 747.04 1286.25 818.6 1285.01 832.19C1285.01 832.19 1307.01 794.79 1307.43 794.57C1307.43 794.57 1348.1 742.86 1299.9 713.24C1275.41 698.18 1275.53 678.86 1276.55 662.08C1277.57 645.3 1269.87 573.08 1220.8 591.95C1220.8 591.95 1212.93 588.45 1209.4 588.95C1211 589.258 1212.5 589.966 1213.75 591.01C1208.06 590.67 1199.93 591.09 1193.14 594.95C1175.14 605.2 1159 696.91 1186.7 722.36Z" fill="#7B5248"/>
<path d="M1192.93 726.67C1192.77 726.74 1208.7 735.01 1220.68 731.73C1231.95 728.66 1239.31 714.05 1239.16 714.01C1234.38 713.07 1233.01 706.51 1233.11 678.32L1230.95 678.75L1194.67 685.93C1194.67 685.93 1195.5 697.35 1195.52 708.11C1195.55 717.14 1195 725.7 1192.93 726.67Z" fill="#E49963"/>
<path d="M1194.67 685.93C1194.67 685.93 1195.5 697.35 1195.52 708.11C1215.82 707.53 1226.52 689.01 1230.95 678.75L1194.67 685.93Z" fill="#D68D5D"/>
<path d="M1234.7 674.8C1234.7 674.8 1245.34 657.99 1247.89 643.61C1249.71 633.35 1244.49 595.31 1206.26 600.79C1198.56 601.856 1191.2 604.638 1184.72 608.93C1176.42 614.54 1164.45 626.64 1177.84 659.83L1181.32 671.05L1234.7 674.8Z" fill="#7B5248"/>
<path d="M1187.89 696.12C1187.89 696.12 1235.89 696.91 1235.96 666.99C1236.03 637.07 1242.21 616.99 1211.55 615.25C1180.89 613.51 1174.91 624.89 1172.47 634.87C1170.03 644.85 1175.4 695.14 1187.89 696.12Z" fill="#E49963"/>
<path d="M1189.67 614.51C1189.67 614.51 1202.82 649.62 1223 654.81C1243.18 660 1251.94 654.59 1251.94 654.59C1241.98 645.841 1235.38 633.903 1233.25 620.82C1233.25 620.82 1199.59 597.81 1189.67 614.51Z" fill="#7B5248"/>
<path d="M1192.93 617.36C1192.93 617.36 1183.11 625.2 1180.71 632.82C1178.31 640.44 1177.24 656.12 1172.71 655.59C1172.71 655.59 1162.8 631.73 1173.94 618.24C1185.7 603.92 1192.93 617.36 1192.93 617.36Z" fill="#7B5248"/>
<path d="M1299.89 855.89C1304.63 836.03 1288.51 797.48 1271.69 765.56C1256.43 736.64 1240.58 713.17 1239.16 714.01C1198.9 737.91 1195.26 718.01 1195.26 718.01C1195.26 718.01 1158.69 722.87 1148.34 740.7C1134.01 765.35 1118.42 839.31 1103.09 838.22C1096.09 837.71 1025.27 811.11 1025.27 811.11C1025.27 811.11 1013.48 822.16 1015.74 835.71C1015.74 835.71 1050.74 859.12 1080.24 874.05C1095.88 881.95 1110.01 887.48 1116.65 885.91C1130.11 882.74 1151.15 851.53 1162.51 833.15L1162.59 833.03C1177.09 915.13 1157.37 933.83 1167.35 942.49C1177.9 951.63 1192.96 938.14 1226.09 952.49C1247.83 961.92 1277.99 975.55 1298.29 977.92C1308.94 979.17 1316.88 977.32 1319.47 970.13C1327 949.27 1290.86 893.77 1299.89 855.89Z" fill="#699DEE"/>
<path d="M1198.57 678C1198.57 678 1197.67 681.8 1188.22 681.21C1188.22 681.21 1180.28 680.72 1180.52 676.55C1180.52 676.53 1188.22 673.55 1198.57 678Z" fill="white"/>
<path d="M1319.47 970.17C1316.88 977.36 1308.94 979.17 1298.29 977.96C1284.29 971.84 1223.53 948.32 1224.21 932.38C1225.21 908.79 1235.88 908.04 1228.35 878.92C1222.35 855.53 1278.4 812.05 1287.35 802.6C1304.18 834.52 1304.64 836.03 1299.9 855.89C1290.86 893.77 1327 949.27 1319.47 970.17Z" fill="#3B76CA"/>
<path d="M1162.51 833.18C1151.15 851.56 1130.11 882.77 1116.65 885.94C1110.01 887.51 1095.88 881.94 1080.24 874.08C1091.65 877.02 1102.74 876.94 1113.51 875.9C1125.18 874.77 1128.57 860.46 1147.02 839C1159 825.08 1161.92 828.59 1162.51 833.18Z" fill="#3B76CA"/>
<path d="M1201.58 876.61C1200.1 875.69 1197.22 876.05 1195.13 876.49V873.49C1195.13 872.821 1195.09 872.153 1195 871.49H1163.69C1163.6 872.153 1163.56 872.821 1163.56 873.49V879.63C1163.57 882.833 1164.55 885.958 1166.38 888.589C1168.2 891.22 1170.79 893.233 1173.79 894.359C1176.79 895.485 1180.06 895.671 1183.16 894.892C1186.27 894.113 1189.07 892.407 1191.18 890C1191.18 890 1198.63 888.16 1200.97 885.39C1203.31 882.62 1204.07 878.14 1201.58 876.61ZM1199.93 882.29C1199.14 884.29 1195.59 885.43 1193.83 885.86C1194.55 884.217 1194.98 882.461 1195.09 880.67C1196.18 879.18 1197.88 878.32 1199.14 878.55C1200.25 878.75 1200.93 879.71 1199.93 882.29Z" fill="#263238"/>
<path d="M1166.12 873.46V879.61C1166.13 883.794 1167.8 887.802 1170.76 890.761C1173.72 893.719 1177.73 895.387 1181.91 895.4C1182.62 895.4 1183.33 895.35 1184.03 895.25C1180.25 894.727 1176.79 892.856 1174.28 889.983C1171.77 887.109 1170.38 883.425 1170.37 879.61V873.46C1170.37 872.791 1170.41 872.124 1170.49 871.46H1166.25C1166.16 872.123 1166.12 872.791 1166.12 873.46Z" fill="#878B8D"/>
<path d="M1185.78 894.02H1172.89V895.95H1185.78V894.02Z" fill="#263238"/>
<path d="M1218.75 878.35C1218.75 878.35 1208.58 870.44 1198.98 872.35C1189.38 874.26 1184.67 880.82 1185.05 883.83C1185.43 886.84 1190.51 895.31 1197.85 896.07C1205.19 896.83 1226.09 891.55 1226.09 891.55L1218.75 878.35Z" fill="#E49963"/>
<path d="M1239.16 714C1239.16 714 1278.31 716.42 1291.86 735.32C1310.94 761.93 1344.07 870.56 1335.04 895.41C1335.04 895.41 1297.88 899.32 1271.33 899.32C1257.48 899.32 1215.93 894.91 1215.93 894.91C1215.93 894.91 1213.04 881.42 1217.05 874.91C1221.06 868.4 1286.34 857.84 1289.35 854.83C1292.36 851.82 1251.7 796.08 1251.7 787C1251.7 777.92 1239.16 714 1239.16 714Z" fill="#699DEE"/>
<path d="M1221 905.4H688.391C685.653 905.408 683.03 906.499 681.095 908.435C679.159 910.37 678.068 912.993 678.061 915.73V929.21C678.068 931.947 679.16 934.569 681.096 936.503C683.031 938.436 685.654 939.525 688.391 939.53H945.721V1200.47C900.451 1202.28 861.891 1217.82 846.171 1238.95H1062.48C1046.88 1217.74 1008.91 1202.3 963.631 1200.47V939.53H1221C1223.74 939.522 1226.36 938.433 1228.29 936.499C1230.22 934.565 1231.31 931.945 1231.32 929.21V915.73C1231.32 912.994 1230.23 910.371 1228.29 908.435C1226.36 906.499 1223.74 905.408 1221 905.4Z" fill="#2B478B"/>
<path d="M2002.07 947.38H1646.19C1644.09 947.385 1642.08 948.22 1640.6 949.702C1639.11 951.184 1638.28 953.193 1638.27 955.29V969.29C1638.28 971.387 1639.11 973.396 1640.6 974.878C1642.08 976.36 1644.09 977.195 1646.19 977.2H1816.3V1205.3C1776.79 1206.87 1743.63 1220.3 1729.89 1238.75L1918.37 1238.94C1904.73 1220.4 1871.54 1206.94 1831.96 1205.31V977.21H2002.07C2004.17 977.205 2006.18 976.37 2007.66 974.888C2009.14 973.406 2009.98 971.397 2009.99 969.3V955.3C2009.98 953.201 2009.15 951.19 2007.66 949.705C2006.18 948.221 2004.17 947.385 2002.07 947.38Z" fill="#2B478B"/>
<path d="M454.001 848.32C440.301 851.74 352.781 850.6 355.001 862C357.221 873.4 416.4 891.56 449.36 881.32C449.36 881.32 412.981 971.12 365.231 966.58C317.481 962.04 302.721 932.49 273.151 930.21C243.581 927.93 222.011 935.89 236.791 943.84C251.571 951.79 301.581 946.46 325.451 966.74C349.321 987.02 368.641 999.55 324.321 1008.64C297.321 1014.18 257.211 1014.24 226.411 1005.73C219.911 971.32 216.711 935.33 219.081 899.38C219.454 893.787 219.961 888.197 220.601 882.61C226.301 833.26 243.19 784.48 277.11 740.52C296.11 734.39 314.541 730.11 326.591 731.27C326.591 731.27 270.88 825.63 289.08 823.36C307.281 821.09 369.781 725.58 369.781 725.58C369.781 725.58 461.861 708.58 476.631 763.1C491.401 817.62 467.59 844.92 454.001 848.32Z" fill="#263238"/>
<path d="M434.339 780.21C317.389 827.56 253.489 867.79 219.119 899.35C219.492 893.757 219.999 888.167 220.639 882.58C297.059 825.53 427.549 782.43 434.339 780.21Z" fill="#525F66"/>
<path d="M243.729 1073.61C239.779 1061.17 236.119 1048.3 232.869 1035.11L233.689 1034.22C233.689 1034.22 272.949 1048.38 282.269 1059.91C282.269 1059.91 248.429 1068.3 243.729 1073.61Z" fill="#525F66"/>
<path d="M316.791 1114.08C304.791 1134.51 289.661 1135.38 284.651 1132.32C280.651 1129.85 263.501 1112.32 255.491 1107.54C252.977 1100.87 250.524 1094.03 248.131 1087.01C247.771 1086.01 247.411 1084.89 247.051 1083.81C246.211 1081.29 245.377 1078.75 244.551 1076.18C253.071 1079.83 296.651 1071.18 296.651 1071.18C296.651 1071.18 328.761 1093.66 316.791 1114.08Z" fill="#525F66"/>
<path d="M299.191 1106.43C282.516 1099.08 265.473 1092.59 248.131 1087C247.771 1086 247.411 1084.88 247.051 1083.8C264.867 1090.29 282.279 1097.85 299.191 1106.43Z" fill="#263238"/>
<path d="M1757.88 1194.27C1757.88 1194.27 1779.06 1215.43 1784.31 1220.61C1789.56 1225.79 1809.31 1223.52 1814.68 1238.81H1761C1761 1238.81 1747.7 1229.1 1727 1229.57C1727 1229.57 1723.06 1214.95 1727 1209.29C1730.94 1203.63 1732.39 1194.29 1732.39 1194.29L1757.88 1194.27Z" fill="#AD7263"/>
<path d="M1727 1229.57L1729.71 1238.81H1748.71V1231C1741.65 1229.01 1734.26 1228.52 1727 1229.57Z" fill="#AD7263"/>
<path d="M1725.26 1038C1725.26 1038 1724.26 1138.33 1732.4 1194.32H1757.88L1775.88 1088.6L1725.26 1038Z" fill="#233862"/>
<path d="M1833.33 1194.27H1807.83C1806.61 1193 1728.48 1112.02 1716.29 1061.14C1710.94 1060.73 1705.56 1060.64 1700.2 1060.87C1697.65 1060.99 1694.96 1061.19 1692.28 1061.52C1680.46 1063 1525.57 1068.67 1517.44 1060.52C1509.31 1052.37 1512.57 1005.6 1512.57 1005.6L1527.8 997.53L1543.89 989C1543.89 989 1722.53 991.81 1741.15 1005.85C1759.77 1019.89 1803.41 1113.36 1833.33 1194.27Z" fill="#365DA4"/>
<path d="M1833.33 1194.27C1833.33 1194.27 1854.51 1215.49 1859.76 1220.7C1865.01 1225.91 1884.76 1223.61 1890.13 1238.95H1836.44C1836.44 1238.95 1823.15 1229.21 1802.44 1229.68C1802.44 1229.68 1798.5 1215.02 1802.44 1209.34C1806.38 1203.66 1807.83 1194.27 1807.83 1194.27H1833.33Z" fill="#DFAFA3"/>
<path d="M1802.46 1229.57L1805.17 1238.81H1824.17V1231C1817.11 1229.01 1809.72 1228.52 1802.46 1229.57Z" fill="#DFAFA3"/>
<path d="M1700.2 1060.86C1697.65 1060.98 1694.96 1061.18 1692.28 1061.51C1680.46 1062.99 1525.57 1068.66 1517.44 1060.51C1509.31 1052.36 1512.57 1005.59 1512.57 1005.59L1527.8 997.52L1553.39 1008.37C1553.39 1008.37 1549.6 1056.69 1700.2 1060.86Z" fill="#2D427C"/>
<path d="M1702.16 929.11C1701.33 926.336 1699.7 923.87 1697.47 922.024C1695.25 920.178 1692.52 919.035 1689.64 918.74C1689.64 918.74 1680.82 918.1 1674.47 919.96C1668.12 921.82 1657.56 918.14 1657.56 918.14C1657.56 918.14 1618.84 904.68 1609.79 899.04C1590.37 886.96 1555.26 808.61 1543.3 818.17C1543.3 818.17 1527.85 832.75 1536.3 857.83C1544.75 882.91 1578.3 917.43 1598.69 923C1613.69 927.12 1653.03 929.31 1658.24 929.59C1664.73 930.42 1673.54 934.18 1675.89 934.36C1678.5 934.57 1684.31 930.7 1688.33 931.27C1703 933.34 1702.16 929.11 1702.16 929.11Z" fill="#EA8E50"/>
<path d="M1550.23 819.08C1534.23 819.31 1516.41 817.64 1501.23 815.63C1504.03 810.94 1507.37 797.45 1508.31 778.83V778.76L1513.97 779.06L1540.71 780.49C1540.71 780.49 1540.71 780.88 1540.63 781.56C1540.38 785.17 1539.63 796.97 1539.71 803.62C1539.77 806.18 1541.1 811.7 1541.5 811.96C1544.4 814.47 1547.33 816.8 1550.23 819.08Z" fill="#FFB07B"/>
<path d="M1502.71 706.11C1502.31 704.58 1497.41 688.11 1471.78 692.9C1471.78 692.9 1484.62 691.62 1488 696.64C1488 696.64 1478 691.74 1471.52 695.46C1465.04 699.18 1463.69 712.24 1464.52 716.25C1465.35 720.26 1472.08 732.25 1476.72 732.41C1478.56 732.377 1480.38 731.976 1482.06 731.23C1481.24 733.474 1480.55 735.764 1479.99 738.09C1474.46 761.18 1489.44 779.22 1497.54 775.09C1502.73 772.42 1506.37 781.48 1506.37 781.48L1550.32 726.26C1550.32 726.26 1521.64 689.9 1502.71 706.11Z" fill="#2C3A64"/>
<path d="M1539.69 803.62C1523.48 801.7 1513.13 787.46 1508.29 778.82L1508.11 778.51L1513.94 779.06L1540.61 781.56C1540.35 785.16 1539.56 797 1539.69 803.62Z" fill="#EA8E50"/>
<path d="M1542 791.18C1542 791.18 1504.07 790.83 1504.65 767.18C1505.23 743.53 1500.73 727.61 1524.97 726.84C1549.21 726.07 1553.69 735.19 1555.42 743.12C1557.15 751.05 1551.87 790.66 1542 791.18Z" fill="#FFB07B"/>
<path d="M1554.62 730.001C1548.94 722.751 1544.47 724.191 1541.94 726.261C1521.51 714.341 1507.72 730.841 1507.72 730.841C1505.78 741.123 1500.32 750.41 1492.28 757.11C1492.28 757.11 1499.08 761.55 1515.11 757.87C1520.01 756.74 1524.45 753.4 1528.25 749.3C1523.86 756.053 1518.58 762.176 1512.54 767.5C1531.8 759.19 1540.12 732.921 1540.96 730.141C1543.22 732.281 1547.66 736.921 1548.96 741.381C1550.7 747.441 1551.23 759.841 1554.85 759.511C1554.83 759.501 1563.13 740.871 1554.62 730.001Z" fill="#2C3A64"/>
<path d="M1579.34 862.86C1579.34 862.86 1603.72 894.37 1609.27 894.86C1614.82 895.35 1612.27 916.33 1609.27 921.73C1606.27 927.13 1587.33 938.68 1575.21 926.25C1563.09 913.82 1579.34 862.86 1579.34 862.86Z" fill="#AD7263"/>
<path d="M1609.27 993.62C1591.17 996.2 1559.57 998.42 1553.39 1008.39C1547.21 1018.36 1507.87 1011.39 1504.64 1005.07C1501.41 998.75 1511.38 947.74 1506.2 939.07C1502.32 932.58 1488.88 896.81 1481.92 876.22C1480.28 871.688 1478.87 867.072 1477.72 862.39C1476.49 854.85 1471.84 827.75 1490.5 819.8C1490.5 819.8 1499.5 815.92 1500.29 812.72C1500.46 811.639 1500.54 810.545 1500.51 809.45C1500.51 805.13 1500.43 799.22 1504.64 800.91C1510.14 803.12 1515.96 808.54 1525.37 808.04C1534.78 807.54 1542.9 803.37 1544.13 806.04C1545.36 808.71 1541.94 812.36 1544.13 814.14C1546.32 815.92 1573.8 832.59 1582.3 856.93C1582.3 856.93 1589.2 874.5 1589.2 889.21C1589.2 890.35 1589.2 891.5 1589.2 892.67C1589 901.45 1588.2 910.79 1589.08 918.87C1589.08 919.3 1589.18 919.73 1589.24 920.16C1590.61 930.41 1592.11 940.1 1593.65 947.59C1595.19 955.08 1596.72 960.23 1598.22 961.75C1605.57 969.24 1627.37 991 1609.27 993.62Z" fill="#DFAFA3"/>
<path d="M1706.23 929.71C1705.38 927.665 1704.38 925.689 1703.23 923.8C1702 921.58 1692.65 911.98 1688.95 911C1685.25 910.02 1667.17 915.06 1667.17 915.06C1667.17 915.06 1596.02 916 1584.67 909.06C1569.9 899.97 1534 862.37 1509.03 843.19C1497.13 834.04 1487.7 829.08 1484.21 833.37C1484.21 833.37 1474.71 842.5 1486.68 865.05C1487.34 866.31 1488.07 867.61 1488.89 868.96C1504.16 894.37 1562.89 943.33 1586.44 944.96C1609.99 946.59 1669.83 926.54 1669.83 926.54C1669.83 926.54 1676.06 924.84 1679.26 927.3C1682.46 929.76 1694.82 929.3 1696.59 930.99C1699.86 934.1 1707 932.17 1706.23 929.71Z" fill="#FFB07B"/>
<path d="M1553.39 1008.39C1547.21 1018.39 1507.87 1011.39 1504.64 1005.07C1501.41 998.75 1511.38 947.74 1506.2 939.07C1502.32 932.58 1488.88 896.81 1481.92 876.22C1483.07 873.9 1484.72 872.84 1487 873.47C1502.91 877.84 1578.32 935.78 1593.61 947.62C1595.12 955.02 1596.68 960.26 1598.18 961.78C1598.18 961.8 1551.08 980.69 1553.39 1008.39Z" fill="#AD7263"/>
<path d="M1589 918.92C1565.87 909.08 1508.47 853.43 1507.64 852.63C1508.3 852.86 1526.82 844.63 1571.64 885.42C1576.83 890.15 1584.15 899.71 1585.84 903.86C1587.94 908.85 1588.62 915.06 1589 918.92Z" fill="#AD7263"/>
<path d="M1489.21 831.78C1497.38 833.371 1505.06 836.873 1511.62 842C1522.7 850.62 1578.06 904.69 1587.32 907C1596.58 909.31 1616.52 908.2 1616.32 914C1616.12 919.8 1611.65 948.4 1605.73 953.57C1599.81 958.74 1568.55 961.2 1555 952.57C1541.45 943.94 1474.23 862.93 1478.42 845.45C1482.61 827.97 1489.21 831.78 1489.21 831.78Z" fill="#DFAFA3"/>
<path d="M1515.25 819.82C1509.34 818.35 1490.5 819.82 1490.5 819.82C1490.5 819.82 1499.5 815.94 1500.29 812.74C1500.46 811.659 1500.54 810.564 1500.51 809.47C1501.51 813.36 1504.36 815.2 1512.11 815.57C1519.86 815.94 1521.16 821.29 1515.25 819.82Z" fill="#AD7263"/>
<path d="M1807.85 1194.27C1806.63 1193 1728.5 1112.02 1716.31 1061.14C1716.31 1061.14 1735.49 1055.81 1747.07 1071.07C1758.65 1086.33 1807.85 1194.27 1807.85 1194.27Z" fill="#2D427C"/>
<path d="M2664.94 805.79C2665.39 804.403 2665.64 802.958 2665.68 801.5C2666.24 783.17 2670.41 770.99 2651.68 769.35C2632.95 767.71 2629.05 774.61 2627.38 780.68C2625.71 786.75 2628.1 817.68 2635.74 818.5C2637.74 818.557 2639.75 818.5 2641.74 818.33C2641.91 820.33 2642.19 823.83 2642.51 827.68C2643.12 835.02 2643.84 843.62 2644.05 845.6L2664.8 844.6L2675.8 830.94C2675.8 830.94 2668 821.67 2664.94 805.79Z" fill="#E49963"/>
<path d="M2705.32 1042.24C2701.22 1049.06 2696.65 1055.59 2691.66 1061.78C2676.66 1080.78 2660.28 1096.39 2657.43 1111.17C2656.78 1114.39 2655.9 1117.55 2654.79 1120.64C2653.6 1124.02 2652.13 1127.58 2650.43 1131.27C2644.05 1145.12 2634.52 1160.63 2625 1174.74C2608.54 1199.13 2593.06 1219.48 2593.06 1219.48L2564.68 1218.27C2565.82 1215.42 2578.2 1181.75 2594.76 1140.6L2615.53 1088.99L2618.28 1082.17C2620.39 1076.92 2622.46 1071.76 2624.49 1066.73L2652.42 997.33C2652.42 997.33 2714.57 973.79 2721.02 989.04C2726.34 1001.62 2722 1013.94 2705.32 1042.24Z" fill="#163560"/>
<path d="M2592.18 1215.15C2592.18 1215.15 2590.73 1238.57 2586.18 1238.9C2585.57 1238.9 2563.18 1238.9 2563.18 1238.9L2534.62 1238.73C2534.62 1238.73 2534.8 1231.85 2543.15 1230.39C2551.5 1228.93 2565.48 1223.07 2570.54 1212.03C2575.89 1200.47 2592.18 1215.15 2592.18 1215.15Z" fill="#163560"/>
<path d="M2657.9 1147.41C2657.9 1147.41 2677.64 1160.1 2675.72 1164.22C2675.47 1164.76 2664.56 1184.3 2664.56 1184.3L2650.49 1209.17C2650.49 1209.17 2644.57 1205.65 2647.37 1197.65C2650.17 1189.65 2651.86 1174.58 2644.69 1164.79C2637.14 1154.48 2657.9 1147.41 2657.9 1147.41Z" fill="#163560"/>
<path d="M2639.26 825.85C2639.72 825.68 2667.32 819.08 2670.26 820.21C2673.2 821.34 2674.61 827.14 2674.61 827.14L2629.61 834.88C2629.61 834.88 2633.46 828 2639.26 825.85Z" fill="#5F709A"/>
<path d="M2630.14 779.07C2630.14 779.07 2637.41 799.36 2641.47 797.33C2645.53 795.3 2649.25 793.61 2650.26 800.04C2651.27 806.47 2647.26 815.26 2660.75 812.89C2674.24 810.52 2684.34 771.39 2679.01 765.89C2663.62 750 2609 760.3 2630.14 779.07Z" fill="#163560"/>
<path d="M2722.47 989.53C2715.05 998.3 2651.87 996.01 2633.35 988.61C2632.19 988.178 2631.1 987.589 2630.1 986.86C2619.21 978.15 2643.78 970.5 2616.31 904.13C2616.31 904.096 2616.31 904.063 2616.31 904.03C2599.05 854.9 2621.77 840.64 2629.75 833.39C2629.75 833.39 2668.33 821.67 2689.38 828.19C2716.67 836.65 2730.46 980.09 2722.47 989.53Z" fill="#263238"/>
<path d="M2656 957C2654.75 966 2647.48 988.33 2633.31 988.66C2632.15 988.228 2631.06 987.639 2630.06 986.91C2619.17 978.2 2643.74 970.55 2616.27 904.18C2616.27 904.147 2616.27 904.113 2616.27 904.08C2620.86 900.93 2628.27 897.35 2633.14 902.82C2640.56 911.15 2657.32 947.6 2656 957Z" fill="#5F709A"/>
<path d="M2630.1 986.85C2630.1 986.85 2553.18 1034.74 2544.48 1067.4C2535.78 1100.06 2648.24 1169.71 2648.24 1169.71C2648.24 1169.71 2660.58 1158.82 2662.75 1150.84C2662.75 1150.84 2611.91 1089.93 2600.89 1076.28C2594.11 1067.9 2701.03 1047.28 2714.09 1026.94C2727.15 1006.6 2722.47 989.53 2722.47 989.53L2630.1 986.85Z" fill="#1C468A"/>
<path d="M2527.56 946.68C2527.56 946.68 2515.77 941.62 2511.9 944.02C2508.03 946.42 2501.4 955.19 2500.6 957.3C2499.8 959.41 2499.51 962.46 2503.24 961.81C2506.97 961.16 2507.18 961.18 2507.18 961.18C2507.18 961.18 2513.46 956.18 2514.95 956.18C2516.44 956.18 2522.8 959.04 2525.84 955.56C2528.88 952.08 2527.56 946.68 2527.56 946.68Z" fill="#E49963"/>
<path d="M2629.59 834.88C2629.59 834.88 2618.11 841 2610 861C2601.56 881.66 2590.35 928 2587.27 930C2584.19 932 2537.86 939.32 2524.06 944.69C2524.06 944.69 2518.64 954.4 2523.77 958.41C2528.9 962.42 2590.93 960.22 2594.69 959.24C2626.01 951.13 2642.47 889.33 2646.21 879.84C2649.95 870.35 2629.59 834.88 2629.59 834.88Z" fill="#263238"/>
<path d="M2708.25 1215.76V1183H2741.66C2742.29 1183 2742.89 1182.75 2743.33 1182.3C2743.78 1181.86 2744.03 1181.26 2744.03 1180.63V1171.73C2744.03 1171.1 2743.78 1170.5 2743.33 1170.06C2742.89 1169.61 2742.29 1169.36 2741.66 1169.36H2708.25V1064C2708.24 1062.33 2707.58 1060.74 2706.4 1059.56C2705.22 1058.38 2703.62 1057.72 2701.95 1057.71H2695.2C2693.53 1057.72 2691.94 1058.38 2690.76 1059.56C2689.58 1060.74 2688.91 1062.33 2688.91 1064V1169.4H2655.5C2654.87 1169.4 2654.27 1169.65 2653.83 1170.1C2653.38 1170.54 2653.13 1171.14 2653.13 1171.77V1180.67C2653.13 1181.3 2653.38 1181.9 2653.83 1182.34C2654.27 1182.79 2654.87 1183.04 2655.5 1183.04H2688.91V1215.76C2664.23 1217.62 2643.14 1227.47 2637.59 1238.95H2758.24C2752.7 1227.47 2732.92 1217.62 2708.25 1215.76Z" fill="#163560"/>
<path d="M2778.4 1048.55H2618.75C2615.55 1048.55 2612.95 1051.15 2612.95 1054.35V1086.29C2612.95 1089.49 2615.55 1092.09 2618.75 1092.09H2778.4C2781.6 1092.09 2784.2 1089.49 2784.2 1086.29V1054.35C2784.2 1051.15 2781.6 1048.55 2778.4 1048.55Z" fill="#263238"/>
<path d="M935.479 866.75L935.069 876.3L934.189 896.27L933.789 905.47H908.449L907.869 896.27L906.629 876.3L906.029 866.75H935.479Z" fill="#263238"/>
<path d="M935.971 860.3H905.941L904.711 866.75H936.811L935.971 860.3Z" fill="#DDE3F2"/>
<path d="M935.071 876.3L934.191 896.27H907.871L906.631 876.3H935.071Z" fill="#878B8D"/>
<path d="M981.7 869.49L981.53 873.41L981.4 876.3L980.6 894.7L980.53 896.27L980.13 905.47H954.78L954.2 896.27L954.11 894.7L953 876.3L952.82 873.41L952.5 868.2L952.57 868.03C952.57 868.03 958.47 866.96 962.02 869.22C965.57 871.48 969.44 867.07 972.66 868.36C975.88 869.65 976.11 871.26 978.66 870.19C979.64 869.832 980.662 869.597 981.7 869.49Z" fill="#878B8D"/>
<path opacity="0.2" d="M981.819 866.75L981.699 869.49L981.529 873.41L981.399 876.3L980.599 894.7L980.529 896.27L980.129 905.47H954.779L954.199 896.27L954.109 894.7L952.959 876.3L952.779 873.41L952.459 868.2L952.369 866.75H981.819Z" fill="#878B8D"/>
<path opacity="0.2" d="M982 866.75C982 866.6 982 866.45 982 866.29C981.9 862.443 980.302 858.788 977.545 856.102C974.789 853.417 971.093 851.914 967.245 851.914C963.397 851.914 959.701 853.417 956.945 856.102C954.189 858.788 952.59 862.443 952.49 866.29C952.49 866.45 952.49 866.6 952.49 866.75H982Z" fill="#878B8D"/>
<path d="M964.671 903.13L963.381 902.97C963.461 902.17 967.591 847.59 968.231 843.97C968.486 842.753 969.061 841.627 969.895 840.706C970.73 839.785 971.795 839.103 972.981 838.73H973.051L993.691 835L993.921 836.27L973.321 840C972.37 840.307 971.517 840.858 970.846 841.599C970.176 842.34 969.712 843.243 969.501 844.22C968.871 847.76 964.691 902.94 964.671 903.13Z" fill="#263238"/>
<path d="M981.529 873.41L981.399 876.3L980.599 894.7H954.109L952.959 876.3L952.779 873.41H981.529Z" fill="#263238"/>
<path d="M862.221 892.38C862.301 892.13 862.221 887.84 869.461 886.29C876.701 884.74 874.521 881.12 874.521 881.12C874.521 881.12 885.061 886.26 882.971 892.38C880.881 898.5 862.221 892.38 862.221 892.38Z" fill="#DDE3F2"/>
<path d="M883.13 905.47H861.88L858.25 890.1H886.3L883.13 905.47Z" fill="#878B8D"/>
<path d="M1882.85 902.21H1852.83L1851.59 908.66H1852.92L1853.51 918.21L1854.76 938.18L1855.33 947.38H1880.68L1881.08 938.18L1881.95 918.21L1882.37 908.66H1883.69L1882.85 902.21Z" fill="#365DA4"/>
<path d="M1821.41 923C1821.41 923 1823.58 926.62 1816.34 928.17C1812.46 929 1810.7 930.62 1809.87 931.98H1805.13L1808.77 947.35H1830L1833.17 931.98H1830.06C1829.43 927 1821.41 923 1821.41 923Z" fill="#365DA4"/>
<path d="M1764.4 877.35C1763.82 877.137 1763.18 877.164 1762.61 877.425C1762.05 877.685 1761.61 878.159 1761.4 878.74L1738.13 942.74H1670.13C1669.81 942.72 1669.49 942.764 1669.19 942.872C1668.89 942.979 1668.62 943.147 1668.39 943.365C1668.15 943.583 1667.97 943.846 1667.84 944.139C1667.71 944.431 1667.65 944.747 1667.65 945.065C1667.65 945.384 1667.71 945.7 1667.84 945.992C1667.97 946.285 1668.15 946.548 1668.39 946.766C1668.62 946.984 1668.89 947.152 1669.19 947.259C1669.49 947.367 1669.81 947.411 1670.13 947.39H1739.89C1740.45 947.377 1740.99 947.16 1741.41 946.779C1741.82 946.399 1742.09 945.88 1742.15 945.32L1765.78 880.32C1765.99 879.743 1765.96 879.108 1765.7 878.552C1765.44 877.996 1764.98 877.564 1764.4 877.35Z" fill="#263238"/>
<path d="M3134.08 1100.1C3134.08 1100.1 3093.35 1077.29 3112.36 1046.33C3112.36 1046.33 3127.56 1027.33 3143.86 1022.43C3143.86 1022.43 3135.17 1068.59 3143.86 1069.68C3152.55 1070.77 3149.86 1017.54 3149.86 1017.54C3149.86 1017.54 3192.77 996.9 3209.61 998.54C3209.61 998.54 3182.99 1043.62 3191.69 1042.54C3200.39 1041.46 3230.25 995.83 3230.25 995.83C3230.25 995.83 3274.25 987.69 3281.3 1013.76C3288.35 1039.83 3276.96 1052.86 3270.44 1054.49C3263.92 1056.12 3222.1 1055.58 3223.19 1061.01C3224.28 1066.44 3252.52 1075.13 3268.27 1070.24C3268.27 1070.24 3250.89 1113.15 3228.08 1110.98C3205.27 1108.81 3198.2 1094.69 3184.08 1093.6C3169.96 1092.51 3159.64 1096.31 3166.7 1100.12C3173.76 1103.93 3197.7 1101.36 3209.07 1111.06C3220.44 1120.76 3229.71 1126.73 3208.52 1131.06C3187.33 1135.39 3149.32 1132.69 3141.72 1116.39L3134.08 1100.1Z" fill="#466AA5"/>
<path d="M3261.18 1021.88C3261.18 1021.88 3147.12 1058.82 3134.08 1100.1C3134.08 1100.1 3134.62 1118.56 3123.22 1139.75C3116.65 1150.85 3113 1163.43 3112.6 1176.32H3119.15C3119.27 1166.61 3120.29 1155.44 3123.62 1146.99C3123.62 1146.91 3123.69 1146.84 3123.72 1146.76C3124.03 1146.06 3124.47 1145.07 3125.02 1143.88C3125.02 1143.86 3125.02 1143.84 3125.02 1143.82C3126.35 1141.23 3127.25 1139.3 3127.82 1137.9V1137.85C3131.88 1129.52 3137.73 1118.69 3141.63 1116.41C3141.69 1116.39 3116.16 1080.54 3261.18 1021.88Z" fill="#325384"/>
<path d="M3093.71 1135.41C3093.71 1135.41 3124.61 1118.11 3110.19 1094.62C3110.19 1094.62 3098.66 1080.2 3086.29 1076.49C3086.29 1076.49 3092.89 1111.49 3086.29 1112.34C3079.69 1113.19 3081.76 1072.78 3081.76 1072.78C3081.76 1072.78 3049.21 1057.12 3036.44 1058.36C3036.44 1058.36 3056.63 1092.56 3050.04 1091.74C3043.45 1090.92 3020.78 1056.3 3020.78 1056.3C3020.78 1056.3 2987.41 1050.12 2982.05 1069.9C2976.69 1089.68 2985.34 1099.56 2990.29 1100.8C2995.24 1102.04 3026.96 1101.62 3026.14 1105.74C3025.32 1109.86 3003.89 1116.46 2991.94 1112.74C2991.94 1112.74 3005.12 1145.29 3022.43 1143.64C3039.74 1141.99 3045.09 1131.28 3055.8 1130.46C3066.51 1129.64 3074.34 1132.52 3068.99 1135.4C3063.64 1138.28 3045.5 1136.35 3036.85 1143.7C3028.2 1151.05 3021.19 1155.59 3037.26 1158.89C3053.33 1162.19 3082.17 1160.12 3087.94 1147.76L3093.71 1135.41Z" fill="#466AA5"/>
<path d="M3103.27 1176.32H3106.92C3105.68 1172.53 3104 1168.89 3101.92 1165.49C3093.27 1149.42 3093.68 1135.41 3093.68 1135.41C3083.79 1104.1 2997.26 1076.08 2997.26 1076.08C3107.26 1120.58 3087.91 1147.77 3087.91 1147.77C3090.91 1149.5 3095.3 1157.7 3098.38 1164.02C3098.82 1165.09 3099.52 1166.58 3100.54 1168.61C3100.93 1169.45 3101.25 1170.16 3101.47 1170.67C3102.22 1172.5 3102.82 1174.39 3103.27 1176.32Z" fill="#325384"/>
<path d="M3112.94 1235.56C3121.68 1235.56 3130.34 1233.84 3138.42 1230.49C3146.49 1227.15 3153.83 1222.24 3160.01 1216.06C3166.2 1209.88 3171.1 1202.54 3174.44 1194.46C3177.79 1186.38 3179.51 1177.72 3179.51 1168.98H3046.36C3046.36 1186.64 3053.37 1203.57 3065.86 1216.06C3078.35 1228.55 3095.28 1235.56 3112.94 1235.56Z" fill="#77A4E5"/>
<path d="M3129.32 1235.05C3119.95 1236.22 3110.44 1235.38 3101.42 1232.59C3092.41 1229.81 3084.08 1225.13 3077 1218.89C3069.93 1212.64 3064.26 1204.96 3060.37 1196.36C3056.49 1187.75 3054.48 1178.42 3054.47 1168.98H3071C3071 1185.21 3076.93 1200.88 3087.67 1213.04C3098.41 1225.21 3113.22 1233.04 3129.32 1235.05Z" fill="#7CACE5"/>
<path d="M3180.1 1239H3045.1C3045.1 1236.82 3045.96 1234.73 3047.5 1233.19C3049.04 1231.65 3051.13 1230.78 3053.31 1230.78H3171.88C3174.06 1230.78 3176.15 1231.65 3177.69 1233.19C3179.23 1234.73 3180.1 1236.82 3180.1 1239Z" fill="#77A4E5"/>
<path d="M3181.03 1168.98H3044.17V1171.02H3181.03V1168.98Z" fill="#466AA5"/>
</g>
<defs>
<clipPath id="clip0_2013_697">
<rect width="3550" height="1420" fill="white"/>
</clipPath>
</defs>
</svg>
