<svg width="2096" height="1420" viewBox="0 0 2096 1420" fill="none" xmlns="http://www.w3.org/2000/svg">
<g clip-path="url(#clip0_2023_399)">
<path d="M2096 0H0V1420H2096V0Z" fill="white"/>
<mask id="mask0_2023_399" style="mask-type:luminance" maskUnits="userSpaceOnUse" x="0" y="0" width="2096" height="1420">
<path d="M2096 0H0V1420H2096V0Z" fill="white"/>
</mask>
<g mask="url(#mask0_2023_399)">
<path d="M2229.47 530.775C2066.01 479.582 2008.99 -237.117 1282.94 121.232C1126.6 198.399 933.01 183.216 725.15 168.033C549.14 155.181 362.87 142.329 180.306 185.548C-185.341 272.116 -193.746 521.822 -147.515 611.719C-96.999 709.945 -298.447 827.384 -504.759 908.048C-828.38 1034.57 -590.407 1479.21 -284.679 1481.33C21.049 1483.46 2267.16 1477.1 2267.16 1477.1C2267.16 1477.1 2878.38 734.017 2229.47 530.775Z" fill="#EBF3FA"/>
<path d="M2096 425.929C1859.03 296.908 1700.79 471.532 1464.36 646.604C1230.2 820 950.39 823.266 950.39 823.266C973.37 878.178 1007.27 885.285 1007.27 885.285C1931.41 888.948 2095.98 830.118 2095.98 830.118L2096 425.929Z" fill="#C4D1E3"/>
<path d="M2001.4 765.884C2003.45 761.951 2004.82 754.808 2004.82 746.657C2004.73 741.232 2003.55 735.881 2001.34 730.924C2000.34 728.58 1999.13 726.33 1997.73 724.2C1992.88 731.456 1990.42 740.048 1990.68 748.773C1990.79 752.543 1991.39 758.521 1992.81 763.03C1988.67 761.667 1984.52 760.348 1980.38 759.075V751.571C1983.66 749.611 1986.14 740.473 1986.14 729.497C1986.05 724.071 1984.87 718.719 1982.66 713.763C1981.67 711.415 1980.46 709.162 1979.06 707.032C1974.21 714.292 1971.75 722.881 1972.01 731.605C1972.19 737.995 1973.8 750.676 1978.47 751.883V758.493C1955.34 751.369 1931.79 745.641 1907.97 741.339C1804.32 722.986 1711.24 819.177 1711.24 944.946V1420H2096V804.572C2065.23 789.883 2033.64 776.966 2001.4 765.884Z" fill="#466AA5"/>
<path d="M2095.99 1061.17H1.88892V1420H2095.99V1061.17Z" fill="url(#paint0_linear_2023_399)"/>
<path d="M193.584 591.203C193.584 580.617 190.141 571.025 186.655 564.024C184.635 559.922 182.227 556.023 179.464 552.38C178.889 553.7 164.556 569.42 165.408 594.817C165.777 605.836 168.957 627.746 178.307 629.834V646.164H182.09V629.323C188.636 625.943 193.584 610.16 193.584 591.203Z" fill="#C4D1E3"/>
<path d="M1378.24 814.767H1371.05C1278.76 814.767 1187.52 802.136 1100.65 780.538C1032.68 763.647 963.51 752.016 893.76 745.748C835.64 740.508 721.65 726.457 721.65 726.457C631.92 713.862 555.86 697.993 512.59 678.05C453.4 650.771 367.48 640.988 280.21 639.894V636.344C283.48 634.001 285.96 623.067 285.96 609.932C285.88 603.506 284.71 597.14 282.49 591.11C281.51 588.335 280.31 585.644 278.89 583.066C273.95 592.054 271.525 602.208 271.865 612.46C272.05 620.092 273.65 635.272 278.31 636.713V639.844C272.901 639.788 267.485 639.759 262.061 639.759V620.824C267.634 616.84 271.844 598.231 271.844 575.88C271.844 563.406 268.912 552.095 265.944 543.845C264.279 539.122 262.233 534.541 259.825 530.149C259.342 531.704 247.118 550.242 247.863 580.183C248.175 593.169 250.916 619.006 258.838 621.463V639.809C249.467 639.837 240.116 639.956 230.783 640.164V628.172C236.348 624.189 240.565 605.58 240.565 583.229C240.565 570.747 237.633 559.437 234.666 551.187C232.995 546.458 230.949 541.871 228.546 537.47C228.057 539.032 215.839 557.57 216.577 587.503C216.897 600.489 219.63 626.333 227.56 628.79V640.214C139.766 642.308 55.798 651.453 1.89502 658.574V959.075L1378.24 925.25V814.767Z" fill="#C4D1E3"/>
<path d="M0 1080.75C10.294 1100.34 147.142 1090.4 345.83 1095.23C448.7 1097.74 567.82 1140.25 695.27 1139.96C807.8 1139.73 926.12 1096.98 1044.83 1095.23C1163.38 1093.45 1282.87 1132.62 1395.52 1129.86C1522.71 1126.73 1640.98 1081.58 1744.08 1077.97C1938.88 1071.16 2077.62 1104.06 2096.06 1099.72V808.995H0V1080.75Z" fill="url(#paint1_linear_2023_399)"/>
<g style="mix-blend-mode:screen" opacity="0.44">
<g style="mix-blend-mode:screen" opacity="0.44">
<path d="M1904.68 854.038C1900.61 853.534 1898.18 857.829 1901.13 860.279C1910.64 868.089 1925.65 868.131 1935.17 860.279C1938.14 857.829 1935.71 853.534 1931.62 854.038C1922.67 855.128 1913.63 855.128 1904.68 854.038Z" fill="#CCE7FE"/>
</g>
<g style="mix-blend-mode:screen" opacity="0.44">
<path d="M1986.01 851.78C1979.5 850.971 1975.61 857.851 1980.36 861.763C1995.58 874.316 2019.6 874.33 2034.84 861.763C2039.6 857.851 2035.71 850.971 2029.16 851.78C2014.83 853.532 2000.34 853.532 1986.01 851.78Z" fill="#CCE7FE"/>
</g>
<g style="mix-blend-mode:screen" opacity="0.44">
<path d="M934.61 854.172C928.44 853.406 924.75 859.93 929.26 863.644C943.69 875.536 966.46 875.55 980.91 863.644C985.41 859.93 981.73 853.406 975.55 854.172C961.96 855.834 948.21 855.834 934.61 854.172Z" fill="#CCE7FE"/>
</g>
<g style="mix-blend-mode:screen" opacity="0.44">
<path d="M801.68 829.726C797.05 829.151 794.27 834.05 797.66 836.826C808.5 845.765 825.61 845.772 836.46 836.826C839.84 834.036 837.07 829.137 832.44 829.726C822.22 830.976 811.9 830.976 801.68 829.726Z" fill="#CCE7FE"/>
</g>
<g style="mix-blend-mode:screen" opacity="0.44">
<path d="M852.68 869.494C849.18 869.061 847.09 872.76 849.64 874.862C857.82 881.607 870.73 881.614 878.91 874.862C881.47 872.732 879.38 869.061 875.88 869.494C868.18 870.438 860.39 870.438 852.68 869.494Z" fill="#CCE7FE"/>
</g>
<g style="mix-blend-mode:screen" opacity="0.44">
<path d="M739.85 885.313C737.28 884.986 735.74 887.706 737.62 889.254C740.69 891.667 744.48 892.979 748.39 892.979C752.29 892.979 756.08 891.667 759.15 889.254C761.03 887.706 759.49 884.994 756.92 885.313C751.25 886.002 745.52 886.002 739.85 885.313Z" fill="#CCE7FE"/>
</g>
<g style="mix-blend-mode:screen" opacity="0.44">
<path d="M855.64 825.842C853.16 825.629 851.67 827.44 853.51 828.469C859.33 831.771 868.5 831.771 874.32 828.469C876.14 827.44 874.65 825.629 872.19 825.842C866.69 826.307 861.15 826.307 855.64 825.842Z" fill="#CCE7FE"/>
</g>
<g style="mix-blend-mode:screen" opacity="0.44">
<path d="M884.95 834.073C882.46 833.86 880.97 835.67 882.82 836.7C888.63 840.001 897.8 840.001 903.63 836.7C905.44 835.67 903.95 833.86 901.5 834.073C895.99 834.538 890.45 834.538 884.95 834.073Z" fill="#CCE7FE"/>
</g>
<g style="mix-blend-mode:screen" opacity="0.44">
<path d="M884.95 825.842C882.46 825.629 880.97 827.44 882.82 828.469C888.63 831.771 897.8 831.771 903.63 828.469C905.44 827.44 903.95 825.629 901.5 825.842C895.99 826.307 890.45 826.307 884.95 825.842Z" fill="#CCE7FE"/>
</g>
<g style="mix-blend-mode:screen" opacity="0.44">
<path d="M912.46 828.407C909.98 828.194 908.49 829.997 910.33 831.034C916.15 834.335 925.32 834.335 931.14 831.034C932.96 829.997 931.48 828.194 929.01 828.407C923.51 828.872 917.97 828.872 912.46 828.407Z" fill="#CCE7FE"/>
</g>
<g style="mix-blend-mode:screen" opacity="0.44">
<path d="M942.16 823.288C939.68 823.068 938.19 824.878 940.03 825.908C945.84 829.209 955.02 829.216 960.84 825.908C962.65 824.878 961.17 823.068 958.71 823.288C953.21 823.745 947.67 823.745 942.16 823.288Z" fill="#CCE7FE"/>
</g>
</g>
<g style="mix-blend-mode:screen" opacity="0.44">
<path d="M1923.02 830.16C1918.96 829.649 1916.53 833.951 1919.47 836.401C1928.99 844.211 1943.99 844.211 1953.55 836.401C1956.52 833.951 1954.09 829.649 1950 830.16C1941.04 831.252 1931.98 831.252 1923.02 830.16Z" fill="#CCE7FE"/>
</g>
<g style="mix-blend-mode:screen" opacity="0.44">
<path d="M1850.51 851.843C1845.71 851.24 1842.84 856.323 1846.35 859.213C1857.58 868.443 1875.31 868.486 1886.56 859.213C1890.11 856.323 1887.19 851.24 1882.39 851.843C1871.8 853.135 1861.1 853.135 1850.51 851.843Z" fill="#CCE7FE"/>
</g>
<g style="mix-blend-mode:screen" opacity="0.44">
<path d="M1238.08 878.782C1235.49 878.462 1233.94 881.196 1235.83 882.751C1241.88 887.721 1251.45 887.721 1257.49 882.751C1259.38 881.196 1257.83 878.491 1255.24 878.782C1249.54 879.477 1243.78 879.477 1238.08 878.782Z" fill="#CCE7FE"/>
</g>
<g style="mix-blend-mode:screen" opacity="0.44">
<path d="M1292.51 867.662C1289.21 867.251 1287.23 870.744 1289.67 872.732C1297.4 879.122 1309.55 879.122 1317.32 872.732C1319.73 870.744 1317.76 867.251 1314.49 867.662C1307.19 868.554 1299.81 868.554 1292.51 867.662Z" fill="#CCE7FE"/>
</g>
<g style="mix-blend-mode:screen" opacity="0.44">
<path d="M1331.24 833.54C1327.94 833.128 1325.96 836.622 1328.4 838.61C1336.12 845 1348.28 845 1356.08 838.61C1358.49 836.622 1356.52 833.128 1353.24 833.54C1345.94 834.442 1338.55 834.442 1331.24 833.54Z" fill="#CCE7FE"/>
</g>
<g style="mix-blend-mode:screen" opacity="0.44">
<path d="M1257.67 842.06C1254.12 841.613 1251.99 845.383 1254.57 847.534C1262.92 854.414 1276.09 854.421 1284.45 847.534C1287.05 845.404 1284.92 841.613 1281.35 842.06C1273.49 843.018 1265.53 843.018 1257.67 842.06Z" fill="#CCE7FE"/>
</g>
<g style="mix-blend-mode:screen" opacity="0.44">
<path d="M463.9 851.843C459.53 851.297 456.92 855.912 460.11 858.539C470.31 866.945 486.38 866.959 496.63 858.539C499.81 855.912 497.2 851.297 492.84 851.843C483.23 853.015 473.51 853.015 463.9 851.843Z" fill="#CCE7FE"/>
</g>
<g style="mix-blend-mode:screen" opacity="0.44">
<path d="M205.297 847.2C201.308 846.703 198.908 850.921 201.84 853.321C211.168 861.01 225.885 861.017 235.206 853.321C238.116 850.921 235.738 846.703 231.741 847.2C222.959 848.271 214.08 848.271 205.297 847.2Z" fill="#CCE7FE"/>
</g>
<g style="mix-blend-mode:screen" opacity="0.44">
<path d="M247.808 836.076C243.683 835.564 241.22 839.917 244.258 842.402C253.892 850.339 269.105 850.354 278.75 842.402C281.76 839.917 279.29 835.564 275.2 836.076C266.101 837.195 256.903 837.195 247.808 836.076Z" fill="#CCE7FE"/>
</g>
<g style="mix-blend-mode:screen" opacity="0.44">
<path d="M449.37 904.248C446.05 903.829 444.07 907.344 446.53 909.339C454.29 915.729 466.54 915.729 474.3 909.339C476.73 907.344 474.74 903.829 471.43 904.248C464.1 905.146 456.69 905.146 449.37 904.248Z" fill="#CCE7FE"/>
</g>
<g style="mix-blend-mode:screen" opacity="0.44">
<path d="M181.218 831.106C177.902 830.694 175.915 834.201 178.343 836.196C186.102 842.586 198.348 842.586 206.114 836.196C208.542 834.201 206.554 830.694 203.274 831.106C195.95 832.003 188.543 832.003 181.218 831.106Z" fill="#CCE7FE"/>
</g>
<g style="mix-blend-mode:screen" opacity="0.44">
<path d="M141.392 850.481C137.402 849.984 135.002 854.194 137.927 856.594C147.255 864.283 161.972 864.297 171.293 856.594C174.203 854.194 171.818 849.984 167.829 850.481C159.049 851.551 150.171 851.551 141.392 850.481Z" fill="#CCE7FE"/>
</g>
<g style="mix-blend-mode:screen" opacity="0.44">
<path d="M117.311 834.385C113.989 833.973 112.008 837.48 114.429 839.476C122.188 845.866 134.434 845.866 142.208 839.476C144.628 837.48 142.648 833.973 139.325 834.385C132.015 835.279 124.622 835.279 117.311 834.385Z" fill="#CCE7FE"/>
</g>
<g style="mix-blend-mode:screen" opacity="0.44">
<path d="M68.8599 840.201C65.5879 839.796 63.635 843.254 66.021 845.213C73.659 851.518 85.721 851.525 93.366 845.213C95.759 843.254 93.7989 839.796 90.5269 840.201C83.3309 841.08 76.0559 841.08 68.8599 840.201Z" fill="#CCE7FE"/>
</g>
<g style="mix-blend-mode:screen" opacity="0.44">
<path d="M49.1401 827.015C46.4211 826.681 44.7951 829.55 46.7761 831.19C53.1651 836.43 63.167 836.437 69.535 831.19C71.516 829.55 69.8971 826.681 67.1711 827.015C61.1831 827.753 55.1281 827.753 49.1401 827.015Z" fill="#CCE7FE"/>
</g>
<g style="mix-blend-mode:screen" opacity="0.44">
<path d="M492.59 832.227C489.27 831.815 487.29 835.322 489.71 837.324C497.47 843.714 509.71 843.714 517.49 837.324C519.91 835.322 517.93 831.815 514.6 832.227C507.29 833.121 499.9 833.121 492.59 832.227Z" fill="#CCE7FE"/>
</g>
<g style="mix-blend-mode:screen" opacity="0.44">
<path d="M413.49 843.658C409.23 843.125 406.73 847.605 409.82 850.147C419.75 858.305 435.33 858.319 445.24 850.147C448.33 847.605 445.8 843.125 441.57 843.658C432.24 844.794 422.82 844.794 413.49 843.658Z" fill="#CCE7FE"/>
</g>
<g style="mix-blend-mode:screen" opacity="0.36">
<path d="M1197.71 1019.14C624.01 982.512 498.04 1085.59 1.89502 1034.11V1139.12C192.696 1106.46 298.24 1129.84 484.95 1134.39C587.82 1136.89 656.65 1133.94 680.18 1136.22C798.99 1147.76 934.28 1220.53 1073.46 1175.65C1186.34 1139.25 1325.7 1129.96 1353.76 1129.01C1375.61 1128.3 1394.9 1094.05 1730.23 1101.29C1925.11 1105.49 2077.55 1123.6 2095.98 1119.26V1006.78C1777.72 976.96 1504.21 1038.73 1197.71 1019.14Z" fill="#4095BA"/>
</g>
<g style="mix-blend-mode:screen" opacity="0.53">
<path d="M800.68 359.884C807.54 356.223 815.18 354.274 822.95 354.204C830.52 339.415 848.16 329.546 868.22 329.546C880.28 329.546 891.64 333.21 900.45 339.486C910.24 321.111 932.73 308.246 958.21 308.246C974.95 308.246 990.82 313.678 1002.59 323.284C1004.28 323.062 1005.98 322.951 1007.68 322.95C1025.92 322.95 1040.75 335.134 1040.75 350.101C1040.74 353.466 1039.99 356.787 1038.54 359.828L800.68 359.884Z" fill="#C7DBEC"/>
</g>
<g style="mix-blend-mode:screen" opacity="0.53">
<path d="M1134.49 549.541C1139.53 547.768 1144.83 546.861 1150.17 546.857C1155.49 539.828 1167.92 535.135 1182.02 535.135C1190.49 535.135 1198.53 536.875 1204.74 539.864C1211.63 531.124 1227.46 525.018 1245.4 525.018C1257.17 525.018 1268.35 527.602 1276.63 532.167C1277.82 532.061 1279.02 532.011 1280.18 532.011C1293.02 532.011 1303.45 537.805 1303.45 544.919C1303.43 546.583 1302.89 548.197 1301.91 549.541H1134.49Z" fill="#C7DBEC"/>
</g>
<g style="mix-blend-mode:screen" opacity="0.53">
<path d="M1685.83 187.163C1695.59 181.974 1706.45 179.217 1717.51 179.126C1728.26 158.103 1753.35 144.066 1781.86 144.066C1798.97 144.066 1815.22 149.277 1827.7 158.209C1841.62 132.088 1873.59 113.827 1909.83 113.827C1933.62 113.827 1956.2 121.545 1972.92 135.198C1975.32 134.886 1977.74 134.729 1980.16 134.73C2006.09 134.73 2027.18 152.054 2027.18 173.339C2027.17 178.122 2026.1 182.843 2024.05 187.163H1685.83Z" fill="#C7DBEC"/>
</g>
<g style="mix-blend-mode:screen" opacity="0.53">
<path d="M79.197 154.958C86.073 151.293 93.733 149.344 101.524 149.278C109.106 134.46 126.782 124.57 146.873 124.57C158.941 124.57 170.364 128.241 179.173 134.51C188.984 116.1 211.517 103.228 237.052 103.228C253.82 103.228 269.708 108.666 281.52 118.294C283.21 118.072 284.91 117.961 286.62 117.96C304.89 117.96 319.75 130.165 319.75 145.167C319.74 148.54 318.99 151.869 317.54 154.916L79.197 154.958Z" fill="#C7DBEC"/>
</g>
<g style="mix-blend-mode:screen" opacity="0.36">
<path d="M2095.99 1265.11C2039.75 1257.68 1980.75 1264.14 1923.02 1266.48C1860.13 1269.02 1790.86 1264.96 1745.28 1236.71C1737.81 1232.07 1731.03 1226.82 1722.13 1223.41C1710.58 1218.98 1696.71 1218.14 1683.35 1217.44C1629.14 1214.6 1574.86 1212.56 1520.49 1211.31C1461.77 1209.94 1402.51 1209.51 1344.77 1216.59C1290.82 1223.21 1239.21 1236.27 1185.53 1243.74C1083.45 1257.94 977.21 1251.47 874.34 1239.9C849.54 1237.11 823.94 1233.8 803.41 1224.36C779.04 1213.17 764.9 1194.82 742.82 1181.76C697.38 1154.91 628.82 1155.36 567.47 1157.54C471.63 1160.95 375.84 1164.78 280.27 1170.46C203.41 1175.04 91.578 1174.87 3.26599 1195.43V1277.01C77.806 1276.8 153.241 1274.04 226.837 1268C379.73 1255.44 540.37 1224.16 682.92 1262.15C692.41 1264.68 702.14 1267.72 708.16 1273.11C715.26 1279.44 715.97 1287.85 721.15 1294.89C729.34 1305.93 747.38 1312.24 764.66 1317.16C886.7 1351.95 1030.42 1353.2 1153.87 1320.57C1223.08 1302.28 1286.51 1273.81 1359.5 1263.42C1432.49 1253.02 1523.01 1268.12 1550.57 1313.23C1558.21 1325.73 1561.11 1340.32 1576.28 1349.48C1595.85 1361.28 1626.58 1358.8 1652.68 1355.11C1774.29 1337.94 1908.41 1311.93 2016.9 1351.56C2033.98 1357.8 2049.85 1365.54 2067.97 1370.38C2077.18 1372.79 2086.55 1374.49 2096.01 1375.48L2095.99 1265.11Z" fill="#59C5F4"/>
</g>
<path d="M606.01 348.609C602.11 352.678 598.12 356.774 596.9 356.739C594.37 356.675 593.35 365.365 592.38 366.43C591.42 367.495 572.5 390.095 564.5 395.952C555.73 402.42 524.89 403.762 506.15 402.342C485.99 400.787 487.85 428.023 512.42 427C528.31 426.34 558.43 421.881 567.53 416.627C575.67 411.941 595.22 382.611 599.59 375.781C600.81 373.812 602.36 372.07 604.18 370.634C603.59 363.241 604.21 355.803 606.01 348.609Z" fill="#F7A491"/>
<path d="M511.44 404.062L498.81 419.461C498.81 419.461 521.38 431.858 537.9 439.136C539.42 432.746 540.28 426.462 541.45 419.966C527.78 413.029 511.44 404.062 511.44 404.062Z" fill="#F7A491"/>
<path d="M483.26 380.205L480.19 400.795C480.19 400.795 491.43 425.276 498.13 423.153C503.76 421.371 500.26 399.723 500.26 399.723C500.26 399.723 497.2 388.093 498.13 382.271C499.07 376.449 483.26 380.205 483.26 380.205Z" fill="#F7A491"/>
<path d="M498.16 382.228C499.07 376.406 483.25 380.205 483.25 380.205L482.99 381.909C483.4 382.948 483.98 383.909 484.71 384.749C488.35 388.538 493.29 390.804 498.53 391.089C498.07 387.979 497.77 384.614 498.16 382.228Z" fill="#F47458"/>
<path d="M480.67 351.116C480.22 350.952 477.09 374.546 483.03 381.021C488.98 387.496 500.58 389.633 504.73 384.528C509.33 378.848 509.1 353.53 499.85 346.856C490.6 340.182 480.67 351.116 480.67 351.116Z" fill="#F7A491"/>
<path d="M496.33 334.239C491.13 335.379 486.42 338.109 482.84 342.049C479.6 342.44 475.18 344.258 470.63 351.904C465.03 361.305 469.16 371.713 475.69 376.825C482.21 381.937 482.13 387.873 482.13 387.873L483.15 384.784C483.93 382.471 484.2 380.02 483.97 377.592C483.84 376.104 483.48 374.645 482.91 373.268C481.34 369.86 486.28 367.588 487.66 364.748C488.73 362.561 488.78 357.556 490.46 353.942L492.46 351.187C492.46 351.187 497.09 347.538 501.62 348.567C506.15 349.597 505.5 332.344 496.33 334.239Z" fill="#13375B"/>
<path d="M487.36 368.938C487.41 371.778 486.12 374.171 484.48 374.199C482.84 374.228 481.48 371.913 481.43 369.038C481.38 366.162 482.67 363.805 484.31 363.777C485.95 363.748 487.31 366.056 487.36 368.938Z" fill="#F7A491"/>
<path d="M504.44 376.463L496.68 378.075C496.68 378.075 497.47 380.993 500.94 380.382C505.1 379.644 504.44 376.463 504.44 376.463Z" fill="white"/>
<path d="M521.28 705.74C521.28 705.74 520.47 719.323 520.46 719.351C520.16 721.076 518.98 725.336 518.98 726.905C518.98 732.791 546.88 721.935 540.63 719.294C540.07 719.06 537.08 717.271 536.92 715.268C536.62 712.18 535.89 705.932 535.89 705.932L521.28 705.74Z" fill="#F7A491"/>
<path d="M464.19 705.74C464.19 705.74 463.37 719.323 463.36 719.351C463.06 721.076 461.88 725.336 461.88 726.905C461.88 732.791 489.79 721.935 483.53 719.294C482.97 719.06 479.12 715.936 478.94 713.934C478.65 710.845 478.8 705.932 478.8 705.932L464.19 705.74Z" fill="#E89789"/>
<path d="M475.13 490.425C475.13 490.425 472.05 511.058 475.91 520.103C479.76 529.149 508.97 617.906 509.36 625.183C509.74 632.461 520.79 713.933 520.79 713.933H536.78L544.14 622.869L534.91 511.093L526.04 482.8L475.13 490.425Z" fill="#E89789"/>
<path d="M505.58 726.898C504.06 726.645 502.56 726.301 501.08 725.869C497.72 724.172 490.17 721.878 490.17 721.878C489.46 721.545 481.97 716.788 480.6 714.963C480.41 714.715 479.34 713.699 479.04 710.923L464.14 706.819C464.28 707.331 463.16 717.924 462.84 719.074C462.08 721.744 460.95 721.914 461.01 726.628C461.06 727.163 461.24 727.68 461.52 728.136C461.8 728.593 462.19 728.979 462.65 729.262C463.45 729.854 464.37 730.275 465.35 730.5C466.33 730.726 467.34 730.752 468.32 730.576C471.16 730.114 475.87 729.404 477.11 729.596C478.91 729.887 489.42 730.945 491.7 730.945H505.45C507.11 731.101 508.6 729.241 508.52 727.573C508.52 727.42 508.49 727.27 508.42 727.132C508.08 726.621 506.8 726.998 505.58 726.898Z" fill="#F7A491"/>
<path d="M562.37 726.898C560.85 726.645 559.34 726.301 557.87 725.869C554.51 724.172 546.96 721.878 546.96 721.878C546.25 721.545 538.76 716.788 537.39 714.963C537.19 714.715 536.12 713.699 535.83 710.923L520.92 706.819C521.07 707.331 519.94 717.924 519.62 719.074C518.86 721.744 517.74 721.914 517.8 726.628C517.85 727.164 518.03 727.681 518.31 728.138C518.59 728.595 518.98 728.98 519.44 729.262C520.25 729.855 521.17 730.276 522.14 730.502C523.12 730.728 524.13 730.753 525.12 730.576C527.96 730.114 532.66 729.404 533.91 729.596C535.7 729.887 546.25 730.349 548.53 730.349L562.3 730.945C563.96 731.101 565.45 729.241 565.36 727.573C565.36 727.42 565.33 727.27 565.26 727.132C564.87 726.621 563.59 726.998 562.37 726.898Z" fill="#E89789"/>
<path d="M483.59 400.291C483.59 400.291 461.9 402.591 456.14 408.669L467.22 464.759C468.06 469.006 468.42 473.332 468.32 477.66C468.03 489.389 467.61 513.756 468.49 521.68C471.02 543.633 527.9 522.553 536.33 519.649C536.33 519.649 523.68 421.939 515.03 406.901C512.15 401.889 499 401.683 499 401.683L483.59 400.291Z" fill="#F7A491"/>
<path d="M456.14 408.669C444.78 422.812 441.24 477.326 444.91 492.356C453.26 495.36 470.37 492.953 478.34 493.123C477.28 488.743 497.34 489.346 497.34 489.346C468.94 481.848 463.15 476.658 463.15 476.658C465.28 462.323 470.7 444.559 470.43 442.117C465.41 426.582 460.02 403.827 456.14 408.669Z" fill="#F7A491"/>
<path d="M477.2 517.356L493.74 579.233L543.53 571.011L535.27 511.059C535.27 511.059 510.75 519.011 477.2 517.356Z" fill="#D6B96E"/>
<path d="M470.51 491.511C470.51 491.511 465.78 514.423 467.71 531.79C469.64 549.156 469.79 610.862 469.79 610.862L463.83 711.682H478.8C478.8 711.682 500.58 611.31 500.19 613.823C499.8 616.336 507.14 544.342 507.14 544.342L482.46 489.346L470.51 491.511Z" fill="#F7A491"/>
<path d="M465.88 516.483C465.07 517.733 462.77 558.615 462.43 566.077C462.24 570.816 462.42 575.564 462.96 580.277L508 581.931L513.26 515.518L465.88 516.483Z" fill="#263238"/>
<path d="M483.95 519.379C477.84 519.418 471.73 519.147 465.64 518.57C465.16 518.431 464.74 518.124 464.46 517.704C464.18 517.285 464.06 516.779 464.11 516.278C464.17 515.777 464.41 515.312 464.77 514.968C465.14 514.623 465.62 514.42 466.12 514.395C466.46 514.438 500.11 518.18 534.74 509.028C535.03 508.896 535.33 508.828 535.65 508.828C535.96 508.829 536.27 508.897 536.55 509.03C536.83 509.162 537.08 509.355 537.28 509.595C537.48 509.835 537.62 510.115 537.7 510.417C537.78 510.719 537.8 511.034 537.74 511.341C537.68 511.648 537.56 511.938 537.38 512.193C537.2 512.447 536.96 512.658 536.69 512.812C536.42 512.965 536.12 513.058 535.81 513.082C516.41 518.215 497.31 519.379 483.95 519.379Z" fill="#263238"/>
<path d="M525.56 639.568C526.04 631.758 529.82 618.651 529.82 618.651L516.31 528.24L551.14 515.346L561.18 515.261C561.18 515.261 566.42 536.255 564.58 563.761C563.6 578.451 546.83 706.726 546.83 706.726C547.07 710.468 547.63 715.743 548.96 717.298C550.16 718.789 551.56 720.108 553.12 721.217C553.7 721.587 555.25 722.638 555.72 722.886C562.4 726.33 564.09 727.416 566.18 729.056C567.46 730.057 568.5 731.143 566.89 731.115L537.78 730.618C537.78 730.618 536.5 730.057 535.38 727.82C534.26 725.584 535.53 721.466 535.97 719.087C536.27 716.632 536.37 714.155 536.27 711.682C536.24 711.583 525.08 647.385 525.56 639.568Z" fill="#9C5836"/>
<path d="M549.76 544.009C553.18 537.585 557.77 531.862 563.3 527.14C562.29 519.706 561.17 515.275 561.17 515.275L551.14 515.361L516.31 528.24L524.27 581.49C534.91 566.679 545.01 552.692 549.76 544.009Z" fill="#5E0937"/>
<path d="M555.42 502.161L514.73 497.901L514.68 502.467C513.33 505.136 495.89 510.66 497.42 538.059C498.31 554.062 514.01 608.15 510.26 610.351C510.26 610.351 483.62 616.294 457.38 639.887C454.6 641.257 452.64 642.138 452.17 642.287C451.7 642.436 449.05 642.11 448.54 642.287C440.58 650.977 440.65 661.606 441.88 670.531C445.19 665.348 449.24 658.028 450.51 657.495C451.44 657.105 456.19 654.989 461.37 652.795C476.52 647.115 524.17 630.785 532.64 625.815C536.6 623.486 549.83 543.1 550.79 538.371C551.36 535.588 552.7 525.279 554.6 518.775C556.16 513.377 556.44 507.687 555.42 502.161Z" fill="#C97850"/>
<path d="M549.16 543.093C549.38 543.391 549.56 543.711 549.76 544.009C550.28 541.013 550.63 538.997 550.77 538.329C551.33 535.546 552.67 525.237 554.57 518.733C556.15 513.339 556.43 507.652 555.42 502.126L514.73 497.866L514.68 502.467C513.87 504.079 507.19 506.727 502.37 514.601C514.04 517.136 535.89 524.292 549.16 543.093Z" fill="#263238"/>
<path d="M487.63 454.534C494.29 452.042 499.26 455.954 505.82 458.744C510.22 460.59 517.22 456.522 520.45 451.921C528.61 440.277 528.82 437.544 539.91 438.389C566.61 440.426 557.19 411.991 556.34 406.9C555.49 401.81 553.77 394.788 552.08 392.359C546.97 385.032 531.6 378.159 518.65 379.437C505.7 380.715 510.13 395.995 504.2 399.488C498.28 402.981 490.87 392.423 480.93 401.412C452.42 427.235 471.53 454.2 482.44 455.166C484.19 455.35 485.97 455.134 487.63 454.534Z" fill="#0E2E35"/>
<path d="M570.12 477.347C572.16 455.713 567.41 451.51 567.11 449.288C569.13 442.316 576.74 430.828 578.29 427.91C578.29 427.91 568.05 417.686 560.61 417.778C560.61 417.778 552.71 427.789 546.83 430.849C546.75 430.849 544.75 431.744 543.88 431.737C538.2 431.694 518.4 431.09 514.71 432.198L510.26 463.04C511.32 464.801 512.62 500.053 514.81 502.957C517 505.861 555.9 518.683 561.18 515.275C561.39 515.14 568.85 490.894 570.12 477.347Z" fill="#C97850"/>
<path d="M505.91 431.9V431.808L496.81 432.049C493.8 432.12 491.84 432.184 491.84 432.184C479.21 432.546 461.89 433.1 456.43 433.547C447.51 434.257 415.16 431.588 413.91 431.417C412.66 431.247 404.37 417.217 402.99 418.722C401.61 420.228 407.6 425.695 405.75 427.115C403.91 428.535 384 425.354 384.26 426.831C384.76 429.585 396.33 429.237 396.33 430.565C396.33 431.893 384.19 429.82 383.36 432.028C382.54 434.236 395.03 432.929 395.54 433.916C396.04 434.903 383.95 436.707 385.18 438.766C385.89 439.88 395.89 436.898 395.83 438.425C395.77 439.951 388.45 443.395 389.35 444.616C390.26 445.837 395.11 440.896 399.36 440.839C403.61 440.782 406.65 438.553 413.43 440.42C420.22 442.287 443.49 448.833 457.83 450.935C465.06 452 510.85 461.351 510.27 463.005L525.03 432.873C523.11 431.992 514.08 431.836 505.91 431.9Z" fill="#C97850"/>
<path d="M564.38 503.681C566.71 495.502 569.41 484.781 570.11 477.34C572.15 455.713 567.4 451.51 567.1 449.288C569.12 442.316 577.66 429.23 579.17 426.312C579.17 426.312 570.6 414.576 563.17 414.675C563.17 414.675 552.66 427.789 546.79 430.849C546.71 430.849 544.71 431.744 543.84 431.737C538.16 431.694 518.36 431.091 514.67 432.198L510.22 463.041C510.93 464.248 511.79 481.252 512.95 492.726C519.14 495.615 536.38 502.424 564.38 503.681Z" fill="#C97850"/>
<path d="M564.76 475.565C569.59 475.565 573.5 469.363 573.5 461.712C573.5 454.062 569.59 447.86 564.76 447.86C559.93 447.86 556.01 454.062 556.01 461.712C556.01 469.363 559.93 475.565 564.76 475.565Z" fill="#263238"/>
<path d="M549.16 464.376C549.16 472.029 543.83 478.235 537.24 478.235C530.65 478.235 525.33 472.029 525.33 464.376C525.33 456.722 530.67 450.523 537.25 450.523C543.83 450.523 549.16 456.729 549.16 464.376Z" fill="#263238"/>
<path d="M535.85 459.37C530.5 438.02 527.75 431.63 527.72 431.566H529.31C529.42 431.836 531.81 437.573 537.19 459.036L535.85 459.37Z" fill="#263238"/>
<path d="M564.38 451.425C557.09 434.825 547.22 430.764 547.12 430.722L548.58 429.777C549.02 429.955 558.11 433.711 565.62 450.864L564.38 451.425Z" fill="#263238"/>
<path d="M559.69 462.327L546.28 464.284L546.48 465.654L559.89 463.697L559.69 462.327Z" fill="#263238"/>
<path d="M558.65 422.201C558.65 422.201 578.72 389.008 583.5 381.276C588.28 373.545 600.66 343.036 601.1 341.836C601.54 340.636 592.67 326.67 594.66 326.117C596.65 325.563 598.84 333.501 600.96 332.471C603.08 331.442 609.36 311.988 610.56 312.903C612.82 314.615 607.18 324.973 608.38 325.563C609.59 326.152 613.28 314.203 615.65 314.494C618.02 314.785 611.11 325.47 611.77 326.379C612.43 327.288 619.58 317.149 620.89 319.237C621.6 320.358 614.3 328.076 615.69 328.729C617.08 329.383 623.57 324.349 624.21 325.719C624.85 327.089 618.22 329.212 616.21 333.025C614.2 336.838 610.81 338.577 609.38 345.578C607.94 352.578 605.43 381.908 598.17 394.688C590.92 407.468 575.95 431.608 575.95 431.608L558.65 422.201Z" fill="#C97850"/>
<path d="M553.06 721.226C545.37 723.356 539.68 721.936 536.5 720.516C535.68 723.001 534.59 726.103 535.17 727.9C535.88 730.093 536.88 730.591 537.77 730.619C544.8 730.811 563.51 731.08 568.87 731.159C569.04 731.154 569.22 731.101 569.36 731.004C569.51 730.907 569.63 730.77 569.7 730.61C569.78 730.449 569.81 730.271 569.78 730.096C569.76 729.92 569.69 729.755 569.58 729.618C568.22 727.942 553.63 721.602 553.06 721.226Z" fill="#9C5836"/>
<path d="M451.77 642.329C448.06 640.838 440.18 639.865 439.89 640.611C439.52 641.498 429.37 673.448 432.84 678.34C434.94 681.28 437.64 676.842 441.86 670.53C440.63 661.584 449.3 642.549 451.77 642.329Z" fill="#C97850"/>
<path d="M530.96 420.448C530.96 420.448 533.01 431.098 532.6 435.28C532.19 439.462 534.16 445.397 543.03 445.44C551.9 445.482 544.72 435.848 543.88 431.737C543.04 427.626 542.84 414.896 542.84 414.896L530.96 420.448Z" fill="#C97850"/>
<path d="M543.03 421.286C542.89 417.799 542.84 414.896 542.84 414.896L530.96 420.448C530.96 420.448 531.38 422.62 531.8 425.418C537 426.44 540.78 424.509 543.03 421.286Z" fill="#9C5836"/>
<path d="M526.62 391.089C523.64 392.946 521.42 395.806 520.36 399.154C518.69 404.671 520.59 418.906 532.43 422.343C544.27 425.779 549.39 414.533 546.95 405.693C544.52 396.854 539.21 385.714 526.62 391.089Z" fill="#C97850"/>
<path d="M548.42 402.279C548.2 404.644 546.89 406.454 545.51 406.319C544.14 406.184 543.21 404.189 543.44 401.79C543.67 399.39 544.97 397.608 546.35 397.743C547.73 397.877 548.66 399.908 548.42 402.279Z" fill="#C97850"/>
<path d="M528 390.372C528 390.372 525.87 406.255 520.73 409.123C515.59 411.992 517.75 419.063 517.75 419.063C517.75 419.063 513.1 402.698 517.15 397.444C521.21 392.19 528 390.372 528 390.372Z" fill="#0E2E35"/>
<path d="M523.76 411.402C525.18 413.468 525.18 415.91 523.76 416.848C522.34 417.785 520.11 416.848 518.71 414.81C517.32 412.772 517.33 410.294 518.71 409.357C520.1 408.42 522.38 409.329 523.76 411.402Z" fill="#C97850"/>
<path d="M532.43 413.773L541.89 410.55C541.89 410.55 542.91 414.291 538.8 415.832C533.81 417.707 532.43 413.773 532.43 413.773Z" fill="white"/>
<path d="M532.48 466.184L510.91 466.512L510.93 467.896L532.5 467.568L532.48 466.184Z" fill="#263238"/>
<path d="M548.54 429.777C548.54 429.777 547.22 430.196 547.08 430.722L548.31 430.565L548.54 429.777Z" fill="#96D9C9"/>
<path d="M527.72 431.538C527.72 431.538 528.25 430.921 529.31 431.538L528.96 431.971L527.72 431.538Z" fill="#96D9C9"/>
<path d="M510.88 466.555C510.74 466.766 510.67 467.013 510.67 467.265C510.67 467.516 510.74 467.763 510.88 467.975L511.11 467.478L510.88 466.555Z" fill="#96D9C9"/>
<path d="M525.81 500.806C527.23 499.571 520.4 494.118 520.88 492.329C521.36 490.539 531.31 495.957 532.43 494.785C534.5 492.655 521.9 488.189 522.79 487.131C523.68 486.073 536.9 490.014 536.78 487.273C536.65 484.533 522.63 484.625 523.08 483.063C523.53 481.501 536.12 484.156 537.62 481.032C538.42 479.364 515.53 479.236 514 477.227C512.47 475.218 520.93 469.992 519.95 467.997C518.97 466.002 505.04 479.904 503.62 479.833C502.2 479.762 472.73 479.258 463.16 476.694C463.72 473.315 452.09 466.598 445.51 466.932C444.09 477.724 443.08 489.907 444.91 492.392C450.49 499.947 492.85 492.179 500.92 491.306C508.99 490.433 511.57 493.614 516.19 494.508C520.81 495.403 524.4 502.048 525.81 500.806Z" fill="#F7A491"/>
<path d="M605.76 351.854C598.94 351.854 602.09 349.767 606.81 347.985C603.8 348.539 603.38 347.836 603.58 347.033C603.8 346.068 610.1 343.285 611.51 343.682C612.93 344.08 611.76 348.588 611.14 349.873C610.97 350.654 610.74 351.549 610.62 352.529C610.29 355.291 610.19 355.837 609.83 356.881C609.28 358.486 607.65 358.244 605.33 358.415C602.15 358.322 601.78 356.356 606.32 355.326C605.87 355.326 601.69 355.475 601.35 354.424C601.01 353.374 602.61 352.87 605.76 351.854Z" fill="#F8A492"/>
<path d="M123.615 634.534H113.414V738.471H123.615V634.534Z" fill="#FAE0B2"/>
<path d="M200.115 634.534H189.914V738.471H200.115V634.534Z" fill="#FAE0B2"/>
<path d="M276.61 634.534H266.406V738.471H276.61V634.534Z" fill="#FAE0B2"/>
<path d="M353.11 634.534H342.91V738.471H353.11V634.534Z" fill="#FAE0B2"/>
<path d="M429.61 634.534H419.41V738.471H429.61V634.534Z" fill="#FAE0B2"/>
<path d="M506.11 634.534H495.9V738.471H506.11V634.534Z" fill="#FAE0B2"/>
<path d="M582.61 634.534H572.4V738.471H582.61V634.534Z" fill="#FAE0B2"/>
<path d="M603 625.588H93.012V634.534H603V625.588Z" fill="#FAE0B2"/>
<path d="M612.16 747.417L775.33 996.705L0 920.117V764.429L612.16 747.417Z" fill="#13375B"/>
<path opacity="0.3" d="M205.006 975H64.3159L267.584 768.745H408.27L205.006 975Z" fill="white"/>
<path opacity="0.3" d="M303.55 983.506H261.344L480.85 760.779H523.05L303.55 983.506Z" fill="white"/>
<path d="M0 912.03L1300.68 983.293L1366.03 1052.63L175.333 1124.05L0 1127.07V912.03Z" fill="#EAFCFC"/>
<path d="M0 729.524H695.19C705.05 729.524 716.26 739.464 720.23 751.655C724.19 763.881 719.41 773.786 709.58 773.786H0V729.524Z" fill="#EAFCFC"/>
<path opacity="0.5" d="M1325.14 1009.24C1318.69 1002.42 0 982.427 0 982.427V1127.07L1366.03 1052.63L1325.14 1009.24Z" fill="#C5DDF9"/>
<path d="M262.843 1052.63L161.106 1096.89H0V1420H958.88L1500.59 1052.63H262.843Z" fill="#EAFCFC"/>
<path d="M0 1167.35L1330.51 1167.97L1365.89 1143.98L0 1145.25V1167.35Z" fill="#263238"/>
</g>
<path d="M2093.98 1245H2.01702C1.48184 1245 0.968841 1244.68 0.590986 1244.12C0.212458 1243.56 0 1242.8 0 1242C0 1241.2 0.212458 1240.44 0.590986 1239.88C0.968841 1239.32 1.48184 1239 2.01702 1239H2093.98C2094.52 1239 2095.03 1239.32 2095.41 1239.88C2095.78 1240.44 2096 1241.2 2096 1242C2096 1242.8 2095.78 1243.56 2095.41 1244.12C2095.03 1244.68 2094.52 1245 2093.98 1245Z" fill="#2E3552"/>
<path d="M2096 1246H0V1420H2096V1246Z" fill="white"/>
</g>
<defs>
<linearGradient id="paint0_linear_2023_399" x1="1.88892" y1="1240.58" x2="2095.99" y2="1240.58" gradientUnits="userSpaceOnUse">
<stop stop-color="#1E88B5"/>
<stop offset="1" stop-color="#3ADEFB"/>
</linearGradient>
<linearGradient id="paint1_linear_2023_399" x1="-4.37001e+06" y1="656612" x2="-4.35748e+06" y2="354611" gradientUnits="userSpaceOnUse">
<stop stop-color="#437BD2"/>
<stop offset="1" stop-color="#699DEE"/>
</linearGradient>
<clipPath id="clip0_2023_399">
<rect width="2096" height="1420" fill="white"/>
</clipPath>
</defs>
</svg>
