<svg width="2697" height="1420" viewBox="0 0 2697 1420" fill="none" xmlns="http://www.w3.org/2000/svg">
<g clip-path="url(#clip0_2022_212)">
<path d="M0 1420H2697V0H0V1420Z" fill="white"/>
<path d="M2246.79 557.332C2128.95 520.422 2087.83 3.68097 1564.4 262.052C1451.69 317.689 1312.12 306.742 1162.26 295.795C1035.36 286.528 901.072 277.262 769.457 308.423C505.845 370.838 499.786 550.877 533.116 615.693C569.535 686.514 424.302 771.187 275.563 829.346C42.2499 920.569 213.815 1241.15 434.228 1242.69C654.641 1244.22 2273.96 1239.63 2273.96 1239.63C2273.96 1239.63 2714.62 703.87 2246.79 557.332Z" fill="#F1F1F1"/>
<path d="M857 1102.2C856.993 1104.84 855.693 1106.66 853.48 1107.88L853.446 1107.89C849.357 1110.15 842.182 1110.38 834.371 1110.04C833.372 1110 832.474 1109.97 831.669 1109.97C831.462 1109.97 831.254 1109.97 831.046 1109.98C830.885 1109.98 830.717 1109.98 830.563 1109.98C822.833 1110.17 823.651 1112.49 808.967 1113.75C792.225 1115.18 786.057 1110.05 785.065 1107.71C784.24 1105.73 791.421 1103.48 799.446 1100.91C799.835 1100.79 800.224 1100.66 800.62 1100.53C801.686 1100.19 802.759 1099.84 803.831 1099.49C813.386 1096.3 822.792 1092.53 825.139 1082.84C827.633 1072.56 820.151 1043.87 820.151 1043.87L846.681 1041C846.681 1041 849.236 1070.99 850.905 1080.34C851.804 1085.33 854.057 1089.29 855.377 1093.56C855.471 1093.87 855.565 1094.17 855.646 1094.46C856.323 1096.98 857.007 1099.54 857 1102.2Z" fill="#E49963"/>
<path d="M857 1101.87C856.993 1104.59 855.693 1106.46 853.48 1107.71L853.446 1107.73C849.095 1109.8 842.035 1110.1 834.385 1109.88C833.386 1109.85 832.487 1109.84 831.669 1109.86C831.462 1109.86 831.254 1109.86 831.046 1109.87C830.885 1109.87 830.717 1109.87 830.563 1109.87C822.833 1110.07 823.651 1112.45 808.967 1113.75C792.225 1115.22 786.057 1109.94 785.065 1107.54C784.24 1105.5 791.421 1103.19 799.446 1100.55C801.699 1101.44 812.434 1105.28 825.132 1102.8C836.302 1100.64 847.399 1094.92 855.377 1093C855.471 1093.31 855.565 1093.62 855.646 1093.93C856.323 1096.51 857.007 1099.14 857 1101.87Z" fill="#AD7263"/>
<path d="M684.852 1068.48C683.374 1075.86 672.841 1074.63 661.073 1071.76C654.667 1070.19 652.577 1070.49 649.302 1070.79C646.559 1071.04 642.985 1071.29 635.351 1070.45C618.602 1068.6 613.529 1062.37 613.018 1059.88C612.56 1057.68 620.836 1056.9 629.713 1055.88C630.83 1055.75 631.951 1055.62 633.073 1055.48C643.096 1054.22 650.434 1047.77 659.539 1042.48C668.162 1037.45 681.03 1017 681.03 1017L704 1018.82C704 1018.82 691.947 1037.08 687.285 1045.03C684.542 1049.7 684.687 1055.87 685.03 1060.65C685.207 1063.23 685.377 1065.89 684.852 1068.48Z" fill="#E49963"/>
<path d="M660.937 1071.77C649.201 1068.92 651.991 1072.31 635.289 1070.47C618.587 1068.63 613.528 1062.45 613.018 1059.97C612.562 1057.79 620.815 1057.01 629.667 1056L629.749 1056.17C629.749 1056.17 639.765 1063.23 653.668 1063.56C664.999 1063.83 677.001 1060.61 684.826 1060.73C685.003 1063.31 685.172 1065.94 684.65 1068.52C683.175 1075.84 672.671 1074.62 660.937 1071.77Z" fill="#AD7263"/>
<path d="M736 730.56C736 730.56 730.462 717.45 724.373 716.911C718.282 716.378 698.903 713.431 697.519 716.108C696.135 718.786 697.519 728.423 701.671 731.902C705.824 735.382 731.571 741 731.571 741L736 730.56Z" fill="#FFB27D"/>
<path d="M773 921.003L822.633 1054.87C822.633 1054.87 830.258 1055.62 837.566 1053.5C844.294 1051.56 852 1046.46 852 1046.46C852 1046.46 839.69 917.915 817.118 891.176C794.547 864.444 773 921.003 773 921.003Z" fill="#365DA4"/>
<path d="M968.629 867.267C968.629 867.267 826.533 819.201 794.839 829.428C763.153 839.655 668 1029.02 668 1029.02C668 1029.02 670.145 1031.89 676.008 1034.08C681.461 1036.13 694.658 1036 694.658 1036C694.658 1036 780.531 962.371 790.755 940.894C800.979 919.418 805.063 898.963 815.288 901.013C825.512 903.056 947.16 951.122 974.762 922.489C1002.36 893.85 995.15 856.649 995.15 856.649L968.629 867.267Z" fill="#466AA5"/>
<path d="M881.533 643.715C879.256 639.038 876.703 630.725 875.453 615.91C875.649 617.379 878.216 636.066 885.45 646.647C915.165 666.025 972.13 730.734 971.002 743C971.002 743 991.064 709.196 991.409 708.995C991.409 708.995 1028.42 662.247 984.552 635.475C962.261 621.861 962.376 604.396 963.308 589.225C964.247 574.047 957.229 508.734 912.572 525.83C912.572 525.83 905.405 522.663 902.196 523.14C902.196 523.14 904.817 523.636 906.148 525.005C900.973 524.696 893.57 525.079 887.396 528.568C871.022 537.807 856.37 620.714 881.533 643.715Z" fill="#7B5248"/>
<path d="M887.001 647.727C886.853 647.787 901.324 655.272 912.207 652.305C922.443 649.526 929.139 636.308 928.998 636.281C924.662 635.422 923.408 629.495 923.502 604L921.54 604.389L888.579 610.881C888.579 610.881 889.327 621.211 889.354 630.938C889.375 639.108 888.876 646.854 887.001 647.727Z" fill="#FFB27D"/>
<path d="M889 610.601C889 610.601 889.749 621.108 889.776 631C908.241 630.474 918.003 613.441 922 604L889 610.601Z" fill="#E8945B"/>
<path d="M924.803 601C924.803 601 934.411 585.67 936.718 572.554C938.368 563.189 933.647 528.487 899.114 533.491C899.114 533.491 889.083 534.486 879.655 540.912C872.159 546.031 861.336 557.068 873.433 587.349L876.577 597.581L924.803 601Z" fill="#7B5248"/>
<path d="M882.611 619.998C882.611 619.998 926.476 620.723 926.509 593.402C926.537 566.088 932.217 547.786 904.215 546.166C876.206 544.554 870.749 554.969 868.525 564.082C866.295 573.196 871.196 619.104 882.611 619.998Z" fill="#FFB27D"/>
<path d="M923.955 551.212C923.955 551.212 894.028 530.908 884.565 544.946C881.695 542.508 876.584 540.735 869.822 548.868C859.668 561.078 868.705 582.672 868.705 582.672C872.875 583.155 873.856 568.957 876.043 562.066C877.688 556.867 883.184 551.555 885.79 549.258C889.608 557.808 900.121 578.266 914.607 581.96C933.019 586.661 941 581.765 941 581.765C941 581.765 926.879 570.636 923.955 551.212Z" fill="#7B5248"/>
<path d="M984.344 764.84C988.635 746.799 974.049 711.803 958.832 682.824C945.019 656.561 930.682 635.252 929.399 636.02C892.976 657.714 889.685 639.68 889.685 639.68C889.685 639.68 856.599 644.087 847.231 660.275C834.271 682.649 820.162 749.812 806.295 748.821C799.929 748.363 735.885 724.203 735.885 724.203C735.885 724.203 725.217 734.238 727.26 746.543C727.26 746.543 758.878 767.792 785.625 781.351C799.768 788.522 812.547 793.543 818.557 792.121C830.738 789.243 849.769 760.905 860.051 744.218L860.118 744.104C873.246 818.653 855.397 835.629 864.429 843.494C873.971 851.797 887.597 839.538 917.574 852.578C937.236 861.137 964.527 873.517 982.893 875.674C992.529 876.806 999.715 875.121 1002.06 868.591C1008.87 849.62 976.171 799.224 984.344 764.84Z" fill="#F1A34F"/>
<path d="M892 603.129C892 603.129 891.21 606.46 882.828 605.946C882.828 605.946 875.788 605.517 876.005 601.855C876.005 601.855 882.828 599.253 892 603.129Z" fill="white"/>
<path d="M1002.06 868.578C999.72 875.119 992.545 876.807 982.923 875.673C970.23 870.104 915.388 848.71 916.005 834.216C916.917 812.756 926.546 812.074 919.747 785.59C914.282 764.319 951.415 720.594 959.502 712C974.696 741.022 988.656 746.578 984.372 764.649C976.211 799.092 1008.87 849.574 1002.06 868.578Z" fill="#E58638"/>
<path d="M860 743.698C849.64 760.439 830.462 788.871 818.186 791.758C812.129 793.184 799.252 788.147 785 780.953C795.401 783.637 805.504 783.563 815.323 782.616C825.968 781.582 829.054 768.553 845.877 748.999C856.786 736.322 859.465 739.513 860 743.698Z" fill="#E58638"/>
<path d="M910.385 784.764C910.385 784.764 901.222 777.543 892.573 779.265C883.918 780.981 879.678 787.001 880.019 789.754C880.353 792.506 884.935 800.242 891.557 800.933C898.172 801.618 917 796.804 917 796.804L910.385 784.764Z" fill="#FFB27D"/>
<path d="M928.917 636C928.917 636 964.316 638.181 976.572 655.272C993.822 679.322 1023.79 777.534 1015.62 800L907.908 799.55C907.908 799.55 905.297 787.351 908.929 781.446C912.56 775.548 971.578 766.019 974.303 763.295C977.028 760.57 940.253 710.189 940.253 702.016C940.253 693.85 928.917 636 928.917 636Z" fill="#F1A34F"/>
<path d="M1068.02 790.665C1068.02 790.665 1058.34 787.141 1053.66 788.198C1048.98 789.261 1034.47 796.679 1034.14 798.264C1033.82 799.857 1034.14 801 1034.14 801H1068.02C1068.02 801 1075.6 799.386 1076.89 794.501C1078.18 789.609 1068.02 790.665 1068.02 790.665Z" fill="#FFB27D"/>
<path d="M1196.45 1225.32C1196.18 1228.15 1194.62 1229.97 1192.14 1231.05L1192.11 1231.06C1187.52 1233.07 1179.82 1232.61 1171.51 1231.5C1170.45 1231.36 1169.49 1231.24 1168.63 1231.16C1168.41 1231.14 1168.18 1231.12 1167.96 1231.11C1167.79 1231.09 1167.61 1231.08 1167.44 1231.07C1159.17 1230.52 1159.82 1233.08 1144 1233C1125.97 1232.9 1119.87 1226.82 1119.04 1224.24C1118.35 1222.04 1126.24 1220.33 1135.07 1218.36C1135.5 1218.28 1135.92 1218.18 1136.36 1218.08C1137.53 1217.82 1138.71 1217.54 1139.89 1217.28C1150.41 1214.81 1160.83 1211.69 1164.27 1201.57C1167.93 1190.84 1167.07 1159 1167.07 1159H1199C1199 1159 1190.61 1194.17 1191.49 1204.31C1191.97 1209.73 1194.56 1211.26 1195.55 1215.96C1195.63 1216.29 1195.69 1216.62 1195.75 1216.94C1196.23 1219.68 1196.72 1222.49 1196.45 1225.32Z" fill="#AD7041"/>
<path d="M1234.31 881.047C1231.6 896.204 1227.73 911.859 1224.37 928.147C1218.96 954.336 1214.89 982.153 1219.07 1012.11C1219.59 1015.97 1219.88 1020.22 1219.95 1024.8C1220.76 1077.74 1196.99 1173.69 1196.99 1173.69C1196.99 1173.69 1190.54 1176.46 1179.72 1175.93C1174.15 1175.66 1165.6 1172.08 1165.6 1172.08C1165.6 1172.08 1163.35 1112.59 1163.22 1032.58C1163.12 974.595 1151.67 898.237 1149.37 853.371C1147.97 826.22 1151.01 790.043 1151.01 790.043C1151.01 790.043 1198.38 752.123 1215.4 771.527C1232.21 790.696 1244.46 824.362 1234.31 881.047Z" fill="#415DA5"/>
<path d="M1218.78 1012.29C1219.3 1016.16 1219.59 1020.42 1219.65 1025C1184.73 973.747 1177 862 1177 862L1215.36 880.855C1215.36 880.855 1219.57 901.806 1224 928.198C1218.68 954.427 1214.67 982.288 1218.78 1012.29Z" fill="#355493"/>
<path d="M1298.93 1225.32C1298.66 1228.15 1297.09 1229.96 1294.59 1231.05L1294.55 1231.06C1289.94 1233.07 1282.2 1232.61 1273.83 1231.5C1272.77 1231.36 1271.8 1231.24 1270.93 1231.16C1270.71 1231.14 1270.48 1231.12 1270.26 1231.11C1270.09 1231.09 1269.91 1231.08 1269.74 1231.07C1261.41 1230.52 1262.07 1233.08 1246.15 1233C1228.01 1232.9 1221.88 1226.82 1221.04 1224.23C1220.34 1222.03 1228.28 1220.33 1237.17 1218.36C1237.59 1218.27 1238.03 1218.17 1238.46 1218.08C1239.64 1217.82 1240.83 1217.54 1242.02 1217.28C1252.6 1214.8 1263.09 1211.69 1266.55 1201.56C1270.23 1190.83 1264.98 1159.48 1264.98 1159.48L1294.74 1157C1294.74 1157 1292.89 1192.73 1293.78 1202.87C1294.26 1208.28 1297.03 1211.26 1298.03 1215.95C1298.1 1216.28 1298.17 1216.61 1298.22 1216.94C1298.71 1219.68 1299.19 1222.49 1298.93 1225.32Z" fill="#AD7041"/>
<path d="M1294.99 1175.99C1294.99 1175.99 1287.37 1179.59 1281.88 1180.69C1276.39 1181.78 1265 1179.64 1265 1179.64C1262.94 1156.62 1258.17 1120.62 1248.88 1079.99C1238.32 1033.74 1222.59 979.089 1200.66 927.333C1195.98 916.275 1176.67 863.953 1173.39 850.75C1163.48 810.858 1173.43 815.156 1173.43 815.156L1260.05 805C1260.05 805 1270.72 810.482 1275.63 866.819C1277.11 883.688 1277.29 956.53 1279.5 970.339C1281.6 983.421 1284.06 994.29 1286.94 1001.36C1303.03 1040.81 1294.99 1175.99 1294.99 1175.99Z" fill="#415DA5"/>
<path d="M1298.93 1225.34C1298.66 1228.16 1297.09 1229.97 1294.59 1231.05L1294.55 1231.07C1289.68 1232.8 1282.06 1232.42 1273.85 1231.45C1272.78 1231.33 1271.82 1231.23 1270.93 1231.17C1270.71 1231.15 1270.48 1231.13 1270.26 1231.11C1270.09 1231.1 1269.91 1231.09 1269.74 1231.07C1261.41 1230.53 1262.07 1233.08 1246.15 1233C1228.01 1232.9 1221.88 1226.84 1221.04 1224.26C1220.34 1222.06 1228.28 1220.37 1237.17 1218.4C1239.5 1219.55 1250.68 1224.57 1264.58 1223.22C1276.79 1222.06 1289.26 1217.21 1298.03 1216C1298.1 1216.33 1298.17 1216.66 1298.22 1216.99C1298.71 1219.72 1299.19 1222.52 1298.93 1225.34Z" fill="#AD7263"/>
<path d="M1196.92 1225.34C1196.66 1228.16 1195.08 1229.97 1192.59 1231.05L1192.55 1231.07C1187.67 1232.8 1180.05 1232.42 1171.85 1231.45C1170.78 1231.33 1169.82 1231.23 1168.94 1231.17C1168.71 1231.15 1168.49 1231.13 1168.26 1231.11C1168.09 1231.1 1167.91 1231.09 1167.74 1231.07C1159.41 1230.53 1160.07 1233.08 1144.15 1233C1126.01 1232.9 1119.87 1226.84 1119.04 1224.26C1118.35 1222.06 1126.28 1220.37 1135.17 1218.4C1137.51 1219.55 1148.68 1224.57 1162.58 1223.22C1174.79 1222.06 1187.26 1217.21 1196.02 1216C1196.1 1216.33 1196.17 1216.66 1196.22 1216.99C1196.71 1219.72 1197.19 1222.52 1196.92 1225.34Z" fill="#AD7263"/>
<path d="M1161.99 546.513C1159.07 522.684 1166.52 484.56 1214.09 490.65C1261.66 496.746 1276.65 543.485 1267.05 564.266C1257.46 585.047 1280.87 590.056 1288.22 612.401C1294.52 631.604 1296.73 655.44 1306.94 666.136C1339.87 700.628 1275.32 753.665 1236.41 742.479C1165.53 722.107 1156.4 719.073 1158.92 663.397C1160.21 634.868 1182.41 623.816 1168.31 615.564C1134.27 595.629 1168.59 600.43 1161.99 546.513Z" fill="#2B478B"/>
<path d="M1232 608.861L1219.03 642.62L1190.97 644L1177 622.938C1192.86 610.85 1192.18 587.705 1191.4 579.622C1191.22 577.8 1191.05 576.742 1191.05 576.742L1226.13 566C1226.55 575.329 1227.07 582.629 1227.63 588.335C1229.59 608.385 1232 608.861 1232 608.861Z" fill="#FFB27D"/>
<path d="M1176.83 607.479C1178.66 607.479 1209.66 601.193 1262 614.538C1262 614.538 1233.33 745.449 1243.07 770.118C1252.81 794.795 1256.51 816.69 1256.51 816.69L1150.86 818C1150.86 818 1152.34 733.305 1147.47 703.337C1142.6 673.361 1176.83 607.479 1176.83 607.479Z" fill="#FFB27D"/>
<path d="M1254.42 754.031C1255.97 771.361 1272.24 810.966 1268.71 819.402C1265.03 828.262 1259.9 832.749 1248.69 835.309C1240.96 837.082 1230.35 837.935 1215.32 838.681C1183.44 840.252 1149.29 836.269 1144.64 821.189C1142.41 813.948 1143.27 785.938 1144.45 773.007C1146.89 746.246 1141.77 707.851 1141.02 683.004C1140.41 662.281 1152.97 615.12 1152.97 615.12C1152.97 615.12 1158.64 611.56 1176.41 608C1176.41 608 1178.28 632.491 1191.12 634.6C1213.33 638.247 1231.23 618.002 1236.45 609.847C1236.45 609.847 1261.96 616.255 1269.45 624.753C1276.54 632.793 1266.84 692.374 1264.68 698.091C1262.82 702.994 1261.06 707.777 1259.53 712.586C1255.47 725.275 1253 738.165 1254.42 754.031Z" fill="#F1A34F"/>
<path d="M1344.98 791.455C1344.98 791.455 1354.67 788.206 1359.34 789.183C1364.02 790.161 1378.53 797.009 1378.86 798.479C1379.18 799.942 1378.86 801 1378.86 801H1344.98C1344.98 801 1337.41 799.51 1336.11 795.001C1334.82 790.484 1344.98 791.455 1344.98 791.455Z" fill="#FFB27D"/>
<path d="M1228 590C1215.05 581.497 1198.78 581.081 1191.36 581.418C1191.17 579.623 1191 578.581 1191 578.581L1226.48 568C1226.91 577.189 1227.43 584.38 1228 590Z" fill="#E8945B"/>
<path d="M1181.35 578.701C1181.35 578.701 1223.74 587.181 1228.63 560.805C1233.53 534.429 1242.29 517.757 1215.43 511.225C1188.58 504.699 1181.44 513.795 1177.66 522.201C1173.88 530.607 1170.46 575.81 1181.35 578.701Z" fill="#FFB27D"/>
<path d="M1237.25 513.077C1230.09 505.006 1219.75 503.433 1212.21 503.561C1216.76 498.05 1198.49 485.966 1177.61 506.578C1168.61 515.456 1169.97 532.909 1174.79 543.037C1174.79 543.037 1182.19 521.336 1195.66 516.598C1198.66 515.55 1201.5 513.789 1204.12 511.699C1205.76 515.826 1209.06 521.666 1215.7 528.931C1229.62 544.18 1226.91 575 1226.91 575C1226.91 575 1249.77 527.177 1237.25 513.077Z" fill="#2B478B"/>
<path d="M1195 566.07C1195 566.07 1193.89 568.973 1186.03 567.658C1186.03 567.658 1179.43 566.554 1180.04 563.297C1180.04 563.297 1186.77 561.66 1195 566.07Z" fill="white"/>
<path d="M1311.06 727.729C1295.04 665.942 1286.24 630.668 1273.11 619.988C1261.5 610.549 1236.46 609.684 1236.46 609.684C1236.07 617.117 1236.42 624.57 1237.34 631.957L1206.53 690.603C1206.53 690.603 1190.75 721.799 1185.14 755.926C1180.9 722.033 1176.7 690.603 1176.7 690.603C1176.7 690.603 1172.72 670.558 1171.47 652.203C1175.19 637.894 1174.8 622.954 1176.54 608L1174.6 608.107C1168.52 608.537 1149.56 610.462 1139.89 618.392C1126.76 629.166 1123.81 676.462 1101.94 727.085C1101.94 727.085 1075.43 771.604 1067 789.267C1067 789.267 1068.58 791.676 1071.74 793.501C1074.8 795.265 1078.67 795.963 1078.67 795.963C1078.67 795.963 1126.48 748.928 1129.62 741.495C1130.65 739.047 1136.44 730.473 1143.62 717.854C1143.62 717.854 1145.53 785.054 1141.35 814.056C1140.46 820.194 1143.41 826.259 1148.82 829.305C1178.34 845.969 1266.8 891.36 1283.26 847.277C1285.11 842.333 1252.78 758.381 1257.21 740.207C1258.62 734.391 1260.49 721.135 1262.38 705.799C1272.5 725.2 1282.02 738.832 1283.38 742.012C1286.52 749.385 1334.33 796.003 1334.33 796.003C1334.33 796.003 1338.2 795.312 1341.26 793.561C1344.42 791.756 1346 789.368 1346 789.368C1337.57 771.859 1311.06 727.729 1311.06 727.729Z" fill="#DFAFA3"/>
<path d="M1235.25 609L1207 690L1235.24 663.331L1233.11 655.042C1233.11 655.042 1239.6 655.618 1242.23 653.923C1244.87 652.221 1251 610.809 1251 610.809C1251 610.809 1245.26 609.851 1243.35 609.63C1241.32 609.395 1235.25 609 1235.25 609Z" fill="#AD7263"/>
<path d="M1176.85 608C1176.85 608 1170.93 671.633 1177 690C1177 690 1159.61 662.529 1162.87 656.842L1169.17 652.699C1169.17 652.699 1157.01 651.121 1159.28 644.148C1161.57 637.176 1171.34 608.899 1171.34 608.899L1176.85 608Z" fill="#AD7263"/>
<path d="M552 1243H1529V1022.2L552 1020V1243Z" fill="#263238"/>
<path d="M552 842V900H1529V842H552Z" fill="#263238"/>
<path d="M1571.34 842H483.658C473.354 842 465 833.797 465 823.688V819.312C465 809.196 473.354 801 483.658 801H1571.34C1581.64 801 1590 809.196 1590 819.312V823.688C1590 833.797 1581.64 842 1571.34 842Z" fill="#466AA5"/>
<path d="M421 1241H351.03C350.067 1239.38 349.525 1236.73 349.251 1233.74C348.542 1226.09 349.559 1216.29 349.559 1216.29C349.559 1216.29 372.795 1196.95 376.354 1211.3C379.905 1225.67 399.242 1231.75 410.205 1233.29C417.863 1234.36 420.258 1238.57 421 1241Z" fill="#263238"/>
<path d="M359 1241H286.669C283.695 1234.45 285.602 1216.29 285.602 1216.29C285.602 1216.29 308.92 1196.95 312.484 1211.3C316.048 1225.67 335.453 1231.75 346.462 1233.29C347.274 1233.4 348.032 1233.56 348.757 1233.74C354.436 1235.18 357.503 1238.62 359 1241Z" fill="#263238"/>
<path d="M319 850C319 850 319.055 852.619 319.158 857.333C319.815 887.714 322.419 1005.17 324.889 1070.66C324.991 1073.05 325.078 1075.35 325.165 1077.59C325.213 1078.78 325.261 1079.97 325.308 1081.14C326.788 1112.8 331.094 1143.8 335.447 1168.59C340.995 1200.21 346.63 1221.75 346.63 1221.75C367.782 1226.02 381.49 1218 381.49 1218C381.49 1218 387.193 1168.92 389.362 1139.22C390.074 1129.59 393.557 1096.71 397.926 1056.7C401.313 1025.78 405.231 990.581 408.825 958.577C409.014 956.867 409.196 955.163 409.394 953.487C415.196 901.74 420 859.588 420 859.588L382.603 856.04L319 850Z" fill="#2B478B"/>
<path d="M335.314 1168L397.891 1056.31C401.284 1025.44 405.208 990.303 408.807 958.355C408.997 956.648 409.179 954.948 409.377 953.274C415.188 901.619 420 859.542 420 859.542L382.544 856L319 857.291L335.314 1168Z" fill="#1C3266"/>
<path d="M413 860.352C413 860.352 378.087 1032.49 349.639 1115.58C321.191 1198.66 320.836 1221.74 320.836 1221.74C320.836 1221.74 294.732 1227.39 283.232 1220.83C283.232 1220.83 276.66 1063.33 293.874 1021.5C305.259 993.836 313.969 934.947 311.009 913.739C308.049 892.531 305.287 850 305.287 850L413 860.352Z" fill="#2B478B"/>
<path d="M371.622 625L337 615.3C337 615.3 342.88 601.008 344.919 586.104C346.05 577.831 346.003 569.376 343.11 563.075C342.934 562.678 342.738 562.294 342.541 561.917C341.22 559.467 342.026 558.342 343.781 558.073C346.924 557.568 353.108 559.763 355.723 561.93C359.699 565.222 378.829 574.876 379.825 575.38L379.865 575.401C379.865 575.401 379.899 575.542 379.933 575.811L379.94 575.832C380.048 576.498 380.265 577.905 380.468 579.864C381.437 589.039 382.263 610.379 371.622 625Z" fill="#FFB27D"/>
<path d="M314.698 869.278C322.883 875.103 335.781 877.206 349.988 876.984C366.579 876.716 384.941 873.275 399.619 868.861C407.514 866.496 414.336 863.849 419.259 861.269C441.189 849.779 438.076 834.494 437.551 777.262C437.018 718.847 401.229 643.333 394.785 630.695C383.314 608.193 331.853 616.498 331.853 616.498C320.563 621.933 316.548 640.054 315.45 663.732C314.227 690.03 316.603 723.181 316.603 753.423C316.603 778.417 311.906 800.516 308.488 818.845C304.058 842.644 301.776 860.079 314.698 869.278Z" fill="#699DEE"/>
<path d="M308 818.843C317.96 839.813 337.571 863.41 349.739 877C366.425 876.731 384.893 873.29 399.655 868.874C405.868 854.021 408.589 829.22 402.849 788.276C398.472 757.064 366.575 631.495 366.575 631.495C340.821 628.141 324.804 642.155 315.002 663.682C313.772 689.988 316.162 723.149 316.162 753.401C316.162 778.403 311.438 800.508 308 818.843Z" fill="#437BD2"/>
<path d="M350.686 911.837C350.686 904.571 356.593 898.662 363.852 898.662H383.148C390.407 898.662 396.313 904.571 396.313 911.837V919.096H350.686V911.837ZM428.277 919.096H404.962V911.837C404.962 899.797 395.176 890 383.148 890H363.852C351.823 890 342.037 899.797 342.037 911.837V919.096H318.722C311.725 919.096 306 924.824 306 931.834V991.268C306 998.272 311.725 1004 318.722 1004H428.277C435.275 1004 441 998.272 441 991.268V931.834C441 924.824 435.275 919.096 428.277 919.096Z" fill="#365DA4"/>
<path d="M380.246 875.247C380.246 875.247 393.924 901.184 387.085 911.274C380.246 921.364 355.822 908.392 353.868 902.628C351.915 896.865 353.868 869 353.868 869L380.246 875.247Z" fill="#FFB27D"/>
<path d="M323.001 671.689C323.001 671.689 327.985 743.273 327.922 772.888C327.859 802.509 351.265 881.275 351.265 881.275C351.265 881.275 366.754 882.528 372.832 881.74C379.835 880.83 384.008 877.59 384.008 877.59C384.008 877.59 378.867 784.522 388.676 748.851C398.484 713.187 399 641.535 399 641.535C399 641.535 393.551 626.074 360.937 630.952C322.246 636.745 323.001 671.689 323.001 671.689Z" fill="#699DEE"/>
<path d="M337.018 590.898C334.545 599.5 331.078 612.781 332.227 616.068C332.227 616.068 380.645 621.156 400 640C400 640 392.995 614.267 385.253 607.506C379.621 602.579 357.852 592.029 346.408 586.647C342.633 584.873 338.17 586.895 337.018 590.898Z" fill="#365DA4"/>
<path d="M380 579.783C376.156 579.756 352.205 579.836 345.476 585.524C345.234 585.725 345.006 585.886 344.791 586C345.912 577.757 345.865 569.334 343 563.056C343.242 561.131 343.476 559.408 343.664 558.073C346.777 557.57 352.902 559.756 355.492 561.916C359.43 565.196 378.376 574.813 379.363 575.316L379.47 575.745L379.477 575.765C379.584 576.429 379.799 577.831 380 579.783Z" fill="#E8945B"/>
<path d="M395.885 578.898C395.885 578.898 356.127 586.532 351.769 561.615C347.412 536.691 339.345 520.895 364.544 514.963C389.744 509.038 396.352 517.672 399.823 525.638C403.293 533.597 406.114 576.27 395.885 578.898Z" fill="#FFB27D"/>
<path d="M344.694 572C344.694 572 346.755 570.432 338.735 558.288C330.716 546.144 326.911 549.475 326.812 536.533C326.713 523.592 321.894 515.824 336.926 507.4C351.957 498.975 349.563 491.167 358.582 489.304C367.601 487.434 380.717 494.86 388.456 493.299C396.195 491.73 420.441 523.263 404.911 530.722C404.911 530.722 397.697 531.084 392.63 527.961C387.564 524.838 368.972 521.681 366.799 527.331C364.625 532.974 352.849 567.637 344.694 572Z" fill="#263238"/>
<path d="M2509.14 1245H219.862C218.838 1245 218 1244.1 218 1243C218 1241.9 218.838 1241 219.862 1241H2509.14C2510.16 1241 2511 1241.9 2511 1243C2511 1244.1 2510.16 1245 2509.14 1245Z" fill="#283250"/>
<path d="M908.786 700.973L888.182 697.906C886.792 697.7 885.829 696.358 886.025 694.907L887.343 685.279C887.54 683.828 888.825 682.821 890.208 683.027L910.818 686.094C912.208 686.3 913.171 687.642 912.975 689.093L911.657 698.721C911.46 700.172 910.175 701.179 908.786 700.973Z" fill="#DEEDFF"/>
<path d="M895.721 696L889 695.039L890.285 686L897 686.961L895.721 696Z" fill="#739AF0"/>
<path d="M908.658 690.986L900.008 689.616C899.371 689.51 898.923 688.844 899.011 688.132C899.106 687.413 899.703 686.914 900.341 687.012L908.99 688.39C909.635 688.496 910.082 689.162 909.987 689.873C909.899 690.592 909.302 691.092 908.658 690.986Z" fill="#739AF0"/>
<path d="M909.486 693.995L899.385 692.761C899.14 692.732 898.97 692.539 899.004 692.33C899.038 692.12 899.262 691.975 899.507 692.004L909.615 693.238C909.86 693.267 910.03 693.459 909.996 693.669C909.962 693.879 909.731 694.03 909.486 693.995Z" fill="#739AF0"/>
<path d="M909.491 694.996L899.385 693.765C899.14 693.736 898.97 693.538 899.004 693.329C899.038 693.12 899.269 692.975 899.514 693.004L909.614 694.235C909.858 694.264 910.035 694.462 909.994 694.671C909.96 694.88 909.736 695.025 909.491 694.996Z" fill="#739AF0"/>
<path d="M1250.91 688.995L1231.25 687.77C1229.93 687.688 1228.92 686.538 1229 685.196L1229.54 676.283C1229.62 674.941 1230.76 673.922 1232.09 674.005L1251.75 675.23C1253.07 675.312 1254.08 676.469 1254 677.811L1253.45 686.717C1253.37 688.059 1252.24 689.078 1250.91 688.995Z" fill="#DEEDFF"/>
<path d="M1238.47 685L1232 684.649L1232.54 677L1239 677.351L1238.47 685Z" fill="#739AF0"/>
<path d="M1249.88 679.997L1242 679.441C1241.41 679.403 1240.96 678.816 1241 678.144C1241.04 677.473 1241.55 676.963 1242.13 677.002L1250 677.558C1250.59 677.604 1251.04 678.183 1251 678.855C1250.96 679.526 1250.46 680.043 1249.88 679.997Z" fill="#739AF0"/>
<path d="M1250.58 682.999L1241.38 682.171C1241.16 682.151 1240.99 681.869 1241 681.547C1241.01 681.225 1241.21 680.982 1241.43 681.001L1250.62 681.82C1250.84 681.839 1251.02 682.122 1251 682.443C1250.98 682.765 1250.8 683.018 1250.58 682.999Z" fill="#739AF0"/>
<path d="M1250.58 683.999L1241.38 683.59C1241.16 683.58 1240.99 683.439 1241 683.278C1241.01 683.117 1241.21 682.991 1241.43 683.001L1250.62 683.415C1250.84 683.424 1251.01 683.566 1251 683.727C1250.99 683.887 1250.8 684.009 1250.58 683.999Z" fill="#739AF0"/>
<path d="M1189 759.003C1189 757.347 1190.35 756 1192 756C1193.66 756 1195 757.347 1195 759.003C1195 760.66 1193.66 762 1192 762C1190.35 762 1189 760.66 1189 759.003Z" fill="#AD7263"/>
<path d="M1189 777.997C1189 776.34 1190.35 775 1192 775C1193.66 775 1195 776.34 1195 777.997C1195 779.653 1193.66 781 1192 781C1190.35 781 1189 779.653 1189 777.997Z" fill="#AD7263"/>
<path d="M2389.89 1108.33C2389.89 1108.33 2368.54 1083.58 2388.58 1067.85C2388.58 1067.85 2403.22 1059.04 2415.15 1059.76C2415.15 1059.76 2398.24 1087.94 2403.71 1090.74C2409.19 1093.54 2420.28 1057.99 2420.28 1057.99C2420.28 1057.99 2453.59 1054.79 2464.31 1059.9C2464.31 1059.9 2435.83 1083.05 2441.83 1084.44C2447.82 1085.82 2478.58 1063.09 2478.58 1063.09C2478.58 1063.09 2509.59 1068.33 2507.94 1087.13C2506.28 1105.92 2495.6 1111.72 2490.91 1111.22C2486.21 1110.72 2458.74 1100.3 2458.14 1104.12C2457.54 1107.94 2474.08 1120.44 2485.65 1121.02C2485.65 1121.02 2463.8 1144.98 2449.27 1138.06C2434.74 1131.15 2433.51 1120.19 2424.45 1116.09C2415.39 1111.97 2407.66 1111.98 2411.4 1116.17C2415.14 1120.36 2431.53 1124.44 2436.7 1133.54C2441.88 1142.64 2446.53 1148.78 2431.5 1146.53C2416.47 1144.29 2392.04 1133.36 2390.97 1120.85C2389.89 1108.33 2389.89 1108.33 2389.89 1108.33Z" fill="#82B378"/>
<path d="M2492 1088.14C2492 1088.14 2408.17 1084.96 2389.66 1108.61C2389.66 1108.61 2385.57 1120.71 2372.97 1131.72L2371 1137C2371 1137 2385.53 1121.89 2390.73 1120.98C2390.73 1120.98 2382.6 1091.68 2492 1088.14Z" fill="#82B378"/>
<path d="M2373.26 1132.08C2373.26 1132.08 2355.25 1145.23 2354 1168.71L2357.27 1169C2357.27 1169 2363.02 1144.72 2373.42 1135.22C2383.82 1125.73 2373.26 1132.08 2373.26 1132.08Z" fill="#82B378"/>
<path d="M2315.66 1076.96C2315.66 1076.96 2349.64 1058.15 2333.78 1032.63C2333.78 1032.63 2321.1 1016.96 2307.5 1012.93C2307.5 1012.93 2314.76 1050.98 2307.5 1051.89C2300.25 1052.78 2302.52 1008.9 2302.52 1008.9C2302.52 1008.9 2266.72 991.888 2252.68 993.229C2252.68 993.229 2274.88 1030.39 2267.63 1029.5C2260.37 1028.6 2235.45 990.994 2235.45 990.994C2235.45 990.994 2198.75 984.276 2192.86 1005.77C2186.97 1027.26 2196.49 1038 2201.92 1039.35C2207.36 1040.69 2242.25 1040.24 2241.35 1044.72C2240.44 1049.2 2216.88 1056.36 2203.73 1052.33C2203.73 1052.33 2218.23 1087.71 2237.27 1085.91C2256.3 1084.12 2262.19 1072.48 2273.97 1071.59C2285.75 1070.69 2294.36 1073.82 2288.47 1076.96C2282.58 1080.09 2262.64 1077.98 2253.13 1085.98C2243.61 1093.97 2235.9 1098.89 2253.58 1102.48C2271.25 1106.06 2302.97 1103.82 2309.31 1090.39C2315.66 1076.96 2315.66 1076.96 2315.66 1076.96Z" fill="#A8D29F"/>
<path d="M2210 1012C2210 1012 2305.08 1042.77 2315.95 1077.17C2315.95 1077.17 2315.49 1092.56 2325 1110.21V1117C2325 1117 2315.04 1093.92 2309.6 1090.75C2309.6 1090.75 2330.89 1060.88 2210 1012Z" fill="#82B378"/>
<path d="M2324.4 1110.18C2324.4 1110.18 2338.6 1132.2 2330.51 1159L2326.85 1158C2326.85 1158 2330.4 1128.48 2322.97 1113.63C2315.54 1098.78 2324.4 1110.18 2324.4 1110.18Z" fill="#82B378"/>
<path d="M2369.34 1051.18C2369.34 1051.18 2324.71 1026.27 2345.54 992.472C2345.54 992.472 2362.19 971.712 2380.04 966.376C2380.04 966.376 2370.53 1016.79 2380.04 1017.97C2389.56 1019.15 2386.58 961.04 2386.58 961.04C2386.58 961.04 2433.59 938.502 2452.03 940.285C2452.03 940.285 2422.88 989.503 2432.4 988.316C2441.91 987.13 2474.64 937.316 2474.64 937.316C2474.64 937.316 2522.83 928.42 2530.56 956.89C2538.29 985.353 2525.8 999.585 2518.66 1001.36C2511.52 1003.14 2465.71 1002.55 2466.9 1008.48C2468.09 1014.41 2499.03 1023.9 2516.28 1018.56C2516.28 1018.56 2497.24 1065.41 2472.25 1063.04C2447.27 1060.67 2439.54 1045.25 2424.07 1044.06C2408.6 1042.88 2397.3 1047.03 2405.03 1051.18C2412.77 1055.33 2438.94 1052.54 2451.43 1063.13C2463.93 1073.71 2474.04 1080.24 2450.84 1084.98C2427.63 1089.73 2385.99 1086.76 2377.66 1068.97C2369.34 1051.18 2369.34 1051.18 2369.34 1051.18Z" fill="#A8D29F"/>
<path d="M2509 965C2509 965 2384.16 1005.44 2369.89 1050.65C2369.89 1050.65 2370.49 1070.87 2358 1094.08V1103C2358 1103 2371.08 1072.66 2378.21 1068.5C2378.21 1068.5 2350.27 1029.24 2509 965Z" fill="#82B378"/>
<path d="M2357.24 1094.52C2357.24 1094.52 2338.67 1123.6 2349.26 1159L2354.04 1157.68C2354.04 1157.68 2349.4 1118.69 2359.12 1099.08C2368.84 1079.46 2357.24 1094.52 2357.24 1094.52Z" fill="#82B378"/>
<path d="M2368 1237C2416.05 1237 2455 1197.6 2455 1149H2281C2281 1197.6 2319.95 1237 2368 1237Z" fill="#F1A34F"/>
<path d="M2389 1236.32C2385.46 1236.77 2381.84 1237 2378.17 1237C2330.03 1237 2291 1197.6 2291 1149H2312.66C2312.66 1193.9 2345.97 1230.94 2389 1236.32Z" fill="#FFB973"/>
<path d="M2456 1241H2279C2279 1234.92 2283.82 1230 2289.77 1230H2445.23C2451.18 1230 2456 1234.92 2456 1241Z" fill="#F1A34F"/>
<path d="M2457 1152H2278V1149H2457V1152Z" fill="#D86713"/>
<path d="M2228 1231.07C2228 1231.07 2204.94 1204.5 2198.42 1192.4L2180.48 1159L2157 1164.86L2186.8 1207.44L2217.93 1234L2228 1231.07Z" fill="#FFB27D"/>
<path d="M2077.83 575.965C2072.35 572.856 2065.8 572.515 2061.21 572.789C2062.39 571.57 2064.71 571.127 2064.71 571.127C2061.87 570.705 2055.53 573.52 2055.53 573.52C2015.97 558.295 2009.75 616.479 2010.58 630.001C2011.41 643.517 1997.29 647.933 1976.71 658.587C1937.45 678.904 1934 706.116 1934 706.116C1934.3 706.297 1934.62 706.505 1934.96 706.739C1936.91 703.442 1940.92 697.251 1944.3 696.313C1944.17 696.614 1940.3 704.843 1938.86 709.554C1950.45 718.359 1972.12 737.865 1987.22 751.695C1987.15 748.995 1987.26 745.155 1988.25 743.125L1990.11 754.355C1998.19 761.773 2003.77 767 2003.77 767C2002.77 756.071 2053.22 698.424 2079.54 681.155C2085.95 671.734 2088.23 655.082 2088.4 653.776C2087.29 666.976 2085.03 674.381 2083.01 678.549C2105.3 658.051 2092.33 584.194 2077.83 575.965Z" fill="#263238"/>
<path d="M2078 682.262C2078.13 682.316 2065.38 689.039 2055.79 686.377C2046.77 683.877 2040.88 672.012 2041 671.985C2044.82 671.215 2045.92 665.891 2045.84 643L2047.57 643.345L2076.61 649.182C2076.61 649.182 2075.94 658.452 2075.92 667.188C2075.9 674.519 2076.34 681.478 2078 682.262Z" fill="#FFB27D"/>
<path d="M2045 585C2045 585 2059.63 569.786 2078 584.216C2078 584.216 2067.31 582.416 2045 585Z" fill="#E37970"/>
<path d="M2077 648.876C2077 648.876 2076.34 658.207 2076.32 667C2060.09 666.531 2051.52 651.392 2048 643L2077 648.876Z" fill="#D68D5D"/>
<path d="M2044.79 640C2044.79 640 2036.29 626.466 2034.25 614.901C2032.79 606.637 2036.97 576.019 2067.5 580.433C2067.5 580.433 2076.36 581.31 2084.7 586.982C2091.33 591.496 2100.89 601.239 2090.2 627.953L2087.41 636.98L2044.79 640Z" fill="#263238"/>
<path d="M2194 1180.01L2178.41 1180.49L2161.53 1181C2161.53 1181 2122.53 1137.77 2100.66 1068.48C2100.15 1066.87 2099.61 1065.24 2099.05 1063.59C2087.08 1028.83 2062.26 985.209 2049.18 945.725C2047.1 939.436 2045.23 933.517 2043.56 927.914C2043.02 926.12 2042.5 924.353 2042 922.62C2032.36 889.283 2029.57 867.387 2027 844L2121.43 844.752C2121.43 844.752 2136.67 1004.46 2194 1180.01Z" fill="#80BDCC"/>
<path d="M2115 855.055C2115 855.055 2074.82 875.536 2027.05 860.465C2026.49 860.283 2030.21 675.25 2043.75 670.15C2046.87 674.046 2056.09 677.942 2064.35 677.753C2073.87 677.545 2076.96 673.461 2076.46 669C2086.6 674.658 2094.69 680.001 2094.69 680.001C2103.3 695.018 2115 855.055 2115 855.055Z" fill="#F1A34F"/>
<path d="M2027.1 796.151C2023.05 801.992 2015.3 837.53 1996 842C2005.95 816.672 2013.5 805.564 2014.67 797.778C2016.86 783.247 2016.91 768.202 2015.82 754.016C2022.28 742.455 2027.1 734.528 2027.1 734.528C2027.61 732.664 2037.36 701.853 2040.49 729.389C2043.61 756.939 2031.61 789.608 2027.1 796.151Z" fill="#5F9AA8"/>
<path d="M2082.12 656.998C2082.12 656.998 2043.46 657.632 2043.43 633.639C2043.41 609.647 2038.4 593.567 2063.08 592.146C2087.77 590.731 2092.58 599.879 2094.54 607.885C2096.5 615.892 2092.18 656.211 2082.12 656.998Z" fill="#FFB27D"/>
<path d="M2081 591.001C2081 591.001 2070.44 619.876 2054.23 624.147C2038.03 628.418 2031 623.969 2031 623.969C2031 623.969 2043.43 613.854 2046.01 596.196C2046.01 596.196 2073.03 577.258 2081 591.001Z" fill="#263238"/>
<path d="M2078 593.686C2078 593.686 2086.07 600.104 2088.04 606.346C2090.01 612.581 2090.9 625.425 2094.66 624.989C2094.66 624.989 2102.81 605.453 2093.65 594.401C2083.94 582.681 2078 593.686 2078 593.686Z" fill="#263238"/>
<path d="M2238 697.216C2238 697.216 2243.51 677.478 2265.32 680.271C2267.83 681.045 2275.15 683.952 2270.47 691.738C2267.02 697.485 2265.53 694.517 2260.11 702.236C2254.69 709.955 2248.8 711.698 2242.07 710.776L2238 697.216Z" fill="#FFB27D"/>
<path d="M2053.7 1226.89C2052.36 1219.69 2049.82 1207.22 2049.82 1207.22L2050.41 1163H2023L2033.25 1205.33C2033.47 1207.29 2034.03 1214.92 2031.15 1223C2031.15 1223 2028.51 1234.76 2040.33 1234.98C2052.14 1235.19 2055.04 1234.1 2053.7 1226.89Z" fill="#FFB27D"/>
<path d="M2053.99 1241H2030.37C2029.19 1234.71 2031.23 1223.32 2031.23 1223.32C2044.09 1236 2052.14 1223 2052.14 1223C2054.06 1227.96 2054.02 1239.15 2053.99 1241Z" fill="#AD7263"/>
<path d="M2240 1241H2209.83C2207.22 1238.56 2204.71 1233.77 2201.66 1227.5C2199.88 1223.87 2195.91 1221.86 2191.83 1220.76V1241H2185.58L2179.84 1219.48C2176 1212.23 2178.94 1205.72 2181.65 1200C2184.79 1199.99 2193.84 1202.15 2209.87 1220.67C2215.14 1226.74 2220.95 1228.92 2226.72 1228.73C2226.81 1228.79 2226.89 1228.83 2226.96 1228.86C2236 1233.03 2239.01 1238.15 2240 1241Z" fill="#AD7263"/>
<path d="M2238.94 697.564C2238.94 697.564 2213.38 711.825 2204.24 715.938C2199.03 718.28 2187.06 723.879 2178.61 727.837C2173.24 730.347 2166.86 728.974 2163 724.478C2149.13 708.325 2113.06 673.294 2076 669C2076 669 2098.53 724.532 2099.2 735.772C2099.86 747.011 2101.85 919.564 2101.85 919.564C2101.85 919.564 2100.52 927.499 2115.76 924.195C2131.01 920.883 2134.99 917.579 2134.99 917.579C2134.99 917.579 2120.41 811.138 2124.38 774.115C2125.16 766.819 2124.45 758.615 2122.81 750.141C2145.38 763.837 2172.1 769.928 2172.1 769.928C2172.1 769.928 2192.07 761.239 2219.37 741.284C2227.94 735.018 2243 711.125 2243 711.125L2238.94 697.564Z" fill="#DFAFA3"/>
<path d="M2178 1180.49L2161.17 1181C2161.17 1181 2122.29 1137.76 2100.48 1068.43C2099.98 1066.82 2099.44 1065.19 2098.88 1063.54C2086.94 1028.77 2062.2 985.128 2049.16 945.627C2047.09 939.336 2045.22 933.414 2043.55 927.809C2043.02 926.014 2042.5 924.246 2042 922.512L2055.86 912C2055.86 912 2097.48 979.347 2110.37 1042.72C2121.57 1097.77 2166.4 1164.02 2178 1180.49Z" fill="#5F9AA8"/>
<path d="M2057.68 1048.76C2057.91 1079.63 2056.35 1150.62 2052.29 1180H2037.27C2028.96 1180 2024.82 1179.88 2024.82 1179.88C2014.66 1128.79 2007.43 1086.51 2002.17 1050.09C1997.86 1020.19 1994.02 994.563 1991.07 972.499C1988.1 950.3 1986.03 931.704 1985.29 915.996C1985.19 913.525 1985.1 911.115 1985.05 908.785C1985 906.436 1984.99 904.153 1985.01 901.938L2067 894C2065.97 948.092 2057.54 1030.82 2057.68 1048.76Z" fill="#80BDCC"/>
<path d="M2037 1180C2028.85 1180 2024.78 1179.88 2024.78 1179.88C2014.82 1128.79 2007.72 1086.51 2002.56 1050.09C1998.33 1020.19 1994.56 994.565 1991.67 972.502C1988.75 950.304 1986.73 931.708 1986 916L2015.52 933.573C2015.52 933.573 1996.68 940.299 2003.87 991.226C2011.06 1042.15 2026.99 1172.79 2037 1180Z" fill="#5F9AA8"/>
<path d="M2041.3 915.73C2041.3 915.73 2035.6 936.408 2015.84 933.767C1996.09 931.133 1968 919.245 1968 919.245C1968 919.245 1976.45 892.506 1986.94 857.374C1987.05 857.004 1987.16 856.628 1987.27 856.252C1999.66 814.769 2014.79 761.963 2022.32 727.604C2022.48 726.871 2022.63 726.146 2022.79 725.433C2024.87 715.743 2026.29 707.652 2026.82 701.853L2043.51 670C2043.51 670 2067.64 724.956 2068.96 738.82C2070.27 752.683 2041.3 915.73 2041.3 915.73Z" fill="#DFAFA3"/>
<path d="M2021.56 736.808L2043.52 670C2043.46 670.034 2015.87 678.117 2002.14 685.064C2002.14 685.064 1993.56 696.154 1988.25 721.73C1988.25 721.73 1982.64 783.138 1995.16 805.594C1995.16 805.594 2034.72 813.523 2098 791.726V777.193C2098 777.193 2028.79 780.825 2014.61 782.472L2021.56 736.808Z" fill="#FFB27D"/>
<path d="M2037.98 768.057C2037.12 790.088 2032 832.578 1987 856C1999.32 814.726 2014.37 762.186 2021.86 728C2030.02 740.563 2038.43 756.436 2037.98 768.057Z" fill="#AD7263"/>
<path d="M2043 670C2043 670 2002.99 672.814 1993.42 694.42C1983.85 716.026 1980.81 787.894 1992.99 809.062C1992.99 809.062 2009.75 813.903 2039.4 808.281C2039.76 808.207 2040.13 808.14 2040.49 808.066C2040.49 808.066 2049.95 784.588 2041.47 779.956C2041.47 779.956 2016.47 781.282 2019.08 772.906C2021.69 764.524 2043 670 2043 670Z" fill="#DFAFA3"/>
<path d="M2091 781.242C2091 781.242 2096.41 774.62 2097.57 767.865C2098.73 761.104 2102.31 756.091 2111.66 754.854C2121.01 753.611 2125.03 753.478 2125 756.137C2124.97 758.797 2117.36 777.352 2103.95 788.435C2090.53 799.511 2091 781.242 2091 781.242Z" fill="#FFB27D"/>
<path d="M1400.85 1021L1291.72 1020.75C1290.38 1012.96 1288.7 1006.26 1286.63 1001.17C1283.75 994.111 1281.29 983.264 1279.19 970.209C1277.75 961.235 1277.17 927.251 1276.54 900H1529V919.197L1525.94 918.217L1523.66 917.492L1520.95 916.626L1509.59 913.008C1504.95 911.531 1500.22 910.82 1495.53 910.82C1479.91 910.82 1464.93 918.74 1456.3 932.507L1400.85 1021ZM1233.31 1020.62L1219.69 1020.58C1219.55 1017.4 1219.3 1014.4 1218.91 1011.6C1217.72 1003.02 1217.21 994.621 1217.21 986.379C1217.2 981.512 1217.38 976.706 1217.7 971.948C1223.47 988.319 1228.66 1004.66 1233.31 1020.62ZM1163.21 1020.46L848.516 1019.74C844.387 987.003 835.987 931.527 823.787 903.645C846.465 911.196 904.753 931.433 943.404 931.433C957.097 931.433 968.315 928.896 974.623 922.365C981.543 915.203 986.271 907.511 989.479 900H1153.5C1157.26 937.662 1162.26 982.137 1163.21 1020.46ZM809.388 1019.65L712.867 1019.44C734.306 1000.43 768.478 969.269 783.67 950.569L809.388 1019.65ZM672.325 1019.34L559 1019.08V900H738.516C711.15 944.804 683.264 998.078 672.325 1019.34Z" fill="#B5D1FB"/>
<path d="M849 1020L809.779 1019.91L784 950.809C787.162 946.922 789.508 943.571 790.748 940.987C800.53 920.53 804.716 901 813.972 901C814.424 901 814.889 901.047 815.367 901.141C816.662 901.396 819.756 902.39 824.212 903.873C836.441 931.762 844.861 987.251 849 1020Z" fill="#A3C2F2"/>
<path d="M713.523 1020L673 1019.91C683.933 998.541 711.807 945.015 739.159 900H990C986.794 907.546 982.068 915.275 975.151 922.471C968.846 929.032 957.633 931.581 943.947 931.581C905.315 931.581 847.055 911.249 824.388 903.662C819.945 902.172 816.86 901.173 815.569 900.917C815.092 900.823 814.628 900.776 814.178 900.776C804.948 900.776 800.774 920.393 791.02 940.942C789.783 943.538 787.444 946.903 784.291 950.808C769.106 969.596 734.951 1000.91 713.523 1020Z" fill="#A5C3F3"/>
<path d="M1217 1021L1163.58 1020.87C1162.64 982.42 1157.71 937.792 1154 900H1181.18C1186.31 935.818 1196.84 988.596 1217 1021Z" fill="#A4C2F3"/>
<path d="M1220 1021H1217.66C1197.03 988.596 1186.25 935.818 1181 900H1190.02C1194.57 912.258 1198.72 923.028 1200.57 927.386C1206.88 942.17 1212.68 957.203 1218 972.196C1217.67 976.971 1217.49 981.794 1217.5 986.677C1217.5 994.948 1218.01 1003.37 1219.22 1011.98C1219.61 1014.79 1219.86 1017.81 1220 1021Z" fill="#A3C1F1"/>
<path d="M1292 1021L1233.43 1020.87C1228.77 1004.87 1223.57 988.5 1217.79 972.096C1212.51 957.124 1206.75 942.111 1200.48 927.348C1198.64 922.996 1194.52 912.241 1190 900H1276.77C1277.41 927.307 1277.99 961.361 1279.44 970.354C1281.54 983.436 1284 994.305 1286.89 1001.37C1288.97 1006.48 1290.65 1013.19 1292 1021Z" fill="#A4C2F3"/>
<path d="M771 800.819H730.296C730.204 800.881 730.099 800.944 730 801L730.092 800.819L734.512 791.903C734.512 791.903 735.843 791.191 737.846 790.312C742.127 788.429 749.433 785.778 753.161 787.626C758.26 790.173 769.518 796.089 771 800.819Z" fill="#FFB27D"/>
<path d="M738 790.795C738 790.795 736.24 797.341 730.215 800.825C730.121 800.886 730.013 800.946 729.912 801L730.006 800.825H657.739C655.517 798.861 651.813 795.067 648.15 788.986C646.999 787.075 645.853 784.943 644.756 782.575C641.206 774.893 638.187 764.702 637.291 751.538C635.561 726.103 633.756 684.168 632.767 659.609C632.29 647.79 632 640 632 640L632.005 640.007C632.443 640.289 660.592 658.929 666.449 716.457C666.449 716.457 667.924 762.718 673.083 766.357C678.217 769.989 732.955 784.822 737.913 790.694L738 790.795Z" fill="#AD7263"/>
<path d="M622 554.875C622 554.875 618.271 501.3 549.201 521.587C533.529 526.19 535.566 573.855 573.521 592L622 554.875Z" fill="#2B478B"/>
<path d="M594.169 625C594.169 625 621.285 629.905 631.341 639.943C641.398 649.982 665.126 679.598 650.197 778.339C650.197 778.339 649 808.098 615.478 810.968C581.958 813.838 594.169 625 594.169 625Z" fill="#DFAFA3"/>
<path d="M532.239 869.67C536.901 902.042 568.169 986.193 567.259 1015.28C566.539 1038.2 566.918 1091.15 569.951 1126.32C570.784 1135.89 571.77 1144.1 573.021 1150.07C575.711 1163.05 579.161 1177.99 581.017 1187.41C585.149 1208.54 582.988 1220.88 586.361 1232.22C590.076 1244.63 632.714 1242.36 619.866 1234.83C615.28 1232.14 608.609 1226.44 605.312 1219.06C593.335 1192.28 610.125 1076.81 615.128 1032.3C615.772 1026.74 616.227 1022.32 616.417 1019.29C618.084 991.794 637 808.615 637 808.615C591.064 783.122 527.615 837.291 532.239 869.67Z" fill="#D9935C"/>
<path d="M532.236 869.651C536.877 901.984 568.005 986.036 567.1 1015.09C566.383 1037.98 566.76 1090.87 569.779 1126L614.755 1032.09C615.396 1026.53 615.849 1022.11 616.037 1019.09C617.697 991.63 637 808.601 637 808.601C591.27 783.139 527.633 837.311 532.236 869.651Z" fill="#CB8757"/>
<path d="M632 815.382C632 815.382 592.724 995.885 588.261 1022.98C583.798 1050.08 548.031 1177.69 555.826 1209.67C560.425 1228.53 568.444 1234.11 568.444 1234.11C570.33 1237.57 539.264 1244.44 536.754 1231.2C533.568 1214.4 532.9 1190.81 528.233 1150.82C520.198 1081.97 536.135 1042.79 539.998 1014.02C543.861 985.242 527.027 893.779 536.37 862.524C552.721 807.822 589.138 785.396 632 815.382Z" fill="#D9935C"/>
<path d="M642 974.825C635.109 977.7 627.486 979.832 619.539 981.371L619.476 981.384C611.695 982.896 603.612 983.841 595.612 984.387C584.345 985.156 573.244 985.123 563.376 984.718L560.525 951.126L557.522 963.286L552.383 984.111C547.629 983.773 543.355 983.382 539.741 983.004C531.976 982.201 527.237 981.459 527.237 981.459C518.489 908.579 528.973 862.638 540.832 835.504V835.497C544.587 826.894 548.48 820.179 551.948 815.105C553.811 812.372 555.547 810.104 557.068 808.282C558.309 806.791 559.41 805.59 560.319 804.645C562.075 802.83 563.127 802 563.127 802C567.175 803.572 571.161 804.895 575.048 806.008C577.826 806.805 580.555 807.486 583.225 808.066L583.357 808.1C585.191 808.505 586.995 808.856 588.77 809.166C589.43 809.288 590.086 809.403 590.736 809.504C592.824 809.841 594.863 810.125 596.854 810.347C608.336 811.683 618.116 811.346 625.148 810.638C631.202 810.03 635.222 809.146 636.537 808.836C636.851 808.762 637.012 808.721 637.012 808.721L637.065 810.577L638.019 842.259L642 974.825Z" fill="#DFAFA3"/>
<path d="M574.92 1241H537.369C534.467 1235.76 530.608 1220.07 527.66 1216.79C527.449 1216.56 527.218 1216.29 526.98 1215.99L526.681 1241H523.305C523.223 1235.67 522.809 1217.02 520.968 1206.55C518.956 1202.73 517.523 1199.03 518.148 1197.47C519.452 1194.22 531.479 1187 531.479 1187C531.479 1187 540.378 1231.31 544.584 1232.36C554.619 1234.88 564.708 1233.95 567.568 1233.6C568.091 1233.53 572.61 1235.54 574.308 1238.22C574.865 1239.1 575.151 1240.04 574.92 1241Z" fill="#DFAFA3"/>
<path d="M623.922 1241H587.03C584.213 1235.82 580.475 1220.44 577.592 1216.91L577.305 1241H573.987C573.981 1240.29 573.961 1239.35 573.941 1238.22C573.794 1231.38 573.34 1217.77 572.025 1208.57C569.502 1204.09 567.419 1199.26 568.147 1197.42C569.422 1194.16 580.975 1187 580.975 1187C580.975 1187 581.023 1187.39 581.15 1188.03C581.163 1188.12 581.183 1188.22 581.203 1188.32C581.223 1188.44 581.25 1188.58 581.276 1188.72C581.296 1188.82 581.316 1188.92 581.336 1189.02C583.019 1197.6 589.86 1231.27 594.119 1232.35C605.366 1235.22 616.68 1233.6 617.448 1233.49L617.488 1233.48C617.488 1233.48 624.83 1237.1 623.922 1241Z" fill="#DFAFA3"/>
<path d="M644.429 782.159C643.189 788.939 641.922 794.782 640.849 799.36C640.77 799.688 640.696 800.01 640.622 800.318C639.115 806.649 638.041 810.297 638.041 810.297C637.854 810.364 637.667 810.417 637.479 810.478C637.391 810.511 637.307 810.538 637.223 810.565C637.06 810.618 636.903 810.672 636.745 810.719C634.189 811.535 631.681 812.245 629.228 812.854C615.509 816.254 603.367 816.542 593.244 815.39C587.721 814.761 582.795 813.704 578.544 812.486C577.563 812.211 576.618 811.923 575.711 811.622L575.584 811.589C573.239 810.826 571.14 810.029 569.302 809.26C563.633 806.904 560.441 804.775 560.17 804.594L560.15 804.581C560.623 803.43 561.032 801.998 561.372 800.318C562.022 797.152 562.441 793.102 562.682 788.364C563.106 780.165 562.978 769.918 562.529 758.646C562.519 758.318 562.505 757.99 562.494 757.663C561.918 743.527 560.859 727.858 559.761 712.645C558.919 700.959 558.056 689.547 557.367 679.306C557.155 676.161 556.957 673.135 556.791 670.244C555.83 654.087 555.569 642.18 557.013 639.054C559.204 634.309 565.997 631.431 573.229 629.684C574.263 629.436 575.312 629.209 576.352 629.001C576.495 628.968 576.043 627.837 576.186 627.81C577.186 627.616 578.776 628.546 579.756 628.399C580.175 628.332 580.588 628.265 581.002 628.205C587.495 627.248 593.091 627.047 594.49 627.013C594.706 627 594.825 627 594.825 627C594.825 627 599.401 629.222 605.908 633.807C606.401 634.155 612.769 630.032 613.281 630.413C620.704 635.815 629.508 645.593 633.6 658.819C639.15 676.756 647.312 685.631 649.016 703.341C651.785 732.115 648.218 761.491 644.429 782.159Z" fill="#E7F0FD"/>
<path d="M536 813.551C549.858 816.381 571.97 814.95 588.365 810.264C593.817 808.717 598.626 806.788 602.261 804.562C616.914 795.567 624.032 729.016 621.495 703.818C618.996 678.66 576.516 627 576.516 627C566.104 634.705 561.52 652.635 555.272 676.166C540.24 732.794 536 813.551 536 813.551Z" fill="#DFAFA3"/>
<path d="M536 813.56C549.869 816.373 571.998 814.95 588.406 810.292C594.431 801.805 599.244 791.447 601.82 778.79C609.285 742.296 579.842 702.681 555.287 677C540.244 733.288 536 813.56 536 813.56Z" fill="#AD7263"/>
<path d="M624.26 758.237L591.67 734.7C587.638 731.792 581.958 732.707 579.048 736.739L542.701 787.133C539.79 791.164 540.709 796.852 544.741 799.76L577.33 823.297C581.362 826.212 587.042 825.29 589.952 821.258L626.299 770.864C629.209 766.833 628.292 761.152 624.26 758.237Z" fill="#263238"/>
<path d="M595.147 783.487C595.147 783.487 611.276 781.853 613.27 784.57C615.263 787.294 613.451 797.803 604.39 798.892C595.329 799.975 585 792.545 585 792.545L595.147 783.487Z" fill="#DA935B"/>
<path d="M576.518 627C576.518 627 548.112 630.337 535.791 655.907C523.468 681.471 510.199 747.288 513.517 753.437C516.834 759.591 556.642 792.739 589.342 797C589.342 797 596.451 788 595.977 779.951C595.977 779.951 551.903 752.493 548.112 744.915C544.321 737.345 581.759 674.372 581.286 663.485C580.812 652.591 576.518 627 576.518 627Z" fill="#DFAFA3"/>
<path d="M608.099 544.347C608.099 544.347 625.087 546.332 626.058 565C626.058 565 633.495 535.413 606.581 536.009C579.666 536.605 608.099 544.347 608.099 544.347Z" fill="#2B478B"/>
<path d="M612.972 630.378C612.972 630.358 611.479 614.062 611.828 609.866V609.859C612.015 607.703 612.23 606.43 612.23 606.43L611.828 606.307L578.669 596C578.656 596.267 578.649 596.541 578.636 596.808C578.213 605.951 577.697 613.042 577.14 618.551C577.073 619.27 576.999 619.961 576.926 620.625C576.624 623.424 576.309 625.765 576 627.716C582.418 630.576 587.723 632.548 592.116 633.848C604.014 637.38 609.165 635.97 611.372 633.848C613.223 632.069 613.013 630.652 612.972 630.378Z" fill="#FFB27D"/>
<path d="M610 606.178V609.616C610 609.616 590.343 609.827 577 618C577.569 612.684 578.098 605.834 578.536 597L610 606.178Z" fill="#E8945B"/>
<path d="M619.015 608.754C619.015 608.754 578.751 616.882 574.1 591.614C569.451 566.352 561.122 550.387 586.634 544.136C612.146 537.878 618.929 546.586 622.522 554.64C626.117 562.693 629.369 605.993 619.015 608.754Z" fill="#FFB27D"/>
<path d="M604.912 538.475C604.912 538.475 616.206 552.886 595.597 566.067C574.988 579.242 576.568 605.591 582.046 613C582.046 613 541.019 572.24 560.026 547.949C579.031 523.657 604.912 538.475 604.912 538.475Z" fill="#2B478B"/>
<path d="M1391 1179.5C1391 1188.61 1383.61 1196 1374.5 1196C1365.39 1196 1358 1188.61 1358 1179.5C1358 1170.38 1365.39 1163 1374.5 1163C1383.61 1163 1391 1170.38 1391 1179.5Z" fill="#D86713"/>
<path d="M1398 1179.5C1398 1188.61 1390.61 1196 1381.5 1196C1372.39 1196 1365 1188.61 1365 1179.5C1365 1170.38 1372.39 1163 1381.5 1163C1390.61 1163 1398 1170.38 1398 1179.5Z" fill="#F1A34F"/>
<path d="M1502 1224.5C1502 1233.61 1494.61 1241 1485.5 1241C1476.39 1241 1469 1233.61 1469 1224.5C1469 1215.39 1476.39 1208 1485.5 1208C1494.61 1208 1502 1215.39 1502 1224.5Z" fill="#D86713"/>
<path d="M1509 1224.5C1509 1233.61 1501.61 1241 1492.5 1241C1483.39 1241 1476 1233.61 1476 1224.5C1476 1215.39 1483.39 1208 1492.5 1208C1501.61 1208 1509 1215.39 1509 1224.5Z" fill="#F1A34F"/>
<path d="M1362 1162L1380.33 1179.17C1382.18 1180.91 1384.33 1182.3 1386.66 1183.28L1510.07 1235L1533 1218.37L1362 1162Z" fill="#D86713"/>
<path d="M1622.56 976L1616.65 971.927C1643.84 932.61 1696.42 855.154 1700.75 843.417C1703.48 836.023 1703.49 829.846 1700.8 825.06C1696.48 817.383 1686.41 815.333 1686.31 815.313L1685.94 815.219L1658.39 806.716C1626.84 794.166 1613.35 818.903 1612.79 819.958L1612.6 820.274L1538.99 931.38L1533 927.421L1606.53 816.456C1607.23 815.172 1611.35 808.107 1619.49 802.629C1627.62 797.164 1641.39 792.284 1660.91 800.001L1687.88 808.316C1689.7 808.705 1701.39 811.535 1707.03 821.484C1710.83 828.199 1710.98 836.406 1707.48 845.898C1701.76 861.405 1625.79 971.328 1622.56 976Z" fill="#D86713"/>
<path d="M1614.69 948L1675.53 989.776C1675.53 989.776 1691.56 1005.96 1673.16 1038.32C1656.98 1066.78 1570.31 1228.28 1570.31 1228.28C1570.31 1228.28 1552.26 1261.89 1482 1219.83L1614.69 948Z" fill="#D86713"/>
<path d="M1631.34 1010.08L1532.98 1190.85C1529 1198.16 1523.31 1204.01 1516.65 1208.11C1504.33 1215.71 1488.69 1217.36 1474.49 1211.37L1412.6 1185.28L1411.07 1184.64L1372.31 1168.3C1368.42 1166.66 1364.88 1164.55 1361.72 1162.08C1360.98 1161.51 1360.27 1160.91 1359.57 1160.3C1348.09 1150.11 1342.45 1134.78 1344.37 1119.72C1345.18 1113.31 1347.37 1106.95 1351.04 1101.05L1456.05 932.761C1467.26 914.814 1489.18 906.76 1509.3 913.198L1520.64 916.828L1523.35 917.697L1525.63 918.424L1563.56 930.566L1568.21 932.054L1604.82 943.772C1610.56 945.61 1615.67 948.452 1620.02 952.014C1620.31 952.25 1620.6 952.486 1620.88 952.735L1622.61 954.304C1637.19 968.21 1641.75 990.925 1631.34 1010.08Z" fill="#F1A34F"/>
<path d="M1344 1121C1344.27 1117.21 1345.23 1113.48 1347 1110C1345.64 1113.05 1344.73 1116.17 1344.23 1119.3C1344.14 1119.87 1344.06 1120.43 1344 1121Z" fill="#958998"/>
<path d="M1492.67 1215C1486.66 1215 1480.57 1213.83 1474.73 1211.37L1412.68 1185.3L1411.14 1184.66L1372.28 1168.33C1368.38 1166.69 1364.83 1164.58 1361.66 1162.11C1360.92 1161.54 1360.2 1160.94 1359.5 1160.33C1350.42 1152.3 1343.21 1136.4 1344.07 1121.55C1344.12 1120.96 1344.19 1120.36 1344.27 1119.77C1344.68 1116.5 1345.46 1113.24 1346.6 1110.05C1346.61 1110.03 1346.62 1110.02 1346.63 1110C1346.63 1110 1478.26 1164.25 1503.82 1180.17C1517 1188.38 1517 1200.05 1517 1208.11C1509.72 1212.59 1501.28 1215 1492.67 1215Z" fill="#E78B37"/>
<path d="M1526 918.599C1525.66 918.646 1489.44 923.84 1479.08 937.553C1468.44 951.655 1363.67 1124.17 1362.61 1125.91C1362.53 1126.05 1354.21 1143.49 1363.29 1163L1361.52 1161.69C1360.78 1161.12 1360.07 1160.52 1359.36 1159.91C1351.39 1140.28 1360.05 1125.26 1360.44 1124.61C1364.76 1117.49 1466.34 950.231 1477.05 936.034C1486.44 923.598 1512.64 918.377 1521 917L1523.71 917.867H1523.72L1526 918.599Z" fill="#D86713"/>
<path d="M1568 932.486C1562.69 933.508 1541.85 938.733 1529.04 959.37C1514.03 983.578 1418.2 1165.03 1417.24 1166.86L1417.17 1167L1417.07 1167.1C1417 1167.19 1410.46 1176.4 1413.84 1186L1412.29 1185.34L1410.76 1184.7C1407.86 1174.72 1414.14 1166.67 1415.05 1165.56C1418.03 1159.95 1511.99 982.051 1526.89 958.039C1537.92 940.259 1554.69 933.441 1563.35 931L1568 932.486Z" fill="#D86713"/>
<path d="M1623 954.285C1622.84 954.305 1615.43 955.118 1607.79 958.74C1600.15 962.369 1590.72 968.948 1583.37 980.755C1568.32 1004.93 1475.68 1187 1474.74 1188.83L1474.67 1188.98L1474.57 1189.09C1474.5 1189.17 1469.04 1200.4 1472.43 1210L1468.51 1208.36C1466.37 1200 1471.56 1188.74 1472.54 1187.56C1475.51 1181.74 1566.28 1003.41 1581.21 979.418C1595.26 956.852 1616.08 952.645 1620.4 952C1620.69 952.235 1620.98 952.47 1621.26 952.719L1623 954.285Z" fill="#D86713"/>
<path d="M1655 1178.78C1655 1178.78 1641.75 1190.96 1644.33 1199.62C1646.92 1208.28 1658.88 1214.06 1660.5 1224.64C1662.11 1235.22 1668.57 1241 1674.39 1241C1680.2 1241 1702.12 1241 1702.12 1241C1702.12 1241 1706.4 1233.55 1696.06 1231.3C1685.72 1229.06 1681.82 1216.62 1682.47 1205.08C1683.12 1193.53 1681.5 1178.13 1681.5 1178.13L1659.52 1173L1655 1178.78Z" fill="#263238"/>
<path d="M1894 1241H1820.88C1820.25 1240.87 1819.77 1240.72 1819.46 1240.57C1814.59 1238.11 1816.11 1219.34 1816.69 1213.52C1816.81 1212.44 1816.89 1211.81 1816.89 1211.81C1816.89 1211.81 1842.56 1191.14 1846.09 1206.97C1846.2 1207.46 1846.33 1207.95 1846.47 1208.43C1850.91 1223.24 1870.84 1229.97 1882.35 1231.85C1891.12 1233.28 1893.4 1238.42 1894 1241Z" fill="#263238"/>
<path d="M1880 818.774C1880 818.774 1876.06 867.645 1871.43 926.398C1865.15 1006.21 1857.58 1104.24 1856.83 1122.81C1855.54 1155.05 1850.35 1206.64 1850.35 1206.64C1850.35 1206.64 1838.04 1218.89 1813.41 1213.73C1813.41 1213.73 1791.46 1140.09 1785.19 1062.18C1785.1 1060.9 1784.99 1059.62 1784.9 1058.33C1779.07 979.016 1770 812 1770 812L1880 818.774Z" fill="#2B478B"/>
<path d="M1880 818.769C1880 818.769 1876.06 867.605 1871.43 926.315L1785.19 1062C1785.1 1060.72 1784.99 1059.44 1784.9 1058.16C1779.07 978.895 1770 812 1770 812L1880 818.769Z" fill="#1C3266"/>
<path d="M1862 823.952C1862 823.952 1791.39 1001.19 1744.96 1084.47C1698.53 1167.76 1684.01 1191 1684.01 1191C1684.01 1191 1657.42 1180.34 1655 1173.08C1655 1173.08 1672.75 1012.29 1703.85 973.099C1721.42 950.953 1742.06 884.483 1743.02 861.239C1743.99 837.995 1749.31 792 1749.31 792L1862 823.952Z" fill="#2B478B"/>
<path d="M1933.08 775L1937.12 783.073C1937.12 783.073 1957.67 785.948 1952.01 807.419C1952.01 807.419 1948.97 816.248 1943.31 813.453C1937.63 810.659 1940.43 810.895 1932.31 807.136C1924.18 803.376 1919.48 796.147 1921.3 789.519L1920 782.492L1933.08 775Z" fill="#AB7041"/>
<path d="M1825.45 550.995C1828.58 532.583 1828.67 521.673 1828.67 521.673L1793 493C1794.33 532.422 1769 551.382 1769 551.382C1769 551.382 1816.53 574.724 1844 566.08C1844 566.08 1837.24 557.455 1825.45 550.995Z" fill="#9C5F33"/>
<path d="M1837.16 521.089C1837.16 521.089 1791.88 528.633 1787.63 500.294C1783.38 471.956 1774.68 453.841 1803.4 447.831C1832.14 441.815 1839.39 451.784 1843.1 460.895C1846.82 470.006 1848.83 518.396 1837.16 521.089Z" fill="#AB7041"/>
<path d="M1787.46 502C1787.46 502 1788.38 463.865 1829.9 457.741C1858.34 453.548 1841.12 429.769 1837.86 426C1837.86 426 1816.12 430.153 1793.88 435.039C1747.17 445.296 1782.52 496.326 1787.46 502Z" fill="#263238"/>
<path d="M1928.39 786.867C1934.48 780.598 1939 772.433 1939 772.433C1939 772.433 1887.27 707.893 1883.06 701.206C1878.86 694.512 1847.44 587.155 1847.44 587.155L1768 571C1768 571 1834.31 708.379 1845.3 725.128C1863.45 752.809 1917.76 794 1917.76 794C1917.76 794 1923.61 791.793 1928.39 786.867Z" fill="#365DA4"/>
<path d="M1882.09 822.223C1881.26 822.909 1880.3 823.326 1879.2 823.326C1868.91 823.185 1838.9 828.94 1813.5 826.311C1792.09 824.247 1773.14 817.866 1752.78 808.688C1750.08 807.465 1743.86 804.129 1744 801.084C1744.1 797.762 1744.42 792.934 1744.84 786.856C1746.27 765.716 1748.79 729.367 1746.34 687.424C1745.9 679.618 1745.67 671.865 1745.64 664.241C1745.43 607.397 1756.44 557.123 1778.95 540.2C1780.87 538.815 1792.87 544.9 1803.71 550.285C1813.74 555.261 1820.75 555.14 1830.21 553.217L1842.69 562.301C1854.22 573.072 1866.85 587.71 1872.34 609.946C1877.01 628.867 1879.75 662.983 1881.26 698.337C1881.94 714.36 1882.5 730.517 1882.64 745.847V746.399C1882.77 747.918 1882.77 749.579 1882.77 751.099C1883.33 790.453 1882.77 821.665 1882.09 822.223Z" fill="#739AF0"/>
<path d="M1745 787C1746.44 765.873 1748.96 729.546 1746.51 687.628C1746.07 679.827 1745.83 672.079 1745.8 664.458C1755.21 641.584 1762.9 625 1762.9 625H1786.61C1786.61 625 1803.99 744.014 1745 787Z" fill="#365DA4"/>
<path d="M1698 794.713L1693.56 802.349C1693.56 802.349 1702.25 820.732 1681.63 827.603C1681.63 827.603 1672.77 829.84 1672.01 823.695C1671.25 817.557 1672.56 819.966 1671.27 811.293C1669.99 802.62 1673.38 794.897 1679.78 792.831L1684.83 788L1698 794.713Z" fill="#AB7041"/>
<path d="M1686.7 796.872C1695.21 798.538 1704.43 797.866 1704.43 797.866C1704.43 797.866 1729.7 719.403 1732.95 712.236C1736.2 705.076 1808 620.245 1808 620.245L1778.09 545C1778.09 545 1700.44 675.393 1692.55 693.717C1679.52 723.991 1675 791.874 1675 791.874C1675 791.874 1680.01 795.562 1686.7 796.872Z" fill="#739AF0"/>
<path d="M2054.56 728.119L2039.22 731.94C2038.19 732.197 2037.13 731.61 2036.86 730.629L2035.06 724.121C2034.79 723.139 2035.41 722.138 2036.44 721.881L2051.77 718.06C2052.81 717.804 2053.86 718.39 2054.13 719.365L2055.94 725.879C2056.21 726.854 2055.59 727.862 2054.56 728.119Z" fill="#DEEDFF"/>
<path d="M2044 728.69L2039.56 730L2038 723.31L2042.43 722L2044 728.69Z" fill="#739AF0"/>
<path d="M2051.35 721.519L2045.09 722.973C2044.62 723.085 2044.15 722.837 2044.03 722.422C2043.9 722.014 2044.18 721.587 2044.65 721.481L2050.91 720.027C2051.38 719.915 2051.85 720.163 2051.97 720.578C2052.1 720.986 2051.82 721.413 2051.35 721.519Z" fill="#739AF0"/>
<path d="M2052.75 723.761L2045.42 725.987C2045.24 726.043 2045.05 725.914 2045.01 725.71C2044.96 725.507 2045.07 725.296 2045.24 725.239L2052.58 723.014C2052.76 722.957 2052.94 723.079 2052.99 723.29C2053.03 723.493 2052.93 723.704 2052.75 723.761Z" fill="#739AF0"/>
<path d="M2052.75 724.761L2045.42 726.986C2045.24 727.043 2045.05 726.921 2045.01 726.71C2044.96 726.507 2045.07 726.296 2045.25 726.239L2052.58 724.013C2052.76 723.957 2052.94 724.087 2052.99 724.29C2053.03 724.493 2052.93 724.704 2052.75 724.761Z" fill="#739AF0"/>
<path d="M1462.59 700L1441 801H1525.17L1544 700H1462.59Z" fill="#263238"/>
<path d="M1465.5 703L1446 794H1522L1539 703H1465.5Z" fill="#AFCDFB"/>
<path d="M1529.05 711H1470.95C1469.88 711 1469 711.675 1469 712.5C1469 713.325 1469.88 714 1470.95 714H1529.05C1530.12 714 1531 713.325 1531 712.5C1531 711.675 1530.12 711 1529.05 711Z" fill="#263238"/>
<path d="M1526.05 720H1467.95C1466.88 720 1466 720.901 1466 722.003C1466 723.099 1466.88 724 1467.95 724H1526.05C1527.12 724 1528 723.099 1528 722.003C1528 720.901 1527.12 720 1526.05 720Z" fill="#263238"/>
<path d="M1524.05 728H1465.95C1464.88 728 1464 728.901 1464 729.997C1464 731.099 1464.88 732 1465.95 732H1524.05C1525.12 732 1526 731.099 1526 729.997C1526 728.901 1525.12 728 1524.05 728Z" fill="#263238"/>
<path d="M1521.08 747H1463.91C1462.86 747 1462 747.675 1462 748.5C1462 749.325 1462.86 750 1463.91 750H1521.08C1522.14 750 1523 749.325 1523 748.5C1523 747.675 1522.14 747 1521.08 747Z" fill="#263238"/>
<path d="M1518.08 756H1460.92C1459.86 756 1459 756.901 1459 758.003C1459 759.106 1459.86 760 1460.92 760H1518.08C1519.14 760 1520 759.106 1520 758.003C1520 756.901 1519.14 756 1518.08 756Z" fill="#263238"/>
<path d="M1517.05 764H1458.95C1457.88 764 1457 764.901 1457 766.003C1457 767.099 1457.88 768 1458.95 768H1517.05C1518.12 768 1519 767.099 1519 766.003C1519 764.901 1518.12 764 1517.05 764Z" fill="#263238"/>
<path d="M1426.67 756L1414 797.312L1416.33 798L1429 756.688L1426.67 756Z" fill="#AD7263"/>
<path d="M1415.5 794C1411.14 794 1407.54 797.051 1407 801H1424C1423.45 797.051 1419.86 794 1415.5 794Z" fill="#DFAFA3"/>
<path d="M1426.4 799C1423.32 799 1420.25 798.47 1420 798.423L1420.09 797.88C1423.17 798.43 1431.38 799.262 1432.3 796.572C1432.71 795.385 1432.33 793.379 1431.8 790.602C1430.84 785.552 1429.39 777.919 1431.09 767.267C1432.42 758.93 1431.43 756.408 1430.37 755.757C1429.24 755.073 1427.74 756.321 1427.73 756.334L1427.39 755.898C1427.46 755.838 1429.21 754.409 1430.63 755.281C1432.4 756.354 1432.73 760.419 1431.62 767.361C1429.92 777.912 1431.37 785.485 1432.32 790.495C1432.86 793.359 1433.26 795.425 1432.8 796.76C1432.19 798.537 1429.29 799 1426.4 799Z" fill="#DFAFA3"/>
<path d="M1279 855L1283.94 864.874L1295 866.458L1287 874.145L1288.89 885L1279 879.877L1269.11 885L1271 874.145L1263 866.458L1274.05 864.874L1279 855Z" fill="#F1A34F"/>
<path d="M1324 855L1328.95 864.874L1340 866.458L1332 874.145L1333.89 885L1324 879.877L1314.11 885L1316 874.145L1308 866.458L1319.06 864.874L1324 855Z" fill="#F1A34F"/>
<path d="M1370 855L1374.94 864.874L1386 866.458L1378 874.145L1379.89 885L1370 879.877L1360.12 885L1362.01 874.145L1354 866.458L1365.06 864.874L1370 855Z" fill="#F1A34F"/>
<path d="M1418 855L1422.94 864.874L1434 866.458L1426 874.145L1427.89 885L1418 879.877L1408.11 885L1410 874.145L1402 866.458L1413.05 864.874L1418 855Z" fill="#F1A34F"/>
<path d="M1458 855L1462.94 864.874L1474 866.458L1466 874.145L1467.89 885L1458 879.877L1448.12 885L1450.01 874.145L1442 866.458L1453.06 864.874L1458 855Z" fill="#F1A34F"/>
</g>
<defs>
<clipPath id="clip0_2022_212">
<rect width="2697" height="1420" fill="white"/>
</clipPath>
</defs>
</svg>
