<?xml version="1.0" encoding="UTF-8"?> <svg xmlns="http://www.w3.org/2000/svg" width="671" height="454" viewBox="0 0 671 454" fill="none"> <mask id="mask0" mask-type="alpha" maskUnits="userSpaceOnUse" x="0" y="0" width="671" height="454"> <rect width="671" height="454" fill="white"></rect> </mask> <g mask="url(#mask0)"> <g clip-path="url(#clip0)"> <path d="M463.966 114.08V131.315H458.049L470.813 146.189L482.78 131.625H476.73V114.08H463.966Z" fill="#EBEBEB"></path> <path d="M617 273.99V309.375H604.841L631.047 339.905L655.631 310.009H643.206V273.99H617Z" fill="#EBEBEB"></path> <path d="M56.4821 417.033V452.418H44.3232L70.5297 482.948L95.1131 453.038H82.6886V417.033H56.4821Z" fill="#EBEBEB"></path> <path d="M215.035 42.8238C216.274 33.8375 203.584 26.4448 194.052 25.6775C189.522 25.3086 184.8 26.0169 180.491 24.5118C171.166 21.2655 167.432 9.20988 158.358 5.32908C151.555 2.45168 143.734 5.00445 137.124 8.28026C130.513 11.5561 124.021 15.791 116.643 16.2632C110.238 16.6616 103.274 14.2859 97.6665 17.4142C93.4905 19.7604 91.2919 24.5708 87.4406 27.4039C83.5893 30.237 78.7641 30.783 74.1603 31.0339C69.5565 31.2847 64.6427 31.329 60.3783 33.2768C56.1138 35.2246 52.6019 39.7399 53.4873 44.3289L215.035 42.8238Z" fill="#F5F5F5"></path> <path d="M658.051 210.481C659.128 202.66 648.09 196.226 639.798 195.562C635.843 195.238 631.741 195.843 627.993 194.544C619.892 191.711 616.645 181.264 608.722 177.9C602.819 175.391 595.987 177.619 590.262 180.511C584.537 183.403 578.841 187.033 572.437 187.447C566.859 187.801 560.809 185.735 555.925 188.45C552.295 190.486 550.391 194.677 547.071 197.141C543.751 199.605 539.516 200.092 535.459 200.299C531.401 200.506 527.18 200.565 523.477 202.247C519.773 203.929 516.704 207.869 517.471 211.868L658.051 210.481Z" fill="#F5F5F5"></path> <path d="M280.388 111.482L269.011 91.4292C276.044 80.0126 278.552 66.3784 276.042 53.2065C273.533 40.0346 266.187 28.2777 255.45 20.2466C244.712 12.2156 231.359 8.49123 218.015 9.8057C204.67 11.1202 192.3 17.3784 183.336 27.3502C174.372 37.322 169.461 50.2861 169.57 63.6945C169.679 77.1029 174.799 89.9857 183.924 99.8106C193.049 109.636 205.519 115.692 218.883 116.79C232.247 117.887 245.538 113.947 256.144 105.742V105.742L280.388 111.482Z" fill="#FAFAFA"></path> <path d="M280.388 111.483L256.07 105.949H255.79L255.967 105.713L256.247 105.979C248.769 111.813 239.88 115.565 230.483 116.854C227.664 117.252 224.814 117.395 221.969 117.282C220.494 117.282 219.018 117.164 217.543 117.046L213.012 116.352C205.798 114.974 198.943 112.133 192.868 108.005C186.794 103.876 181.629 98.548 177.692 92.3478C173.755 86.1477 171.129 79.2071 169.976 71.9535C168.823 64.7 169.167 57.2872 170.988 50.1718C173.011 41.981 176.962 34.3923 182.512 28.038C188.121 21.5405 195.205 16.4808 203.17 13.2821C210.818 10.2571 219.049 8.9913 227.252 9.57835C235.021 10.1046 242.578 12.3365 249.386 16.1152C261.596 22.9126 270.725 34.1446 274.884 47.4863C276.538 53.159 277.324 59.0493 277.215 64.9572C276.919 74.3622 274.15 83.5231 269.188 91.5179V91.3261L280.403 111.483L268.864 91.5179V91.4146V91.3261C273.744 83.3448 276.441 74.2208 276.684 64.8687C276.764 59.0224 275.963 53.1975 274.309 47.5896C270.167 34.4062 261.125 23.3147 249.046 16.6022C242.337 12.886 234.89 10.6944 227.237 10.1833C219.148 9.60738 211.032 10.8633 203.495 13.8576C195.611 17.0332 188.606 22.0588 183.073 28.5102C177.609 34.7646 173.714 42.2306 171.711 50.2899C169.759 58.0164 169.542 66.0792 171.076 73.8993C172.554 81.2906 175.598 88.2795 180.004 94.3953C187.947 105.433 199.789 113.039 213.131 115.673L217.557 116.367C219.033 116.5 220.508 116.544 221.984 116.618C224.798 116.738 227.618 116.609 230.41 116.234C239.73 114.999 248.561 111.33 256.011 105.595L257.192 104.68L256.277 105.861L256.159 105.566L280.388 111.483Z" fill="#263238"></path> <path d="M238.998 35.416H204.233C202.554 35.416 201.193 36.7769 201.193 38.4557V89.8358C201.193 91.5146 202.554 92.8755 204.233 92.8755H238.998C240.677 92.8755 242.038 91.5146 242.038 89.8358V38.4557C242.038 36.7769 240.677 35.416 238.998 35.416Z" fill="#263238"></path> <path d="M239.942 38.8691H203.082V81.8088H239.942V38.8691Z" fill="#FAFAFA"></path> <path d="M221.601 90.3967C223.312 90.3967 224.699 89.0094 224.699 87.298C224.699 85.5866 223.312 84.1992 221.601 84.1992C219.889 84.1992 218.502 85.5866 218.502 87.298C218.502 89.0094 219.889 90.3967 221.601 90.3967Z" fill="#455A64"></path> <path d="M226.779 51.9571L240.37 67.9968L253.119 51.9571H246.508V29.8527L233.287 29.6904L233.449 51.9866L226.779 51.9571Z" fill="#A41F68"></path> <path d="M227.621 58.0225C225.879 60.3917 223.939 62.6082 221.821 64.6479C219.889 66.8561 217.771 68.8949 215.491 70.7421C217.219 68.3664 219.155 66.1492 221.276 64.1167C223.206 61.9019 225.33 59.8625 227.621 58.0225Z" fill="#263238"></path> <path d="M224.935 56.0596C224.056 57.4448 222.971 58.6886 221.718 59.7485C220.649 60.9744 219.395 62.025 218 62.862C218.874 61.4725 219.959 60.2279 221.217 59.1731C222.283 57.9445 223.538 56.8935 224.935 56.0596Z" fill="#263238"></path> <path d="M325.689 435.331V506.853H301.12L354.079 568.547L403.747 508.122H378.633V435.331H325.689Z" fill="#A41F68"></path> <path opacity="0.3" d="M325.689 435.331V506.853H301.12L354.079 568.547L403.747 508.122H378.633V435.331H325.689Z" fill="black"></path> <path d="M498.392 275.79C491.803 250.195 478.213 226.942 459.146 208.639C440.08 190.336 416.292 177.707 390.449 172.168C364.606 166.629 337.731 168.399 312.839 177.28C287.946 186.161 266.02 201.802 249.519 222.447C244.975 221.901 240.403 221.615 235.825 221.592C204.451 221.592 174.361 234.055 152.176 256.24C129.991 278.426 117.527 308.515 117.527 339.89C117.527 371.264 129.991 401.354 152.176 423.539C174.361 445.724 204.451 458.188 235.825 458.188H493.405C517.189 458.205 540.041 448.937 557.093 432.356C574.146 415.775 584.052 393.193 584.702 369.417C585.352 345.642 576.695 322.551 560.574 305.064C544.453 287.576 522.142 277.073 498.392 275.79V275.79Z" fill="#A41F68"></path> <path d="M264.998 297.319C264.918 297.066 264.879 296.802 264.88 296.537C264.88 295.947 264.791 295.209 264.732 294.309C264.732 293.807 264.732 293.276 264.644 292.686C264.555 292.096 264.496 291.461 264.422 290.782C264.231 289.41 264.113 287.831 263.729 286.149C263.567 285.293 263.389 284.393 263.198 283.463C263.006 282.534 262.711 281.604 262.46 280.615C262.002 278.623 261.235 276.572 260.497 274.403C258.724 269.777 256.516 265.331 253.901 261.123C251.202 256.941 248.114 253.024 244.679 249.421C243.041 247.828 241.506 246.264 239.913 244.995C239.131 244.345 238.437 243.681 237.655 243.106L235.457 241.483C234.099 240.406 232.727 239.624 231.576 238.871L229.953 237.838L228.477 237.071L226.529 235.964C226.287 235.856 226.064 235.712 225.865 235.536C226.115 235.612 226.357 235.711 226.588 235.831L228.625 236.805L230.1 237.528C230.617 237.809 231.163 238.148 231.768 238.502C233.14 239.277 234.47 240.124 235.752 241.04L237.98 242.634C238.762 243.194 239.455 243.873 240.297 244.508C241.991 245.897 243.612 247.375 245.151 248.934C252.25 256.112 257.703 264.747 261.132 274.241C261.881 276.301 262.522 278.399 263.05 280.527C263.286 281.53 263.581 282.475 263.758 283.478C263.935 284.481 264.083 285.323 264.231 286.178C264.508 287.731 264.705 289.297 264.821 290.871C264.821 291.564 264.954 292.199 264.983 292.804C265.013 293.409 264.983 293.925 264.983 294.427V296.67C265.001 296.886 265.006 297.103 264.998 297.319V297.319Z" fill="#263238"></path> <path d="M216.598 274.448C216.495 274.551 214.945 272.972 212.171 270.921C204.818 265.46 196.082 262.168 186.953 261.418C183.456 261.123 181.272 261.256 181.272 261.123C181.752 260.983 182.249 260.913 182.748 260.917C184.143 260.822 185.543 260.822 186.939 260.917C196.244 261.356 205.175 264.711 212.466 270.508C213.568 271.37 214.608 272.307 215.58 273.312C215.962 273.65 216.304 274.031 216.598 274.448V274.448Z" fill="#263238"></path> <path d="M270.782 375.422C270.007 375.501 269.226 375.501 268.45 375.422C266.975 375.422 264.761 375.422 262.076 375.289C256.705 375.097 249.283 374.655 241.108 373.814C232.933 372.973 225.57 371.999 220.258 371.128C217.602 370.7 215.462 370.331 213.986 370.036C213.21 369.925 212.445 369.747 211.699 369.505C212.481 369.528 213.26 369.607 214.031 369.741L220.346 370.597C225.658 371.32 233.021 372.249 241.182 373.046C249.342 373.843 256.749 374.374 262.105 374.699L268.45 375.083C269.235 375.141 270.014 375.255 270.782 375.422Z" fill="#263238"></path> <path d="M494.526 275.067C494.255 275.128 493.978 275.163 493.7 275.17L491.324 275.332C490.306 275.332 489.037 275.451 487.591 275.642C486.145 275.834 484.463 275.923 482.648 276.247L479.785 276.705C478.797 276.867 477.778 277.118 476.716 277.325C474.591 277.723 472.363 278.357 470.002 278.977C459.822 281.873 450.173 286.382 441.42 292.331C439.428 293.733 437.509 295.032 435.842 296.419C434.986 297.097 434.145 297.717 433.393 298.366L431.209 300.27C429.733 301.45 428.626 302.66 427.564 303.664C426.502 304.667 425.631 305.582 424.923 306.349L423.285 308.061C423.1 308.271 422.892 308.459 422.665 308.622C422.808 308.383 422.976 308.16 423.167 307.958C423.565 307.471 424.082 306.881 424.642 306.143C425.203 305.405 426.118 304.402 427.21 303.369C428.302 302.336 429.379 301.082 430.781 299.872L432.95 297.924C433.702 297.245 434.544 296.61 435.385 295.917C437.052 294.441 438.97 293.172 440.962 291.741C449.782 285.671 459.558 281.127 469.884 278.298C472.26 277.693 474.517 277.074 476.657 276.705C477.734 276.498 478.767 276.262 479.77 276.115L482.722 275.716C484.551 275.421 486.234 275.347 487.694 275.214C488.95 275.091 490.21 275.032 491.472 275.037H493.848C494.074 275.023 494.302 275.033 494.526 275.067V275.067Z" fill="#263238"></path> <path d="M58.5041 177.678V192.965H53.251L64.5688 206.157L75.193 193.23H69.8219V177.678H58.5041Z" fill="#A41F68"></path> <path opacity="0.3" d="M58.5041 177.678V192.965H53.251L64.5688 206.157L75.193 193.23H69.8219V177.678H58.5041Z" fill="black"></path> <path d="M95.4228 143.607C94.0145 138.134 91.1092 133.162 87.0328 129.249C82.9565 125.335 77.8704 122.634 72.345 121.45C66.8196 120.266 61.0735 120.644 55.7512 122.543C50.4288 124.442 45.7409 127.786 42.213 132.2C41.2332 132.088 40.2481 132.029 39.2619 132.023C35.8901 131.942 32.5361 132.536 29.3972 133.77C26.2583 135.004 23.3979 136.853 20.9844 139.209C18.5709 141.565 16.6529 144.38 15.3435 147.488C14.034 150.596 13.3594 153.935 13.3594 157.308C13.3594 160.68 14.034 164.019 15.3435 167.127C16.6529 170.235 18.5709 173.05 20.9844 175.406C23.3979 177.762 26.2583 179.611 29.3972 180.846C32.5361 182.08 35.8901 182.673 39.2619 182.592H94.3456C99.4268 182.593 104.308 180.612 107.951 177.069C111.593 173.527 113.71 168.703 113.85 163.623C113.99 158.544 112.143 153.611 108.702 149.872C105.261 146.134 100.496 143.886 95.4228 143.607V143.607Z" fill="#A41F68"></path> <path d="M101.236 175.746C101.236 175.642 102.24 174.934 103.656 173.473C105.51 171.575 106.943 169.307 107.862 166.818C108.742 164.316 109.094 161.658 108.895 159.012C108.732 156.976 108.363 155.737 108.481 155.707C109.022 156.71 109.344 157.817 109.426 158.953C109.811 161.688 109.522 164.476 108.583 167.074C107.644 169.671 106.085 172 104.04 173.857C103.249 174.677 102.293 175.32 101.236 175.746V175.746Z" fill="#263238"></path> <path d="M42.9216 139.563C42.9216 139.696 41.446 139.386 39.2473 139.357C36.3178 139.302 33.4111 139.882 30.7266 141.056C28.042 142.23 25.6432 143.971 23.6946 146.159C22.219 147.826 21.4812 149.11 21.3779 148.992C21.7928 147.813 22.4401 146.729 23.2814 145.805C25.1931 143.444 27.6436 141.576 30.4271 140.359C33.2105 139.142 36.2455 138.611 39.2768 138.811C40.5294 138.82 41.7679 139.075 42.9216 139.563V139.563Z" fill="#263238"></path> <path d="M59.9936 127.08C59.1614 127.351 58.3139 127.573 57.4556 127.744C55.4572 128.311 53.5742 129.225 51.8926 130.444C50.2185 131.663 48.766 133.16 47.5986 134.871C47.1572 135.641 46.6642 136.38 46.123 137.084C46.251 136.191 46.5788 135.339 47.0822 134.59C48.1482 132.699 49.6135 131.063 51.3761 129.795C53.1325 128.509 55.1459 127.618 57.2785 127.183C58.1632 126.938 59.0928 126.903 59.9936 127.08Z" fill="#263238"></path> <path d="M83.6775 182.355C83.6775 182.562 76.2995 182.739 67.0771 182.739C57.8546 182.739 50.4619 182.562 50.4619 182.355C50.4619 182.149 57.8989 181.972 67.0476 181.972C76.1962 181.972 83.6775 182.134 83.6775 182.355Z" fill="#263238"></path> <path d="M85.5363 227.892C85.1562 223.373 85.0281 218.836 85.1526 214.302C85.0279 209.764 85.156 205.222 85.5363 200.697C85.9255 205.221 86.0536 209.764 85.9199 214.302C86.0532 218.836 85.9251 223.373 85.5363 227.892V227.892Z" fill="#263238"></path> <path d="M90.8485 239.785C90.6419 239.785 90.4648 231.935 90.4648 222.27C90.4648 212.605 90.6419 204.755 90.8485 204.755C91.0551 204.755 91.2321 212.605 91.2321 222.27C91.2321 231.935 91.0698 239.785 90.8485 239.785Z" fill="#263238"></path> <g opacity="0.3"> <path opacity="0.3" d="M531.062 323.186C528.111 306.35 505.785 289.247 486.543 293.099C469.781 296.434 451.734 300.329 435.163 304.52C428.317 306.246 421.234 297.939 415.508 293.822C412.557 291.667 410.727 288.215 408.853 284.968C398.185 266.833 380.625 253.228 361.015 245.629C341.404 238.03 319.831 236.215 298.922 238.502C282.69 240.287 264.983 245.88 257.384 260.341C254.344 266.169 253.134 273.163 248.427 277.738C242.141 283.817 232.196 283.33 224.006 286.414C207.627 292.582 199.334 316 201.4 333.368C203.466 350.735 218.915 373.12 251.393 376.691C251.393 376.691 369.042 377.724 427.136 380.542C447.278 381.516 453.357 378.742 473.499 378.211C509.046 377.355 536.374 354.07 531.062 323.186Z" fill="black"></path> </g> <path d="M314.947 407.812C316.924 407.31 319.137 405.274 320.849 404.182C325.04 401.486 329.186 398.717 333.288 395.874C318.532 391.595 306.064 388.216 291.337 384.069C290.832 389.972 291.381 395.918 292.96 401.629C294.318 406.188 296.915 411.043 301.519 412.253C305.695 413.345 309.945 411.043 313.633 408.771L314.652 408.136" fill="#E0E0E0"></path> <path d="M317.47 399.666C317.249 399.666 317.338 397.733 316.821 395.475C316.305 393.217 315.345 391.535 315.611 391.417C316.575 392.533 317.249 393.87 317.573 395.308C317.898 396.747 317.862 398.244 317.47 399.666V399.666Z" fill="#263238"></path> <path d="M320.643 398.884C320.491 397.789 320.412 396.684 320.407 395.579C320.178 394.499 320.025 393.404 319.949 392.303C320.63 393.243 321.053 394.346 321.174 395.501C321.296 396.656 321.113 397.822 320.643 398.884V398.884Z" fill="#263238"></path> <path d="M301.194 386.813C301.327 386.813 300.899 388.289 300.869 390.812C300.822 394.017 301.621 397.178 303.186 399.976C304.682 402.811 306.729 405.32 309.207 407.354C310.314 408.09 311.484 408.727 312.704 409.257C312.331 409.278 311.959 409.218 311.612 409.08C310.647 408.792 309.732 408.359 308.897 407.796C306.236 405.822 304.053 403.275 302.507 400.345C300.878 397.433 300.125 394.113 300.338 390.783C300.386 389.786 300.539 388.796 300.796 387.832C300.862 387.47 300.997 387.124 301.194 386.813Z" fill="#455A64"></path> <path d="M312.704 390.222C313.996 392.949 314.805 395.88 315.094 398.883C315.615 401.841 315.615 404.868 315.094 407.825C314.858 407.825 315.02 403.827 314.356 398.972C313.692 394.117 312.468 390.295 312.704 390.222Z" fill="#455A64"></path> <path d="M309.37 405.923C308.492 405.422 307.7 404.784 307.023 404.034C305.224 402.377 303.726 400.42 302.597 398.25C301.469 396.049 301.002 393.568 301.254 391.108C301.297 390.08 301.635 389.086 302.228 388.245C302.346 388.245 301.903 389.352 301.8 391.196C301.714 393.537 302.221 395.862 303.275 397.954C304.377 400.049 305.757 401.984 307.378 403.709C308.112 404.38 308.779 405.122 309.37 405.923V405.923Z" fill="#A41F68"></path> <path d="M329.998 397.925C328.408 399.213 326.663 400.299 324.804 401.156C323.065 402.233 321.202 403.095 319.256 403.724C320.839 402.421 322.585 401.33 324.45 400.478C326.187 399.401 328.05 398.543 329.998 397.925V397.925Z" fill="#A41F68"></path> <path d="M306.506 406.129C305.283 407.463 303.74 408.463 302.023 409.036C300.307 409.609 298.473 409.736 296.693 409.405C296.693 409.184 299.069 409.228 301.784 408.299C304.499 407.369 306.373 405.952 306.506 406.129Z" fill="#455A64"></path> <path d="M301.505 398.574C301.505 398.795 299.512 399.076 297.299 400.05C295.086 401.023 293.536 402.381 293.374 402.219C294.231 400.898 295.495 399.893 296.974 399.356C298.355 398.598 299.95 398.323 301.505 398.574V398.574Z" fill="#455A64"></path> <path d="M300.53 391.86C298.94 391.312 297.319 390.859 295.675 390.502C293.994 390.415 292.31 390.415 290.629 390.502C292.208 389.666 294.03 389.41 295.779 389.779C297.562 389.875 299.25 390.614 300.53 391.86V391.86Z" fill="#455A64"></path> <path d="M413.501 370.523C413.59 370.656 358.152 384.025 358.152 384.025L350.007 364.945L353.74 359.176C353.74 359.176 377.172 353.878 396.237 343.092L413.501 370.523Z" fill="#FFBE9D"></path> <path d="M283.413 316.163C283.413 316.163 280.875 312.459 270.133 307.191C261.206 302.764 238.29 299.164 229.008 317.092C219.727 335.021 226.854 362.526 242.289 368.399C257.723 374.271 283.413 382.313 293.934 385.707C304.455 389.101 339.058 397.763 339.058 397.763L353.283 389.426L354.965 362.865C354.965 362.865 335.354 342.723 318.665 337.16C301.976 331.597 283.413 316.163 283.413 316.163Z" fill="#263238"></path> <path d="M251.394 303.65C251.541 303.428 267.123 303.871 278.5 308.165C282.779 309.773 286.97 311.5 286.97 311.5L293.256 293.586L340.372 277.886H392.534L409.503 311.5V313.197C409.503 313.197 429.881 313.536 438.705 309.463C447.529 305.391 475.019 293.497 482.146 291.122C489.274 288.746 521.191 284.187 528.318 303.605C535.445 323.024 530.398 343.284 518.475 350.691C512.853 354.174 418.003 378.728 418.003 378.728L395.588 343.077C395.588 343.077 361.443 360.002 350.007 358.158C338.571 356.313 251.394 303.65 251.394 303.65Z" fill="#263238"></path> <path d="M347.602 286.547C347.702 286.77 347.781 287.002 347.838 287.24C347.971 287.772 348.148 288.436 348.354 289.232C348.782 290.974 349.328 293.526 349.83 296.684C350.981 303 352.132 311.809 353.017 321.563C353.903 331.316 354.375 340.17 354.567 346.648C354.67 349.85 354.7 352.447 354.7 354.247C354.7 355.073 354.7 355.723 354.7 356.313C354.74 356.552 354.74 356.797 354.7 357.036C354.652 356.797 354.622 356.556 354.611 356.313C354.611 355.752 354.611 355.073 354.508 354.247C354.404 352.343 354.286 349.82 354.124 346.677C353.799 340.273 353.224 331.434 352.353 321.681C351.483 311.927 350.405 303.162 349.402 296.832C348.915 293.674 348.443 291.121 348.104 289.365C347.956 288.554 347.823 287.89 347.72 287.329C347.638 287.076 347.598 286.812 347.602 286.547V286.547Z" fill="#455A64"></path> <path d="M408.986 314.022C408.986 314.229 397.181 315.719 382.558 317.342C367.935 318.966 356.086 320.117 355.998 319.895C355.909 319.674 367.802 318.198 382.425 316.575C397.048 314.952 408.956 313.816 408.986 314.022Z" fill="#455A64"></path> <path d="M401.195 314.097C400.631 314.122 400.066 314.077 399.513 313.964C398.436 313.816 396.886 313.625 394.953 313.433C389.941 312.887 384.899 312.655 379.858 312.739C374.821 312.837 369.795 313.241 364.807 313.949L360.277 314.643C359.725 314.769 359.161 314.838 358.595 314.849C359.113 314.618 359.658 314.454 360.218 314.362C361.266 314.082 362.8 313.757 364.718 313.418C374.732 311.668 384.958 311.489 395.027 312.887C396.945 313.167 398.495 313.433 399.557 313.669C400.116 313.756 400.665 313.9 401.195 314.097V314.097Z" fill="#455A64"></path> <path d="M408.411 312.06C405.177 310.472 401.79 309.216 398.303 308.312C394.756 307.661 391.151 307.379 387.546 307.471C388.566 307.115 389.638 306.935 390.718 306.94C395.941 306.638 401.145 307.788 405.755 310.26C406.73 310.715 407.627 311.322 408.411 312.06V312.06Z" fill="#455A64"></path> <path d="M364.969 341.232C363.629 342.577 361.991 343.588 360.188 344.184C358.483 345.005 356.606 345.405 354.714 345.349C354.714 345.128 357.09 344.597 359.893 343.461C362.697 342.324 364.836 341.055 364.969 341.232Z" fill="#455A64"></path> <path d="M362.461 347.843C360.018 349.152 357.192 349.559 354.479 348.994C355.779 348.634 357.115 348.421 358.463 348.359C359.773 348.044 361.114 347.871 362.461 347.843V347.843Z" fill="#455A64"></path> <path d="M442.63 310.762C442.415 310.942 442.183 311.1 441.936 311.234L439.885 312.459L432.242 316.885L406.891 331.14L381.422 345.202L373.661 349.393L371.521 350.499C371.276 350.635 371.019 350.749 370.754 350.839C370.966 350.656 371.199 350.497 371.447 350.367L373.513 349.127L381.157 344.7L406.507 330.446L431.976 316.384L439.738 312.208L441.863 311.101C442.1 310.95 442.358 310.835 442.63 310.762Z" fill="#455A64"></path> <path d="M482.426 303.251C482.113 303.354 481.792 303.432 481.467 303.487L478.722 304.048C476.332 304.55 472.894 305.347 468.703 306.527C457.806 309.699 447.234 313.894 437.126 319.055C425.232 324.957 414.992 331.302 407.496 335.832L398.642 341.233L396.222 342.709C395.945 342.884 395.653 343.037 395.352 343.166C395.596 342.942 395.863 342.745 396.148 342.576L398.48 341.012C400.516 339.669 403.467 337.736 407.156 335.404C414.534 330.742 424.863 324.382 436.742 318.391C446.886 313.206 457.531 309.063 468.511 306.025C472.746 304.904 476.214 304.196 478.619 303.797C479.814 303.561 480.759 303.458 481.393 303.369C481.731 303.287 482.078 303.247 482.426 303.251Z" fill="#455A64"></path> <path d="M505.785 296.537C505.785 296.67 504.074 296.537 501.359 296.537C497.781 296.643 494.229 297.178 490.779 298.13C487.334 299.094 484.016 300.461 480.892 302.203C478.487 303.561 477.1 304.564 477.026 304.461C476.952 304.357 477.307 304.121 477.912 303.634C478.771 302.949 479.673 302.318 480.612 301.746C483.706 299.824 487.06 298.358 490.572 297.393C494.079 296.421 497.705 295.949 501.344 295.991C502.445 296.001 503.544 296.08 504.635 296.227C505.031 296.274 505.419 296.379 505.785 296.537V296.537Z" fill="#455A64"></path> <path d="M497.58 302.778C497.58 303 493.626 302.483 488.727 302.66C483.828 302.837 480.021 303.605 479.977 303.383C482.773 302.379 485.726 301.879 488.697 301.908C491.687 301.67 494.694 301.965 497.58 302.778V302.778Z" fill="#455A64"></path> <path d="M480.464 296.758C480.568 296.964 477.174 298.765 473.396 301.583C469.619 304.401 466.889 307.117 466.727 306.954C468.428 304.607 470.531 302.579 472.939 300.963C475.186 299.138 477.732 297.715 480.464 296.758V296.758Z" fill="#455A64"></path> <path d="M530.383 313.594C530.334 313.7 530.28 313.804 530.221 313.904L529.734 314.775C529.277 315.557 528.598 316.664 527.609 318.036C524.84 321.961 521.492 325.444 517.678 328.365C511.998 332.611 505.861 336.209 499.381 339.093C492.121 342.442 483.843 345.393 475.167 348.433L430.692 364.001L417.176 368.619L413.502 369.844L412.528 370.154C412.419 370.196 412.305 370.221 412.188 370.228L412.498 370.08L413.443 369.696L417.087 368.339L430.515 363.484L474.916 347.71C483.592 344.67 491.856 341.808 499.101 338.443C505.545 335.608 511.665 332.086 517.354 327.937C521.171 325.075 524.564 321.687 527.432 317.874C528.436 316.531 529.173 315.439 529.66 314.701L530.221 313.86C530.329 313.673 530.383 313.585 530.383 313.594Z" fill="#455A64"></path> <path d="M351.704 390.37C351.337 390.264 350.977 390.136 350.626 389.986L347.587 388.762C344.96 387.684 341.168 386.076 336.52 384.025C327.209 379.937 314.386 374.094 300.515 367.292C286.645 360.489 274.146 354.011 265.337 348.847C260.91 346.309 257.428 344.154 255.008 342.605L252.278 340.79C251.951 340.595 251.645 340.368 251.363 340.111C251.712 340.266 252.047 340.449 252.367 340.657L255.156 342.354C257.59 343.83 261.132 345.91 265.573 348.36C274.427 353.333 286.91 359.766 300.825 366.598C314.74 373.43 327.474 379.318 336.711 383.523L347.705 388.555L350.656 389.898C351.02 390.019 351.371 390.177 351.704 390.37V390.37Z" fill="#455A64"></path> <path d="M255.053 312.961C255.446 312.615 255.888 312.332 256.366 312.119C257.609 311.459 258.901 310.896 260.232 310.437C264.665 308.907 269.387 308.402 274.044 308.962C278.694 309.406 283.225 310.696 287.412 312.769C288.662 313.428 289.831 314.23 290.895 315.159C291.307 315.472 291.67 315.845 291.972 316.266C290.436 315.155 288.829 314.144 287.162 313.241C282.958 311.348 278.471 310.162 273.881 309.729C269.338 309.174 264.729 309.576 260.35 310.909C257.03 311.987 255.112 313.093 255.053 312.961Z" fill="#455A64"></path> <path d="M354.95 362.879C354.694 362.738 354.46 362.559 354.257 362.348L352.368 360.74C350.73 359.264 348.31 357.346 345.3 354.926C339.279 350.101 330.78 343.638 321.41 336.481L314.593 331.243C312.365 329.59 310.166 328.173 307.923 326.816C303.496 324.204 299.512 321.976 296.31 319.777C293.748 318.091 291.361 316.153 289.183 313.993C288.591 313.413 288.029 312.802 287.501 312.163C287.295 311.956 287.116 311.723 286.97 311.47C286.97 311.47 287.811 312.326 289.39 313.786C291.628 315.839 294.043 317.691 296.605 319.32C299.822 321.445 303.88 323.614 308.292 326.211C310.491 327.524 312.719 328.941 315.035 330.638C317.352 332.335 319.462 334.09 321.867 335.876C331.238 343.033 339.693 349.555 345.639 354.513C348.59 356.977 350.996 359.028 352.56 360.504C353.371 361.241 353.962 361.832 354.36 362.245C354.576 362.437 354.774 362.65 354.95 362.879V362.879Z" fill="#455A64"></path> <path d="M316.039 326.093C317.826 326.648 319.579 327.303 321.292 328.055C324.524 329.31 328.995 331.006 334.027 332.556C339.058 334.105 343.662 335.374 347.012 336.201C348.846 336.598 350.659 337.09 352.442 337.676C351.946 337.697 351.449 337.648 350.966 337.529C350.007 337.396 348.62 337.145 346.923 336.791C342.499 335.867 338.125 334.715 333.82 333.338C329.508 331.98 325.267 330.404 321.115 328.616C319.536 327.922 318.252 327.332 317.382 326.904C316.905 326.686 316.454 326.414 316.039 326.093V326.093Z" fill="#455A64"></path> <path d="M332.358 313.02C330.612 313.429 328.843 313.735 327.061 313.934C323.785 314.421 319.255 315.115 314.282 316C309.31 316.886 304.824 317.815 301.578 318.494C299.84 318.933 298.075 319.258 296.295 319.468C296.725 319.248 297.181 319.084 297.652 318.981C298.538 318.715 299.836 318.361 301.445 317.963C304.676 317.151 309.147 316.148 314.15 315.248C319.152 314.348 323.682 313.772 326.987 313.388C328.64 313.211 329.938 313.093 330.912 313.034C331.391 312.959 331.878 312.954 332.358 313.02Z" fill="#455A64"></path> <path d="M325.364 304.358C325.364 304.476 323.328 304.653 320.081 305.14C311.584 306.393 303.332 308.951 295.616 312.724C292.665 314.2 290.879 315.188 290.82 315.07C291.167 314.737 291.56 314.454 291.986 314.229C292.753 313.713 293.904 313.034 295.365 312.237C299.187 310.2 303.194 308.53 307.332 307.25C311.466 305.974 315.709 305.084 320.007 304.594C321.66 304.417 322.959 304.328 323.918 304.313C324.399 304.252 324.887 304.267 325.364 304.358V304.358Z" fill="#455A64"></path> <path d="M384.654 378.86L375.801 399.519C379.062 402.47 391.457 404.358 395.825 404.137C400.192 403.916 406.508 403.96 410.861 403.473C416.407 403.026 421.981 403.065 427.52 403.591C433.062 404.116 438.646 404.012 444.165 403.281C449.697 402.522 454.855 400.056 458.921 396.228C460.886 394.492 462.372 392.28 463.237 389.804C464.101 387.328 464.315 384.671 463.857 382.089C463.399 379.507 462.285 377.086 460.623 375.058C458.96 373.03 456.804 371.463 454.361 370.508C449.911 368.616 445.035 367.949 440.24 368.575C435.469 369.204 430.767 370.271 426.192 371.763C421.279 373.238 416.247 374.714 411.141 374.271C410.108 374.183 409.075 374.271 408.057 374.035C401.388 372.796 394.437 372.737 388.432 376.514C387.251 377.267 385.909 377.931 384.654 378.86Z" fill="#E0E0E0"></path> <path d="M385.938 381.177C386.174 380.906 386.436 380.659 386.72 380.439C387.514 379.783 388.363 379.196 389.258 378.683C392.586 376.768 396.429 375.938 400.251 376.308C402.641 376.544 405.209 377.031 407.983 377.444C410.904 377.964 413.879 378.108 416.836 377.872C420.085 377.435 423.286 376.699 426.398 375.673C429.788 374.551 433.292 373.809 436.845 373.46C440.423 373.113 444.033 373.423 447.499 374.374C449.144 374.849 450.737 375.492 452.25 376.293C453.722 377.039 455.05 378.038 456.176 379.244C458.249 381.497 459.707 384.247 460.41 387.227C460.755 388.583 460.801 389.998 460.543 391.373C460.264 392.636 459.764 393.84 459.068 394.929C457.901 396.78 456.333 398.343 454.479 399.504C453.101 400.382 451.643 401.127 450.126 401.732C448.886 402.248 447.912 402.588 447.248 402.824C446.916 402.961 446.57 403.06 446.215 403.119C446.527 402.944 446.852 402.796 447.189 402.676C447.838 402.396 448.798 402.012 450.008 401.466C451.479 400.809 452.895 400.034 454.243 399.15C456.011 397.993 457.498 396.455 458.596 394.649C459.272 393.576 459.722 392.376 459.918 391.122C460.113 389.868 460.05 388.588 459.732 387.36C459.02 384.509 457.598 381.885 455.6 379.731C453.282 377.448 450.392 375.832 447.233 375.053C443.871 374.145 440.373 373.845 436.904 374.168C429.703 374.699 423.314 377.99 416.91 378.595C413.901 378.815 410.875 378.647 407.909 378.093C405.135 377.636 402.582 377.119 400.221 376.853C396.493 376.468 392.734 377.197 389.42 378.949C388.22 379.629 387.058 380.373 385.938 381.177V381.177Z" fill="#455A64"></path> <path d="M446.274 403.208C446.274 403.208 445.95 402.927 445.477 402.307C445.18 401.943 444.909 401.559 444.666 401.157C444.321 400.636 444.011 400.094 443.736 399.533C442.985 398.093 442.367 396.586 441.892 395.033C441.315 393.107 440.92 391.13 440.711 389.13C440.535 387.142 440.535 385.142 440.711 383.154C440.866 381.537 441.167 379.937 441.611 378.373C441.77 377.766 441.967 377.17 442.202 376.588C442.354 376.143 442.537 375.71 442.748 375.289C443.102 374.596 443.308 374.227 443.353 374.257C443.397 374.286 442.762 375.85 442.143 378.506C441.772 380.053 441.53 381.627 441.419 383.213C441.303 385.156 441.333 387.104 441.508 389.042C441.731 390.976 442.101 392.89 442.615 394.767C443.048 396.284 443.601 397.764 444.267 399.194C445.345 401.835 446.363 403.134 446.274 403.208Z" fill="#263238"></path> <path d="M390.098 375.968C390.29 376.071 390.098 376.838 389.67 377.724C389.242 378.609 388.903 379.317 388.696 379.199C388.49 379.081 388.578 378.314 388.962 377.384C389.346 376.455 389.921 375.864 390.098 375.968Z" fill="#455A64"></path> <path d="M396.399 373.519C396.591 373.607 396.399 374.36 396.148 375.245C395.898 376.131 395.529 376.839 395.322 376.721C395.116 376.603 395.116 375.865 395.411 374.935C395.706 374.006 396.207 373.43 396.399 373.519Z" fill="#455A64"></path> <path d="M404.501 373.356C404.692 373.43 404.589 374.3 404.265 375.303C403.94 376.307 403.497 377.074 403.305 377C403.114 376.927 403.202 376.071 403.527 375.067C403.851 374.064 404.294 373.297 404.501 373.356Z" fill="#455A64"></path> <path d="M412.1 374.316C412.307 374.316 412.233 375.245 411.938 376.264C411.643 377.282 411.229 378.064 411.038 378.005C410.846 377.946 410.905 377.075 411.2 376.042C411.495 375.009 411.893 374.257 412.1 374.316Z" fill="#455A64"></path> <path d="M418.504 378.328C418.297 378.328 418.12 377.295 418.135 376.026C418.149 374.757 418.312 373.739 418.533 373.739C418.754 373.739 418.902 374.772 418.902 376.026C418.902 377.281 418.71 378.328 418.504 378.328Z" fill="#455A64"></path> <path d="M425.616 376.513C425.395 376.513 425.1 375.628 424.937 374.477C424.775 373.326 424.819 372.367 425.026 372.338C425.232 372.308 425.542 373.223 425.705 374.374C425.867 375.525 425.852 376.484 425.616 376.513Z" fill="#455A64"></path> <path d="M432.197 370.065C432.404 370.065 432.743 370.892 432.949 371.998C433.156 373.105 433.156 374.035 432.949 374.064C432.743 374.094 432.404 373.238 432.197 372.131C431.99 371.025 431.99 370.095 432.197 370.065Z" fill="#455A64"></path> <path d="M440.697 368.501C440.904 368.501 440.815 369.755 440.52 371.202C440.225 372.648 439.782 373.799 439.576 373.754C439.369 373.71 439.458 372.5 439.768 371.054C440.077 369.608 440.491 368.457 440.697 368.501Z" fill="#455A64"></path> <path d="M447.986 368.708C448.178 368.796 447.661 370.183 446.82 371.659C445.979 373.135 445.153 374.404 444.976 374.3C445.137 373.241 445.535 372.233 446.141 371.349C446.968 369.8 447.75 368.619 447.986 368.708Z" fill="#455A64"></path> <path d="M455.408 370.656C455.585 370.774 454.906 372.131 453.933 373.695C452.959 375.259 451.941 376.44 451.763 376.322C451.586 376.204 452.265 374.846 453.239 373.282C454.213 371.718 455.231 370.538 455.408 370.656Z" fill="#455A64"></path> <path d="M460.19 375.141C460.352 375.259 459.703 376.484 458.714 377.886C457.725 379.288 456.811 380.321 456.648 380.203C456.486 380.085 457.121 378.845 458.124 377.443C459.127 376.041 460.013 375.009 460.19 375.141Z" fill="#455A64"></path> <path d="M463.524 380.838C463.701 380.956 463.037 382.151 461.916 383.39C460.794 384.63 459.673 385.397 459.54 385.25C459.407 385.102 460.263 384.084 461.355 382.874C462.447 381.664 463.347 380.705 463.524 380.838Z" fill="#455A64"></path> <path d="M463.037 389.529C463.2 389.647 462.831 390.37 461.96 390.753C461.089 391.137 460.293 390.93 460.322 390.753C460.352 390.576 460.957 390.385 461.65 390.075C462.344 389.765 462.875 389.381 463.037 389.529Z" fill="#455A64"></path> <path d="M458.316 396.966C458.316 397.157 458.183 397.408 457.858 397.364C457.534 397.32 457.43 396.995 457.563 396.833C457.61 396.762 457.674 396.704 457.748 396.663C457.823 396.621 457.906 396.599 457.991 396.597C458.072 396.626 458.143 396.676 458.2 396.74C458.257 396.804 458.296 396.882 458.316 396.966V396.966Z" fill="#455A64"></path> <path d="M406.861 399.902C407.909 397.693 408.716 395.378 409.267 392.996C409.581 390.549 409.631 388.076 409.414 385.618C410.268 388.006 410.481 390.575 410.033 393.071C409.585 395.566 408.492 397.901 406.861 399.843V399.902Z" fill="#263238"></path> <path d="M412.94 399.209C413.912 397.173 414.654 395.035 415.154 392.834C415.414 390.589 415.414 388.321 415.154 386.076C416.043 388.253 416.309 390.635 415.92 392.955C415.532 395.275 414.505 397.44 412.955 399.209H412.94Z" fill="#263238"></path> <path d="M420.599 399.253C423.254 395.024 424.193 389.941 423.225 385.043C423.646 385.67 423.909 386.388 423.992 387.138C424.337 388.922 424.337 390.755 423.992 392.539C423.674 394.329 423.008 396.038 422.03 397.571C421.307 398.736 420.672 399.312 420.599 399.253Z" fill="#263238"></path> <path d="M429.246 398.736C430.132 396.438 430.799 394.062 431.238 391.639C431.412 389.18 431.363 386.711 431.091 384.261C432.004 386.641 432.313 389.209 431.991 391.738C431.669 394.266 430.726 396.676 429.246 398.751V398.736Z" fill="#263238"></path> <path d="M405.312 392.259C404.918 392.431 404.484 392.492 404.058 392.436C402.888 392.361 401.755 391.99 400.767 391.358C399.35 390.401 398.112 389.202 397.108 387.817C396.427 387.036 395.888 386.142 395.514 385.176C395.329 384.62 395.283 384.027 395.381 383.449C395.494 382.829 395.817 382.266 396.296 381.856C396.762 381.482 397.313 381.229 397.899 381.119C398.486 381.008 399.091 381.043 399.661 381.221C400.665 381.552 401.572 382.124 402.302 382.889C403.518 384.112 404.459 385.581 405.061 387.197C405.471 388.271 405.714 389.4 405.784 390.547C405.85 390.965 405.825 391.393 405.711 391.801C405.484 390.289 405.098 388.805 404.56 387.374C403.915 385.871 402.977 384.512 401.8 383.376C401.152 382.697 400.346 382.19 399.454 381.9C399.003 381.766 398.527 381.742 398.065 381.829C397.603 381.916 397.169 382.112 396.798 382.402C396.462 382.714 396.229 383.121 396.129 383.569C396.029 384.017 396.067 384.484 396.237 384.91C396.586 385.8 397.085 386.624 397.713 387.345C398.643 388.694 399.79 389.881 401.107 390.857C402.346 391.716 403.805 392.203 405.312 392.259V392.259Z" fill="#263238"></path> <path d="M404.958 392.038C404.93 392.425 404.835 392.805 404.677 393.159C404.347 394.18 403.922 395.168 403.408 396.11C402.662 397.546 401.527 398.743 400.133 399.563C399.277 400.049 398.313 400.313 397.329 400.331C396.758 400.37 396.187 400.261 395.67 400.016C395.153 399.77 394.708 399.396 394.378 398.929C394.119 398.423 394.012 397.853 394.07 397.287C394.127 396.722 394.347 396.185 394.702 395.741C395.275 394.948 396.035 394.309 396.916 393.882C398.363 393.24 399.893 392.803 401.461 392.584C402.854 392.237 404.277 392.025 405.71 391.949C404.369 392.456 402.987 392.846 401.579 393.115C400.081 393.405 398.624 393.876 397.24 394.517C396.476 394.904 395.818 395.471 395.322 396.169C395.059 396.497 394.893 396.892 394.843 397.31C394.794 397.727 394.863 398.15 395.042 398.53C395.299 398.871 395.634 399.144 396.02 399.326C396.405 399.509 396.829 399.595 397.255 399.578C398.117 399.575 398.964 399.357 399.719 398.944C401.025 398.198 402.114 397.125 402.877 395.83C404.22 393.558 404.766 391.964 404.958 392.038Z" fill="#263238"></path> <path d="M404.353 398.323C404.176 398.176 405.032 397.039 405.283 395.372C405.534 393.705 405.12 392.421 405.283 392.303C405.657 392.736 405.918 393.255 406.041 393.814C406.165 394.373 406.148 394.954 405.991 395.505C405.74 397.408 404.471 398.485 404.353 398.323Z" fill="#263238"></path> <path d="M407.643 388.009C407.835 388.009 407.643 389.189 407.009 390.399C406.374 391.609 405.533 392.377 405.371 392.259C405.209 392.14 405.725 391.181 406.33 390.045C406.935 388.909 407.437 387.935 407.643 388.009Z" fill="#263238"></path> <path d="M431.268 377.03C430.256 377.702 429.153 378.224 427.992 378.58C422.475 380.637 416.59 381.522 410.713 381.177C409.499 381.171 408.293 380.998 407.127 380.66C411.219 380.71 415.31 380.498 419.374 380.026C423.4 379.287 427.373 378.287 431.268 377.03V377.03Z" fill="#A41F68"></path> <path d="M427.609 400.95C424.945 401.523 422.232 401.839 419.508 401.894C416.804 402.206 414.077 402.265 411.362 402.071C414.026 401.498 416.739 401.182 419.463 401.127C422.167 400.816 424.894 400.757 427.609 400.95V400.95Z" fill="#A41F68"></path> <path d="M447.189 401.525C449.038 401.265 450.809 400.61 452.383 399.607C454.045 398.472 455.378 396.92 456.249 395.106C457.25 392.866 457.529 390.37 457.046 387.964C456.577 385.543 455.442 383.3 453.77 381.486C452.389 380.02 450.735 378.837 448.901 378.004C447.159 377.296 445.349 376.767 443.5 376.425C444.012 376.332 444.537 376.332 445.049 376.425C446.443 376.588 447.809 376.941 449.107 377.473C451.059 378.264 452.823 379.455 454.287 380.97C456.087 382.859 457.306 385.225 457.798 387.787C458.321 390.353 458 393.018 456.884 395.387C455.933 397.291 454.479 398.899 452.678 400.035C451.476 400.793 450.129 401.296 448.724 401.51C448.218 401.611 447.697 401.616 447.189 401.525V401.525Z" fill="#A41F68"></path> <path d="M353.843 365.255L392.209 382.298C392.582 387.175 391.773 392.07 389.848 396.567C387.044 402.322 378.53 401.171 378.53 401.171L344.769 393.321L352.294 388.894L353.843 365.255Z" fill="#FFBE9D"></path> <path d="M388.136 399.592C386.618 398.53 385.231 397.292 384.004 395.903C382.779 394.499 382.089 392.706 382.057 390.842C382.223 389.164 382.79 387.549 383.709 386.135C384.494 384.426 385.844 383.04 387.531 382.21C389.656 381.413 391.958 382.328 394.038 383.346L394.437 391.905L388.136 399.592Z" fill="#E0E0E0"></path> <path d="M392.267 382.298C392.179 382.49 383.517 378.831 372.908 374.123C362.298 369.416 353.725 365.447 353.843 365.27C353.961 365.093 362.608 368.723 373.217 373.43C383.827 378.137 392.356 382.092 392.267 382.298Z" fill="#EB996E"></path> <path d="M435.945 227.583C436.315 227.602 436.685 227.549 437.033 227.425C437.382 227.302 437.703 227.11 437.977 226.862C438.251 226.613 438.474 226.313 438.632 225.979C438.789 225.644 438.879 225.281 438.896 224.912C439.324 212.782 431.327 185.307 427.49 173.901C425.144 166.936 417.161 161.845 411.672 158.097C404.973 153.567 381.289 148.019 373.484 145.864H370.857L334.572 143.164L314.637 152.711C314.637 152.711 286.999 163.188 278.987 177.796C270.974 192.405 264.88 235.093 264.88 235.093C264.88 235.093 261.206 247.297 264.88 252.8C267.167 256.239 275.681 259.219 283.34 260.68C279.193 274.492 282.469 284.747 282.322 286.503C282.012 290.133 279.223 298.588 285.76 298.072C292.297 297.555 343.411 284.053 358.595 283.448C371.45 283.1 384.162 286.22 395.396 292.479C403.054 296.773 402.995 297.083 405.725 289.528C408.455 281.973 399.734 273.459 399.734 273.459C399.734 273.459 407.555 245.201 411.2 226.727L435.945 227.583Z" fill="#455A64"></path> <path d="M314.224 211.174C314.224 211.174 313.767 210.776 313.073 209.95C312.38 209.123 311.288 207.84 310.122 206.453C306.949 202.598 303.497 198.983 299.793 195.636C297.73 193.821 295.519 192.183 293.182 190.738C291.274 189.574 289.264 188.586 287.177 187.786C283.591 186.429 281.274 186.089 281.274 185.942C281.835 185.93 282.396 185.99 282.942 186.119C283.595 186.212 284.241 186.35 284.875 186.532C285.726 186.728 286.564 186.98 287.383 187.285C289.54 188.034 291.616 188.998 293.581 190.162C295.97 191.596 298.227 193.241 300.324 195.076C304.098 198.442 307.555 202.146 310.653 206.143C311.849 207.618 312.793 208.917 313.413 209.802C313.725 210.234 313.997 210.693 314.224 211.174V211.174Z" fill="#263238"></path> <path d="M307.569 251.974C306.981 252.083 306.382 252.127 305.784 252.107C304.633 252.107 302.965 252.18 300.899 252.107C295.532 252.074 290.173 251.675 284.86 250.911C279.545 250.165 274.333 248.819 269.322 246.898C267.81 246.316 266.333 245.651 264.895 244.906C264.344 244.671 263.823 244.368 263.346 244.006C263.346 243.888 265.677 245.009 269.543 246.396C274.58 248.156 279.773 249.431 285.052 250.203C290.337 250.941 295.656 251.409 300.988 251.605L305.857 251.797C306.433 251.794 307.007 251.853 307.569 251.974V251.974Z" fill="#263238"></path> <path d="M384.299 265.815C384.181 266.209 384.002 266.583 383.768 266.922C383.214 267.874 382.608 268.795 381.953 269.681C377.6 275.578 371.717 280.171 364.94 282.962C363.922 283.393 362.877 283.758 361.811 284.054C361.432 284.195 361.035 284.28 360.631 284.304C360.631 284.172 362.21 283.626 364.718 282.475C367.968 280.952 371.041 279.076 373.882 276.882C376.703 274.662 379.267 272.133 381.525 269.342C383.193 267.202 384.122 265.756 384.299 265.815Z" fill="#263238"></path> <path d="M384.89 277.147C384.206 277.919 383.392 278.563 382.485 279.051C380.407 280.394 378.178 281.489 375.844 282.312C373.509 283.134 371.089 283.688 368.629 283.965C367.613 284.14 366.575 284.14 365.56 283.965C368.95 283.393 372.298 282.59 375.579 281.559C378.781 280.306 381.892 278.831 384.89 277.147Z" fill="#263238"></path> <path d="M427.387 173.901C427.388 174.325 427.329 174.748 427.21 175.155C426.98 176.277 426.689 177.385 426.339 178.475C425.211 182.078 423.682 185.543 421.78 188.804C419.866 192.072 417.6 195.12 415.021 197.894C414.033 198.941 413.192 199.753 412.572 200.284C411.952 200.816 411.613 201.096 411.569 201.052C411.524 201.007 412.749 199.709 414.623 197.525C417.053 194.689 419.226 191.642 421.116 188.421C422.986 185.185 424.562 181.787 425.823 178.269C426.797 175.598 427.269 173.871 427.387 173.901Z" fill="#263238"></path> <path d="M436.683 221.09C435.508 221.32 434.309 221.414 433.112 221.371C430.899 221.371 427.845 221.371 424.48 221.371C421.116 221.371 418.061 221.016 415.863 220.78C414.665 220.729 413.477 220.541 412.321 220.22C413.509 220.104 414.705 220.104 415.892 220.22L424.51 220.588L433.112 220.884C434.307 220.831 435.503 220.9 436.683 221.09V221.09Z" fill="#263238"></path> <path d="M407.91 178.785C408.134 179.418 408.302 180.07 408.411 180.733C408.706 182.209 409.09 183.935 409.533 186.089C410.448 190.619 411.761 196.891 412.484 203.929C413.169 209.947 413.139 216.024 412.395 222.035C412.056 224.322 411.717 226.166 411.392 227.421C411.267 228.085 411.085 228.736 410.846 229.368C410.861 228.693 410.945 228.02 411.097 227.362C411.333 226.107 411.599 224.248 411.849 221.961C412.437 215.987 412.393 209.968 411.717 204.003C410.935 197.023 409.71 190.723 408.943 186.193C408.544 183.92 408.234 182.061 408.057 180.792C407.932 180.131 407.882 179.458 407.91 178.785V178.785Z" fill="#263238"></path> <path d="M314.224 216.279C314.252 216.852 314.217 217.426 314.12 217.991C314.002 219.083 313.81 220.647 313.56 222.58C313.043 226.461 312.261 231.817 311.184 237.69C310.311 242.721 309.149 247.697 307.702 252.594C307.254 254.074 306.722 255.527 306.108 256.947C305.895 257.468 305.622 257.963 305.296 258.422C305.178 258.422 306.211 256.179 307.185 252.402C308.159 248.624 309.354 243.371 310.431 237.513C311.509 231.655 312.364 226.328 313.028 222.477C313.333 220.677 313.599 219.157 313.825 217.917C313.893 217.357 314.027 216.808 314.224 216.279V216.279Z" fill="#263238"></path> <path d="M309.252 192.773C309.882 193.682 310.379 194.675 310.727 195.725C312.728 200.576 314.02 205.689 314.564 210.908C314.722 211.985 314.722 213.078 314.564 214.155C314.328 214.155 313.87 209.256 312.365 203.368C310.86 197.481 309.045 192.862 309.252 192.773Z" fill="#263238"></path> <path d="M351.01 245.097C351.125 244.806 351.264 244.525 351.423 244.256C351.748 243.666 352.191 242.884 352.737 241.881L357.695 233.101C362.018 225.575 368.024 215.128 374.93 203.117L375.417 203.633C370.99 205.758 366.356 207.853 361.428 209.801C355.526 212.162 349.623 214.154 344.178 215.704L343.027 216.043L343.795 215.113L364.453 190.028L370.503 182.798L372.141 180.88C372.324 180.651 372.526 180.439 372.746 180.245C372.599 180.5 372.432 180.742 372.244 180.968L370.695 182.945L364.792 190.323L344.311 215.63L343.913 215.04C349.343 213.416 355.171 211.424 361.089 209.137C365.987 207.189 370.68 205.109 375.033 203.013L376.14 202.482L375.52 203.53L358.049 233.381L352.899 242.058L351.423 244.374C351.308 244.627 351.169 244.869 351.01 245.097V245.097Z" fill="white"></path> <g opacity="0.3"> <path opacity="0.3" d="M377.483 285.484C379.224 285.942 382.559 280.674 384.492 277.442C378.589 280.718 372.894 284.643 366.283 283.212C369.957 282.229 373.333 280.357 376.113 277.76C378.892 275.163 380.989 271.922 382.219 268.323C377.603 275.367 370.786 280.685 362.83 283.448C362.83 283.448 374.723 284.761 377.483 285.484Z" fill="black"></path> </g> <path d="M309.251 128.851C309.251 128.851 310.254 129.265 312.202 129.678C314.866 130.315 317.667 130.039 320.156 128.896C321.831 128.072 323.227 126.774 324.169 125.162C324.717 124.264 325.06 123.256 325.172 122.21C325.284 121.164 325.163 120.106 324.818 119.112C324.47 118.008 323.833 117.016 322.975 116.238C322.117 115.461 321.068 114.925 319.934 114.686C318.713 114.547 317.48 114.806 316.417 115.422C315.354 116.039 314.518 116.981 314.032 118.109C313.809 118.677 313.706 119.284 313.728 119.894C313.751 120.503 313.9 121.101 314.165 121.65C314.721 122.73 315.597 123.611 316.673 124.174C317.698 124.757 318.859 125.057 320.038 125.044C321.175 125.018 322.296 124.756 323.328 124.277C325.267 123.343 326.956 121.963 328.257 120.249C329.436 118.78 330.391 117.143 331.09 115.394C332.1 112.84 332.601 110.113 332.565 107.367C332.565 105.434 332.314 104.416 332.388 104.342C332.494 104.586 332.563 104.845 332.595 105.109C332.734 105.855 332.822 106.609 332.86 107.367C332.996 110.17 332.539 112.971 331.518 115.586C330.832 117.405 329.877 119.111 328.685 120.647C327.341 122.461 325.579 123.924 323.549 124.912C322.431 125.443 321.216 125.74 319.979 125.782C318.668 125.8 317.376 125.475 316.231 124.838C315.017 124.199 314.032 123.199 313.412 121.975C313.095 121.334 312.916 120.634 312.888 119.919C312.86 119.205 312.983 118.492 313.25 117.829C313.794 116.542 314.742 115.468 315.95 114.768C317.159 114.068 318.562 113.78 319.949 113.948C321.208 114.198 322.376 114.782 323.331 115.639C324.286 116.496 324.994 117.593 325.379 118.817C325.748 119.907 325.871 121.064 325.741 122.207C325.611 123.349 325.23 124.449 324.627 125.428C323.597 127.121 322.094 128.476 320.303 129.324C317.697 130.48 314.769 130.689 312.025 129.914C311.291 129.728 310.575 129.476 309.885 129.161C309.664 129.081 309.451 128.977 309.251 128.851V128.851Z" fill="#263238"></path> <path d="M424.938 96.2845C425.247 93.2854 424.911 90.2547 423.951 87.3964C422.992 84.5381 421.431 81.9184 419.375 79.7136C417.279 77.5409 414.666 75.9355 411.781 75.0477C408.896 74.1599 405.832 74.0188 402.878 74.6376C398.625 75.4282 394.711 77.4856 391.648 80.54C390.705 81.4852 389.936 82.5891 389.376 83.801C389.273 83.9781 389.184 84.1699 389.081 84.3617C388.977 84.5536 388.859 84.8487 388.756 85.0995V85.2176C386.93 89.3956 386.475 94.0452 387.458 98.4979C388.249 101.858 389.884 104.962 392.207 107.515C394.531 110.068 397.467 111.988 400.738 113.091C404.047 114.087 407.565 114.157 410.91 113.293C414.256 112.43 417.301 110.665 419.714 108.193C422.721 104.908 424.558 100.721 424.938 96.2845V96.2845Z" fill="#263238"></path> <path d="M422.296 106.142C422.163 106.142 421.897 104.46 420.82 101.936C419.485 98.6429 417.411 95.7004 414.758 93.3363C412.104 90.9722 408.943 89.2497 405.518 88.3019C402.892 87.5641 401.091 87.5051 401.18 87.3576C401.58 87.291 401.989 87.291 402.39 87.3576C403.489 87.4162 404.58 87.5743 405.651 87.8298C409.225 88.6534 412.534 90.3639 415.273 92.8035C418.012 95.2432 420.092 98.3333 421.322 101.789C421.695 102.825 421.976 103.891 422.163 104.976C422.27 105.355 422.315 105.749 422.296 106.142V106.142Z" fill="#455A64"></path> <path d="M416.526 94.4844C416.257 95.7018 415.804 96.8711 415.183 97.9521C413.807 100.636 412.036 103.098 409.93 105.256C407.809 107.395 405.376 109.201 402.715 110.613C401.649 111.273 400.49 111.771 399.276 112.088C399.129 111.837 404.53 109.742 409.384 104.71C414.239 99.6785 416.29 94.3369 416.526 94.4844Z" fill="#455A64"></path> <path d="M400.605 88.139C400.383 88.0062 402.154 85.1878 403.556 81.4103C404.344 79.1019 404.864 76.7104 405.105 74.2832C405.363 74.9805 405.454 75.7284 405.371 76.4671C405.294 78.2513 404.925 80.0109 404.279 81.6759C403.478 84.045 402.231 86.2389 400.605 88.139V88.139Z" fill="#A41F68"></path> <path d="M400.826 83.0045C401.187 74.5836 398.342 66.3391 392.866 59.9319C387.39 53.5247 379.689 49.431 371.314 48.4757C366.991 47.9936 362.615 48.3881 358.448 49.6357C354.281 50.8832 350.408 52.9581 347.061 55.7364C343.713 58.5147 340.961 61.9393 338.967 65.8055C336.974 69.6718 335.78 73.9003 335.458 78.2383L332.506 151.073C332.454 152.483 332.874 153.87 333.702 155.013C338.295 161.318 345.187 165.559 352.884 166.818C359.555 167.469 366.258 165.948 371.993 162.48C372.927 161.927 373.699 161.138 374.233 160.193C374.766 159.248 375.042 158.179 375.033 157.094V140.862C375.033 140.835 375.044 140.809 375.063 140.789C375.083 140.77 375.109 140.759 375.136 140.759C376.659 140.846 378.187 140.777 379.696 140.552C383.99 139.416 394.894 134.99 398.273 118.802C399.262 113.313 400.221 98.1145 400.826 83.0045Z" fill="#FFBE9D"></path> <path d="M377.35 107.234C378.889 106.848 380.47 106.65 382.057 106.644C382.794 106.644 383.532 106.496 383.65 106.009C383.737 105.267 383.598 104.516 383.252 103.855C382.647 102.069 381.998 100.195 381.334 98.2474C378.678 90.2644 376.789 83.7276 377.113 83.6243C377.438 83.521 379.858 89.9103 382.514 97.8785C383.149 99.8558 383.768 101.73 384.344 103.515C384.765 104.404 384.854 105.414 384.595 106.363C384.475 106.614 384.3 106.835 384.083 107.009C383.865 107.182 383.612 107.305 383.34 107.367C382.929 107.455 382.507 107.49 382.086 107.47C380.504 107.586 378.913 107.507 377.35 107.234V107.234Z" fill="#263238"></path> <path d="M393.817 93.8645C393.783 94.5534 393.482 95.2019 392.978 95.6728C392.474 96.1437 391.807 96.4001 391.117 96.3878C390.778 96.3996 390.44 96.3438 390.123 96.2235C389.806 96.1033 389.516 95.9211 389.27 95.6876C389.024 95.454 388.827 95.1739 388.691 94.8634C388.554 94.5529 388.481 94.2184 388.476 93.8793C388.503 93.1878 388.801 92.5349 389.307 92.0624C389.813 91.5899 390.484 91.3361 391.176 91.356C391.515 91.3442 391.853 91.4001 392.17 91.5203C392.487 91.6405 392.777 91.8227 393.023 92.0563C393.269 92.2898 393.466 92.57 393.602 92.8804C393.738 93.1909 393.812 93.5255 393.817 93.8645V93.8645Z" fill="#263238"></path> <path d="M396.473 85.8521C396.207 86.1324 394.068 85.9996 391.353 86.9145C388.638 87.8294 386.837 89.2607 386.483 89.1869C386.129 89.1131 386.483 88.7147 387.324 88.0655C388.469 87.1687 389.763 86.4795 391.146 86.0292C392.475 85.5567 393.883 85.3462 395.292 85.4094C396.222 85.4832 396.606 85.7045 396.473 85.8521Z" fill="#263238"></path> <path d="M366.135 92.0501C366.1 92.739 365.799 93.3875 365.295 93.8584C364.791 94.3293 364.124 94.5857 363.434 94.5733C363.096 94.5832 362.759 94.5259 362.443 94.405C362.126 94.284 361.837 94.1017 361.592 93.8686C361.346 93.6355 361.149 93.356 361.012 93.0465C360.875 92.7369 360.801 92.4033 360.793 92.0648C360.824 91.3747 361.124 90.724 361.628 90.2523C362.133 89.7806 362.803 89.5255 363.493 89.5416C363.832 89.5298 364.17 89.5856 364.487 89.7058C364.804 89.8261 365.094 90.0083 365.34 90.2418C365.586 90.4753 365.783 90.7555 365.919 91.066C366.056 91.3765 366.129 91.711 366.135 92.0501Z" fill="#263238"></path> <path d="M367.08 88.213C366.652 88.213 365.088 86.5308 362.284 85.2618C359.48 83.9928 357.031 83.6681 356.824 83.3435C356.618 83.0189 357.223 83.0336 358.3 83.1369C359.84 83.3245 361.337 83.7736 362.727 84.465C364.111 85.0939 365.363 85.9803 366.416 87.0768C367.153 87.7555 367.271 88.1982 367.08 88.213Z" fill="#263238"></path> <path d="M374.9 140.655C374.9 140.655 363.76 140.98 350.243 132.067C350.243 132.067 353.962 146.72 374.9 145.864V140.655Z" fill="#EB996E"></path> <path d="M375.829 113.976C375.304 113.273 374.613 112.711 373.817 112.34C373.021 111.969 372.146 111.801 371.27 111.851C370.636 111.878 370.013 112.029 369.438 112.298C368.863 112.566 368.347 112.946 367.92 113.416C367.522 113.868 367.271 114.431 367.203 115.03C367.134 115.629 367.251 116.234 367.536 116.765C367.979 117.299 368.569 117.692 369.232 117.894C369.896 118.096 370.604 118.098 371.27 117.901C372.641 117.494 373.919 116.822 375.032 115.924C375.369 115.715 375.665 115.445 375.903 115.127C376.006 114.972 376.062 114.79 376.062 114.603C376.062 114.417 376.006 114.235 375.903 114.08" fill="#EB996E"></path> <path d="M368.806 108.754C369.264 108.754 369.131 111.823 371.757 114.14C374.384 116.456 377.66 116.279 377.66 116.707C377.66 116.899 376.892 117.268 375.491 117.238C373.665 117.167 371.919 116.469 370.547 115.261C369.263 114.125 368.461 112.542 368.304 110.834C368.201 109.477 368.585 108.724 368.806 108.754Z" fill="#263238"></path> <path d="M369.013 76.7914C368.614 77.4997 365.84 76.6586 362.446 76.4668C359.053 76.2749 356.205 76.7176 355.88 75.9503C355.747 75.5962 356.323 74.9617 357.533 74.4747C359.137 73.8084 360.876 73.5304 362.609 73.6631C364.346 73.7543 366.036 74.2603 367.537 75.1387C368.688 75.729 369.205 76.452 369.013 76.7914Z" fill="#263238"></path> <path d="M396.414 77.2049C395.883 77.8246 393.935 77.0573 391.56 76.9098C389.184 76.7622 387.133 77.1163 386.705 76.4228C386.513 76.0834 386.867 75.4489 387.767 74.9472C388.995 74.286 390.388 73.994 391.779 74.1066C393.169 74.2192 394.497 74.7315 395.603 75.5817C396.414 76.2605 396.65 76.9393 396.414 77.2049Z" fill="#263238"></path> <path d="M373.734 44.7421C372.259 42.2189 369.308 41.1122 366.238 40.6843C353.46 39.0021 339.383 46.9408 332.447 57.8011C325.512 68.6615 325.423 84.7306 330.868 96.3878L335.664 97.1404C345.61 96.3583 361.841 68.3073 375.505 52.7251C377.202 50.8068 375.092 46.985 373.734 44.7421Z" fill="#263238"></path> <path d="M398.288 52.6953C392.858 46.7929 384.049 39.5035 373.07 43.8417C371.492 46.97 374.856 50.9393 377.63 53.2265C381.717 56.6056 385.274 58.8632 387.959 61.2684C393.375 66.1526 400.133 74.2684 400.826 83.4023C400.826 83.9778 401.313 84.0516 401.889 83.9483C402.464 83.845 404.264 80.0675 405.061 75.0947C406.714 64.5295 403.733 58.6566 398.288 52.6953Z" fill="#263238"></path> <path d="M336.446 80.4812C335.857 78.0402 334.705 75.7711 333.081 73.8558V73.8558C332.021 72.597 330.765 71.516 329.363 70.6538C326.741 69.1555 323.782 68.3465 320.763 68.3027C317.744 68.2588 314.763 68.9814 312.099 70.4029C309.475 71.8724 307.196 73.8862 305.414 76.3091C303.632 78.7319 302.39 81.5079 301.769 84.4505C300.753 88.7971 301.204 93.3581 303.053 97.421C304.598 100.511 306.961 103.119 309.886 104.958C312.811 106.798 316.184 107.799 319.639 107.853C323.095 107.816 326.485 106.898 329.487 105.186C332.49 103.474 335.007 101.025 336.8 98.0702C339.249 93.9091 338.556 86.5606 336.446 80.4812Z" fill="#263238"></path> <path d="M338.719 91.2825C338.424 91.135 326.56 86.6935 326.044 99.0884C325.527 111.483 338.085 109.418 338.114 109.093C338.144 108.768 338.719 91.2825 338.719 91.2825Z" fill="#FFBE9D"></path> <path d="M334.528 104.238C334.528 104.238 334.307 104.386 333.938 104.533C333.417 104.74 332.836 104.74 332.315 104.533C331.031 103.987 330.013 101.863 330.042 99.6345C330.052 98.5687 330.305 97.5191 330.78 96.5652C330.913 96.1823 331.137 95.8372 331.433 95.5597C331.728 95.2821 332.087 95.0803 332.477 94.9716C332.727 94.9176 332.988 94.953 333.214 95.0716C333.441 95.1903 333.619 95.3846 333.717 95.6209C333.879 95.975 333.79 96.2111 333.849 96.2406C333.908 96.2701 334.13 96.0488 334.041 95.5323C333.995 95.2184 333.832 94.9337 333.584 94.7355C333.254 94.4616 332.83 94.329 332.403 94.3666C331.891 94.4487 331.409 94.6597 331.001 94.9798C330.593 95.2999 330.273 95.7186 330.072 96.1963C329.504 97.2488 329.2 98.4237 329.187 99.6197C329.187 102.113 330.337 104.504 332.138 105.109C332.467 105.219 332.817 105.254 333.162 105.211C333.507 105.167 333.838 105.047 334.13 104.858C334.499 104.533 334.572 104.268 334.528 104.238Z" fill="#EB996E"></path> <path d="M400.841 55.1745C399.664 55.4985 398.447 55.6574 397.226 55.6467C394.297 55.8117 391.358 55.7129 388.447 55.3516C385.544 55.0144 382.675 54.4269 379.873 53.5956C378.686 53.313 377.543 52.866 376.479 52.2676C377.679 52.4491 378.862 52.7204 380.021 53.0792C382.843 53.7587 385.7 54.2809 388.579 54.6433C391.46 54.9739 394.356 55.1463 397.256 55.1597C398.45 55.0688 399.649 55.0737 400.841 55.1745V55.1745Z" fill="#455A64"></path> <path d="M404.958 64.0723C404.112 64.4564 403.2 64.6719 402.272 64.7068C400.035 64.953 397.772 64.8334 395.573 64.3527C393.379 63.8697 391.276 63.0377 389.346 61.8885C388.509 61.4722 387.766 60.8898 387.162 60.1768C389.867 61.6687 392.747 62.8187 395.735 63.6001C398.78 64.1249 401.876 64.2834 404.958 64.0723V64.0723Z" fill="#455A64"></path> <path d="M330.868 62.0803C330.868 61.918 333.554 62.3902 337.877 62.2721C340.411 62.2033 342.936 61.9469 345.432 61.5048C348.477 60.9313 351.479 60.1524 354.419 59.1734C357.354 58.161 360.223 56.9633 363.007 55.5877C365.27 54.4492 367.468 53.1831 369.588 51.7954C373.218 49.4345 375.239 47.649 375.342 47.7523C374.929 48.2382 374.469 48.6829 373.97 49.0803C373.528 49.4935 372.952 49.9657 372.259 50.5559C371.565 51.1462 370.783 51.7069 369.898 52.3119C367.791 53.7748 365.593 55.1007 363.316 56.2812C360.523 57.7047 357.633 58.9324 354.669 59.9554C351.693 60.9539 348.644 61.7235 345.55 62.2574C343.019 62.6717 340.457 62.8789 337.892 62.8771C336.907 62.8946 335.921 62.8552 334.941 62.7591C334.198 62.7311 333.459 62.6522 332.727 62.523C332.095 62.4332 331.473 62.285 330.868 62.0803V62.0803Z" fill="#455A64"></path> <path d="M374.517 52.1204C374.248 52.7287 373.917 53.3073 373.528 53.8468C373.189 54.3928 372.761 55.0568 372.215 55.7799C371.669 56.5029 371.093 57.3735 370.326 58.2294C368.628 60.3114 366.768 62.2555 364.763 64.0432C362.289 66.2123 359.627 68.1579 356.81 69.857C353.959 71.5216 350.96 72.9195 347.853 74.0329C345.317 74.921 342.711 75.5923 340.062 76.0397C338.94 76.2758 337.907 76.3496 337.007 76.4529C336.234 76.5604 335.456 76.6195 334.676 76.63C334.013 76.6843 333.347 76.6843 332.684 76.63C332.684 76.4677 335.517 76.4086 339.958 75.5233C342.561 75.0024 345.121 74.2872 347.617 73.3837C353.738 71.1537 359.392 67.8064 364.291 63.512C366.299 61.7776 368.178 59.8986 369.913 57.89C372.893 54.4076 374.384 52.0171 374.517 52.1204Z" fill="#455A64"></path> <path d="M366.238 40.729C367.071 40.5658 367.931 40.6269 368.732 40.9061C370.699 41.4677 372.465 42.5785 373.823 44.1081C374.213 44.5661 374.559 45.0602 374.856 45.5837C375.114 46.052 375.322 46.5467 375.475 47.0593C375.774 47.9056 376.006 48.7739 376.169 49.6563C376.389 50.4841 376.327 51.3616 375.992 52.1501C375.859 52.1501 375.992 51.1909 375.638 49.7744C375.406 48.9324 375.125 48.1047 374.797 47.2954C374.649 46.8138 374.451 46.3489 374.206 45.9083C373.928 45.4513 373.607 45.0215 373.247 44.6246C371.971 43.1931 370.366 42.0941 368.57 41.4225C367.183 40.9356 366.238 40.8618 366.238 40.729Z" fill="#455A64"></path> <path d="M333.524 90.2051C333.406 90.2051 333.775 88.9213 334.041 86.885C334.373 84.2281 334.218 81.5328 333.583 78.9316C332.91 76.3476 331.625 73.9637 329.835 71.9815C328.36 70.5059 327.327 69.7829 327.415 69.6501C327.504 69.5173 327.725 69.7534 328.242 70.0633C328.954 70.4793 329.618 70.9743 330.219 71.5389C332.212 73.5008 333.631 75.9705 334.321 78.6807C335.006 81.369 335.091 84.1748 334.572 86.8998C334.43 88.0567 334.074 89.1773 333.524 90.2051V90.2051Z" fill="#A41F68"></path> <path d="M334.454 87.5345C334.38 87.6378 332.861 86.6639 330.249 85.3653C323.438 81.9997 315.917 80.3244 308.322 80.4811C305.37 80.4811 303.629 80.7762 303.6 80.6582C303.993 80.4891 304.412 80.3845 304.839 80.3483C305.986 80.1413 307.144 80.0033 308.307 79.9352C316.004 79.4795 323.674 81.1975 330.441 84.8932C331.463 85.439 332.448 86.0502 333.392 86.7229C334.13 87.1508 334.484 87.4312 334.454 87.5345Z" fill="#455A64"></path> <path d="M323.165 82.5469C323.038 83.8011 322.724 85.0293 322.236 86.1916C321.209 89.0455 319.815 91.7538 318.089 94.2483C316.357 96.7403 314.303 98.9927 311.98 100.947C311.067 101.813 310.027 102.535 308.896 103.087C312.074 100.309 314.943 97.1976 317.455 93.8056C319.753 90.2661 321.667 86.4919 323.165 82.5469V82.5469Z" fill="#455A64"></path> <path d="M331.326 106.629C331.414 106.392 331.857 106.245 332.595 106.437C333.662 106.761 334.582 107.451 335.192 108.385C336.011 109.612 336.328 111.108 336.078 112.562C335.828 114.017 335.031 115.321 333.849 116.205C332.858 116.914 331.678 117.31 330.46 117.342C329.242 117.373 328.043 117.039 327.017 116.382C326.111 115.79 325.37 114.978 324.863 114.021C324.395 113.156 324.152 112.187 324.154 111.203C324.184 110.407 324.369 109.625 324.7 108.901C325.118 107.836 325.933 106.974 326.973 106.496C327.755 106.201 328.227 106.407 328.286 106.643C328.374 107.175 327.445 107.883 327.297 109.698C327.231 110.138 327.231 110.586 327.297 111.026C327.415 111.456 327.61 111.861 327.873 112.221C328.144 112.617 328.507 112.94 328.931 113.164C329.356 113.388 329.828 113.505 330.308 113.505C330.762 113.512 331.209 113.391 331.598 113.157C331.986 112.922 332.301 112.582 332.506 112.177C332.914 111.395 333.003 110.486 332.757 109.639C332.314 108.001 331.178 107.13 331.326 106.629Z" fill="#455A64"></path> <path d="M343.883 87.0173C346.41 86.8377 348.912 86.3976 351.349 85.704C357.167 83.7673 362.294 80.1781 366.105 75.3749C369.841 70.5225 372.643 65.0187 374.368 59.1434C375.077 56.8857 375.564 55.0412 375.844 53.7722C375.969 53.097 376.156 52.435 376.405 51.7949C376.377 52.4811 376.283 53.163 376.124 53.8312C375.903 55.1298 375.49 57.0038 374.855 59.2909C373.252 65.306 370.463 70.94 366.651 75.8618C362.758 80.7623 357.468 84.3644 351.482 86.1909C349.672 86.7196 347.803 87.0219 345.919 87.091C345.428 87.1148 344.935 87.1148 344.444 87.091C344.075 87.0615 343.883 87.0468 343.883 87.0173Z" fill="#263238"></path> <path d="M374.487 151.56C374.758 151.637 375.013 151.762 375.239 151.929C375.91 152.375 376.503 152.929 376.995 153.567C377.775 154.584 378.329 155.756 378.618 157.005C379.029 158.664 378.983 160.402 378.486 162.037C377.753 164.127 376.56 166.025 374.994 167.591C373.428 169.157 371.53 170.35 369.44 171.082C367.027 172.001 364.509 172.615 361.944 172.912C359.206 173.274 356.439 173.383 353.681 173.237C348.301 173.046 343.073 171.399 338.556 168.47C334.858 166.06 331.97 162.596 330.263 158.525C329.603 156.966 329.267 155.289 329.275 153.597C329.291 152.306 329.636 151.042 330.278 149.922C330.68 149.219 331.222 148.606 331.872 148.122C332.088 147.949 332.333 147.815 332.595 147.724C331.745 148.344 331.045 149.145 330.544 150.07C329.974 151.157 329.685 152.369 329.702 153.597C329.749 155.229 330.11 156.837 330.765 158.333C332.499 162.25 335.347 165.571 338.954 167.88C343.378 170.693 348.471 172.277 353.71 172.469C356.424 172.613 359.146 172.509 361.841 172.159C364.364 171.893 366.843 171.308 369.219 170.418C371.238 169.749 373.082 168.636 374.615 167.16C376.147 165.684 377.328 163.883 378.072 161.889C378.501 160.529 378.615 159.088 378.405 157.677C378.196 156.266 377.668 154.921 376.862 153.744C376.195 152.891 375.392 152.154 374.487 151.56Z" fill="#263238"></path> <path d="M342.024 170.684C341.796 169.459 342.056 168.194 342.747 167.157C343.691 165.327 345.123 164.398 345.241 164.56C345.359 164.722 344.282 165.844 343.426 167.511C342.57 169.179 342.245 170.713 342.024 170.684Z" fill="#263238"></path> <path d="M355.865 173.311C355.536 172.312 355.45 171.25 355.614 170.212C355.614 168.515 355.894 167.143 356.115 167.143C356.444 168.141 356.535 169.202 356.381 170.241C356.263 171.938 356.086 173.311 355.865 173.311Z" fill="#263238"></path> <path d="M369.766 171.259C368.801 169.102 368.322 166.76 368.364 164.397C368.959 165.424 369.326 166.566 369.441 167.747C369.796 168.882 369.906 170.079 369.766 171.259V171.259Z" fill="#263238"></path> <path d="M377.881 162.406C377.689 162.509 377.113 161.742 376.154 161.122C375.195 160.503 374.28 160.237 374.295 160.016C374.31 159.794 375.446 159.721 376.582 160.473C377.718 161.226 378.073 162.332 377.881 162.406Z" fill="#263238"></path> <path d="M334.69 156.887C334.69 157.094 333.908 157.374 333.126 158.024C332.344 158.673 331.857 159.366 331.651 159.293C331.444 159.219 331.651 158.186 332.639 157.419C333.628 156.651 334.676 156.696 334.69 156.887Z" fill="#263238"></path> <path d="M358.964 255.634C358.465 255.609 357.979 255.465 357.548 255.212C357.117 254.96 356.754 254.607 356.489 254.184C356.223 253.761 356.064 253.28 356.025 252.782C355.986 252.284 356.068 251.784 356.263 251.325C360.247 242.353 371.122 225.089 371.831 223.967C372.864 222.403 373.41 220.47 376.715 220.072C377.984 219.924 397.904 219.467 402.582 219.364C402.96 219.349 403.337 219.409 403.692 219.54C404.046 219.672 404.371 219.873 404.648 220.131C405.577 221.016 406.551 222.698 405.076 225.34C403.423 228.291 391.382 246.987 386.498 254.188C386.021 254.889 385.375 255.458 384.619 255.842C383.863 256.227 383.022 256.414 382.175 256.386L358.964 255.634Z" fill="#263238"></path> <path d="M389.701 225.797C389.51 225.572 389.256 225.41 388.972 225.331C388.688 225.252 388.386 225.26 388.107 225.354C387.571 225.53 387.088 225.84 386.705 226.254C386.48 226.439 386.327 226.697 386.273 226.983C386.219 227.269 386.268 227.564 386.41 227.818C386.577 228.001 386.788 228.139 387.023 228.219C387.258 228.299 387.509 228.318 387.753 228.276C388.382 228.238 388.976 227.97 389.42 227.523C389.634 227.296 389.774 227.01 389.824 226.703C389.874 226.395 389.831 226.08 389.701 225.797V225.797Z" fill="white"></path> <path d="M399.941 229.855C400.142 229.254 400.405 228.676 400.723 228.128C401.018 227.553 401.343 226.889 401.727 226.166C401.933 225.782 402.14 225.369 402.361 224.941C402.632 224.55 402.804 224.099 402.863 223.628C402.87 223.387 402.819 223.149 402.714 222.933C402.609 222.717 402.452 222.53 402.258 222.388C402.028 222.242 401.771 222.143 401.502 222.098C401.234 222.052 400.959 222.061 400.694 222.122L396.621 222.285L387.31 222.609L377.984 222.89H376.951C376.673 222.913 376.407 223.016 376.184 223.185C375.777 223.636 375.421 224.131 375.122 224.66C374.443 225.723 373.808 226.726 373.203 227.612L370.4 231.906C370.078 232.435 369.702 232.93 369.278 233.381C369.505 232.79 369.797 232.226 370.149 231.699L372.746 227.272L374.576 224.233L375.077 223.406C375.251 223.079 375.481 222.784 375.756 222.536C376.074 222.269 376.465 222.105 376.878 222.063H377.97L387.251 221.813L396.577 221.547L400.635 221.458C401.319 221.345 402.022 221.498 402.597 221.886C402.854 222.092 403.059 222.356 403.195 222.656C403.33 222.956 403.394 223.284 403.379 223.613C403.366 223.919 403.28 224.217 403.128 224.483L402.759 225.147L402.066 226.343C401.653 227.051 401.284 227.685 400.944 228.246C400.671 228.818 400.335 229.358 399.941 229.855V229.855Z" fill="#455A64"></path> <path d="M433.289 227.612C433.289 227.612 431.267 241.659 429.201 250.69C427.357 258.732 424.421 285.912 416.954 289.336C409.488 292.759 400.177 290.619 396.738 283.994C393.3 277.369 389.611 259.735 389.611 259.735L373.97 253.154C373.97 253.154 370.37 240.036 372.421 238.561C374.472 237.085 394.658 239.298 394.658 239.298L400.073 238.074C400.073 238.074 391.456 236.834 389.611 236.347C389.192 236.287 388.79 236.142 388.428 235.922C388.067 235.702 387.754 235.41 387.508 235.065C387.263 234.72 387.09 234.329 387 233.915C386.91 233.502 386.905 233.074 386.985 232.658C387.413 230.932 387.767 229.205 392.43 229.205C397.093 229.205 404.412 228.512 405.71 228.969C407.363 229.53 409.222 230.445 409.591 234.621C409.96 238.797 407.997 246.426 407.997 246.426L408.425 247.075L411.184 226.741L433.289 227.612Z" fill="#FFBE9D"></path> <path d="M407.024 251.87C406.633 252.11 406.204 252.28 405.755 252.372C404.58 252.767 403.382 253.092 402.169 253.346C398.164 254.218 394.057 254.531 389.966 254.276C385.868 254.013 381.834 253.132 377.999 251.664C376.837 251.247 375.703 250.754 374.605 250.188C374.184 250.01 373.792 249.771 373.439 249.48C373.439 249.362 375.24 250.188 378.191 251.192C382.01 252.471 385.977 253.26 389.996 253.538C394.014 253.761 398.046 253.513 402.007 252.8C405.135 252.269 406.994 251.752 407.024 251.87Z" fill="#EB996E"></path> <path d="M404.057 246.234C403.657 246.43 403.229 246.564 402.788 246.632C401.962 246.839 400.752 247.104 399.247 247.355C395.299 248.017 391.281 248.166 387.295 247.798C383.293 247.416 379.399 246.284 375.815 244.463C374.736 243.909 373.704 243.268 372.731 242.545C372.052 242.028 371.698 241.704 371.727 241.66C371.757 241.615 373.321 242.692 376.051 243.976C379.634 245.612 383.463 246.645 387.383 247.031C391.314 247.39 395.273 247.316 399.188 246.809C402.183 246.455 404.043 246.116 404.057 246.234Z" fill="#EB996E"></path> <path d="M408.942 231.729C409.03 231.729 409.31 232.422 409.237 233.617C409.215 234.347 409.017 235.061 408.661 235.698C408.414 236.086 408.067 236.402 407.658 236.613C407.264 236.836 406.849 237.019 406.418 237.159C404.958 237.612 403.445 237.87 401.918 237.926C401.306 238.012 400.69 238.062 400.073 238.074C400.073 237.97 400.693 237.601 401.844 237.395C403.31 237.171 404.759 236.851 406.182 236.436C406.906 236.25 407.561 235.861 408.071 235.314C408.396 234.776 408.611 234.18 408.706 233.558C408.744 232.944 408.823 232.333 408.942 231.729Z" fill="#EB996E"></path> <path d="M401.505 255.368C401.696 255.767 401.796 256.203 401.796 256.645C401.796 257.086 401.696 257.523 401.505 257.921C401.2 258.839 400.655 259.659 399.926 260.297C399.031 261.072 397.938 261.583 396.769 261.772C395.62 261.971 394.443 261.921 393.316 261.625C392.424 261.371 391.563 261.019 390.748 260.577C389.976 260.241 389.244 259.82 388.564 259.323C389.408 259.414 390.225 259.669 390.97 260.075C392.721 260.952 394.695 261.281 396.636 261.02C397.671 260.855 398.646 260.428 399.469 259.78C400.111 259.23 400.616 258.538 400.945 257.759C401.242 256.992 401.43 256.187 401.505 255.368V255.368Z" fill="#EB996E"></path> <path d="M408.012 230.312C408.012 230.312 408.115 230.313 408.292 230.475C408.544 230.68 408.754 230.93 408.912 231.213C409.465 232.266 409.768 233.432 409.798 234.621C409.883 238.646 409.386 242.662 408.322 246.544V246.337C409.081 248.353 410.014 250.298 411.111 252.151C412.629 254.726 414.325 257.191 416.187 259.529C417.882 261.359 419.367 263.374 420.614 265.535C421.386 267.088 421.539 268.876 421.042 270.537C420.891 270.98 420.667 271.394 420.378 271.762C420.186 271.998 420.053 272.101 420.038 272.086C420.323 271.563 420.56 271.015 420.746 270.449C421.111 268.866 420.891 267.204 420.127 265.771C418.847 263.696 417.364 261.753 415.7 259.972C413.784 257.648 412.048 255.181 410.506 252.594C409.393 250.714 408.45 248.739 407.688 246.692V246.574V246.47C408.739 242.646 409.304 238.705 409.37 234.739C409.377 233.607 409.161 232.483 408.735 231.434C408.517 231.046 408.276 230.671 408.012 230.312V230.312Z" fill="#EB996E"></path> <path d="M269.926 256.563C269.926 256.563 267.639 287.934 282.233 293.187C302.345 300.447 325.276 280.409 325.364 280.084C325.453 279.759 349.77 260.178 349.77 260.178L342.201 239.328C342.201 239.328 339.161 239.328 334.247 242.84C332.462 244.109 304.278 258.968 304.278 258.968C304.278 258.968 291.971 258.865 269.926 256.563Z" fill="#FFBE9D"></path> <path d="M305.296 258.496C305.4 258.732 300.087 260.887 293.669 263.764C290.467 265.24 287.648 266.715 285.627 267.778C284.573 268.444 283.467 269.027 282.321 269.519C283.23 268.654 284.247 267.91 285.346 267.305C287.924 265.724 290.6 264.309 293.359 263.07C296.575 261.595 299.556 260.444 301.725 259.647C302.876 259.149 304.072 258.764 305.296 258.496V258.496Z" fill="#EB996E"></path> <path d="M369.16 227.966C369.16 227.966 365.353 222.58 363.848 222.595C362.343 222.61 353.268 224.07 353.268 224.07L340.445 238.044C340.445 238.044 339.56 242.574 342.334 244.212C342.334 244.212 341.404 251.339 344.827 253.39C344.827 253.39 347.38 260.09 349.771 260.222C350.782 260.313 351.799 260.313 352.81 260.222C352.81 260.222 352.294 264.251 355.939 264.502C359.553 264.447 363.157 264.087 366.71 263.424C367.236 263.336 367.738 263.145 368.189 262.861C368.64 262.577 369.03 262.207 369.337 261.772L372.465 257.345C372.959 256.659 373.224 255.836 373.224 254.991C373.224 254.147 372.959 253.323 372.465 252.638V252.638C373.287 251.663 373.927 250.549 374.354 249.347C374.56 247.953 374.56 246.536 374.354 245.142C374.354 245.142 379.769 240.553 379.902 239.357C380.035 238.162 379.769 237.011 377.379 237.144C377.379 237.144 376.877 233.44 373.852 233.529C370.827 233.617 356.499 233.529 356.499 233.529L359.229 230.873C359.229 230.873 366.356 233.588 367.109 231.788L369.16 227.966Z" fill="#FFBE9D"></path> <path d="M348.59 244.021C349.362 243.908 350.141 243.854 350.921 243.858C352.397 243.77 354.581 243.637 357.266 243.327C360.429 242.952 363.567 242.395 366.666 241.66C368.422 241.232 370.252 240.73 372.14 240.184C374.017 239.462 375.71 238.334 377.098 236.879L377.187 236.805H377.29C377.992 236.636 378.73 236.709 379.385 237.012C379.737 237.234 379.999 237.574 380.123 237.971C380.224 238.321 380.268 238.684 380.256 239.048C380.277 239.21 380.277 239.373 380.256 239.535C380.22 239.73 380.144 239.916 380.035 240.081C379.869 240.339 379.687 240.585 379.489 240.819C379.12 241.261 378.707 241.675 378.308 242.088C377.497 242.899 376.685 243.652 375.859 244.375C373.026 246.633 370.071 248.731 367.005 250.661C364.5 252.171 361.722 253.173 358.83 253.612C356.918 253.902 354.97 253.852 353.076 253.465C352.573 253.361 352.08 253.217 351.6 253.037C351.426 252.991 351.262 252.916 351.113 252.815C353.616 253.455 356.225 253.561 358.771 253.125C361.574 252.645 364.262 251.644 366.695 250.174C369.484 248.507 372.303 246.19 375.416 243.844C376.228 243.121 377.039 242.368 377.821 241.571C378.22 241.173 378.603 240.774 378.958 240.347C379.312 239.919 379.297 239.919 379.444 239.712C379.592 239.505 379.563 239.476 379.563 239.461C379.578 239.334 379.578 239.205 379.563 239.078C379.563 238.458 379.459 237.912 379.061 237.705C378.566 237.499 378.017 237.457 377.497 237.587L377.703 237.499C376.927 238.226 376.104 238.901 375.239 239.52C374.407 240.186 373.455 240.687 372.435 240.996C370.532 241.586 368.673 242.073 366.887 242.471C363.761 243.172 360.591 243.665 357.399 243.947C354.684 244.213 352.5 244.257 350.995 244.257C350.243 244.257 349.667 244.257 349.269 244.257C349.032 244.212 348.803 244.133 348.59 244.021Z" fill="#EB996E"></path> <path d="M374.34 245.112C374.568 245.837 374.673 246.595 374.649 247.355C374.649 247.709 374.649 248.108 374.649 248.55C374.649 248.772 374.649 248.993 374.649 249.229C374.628 249.497 374.553 249.758 374.428 249.997C374.214 250.504 373.968 250.997 373.69 251.472L373.248 252.21L373.012 252.579C372.967 252.661 372.918 252.739 372.864 252.815L372.761 252.903C372.687 252.903 372.761 253.007 372.407 252.903C372.34 252.861 372.29 252.796 372.265 252.721C372.241 252.645 372.244 252.564 372.274 252.49C372.269 252.466 372.269 252.441 372.274 252.416L372.347 252.313L372.938 252.667C371.973 254.422 370.698 255.986 369.175 257.286C366.61 259.495 363.402 260.819 360.026 261.063C359.042 261.136 358.053 261.107 357.075 260.975C356.705 260.951 356.341 260.866 355.998 260.724C355.998 260.576 357.562 260.842 360.041 260.532C363.255 260.131 366.282 258.797 368.747 256.696C370.199 255.433 371.431 253.937 372.392 252.269L372.997 252.623C373.923 250.229 374.379 247.679 374.34 245.112V245.112Z" fill="#EB996E"></path> <path d="M359.554 230.962C359.554 231.139 358.079 230.593 357.356 228.881C357.102 228.176 357.061 227.411 357.237 226.683C357.385 226.137 357.592 225.842 357.68 225.871C357.769 225.901 357.562 227.243 358.079 228.616C358.595 229.988 359.702 230.77 359.554 230.962Z" fill="#EB996E"></path> <path d="M353.135 260.311C352.786 260.497 352.394 260.588 351.999 260.577C350.923 260.656 349.844 260.452 348.871 259.987C347.393 259.288 346.23 258.061 345.61 256.548C345.256 255.667 345.075 254.725 345.079 253.774C345.079 253.583 345.035 253.394 344.951 253.223C344.866 253.051 344.743 252.902 344.592 252.786C343.802 252.266 343.153 251.558 342.702 250.727C342.252 249.895 342.014 248.965 342.009 248.02C341.946 246.852 341.991 245.682 342.142 244.522L342.304 244.847C341.522 244.348 340.883 243.655 340.449 242.835C340.014 242.015 339.799 241.097 339.825 240.169C339.781 239.473 339.985 238.782 340.401 238.222C340.301 238.862 340.242 239.507 340.224 240.155C340.258 240.987 340.497 241.798 340.919 242.516C341.341 243.233 341.934 243.837 342.644 244.272L342.821 244.375V244.581C342.724 245.706 342.724 246.836 342.821 247.961C342.896 249.166 343.339 250.32 344.09 251.266C344.407 251.616 344.763 251.928 345.152 252.195C345.375 252.374 345.558 252.598 345.688 252.852C345.818 253.107 345.892 253.386 345.905 253.671C345.886 254.546 346.031 255.417 346.333 256.239C346.867 257.617 347.877 258.758 349.181 259.455C350.413 260.048 351.768 260.342 353.135 260.311Z" fill="#EB996E"></path> <g opacity="0.3"> <path opacity="0.3" d="M313.944 218.139C312.217 233.795 309.783 245.747 306.108 256.504C311.266 252.136 314.672 246.052 315.7 239.372C316.674 232.777 315.124 224.764 313.944 218.139Z" fill="black"></path> </g> <g opacity="0.3"> <path opacity="0.3" d="M414.461 209.536C413.883 203.981 412.491 198.542 410.329 193.393C412.646 204.46 412.911 215.858 411.111 227.021L411.642 225.826C414.053 220.755 415.027 215.121 414.461 209.536V209.536Z" fill="black"></path> </g> </g> </g> <defs> <clipPath id="clip0"> <rect width="644.125" height="618.154" fill="white" transform="translate(14 -44)"></rect> </clipPath> </defs> </svg> 