<svg width="672" height="454" viewBox="0 0 672 454" fill="none" xmlns="http://www.w3.org/2000/svg">
<g clip-path="url(#clip0_2008_471)">
<mask id="mask0_2008_471" style="mask-type:luminance" maskUnits="userSpaceOnUse" x="0" y="0" width="672" height="454">
<path d="M671.16 0H0V453.93H671.16V0Z" fill="white"/>
</mask>
<g mask="url(#mask0_2008_471)">
<path d="M566.28 64.3402C566.975 69.039 566.26 73.8384 564.226 78.1307C562.192 82.4231 558.93 86.0152 554.853 88.4525C550.776 90.8897 546.067 92.0623 541.323 91.8219C536.579 91.5814 532.014 89.9388 528.204 87.1018C524.394 84.2649 521.512 80.3613 519.922 75.8853C518.332 71.4093 518.107 66.5622 519.273 61.9578C520.44 57.3533 522.947 53.1987 526.476 50.0198C530.005 46.8409 534.399 44.7807 539.1 44.1002C545.386 43.1902 551.777 44.8095 556.872 48.6035C561.967 52.3974 565.35 58.0564 566.28 64.3402Z" fill="#F5F5F5"/>
<path d="M560.64 65.1598C561.17 68.74 560.626 72.3969 559.076 75.6678C557.527 78.9387 555.042 81.6764 551.937 83.5344C548.831 85.3925 545.243 86.2873 541.629 86.1056C538.014 85.9239 534.535 84.6739 531.631 82.5139C528.727 80.3538 526.529 77.3807 525.316 73.971C524.102 70.5613 523.927 66.8682 524.814 63.3592C525.7 59.8502 527.608 56.6831 530.295 54.2587C532.982 51.8343 536.328 50.2616 539.91 49.7398C544.703 49.0359 549.58 50.265 553.468 53.1568C557.356 56.0486 559.935 60.3661 560.64 65.1598Z" fill="#EBEBEB"/>
<path d="M560.55 64.5897C560.212 63.9188 559.944 63.2151 559.75 62.4897C558.607 59.2882 556.616 56.4574 553.99 54.2997C552.769 53.3097 551.424 52.4828 549.99 51.8397C549.221 51.482 548.425 51.1845 547.61 50.9497C546.761 50.703 545.895 50.5192 545.02 50.3997C544.115 50.2804 543.202 50.227 542.29 50.2397C541.348 50.269 540.409 50.3626 539.48 50.5197C538.553 50.6878 537.641 50.9251 536.75 51.2297C535.881 51.523 535.038 51.8876 534.23 52.3197C533.448 52.7307 532.699 53.2022 531.99 53.7297C531.305 54.2251 530.659 54.7735 530.06 55.3697C528.937 56.4724 527.962 57.7161 527.16 59.0697C526.461 60.2543 525.895 61.5118 525.47 62.8197C524.866 64.7315 524.559 66.7247 524.56 68.7297C524.639 69.4776 524.639 70.2317 524.56 70.9797C524.229 70.2857 524.051 69.5285 524.04 68.7597C523.821 66.6732 523.991 64.5644 524.54 62.5397C525.368 59.4975 526.958 56.7166 529.16 54.4597C529.781 53.8106 530.449 53.2089 531.16 52.6597C532.703 51.4788 534.425 50.5506 536.26 49.9097C537.221 49.5851 538.203 49.3278 539.2 49.1397C540.191 48.9713 541.194 48.8743 542.2 48.8497C543.187 48.8349 544.174 48.9018 545.15 49.0497C546.096 49.1804 547.029 49.3911 547.94 49.6797C548.812 49.945 549.661 50.2794 550.48 50.6797C551.998 51.4011 553.411 52.3263 554.68 53.4297C555.796 54.386 556.796 55.4701 557.66 56.6597C558.876 58.3716 559.764 60.2941 560.28 62.3297C560.529 63.0553 560.621 63.8257 560.55 64.5897Z" fill="#E0E0E0"/>
<path d="M546.159 78.28L546.659 81.43L543.849 81.88L543.359 78.82C540.849 79.1268 538.303 78.725 536.009 77.66L537.009 73.99C538.8 74.8556 540.785 75.2415 542.769 75.11L542.019 70.42C538.779 70.16 535.139 69.68 534.489 65.66C534.019 62.66 535.769 59.79 540.119 58.57L539.629 55.45L542.429 55L542.919 58.07C544.954 57.8531 547.012 58.1275 548.919 58.87L548.069 62.54C546.624 61.9907 545.085 61.7292 543.539 61.77L544.299 66.55C547.539 66.78 551.129 67.27 551.759 71.23C552.209 74.18 550.479 77.05 546.159 78.28ZM541.359 66.28L540.719 62.28C539.289 62.85 538.829 63.76 538.979 64.69C539.129 65.62 540.059 66.13 541.359 66.32V66.28ZM547.269 72.28C547.119 71.28 546.219 70.89 544.939 70.66L545.559 74.54C546.909 74.04 547.419 73.22 547.269 72.32V72.28Z" fill="#E0E0E0"/>
<path d="M491.52 68.59C492.724 76.7433 491.483 85.0708 487.952 92.5183C484.422 99.9658 478.761 106.198 471.687 110.427C464.613 114.656 456.443 116.691 448.211 116.274C439.98 115.857 432.057 113.008 425.446 108.086C418.835 103.165 413.833 96.3924 411.072 88.6265C408.312 80.8605 407.918 72.4502 409.94 64.4602C411.961 56.4701 416.308 49.2595 422.43 43.7412C428.552 38.2228 436.173 34.6447 444.33 33.46C455.246 31.8609 466.35 34.6637 475.2 41.2518C484.05 47.8399 489.92 57.6737 491.52 68.59Z" fill="#F5F5F5"/>
<path d="M481.71 70.0099C482.627 76.2217 481.681 82.5659 478.991 88.2398C476.302 93.9137 471.99 98.6625 466.601 101.885C461.212 105.108 454.988 106.66 448.717 106.345C442.446 106.03 436.409 103.862 431.371 100.115C426.332 96.3679 422.518 91.2108 420.411 85.2958C418.304 79.3808 417.998 72.9738 419.533 66.8852C421.068 60.7967 424.375 55.3003 429.035 51.0913C433.694 46.8823 439.497 44.15 445.71 43.2399C449.832 42.6309 454.034 42.8403 458.074 43.8564C462.115 44.8725 465.916 46.6753 469.26 49.1616C472.603 51.6479 475.424 54.769 477.56 58.3464C479.697 61.9237 481.107 65.8872 481.71 70.0099Z" fill="#EBEBEB"/>
<path d="M481.56 69.0304C481.37 69.0304 481.04 67.7104 480.18 65.3704C478.992 62.0977 477.305 59.0282 475.18 56.2704C473.705 54.3926 472.028 52.6824 470.18 51.1704C468.061 49.4518 465.733 48.0102 463.25 46.8804C461.909 46.2691 460.526 45.7577 459.11 45.3504C457.641 44.9008 456.14 44.5665 454.62 44.3504C453.046 44.1358 451.458 44.0422 449.87 44.0704C446.592 44.123 443.345 44.7003 440.25 45.7804C438.754 46.3107 437.303 46.9595 435.91 47.7204C434.554 48.4346 433.253 49.2503 432.02 50.1604C430.834 51.0337 429.711 51.9894 428.66 53.0204C426.725 54.9374 425.045 57.0951 423.66 59.4404C422.451 61.498 421.468 63.6808 420.73 65.9504C419.68 69.2725 419.147 72.7363 419.15 76.2204C419.15 78.7004 419.31 80.0904 419.15 80.1204C418.99 80.1504 418.54 78.8104 418.24 76.2704C417.857 72.6443 418.152 68.9785 419.11 65.4604C420.531 60.1846 423.286 55.3633 427.11 51.4604C428.206 50.3191 429.393 49.2689 430.66 48.3204C431.953 47.3309 433.321 46.4417 434.75 45.6604C436.256 44.8381 437.828 44.1424 439.45 43.5804C441.117 43.004 442.825 42.5527 444.56 42.2304C446.298 41.9343 448.057 41.7705 449.82 41.7404C451.533 41.7132 453.245 41.8235 454.94 42.0704C456.576 42.306 458.191 42.6705 459.77 43.1604C461.28 43.6233 462.755 44.1983 464.18 44.8804C466.817 46.1379 469.273 47.7457 471.48 49.6604C473.382 51.3277 475.081 53.2141 476.54 55.2804C478.655 58.2489 480.198 61.586 481.09 65.1204C481.69 67.5904 481.7 69.0104 481.56 69.0304Z" fill="#E0E0E0"/>
<path d="M456.58 92.8004L457.45 98.2604L452.58 99.0304L451.73 93.7204C446.86 94.2004 441.98 93.4304 438.97 91.7204L440.69 85.3404C443.794 86.86 447.239 87.5491 450.69 87.3404L449.38 79.2004C443.76 78.7504 437.43 77.9104 436.31 70.9404C435.49 65.7704 438.53 60.7404 446.09 58.6304L445.22 53.2204L450.1 52.4404L450.95 57.7504C454.468 57.3864 458.022 57.8628 461.32 59.1404L459.91 65.5304C457.405 64.5641 454.733 64.1052 452.05 64.1804L453.37 72.4704C458.99 72.8704 465.22 73.7204 466.32 80.5904C467.08 85.6604 464.08 90.6604 456.58 92.8004ZM448.25 72.0304L447.15 65.1104C444.66 66.1104 443.86 67.6904 444.15 69.3004C444.44 70.9104 446 71.6604 448.25 72.0304ZM458.52 82.4404C458.25 80.7304 456.68 80.0304 454.47 79.6304L455.55 86.3604C457.91 85.4404 458.77 84.0004 458.52 82.4404Z" fill="#E0E0E0"/>
<path d="M123.279 210.42C123.976 215.118 123.263 219.918 121.231 224.211C119.198 228.504 115.937 232.097 111.861 234.536C107.786 236.974 103.078 238.149 98.3338 237.91C93.5899 237.672 89.0236 236.031 85.2128 233.196C81.4021 230.36 78.5183 226.458 76.9267 221.983C75.335 217.508 75.1071 212.661 76.2717 208.056C77.4363 203.451 79.941 199.295 83.4689 196.115C86.9967 192.935 91.3889 190.872 96.0894 190.19C102.376 189.277 108.769 190.893 113.865 194.685C118.962 198.478 122.347 204.136 123.279 210.42Z" fill="#F5F5F5"/>
<path d="M117.63 211.24C118.16 214.821 117.616 218.478 116.067 221.749C114.517 225.021 112.032 227.759 108.926 229.617C105.819 231.475 102.231 232.369 98.6162 232.187C95.0011 232.005 91.5213 230.754 88.6175 228.593C85.7137 226.432 83.5164 223.458 82.3039 220.047C81.0913 216.637 80.918 212.943 81.8058 209.434C82.6937 205.925 84.6028 202.758 87.2915 200.335C89.9802 197.911 93.3275 196.34 96.9096 195.82C101.701 195.122 106.574 196.353 110.459 199.244C114.344 202.135 116.923 206.45 117.63 211.24Z" fill="#EBEBEB"/>
<path d="M117.54 210.66C117.202 209.986 116.937 209.279 116.75 208.55C116.06 206.663 115.082 204.896 113.85 203.31C113.003 202.228 112.041 201.242 110.98 200.37C109.759 199.376 108.415 198.546 106.98 197.9C106.211 197.544 105.415 197.249 104.6 197.02C103.753 196.767 102.886 196.583 102.01 196.47C101.105 196.345 100.193 196.292 99.2798 196.31C98.3378 196.331 97.3986 196.421 96.4698 196.58C93.7581 197.055 91.1939 198.153 88.9798 199.79C88.2968 200.291 87.6517 200.843 87.0498 201.44C85.9274 202.539 84.9526 203.779 84.1498 205.13C83.4532 206.315 82.8866 207.572 82.4598 208.88C81.8551 210.795 81.5482 212.791 81.5498 214.8C81.6344 215.547 81.6344 216.302 81.5498 217.05C81.2207 216.355 81.0434 215.598 81.0298 214.83C80.81 212.74 80.9795 210.627 81.5298 208.6C81.915 207.207 82.462 205.865 83.1598 204.6C83.9792 203.14 84.9879 201.795 86.1598 200.6C86.7774 199.944 87.4462 199.339 88.1598 198.79C89.7105 197.622 91.4303 196.698 93.2598 196.05C94.2221 195.716 95.2083 195.455 96.2098 195.27C97.2016 195.103 98.2043 195.01 99.2098 194.99C100.213 194.974 101.216 195.038 102.21 195.18C103.152 195.315 104.081 195.526 104.99 195.81C105.86 196.079 106.709 196.414 107.53 196.81C110.382 198.161 112.835 200.228 114.65 202.81C115.866 204.521 116.754 206.444 117.27 208.48C117.507 209.18 117.598 209.922 117.54 210.66Z" fill="#E0E0E0"/>
<path d="M103.15 224.37L103.65 227.51L100.84 227.96L100.35 224.9C97.8435 225.224 95.2964 224.836 93.0001 223.78L94.0001 220.1C95.7925 220.971 97.7819 221.358 99.7701 221.22L99.0101 216.53C95.7801 216.28 92.1301 215.8 91.4901 211.78C91.0101 208.78 92.7601 205.9 97.1201 204.69L96.6201 201.57L99.4301 201.12L99.9201 204.18C101.955 203.962 104.013 204.236 105.92 204.98L105.07 208.66C103.628 208.101 102.087 207.839 100.54 207.89L101.3 212.66C104.54 212.89 108.13 213.38 108.76 217.34C109.2 220.26 107.47 223.13 103.15 224.37ZM98.3501 212.37L97.7101 208.37C96.2801 208.95 95.8201 209.85 95.9701 210.78C96.1201 211.71 97.0501 212.21 98.3501 212.41V212.37ZM104.27 218.37C104.11 217.37 103.21 216.99 101.93 216.76L102.55 220.63C103.91 220.13 104.41 219.3 104.27 218.4V218.37Z" fill="#E0E0E0"/>
<path d="M82.1696 157.6C79.5612 159.255 76.5205 160.098 73.4323 160.024C70.3441 159.95 67.3474 158.961 64.8215 157.183C62.2956 155.405 60.354 152.917 59.2426 150.035C58.1312 147.153 57.8999 144.006 58.578 140.992C59.2562 137.978 60.8132 135.233 63.052 133.105C65.2909 130.977 68.1108 129.56 71.155 129.036C74.1991 128.511 77.3305 128.901 80.1528 130.157C82.9752 131.412 85.3614 133.477 87.0096 136.09C88.1042 137.82 88.8473 139.749 89.1965 141.766C89.5456 143.783 89.494 145.85 89.0446 147.847C88.5951 149.845 87.7567 151.734 86.5771 153.407C85.3975 155.081 83.8998 156.505 82.1696 157.6Z" fill="#F5F5F5"/>
<path d="M80.1796 154.46C78.1903 155.719 75.872 156.361 73.5181 156.302C71.1642 156.244 68.8805 155.488 66.9561 154.132C65.0317 152.775 63.553 150.878 62.7073 148.68C61.8615 146.483 61.6866 144.084 62.2048 141.787C62.7231 139.49 63.911 137.399 65.6184 135.777C67.3257 134.156 69.4757 133.077 71.7963 132.678C74.1168 132.279 76.5036 132.577 78.6546 133.535C80.8055 134.493 82.6239 136.068 83.8796 138.06C85.5632 140.725 86.1192 143.95 85.4254 147.026C84.7315 150.101 82.8446 152.775 80.1796 154.46Z" fill="#EBEBEB"/>
<path d="M80.4999 154.26C80.4999 154.2 80.8699 153.88 81.4999 153.26C82.4413 152.353 83.2343 151.304 83.8499 150.15C84.7625 148.457 85.2433 146.564 85.2499 144.64C85.2608 144.089 85.2274 143.537 85.1499 142.99C85.0731 142.422 84.9527 141.86 84.7899 141.31C84.6229 140.738 84.4123 140.18 84.1599 139.64C83.6413 138.537 82.9492 137.524 82.1099 136.64C81.7076 136.204 81.2694 135.803 80.7999 135.44C80.3509 135.069 79.8727 134.735 79.3699 134.44C78.9052 134.141 78.4169 133.88 77.9099 133.66C76.9464 133.282 75.938 133.03 74.9099 132.91C74.0222 132.82 73.1276 132.82 72.2399 132.91C70.9419 133.045 69.6731 133.382 68.4799 133.91C68.05 134.147 67.5978 134.342 67.1299 134.49C67.1299 134.49 67.4899 134.08 68.3199 133.59C69.5018 132.909 70.8008 132.454 72.1499 132.25C73.0854 132.101 74.0355 132.064 74.9799 132.14C76.0711 132.234 77.1444 132.476 78.1699 132.86C78.7288 133.063 79.2705 133.311 79.7899 133.6C80.3327 133.891 80.8511 134.226 81.3399 134.6C82.3714 135.4 83.2693 136.359 83.9999 137.44C84.3775 137.99 84.7118 138.569 84.9999 139.17C85.2684 139.753 85.4924 140.354 85.6699 140.97C85.8367 141.567 85.957 142.175 86.0299 142.79C86.1059 143.38 86.1327 143.976 86.1099 144.57C86.0824 145.662 85.9075 146.745 85.5899 147.79C85.3078 148.697 84.9184 149.566 84.4299 150.38C83.7345 151.558 82.8257 152.596 81.7499 153.44C81.3946 153.797 80.9689 154.077 80.4999 154.26Z" fill="#E0E0E0"/>
<path d="M68.5593 149.32L66.8193 150.45L65.8193 148.9L67.5093 147.8C66.6508 146.396 66.2103 144.776 66.2393 143.13L68.6793 142.75C68.6376 144.047 68.934 145.332 69.5393 146.48L72.1293 144.79C71.4293 142.79 70.7493 140.5 72.9693 139.06C74.6093 137.99 76.7993 138.26 78.6693 140.53L80.3893 139.41L81.3893 140.96L79.6993 142.06C80.3607 143.208 80.7411 144.497 80.8093 145.82L78.3893 146.29C78.3418 145.284 78.0936 144.298 77.6593 143.39L75.0193 145.11C75.7393 147.11 76.3993 149.36 74.2093 150.78C72.5993 151.83 70.4293 151.56 68.5593 149.32ZM74.3993 143.32L76.5993 141.88C75.8793 141.18 75.2193 141.15 74.7093 141.48C74.1993 141.81 74.1693 142.48 74.3993 143.31V143.32ZM72.3993 148.42C72.9393 148.06 72.9393 147.42 72.7393 146.6L70.5993 148C71.2793 148.66 71.9093 148.73 72.3993 148.41V148.42Z" fill="#E0E0E0"/>
<path d="M500.91 28.8C498.301 30.4548 495.261 31.2985 492.173 31.2243C489.084 31.1501 486.088 30.1613 483.562 28.3831C481.036 26.6049 479.094 24.1173 477.983 21.2351C476.871 18.3529 476.64 15.2058 477.318 12.192C477.996 9.17834 479.553 6.43358 481.792 4.30523C484.031 2.17688 486.851 0.760635 489.895 0.235774C492.939 -0.289087 496.071 0.101037 498.893 1.35676C501.715 2.61248 504.102 4.67735 505.75 7.28996C506.846 9.01973 507.59 10.9486 507.94 12.9662C508.29 14.9837 508.238 17.0505 507.789 19.0483C507.339 21.046 506.5 22.9356 505.32 24.6089C504.14 26.2821 502.641 27.7063 500.91 28.8Z" fill="#F5F5F5"/>
<path d="M498.91 25.6602C496.922 26.9226 494.603 27.5666 492.249 27.5105C489.894 27.4544 487.609 26.7009 485.683 25.3452C483.757 23.9896 482.276 22.0929 481.429 19.8953C480.581 17.6976 480.405 15.298 480.922 13.0002C481.44 10.7023 482.627 8.60972 484.335 6.98729C486.042 5.36487 488.193 4.28562 490.514 3.88621C492.835 3.48681 495.223 3.78523 497.374 4.74366C499.526 5.7021 501.344 7.27745 502.6 9.27022C504.284 11.933 504.841 15.1557 504.149 18.2294C503.457 21.3031 501.573 23.976 498.91 25.6602Z" fill="#EBEBEB"/>
<path d="M499.21 25.46C499.21 25.4 499.58 25.08 500.21 24.46C501.151 23.5528 501.944 22.5033 502.56 21.35C502.989 20.5652 503.324 19.7328 503.56 18.87C503.825 17.8915 503.966 16.8836 503.98 15.87C503.998 15.299 503.975 14.7275 503.91 14.16C503.833 13.5916 503.713 13.0299 503.55 12.48C503.385 11.9071 503.175 11.3486 502.92 10.81C502.661 10.2546 502.36 9.71969 502.02 9.20996C501.685 8.70674 501.314 8.22878 500.91 7.77996C500.504 7.34042 500.063 6.93566 499.59 6.56996C499.142 6.19643 498.664 5.86187 498.16 5.56996C497.681 5.29393 497.183 5.05328 496.67 4.84996C495.707 4.47027 494.698 4.22138 493.67 4.10996C492.782 4.01005 491.887 4.01005 491 4.10996C489.702 4.24484 488.433 4.58226 487.24 5.10996C486.812 5.35242 486.36 5.54693 485.89 5.68996C485.89 5.68996 486.25 5.27996 487.08 4.78996C488.265 4.12583 489.564 3.68837 490.91 3.49996C491.845 3.34893 492.796 3.31534 493.74 3.39996C494.831 3.4893 495.904 3.7282 496.93 4.10996C497.489 4.31296 498.03 4.56041 498.55 4.84996C499.662 5.4625 500.673 6.24151 501.55 7.15996C501.991 7.62781 502.396 8.12932 502.76 8.65996C503.137 9.21011 503.471 9.78849 503.76 10.39C504.025 10.9723 504.246 11.5741 504.42 12.19C504.591 12.7852 504.712 13.3941 504.78 14.01C504.856 14.6 504.883 15.1954 504.86 15.79C504.832 16.8818 504.657 17.965 504.34 19.01C504.056 19.9381 503.66 20.828 503.16 21.66C502.461 22.8153 501.556 23.8323 500.49 24.66C500.122 25.0115 499.687 25.2838 499.21 25.46Z" fill="#E0E0E0"/>
<path d="M487.269 20.5203L485.529 21.6602L484.529 20.1103L486.219 19.0102C485.349 17.6052 484.895 15.9826 484.909 14.3302L487.349 13.9503C487.312 15.2467 487.608 16.531 488.209 17.6803L490.799 15.9903C490.099 13.9903 489.419 11.7002 491.639 10.2602C493.279 9.19026 495.469 9.46026 497.339 11.7302L499.099 10.6602L500.099 12.2102L498.409 13.3103C499.068 14.4626 499.445 15.7544 499.509 17.0802L497.099 17.5403C497.045 16.5377 496.793 15.5556 496.359 14.6503L493.719 16.3603C494.439 18.3603 495.099 20.6102 492.909 22.0302C491.309 23.0302 489.149 22.7603 487.269 20.5203ZM493.109 14.5203L495.309 13.0903C494.589 12.3803 493.929 12.3503 493.419 12.6803C492.909 13.0103 492.909 13.6602 493.109 14.5102V14.5203ZM491.109 19.6202C491.649 19.2602 491.649 18.6203 491.449 17.8103L489.309 19.2003C489.989 19.8503 490.609 19.9303 491.109 19.6602V19.6202Z" fill="#E0E0E0"/>
<path d="M671.17 440.02C671.17 440.16 521.06 440.28 335.93 440.28C150.8 440.28 0.650391 440.16 0.650391 440.02C0.650391 439.88 150.73 439.76 335.93 439.76C521.13 439.76 671.17 439.87 671.17 440.02Z" fill="#263238"/>
<path d="M629.91 104.3H249.19C247.629 104.3 246.083 104.607 244.641 105.205C243.199 105.803 241.889 106.679 240.786 107.783C239.682 108.887 238.807 110.198 238.211 111.64C237.615 113.083 237.308 114.629 237.31 116.19V385.1C237.31 388.251 238.561 391.272 240.789 393.5C243.017 395.728 246.039 396.98 249.19 396.98H395.31C395.31 396.98 404.61 425.72 375.79 440.6H512.42C512.42 440.6 479.91 429.44 488.25 396.98H629.91C633.06 396.98 636.082 395.728 638.31 393.5C640.538 391.272 641.79 388.251 641.79 385.1V116.19C641.791 114.629 641.485 113.083 640.888 111.64C640.292 110.198 639.417 108.887 638.314 107.783C637.21 106.679 635.9 105.803 634.458 105.205C633.016 104.607 631.471 104.3 629.91 104.3Z" fill="#263238"/>
<path d="M444.629 368.66C449.809 376.06 441.709 384.17 434.299 378.99C434.053 378.815 433.84 378.599 433.669 378.35C428.499 370.95 436.599 362.86 443.999 368.03C444.243 368.203 444.456 368.416 444.629 368.66Z" fill="#455A64"/>
<path d="M253.559 109.24H625.559C628.132 109.24 630.599 110.262 632.418 112.081C634.237 113.9 635.259 116.368 635.259 118.94V347.79H243.859V118.93C243.862 116.359 244.885 113.895 246.704 112.078C248.523 110.261 250.989 109.24 253.559 109.24Z" fill="white"/>
<path d="M289.86 163.09H277.02V306.45H289.86V163.09Z" fill="#455A64"/>
<path d="M314.64 211.78H301.8V306.45H314.64V211.78Z" fill="#455A64"/>
<path d="M339.42 180.91H326.58V307.18H339.42V180.91Z" fill="#455A64"/>
<path d="M364.199 168.63H351.359V306.45H364.199V168.63Z" fill="#455A64"/>
<path d="M388.98 214.689H376.14V306.439H388.98V214.689Z" fill="#455A64"/>
<path d="M413.77 232.689H400.93V306.449H413.77V232.689Z" fill="#455A64"/>
<path d="M438.55 177.8H425.71V306.44H438.55V177.8Z" fill="#455A64"/>
<path d="M463.329 201H450.489V306.45H463.329V201Z" fill="#455A64"/>
<path d="M488.11 182.46H475.27V306.44H488.11V182.46Z" fill="#455A64"/>
<path d="M512.89 221.979H500.05V306.45H512.89V221.979Z" fill="#455A64"/>
<path d="M562.32 177.8H549.479V306.44H562.32V177.8Z" fill="#455A64"/>
<path d="M614.949 260.57H602.109V304.59H614.949V260.57Z" fill="#455A64"/>
<path d="M589.3 221.979H576.46V306.45H589.3V221.979Z" fill="#455A64"/>
<path d="M537.67 205.91H524.83V306.45H537.67V205.91Z" fill="#455A64"/>
<path d="M618.559 181.36C618.182 181.327 617.808 181.266 617.439 181.18L614.169 180.51C612.406 180.133 610.623 179.849 608.829 179.66C606.393 179.32 603.939 179.116 601.479 179.05C594.735 178.824 587.987 179.402 581.379 180.77C572.645 182.644 564.243 185.827 556.459 190.21C547.027 195.524 538.503 202.309 531.209 210.31C523.349 218.93 516.719 229.58 509.939 240.85C503.159 252.12 496.119 264.22 486.029 274.66C480.983 280.055 475.021 284.514 468.419 287.83C464.994 289.493 461.33 290.614 457.559 291.15C453.728 291.66 449.838 291.528 446.049 290.76C438.429 289.08 431.679 285.08 425.999 280.25C420.428 275.451 415.444 270.009 411.149 264.04C402.529 252.44 396.409 239.94 389.859 228.55C383.309 217.16 376.739 206.44 368.589 198.09C364.73 194.024 360.301 190.541 355.439 187.75C353.155 186.432 350.779 185.279 348.329 184.3C345.962 183.426 343.54 182.708 341.079 182.15C332.375 180.163 323.309 180.417 314.729 182.89C308.25 184.744 302.133 187.685 296.639 191.59C293.204 194.116 290.023 196.969 287.139 200.11L284.909 202.58C284.666 202.875 284.398 203.149 284.109 203.4C284.305 203.075 284.533 202.77 284.789 202.49L286.899 199.89C289.716 196.648 292.863 193.709 296.289 191.12C301.79 187.091 307.948 184.046 314.489 182.12C323.188 179.507 332.41 179.163 341.279 181.12C351.149 183.12 361.209 188.76 369.419 197.22C377.629 205.68 384.469 216.41 390.989 227.85C397.509 239.29 403.729 251.72 412.259 263.17C416.496 269.058 421.41 274.428 426.899 279.17C432.459 283.9 439.019 287.76 446.319 289.37C449.94 290.1 453.657 290.225 457.319 289.74C460.946 289.22 464.471 288.144 467.769 286.55C474.234 283.304 480.074 278.94 485.019 273.66C494.969 263.43 501.929 251.35 508.809 240.16C515.689 228.97 522.329 218.16 530.329 209.5C537.745 201.453 546.397 194.64 555.959 189.32C563.854 184.94 572.373 181.794 581.219 179.99C587.893 178.663 594.703 178.159 601.499 178.49C603.976 178.592 606.443 178.842 608.889 179.24C610.688 179.466 612.471 179.8 614.229 180.24L617.469 181.05C617.84 181.124 618.205 181.228 618.559 181.36Z" fill="#263238"/>
<path d="M262.91 316.43C262.62 316.43 262.38 275.55 262.38 225.13C262.38 174.71 262.62 133.83 262.91 133.83C263.2 133.83 263.44 174.7 263.44 225.13C263.44 275.56 263.18 316.43 262.91 316.43Z" fill="#263238"/>
<path d="M614.909 316.429C614.909 316.719 537.909 316.949 442.909 316.949C347.909 316.949 270.909 316.719 270.909 316.429C270.909 316.139 347.909 315.899 442.909 315.899C537.909 315.899 614.909 316.139 614.909 316.429Z" fill="#263238"/>
<path d="M295.329 327.71C295.329 328 291.069 328.24 285.809 328.24C280.549 328.24 276.279 328 276.279 327.71C276.279 327.42 280.539 327.18 285.809 327.18C291.079 327.18 295.329 327.42 295.329 327.71Z" fill="#263238"/>
<path d="M326.91 328.28C326.91 328.58 321.81 328.81 315.53 328.81C309.25 328.81 304.14 328.58 304.14 328.28C304.14 327.98 309.24 327.76 315.53 327.76C321.82 327.76 326.91 327.99 326.91 328.28Z" fill="#263238"/>
<path d="M353.91 328.28C353.91 328.58 348.81 328.81 342.53 328.81C336.25 328.81 331.14 328.58 331.14 328.28C331.14 327.98 336.24 327.76 342.53 327.76C348.82 327.76 353.91 327.99 353.91 328.28Z" fill="#263238"/>
<path d="M380.83 328.28C380.83 328.58 375.73 328.81 369.45 328.81C363.17 328.81 358.06 328.58 358.06 328.28C358.06 327.98 363.16 327.76 369.45 327.76C375.74 327.76 380.83 327.99 380.83 328.28Z" fill="#263238"/>
<path d="M407.78 328.28C407.78 328.58 402.69 328.81 396.4 328.81C390.11 328.81 385.01 328.58 385.01 328.28C385.01 327.98 390.11 327.76 396.4 327.76C402.69 327.76 407.78 327.99 407.78 328.28Z" fill="#263238"/>
<path d="M434.74 328.28C434.74 328.58 429.64 328.81 423.35 328.81C417.06 328.81 411.97 328.58 411.97 328.28C411.97 327.98 417.06 327.76 423.35 327.76C429.64 327.76 434.74 327.99 434.74 328.28Z" fill="#263238"/>
<path d="M461.69 328.28C461.69 328.58 456.59 328.81 450.3 328.81C444.01 328.81 438.92 328.58 438.92 328.28C438.92 327.98 444.01 327.76 450.3 327.76C456.59 327.76 461.69 327.99 461.69 328.28Z" fill="#263238"/>
<path d="M488.639 328.28C488.639 328.58 483.539 328.81 477.249 328.81C470.959 328.81 465.869 328.58 465.869 328.28C465.869 327.98 470.969 327.76 477.249 327.76C483.529 327.76 488.639 327.99 488.639 328.28Z" fill="#263238"/>
<path d="M515.589 328.28C515.589 328.58 510.489 328.81 504.209 328.81C497.929 328.81 492.819 328.58 492.819 328.28C492.819 327.98 497.919 327.76 504.209 327.76C510.499 327.76 515.589 327.99 515.589 328.28Z" fill="#263238"/>
<path d="M542.54 328.28C542.54 328.58 537.44 328.81 531.16 328.81C524.88 328.81 519.77 328.58 519.77 328.28C519.77 327.98 524.87 327.76 531.16 327.76C537.45 327.76 542.54 327.99 542.54 328.28Z" fill="#263238"/>
<path d="M567.61 328.29C567.61 328.59 562.51 328.82 556.22 328.82C549.93 328.82 544.84 328.59 544.84 328.29C544.84 327.99 549.94 327.77 556.22 327.77C562.5 327.77 567.61 328 567.61 328.29Z" fill="#263238"/>
<path d="M592.679 328.3C592.679 328.59 587.579 328.83 581.289 328.83C574.999 328.83 569.909 328.59 569.909 328.3C569.909 328.01 574.999 327.78 581.289 327.78C587.579 327.78 592.679 328.01 592.679 328.3Z" fill="#263238"/>
<path d="M617.74 328.31C617.74 328.6 612.64 328.84 606.36 328.84C600.08 328.84 594.97 328.6 594.97 328.31C594.97 328.02 600.07 327.78 606.36 327.78C612.65 327.78 617.74 328.02 617.74 328.31Z" fill="#263238"/>
<path d="M393.91 229.83C393.91 229.61 395.49 230.16 395.99 232.31C396.31 233.551 396.168 234.866 395.59 236.01C395.2 236.764 394.528 237.332 393.72 237.59C392.843 237.836 391.904 237.725 391.11 237.28C390.39 236.878 389.799 236.281 389.404 235.557C389.01 234.833 388.828 234.013 388.88 233.19C388.927 232.543 389.111 231.913 389.419 231.343C389.728 230.772 390.154 230.273 390.67 229.88C391.008 229.604 391.403 229.407 391.827 229.303C392.251 229.199 392.692 229.191 393.12 229.28C393.72 229.46 393.92 229.75 393.88 229.81C393.84 229.87 392.58 229.41 391.32 230.66C390.628 231.343 390.226 232.268 390.2 233.24C390.195 233.803 390.34 234.356 390.619 234.845C390.899 235.333 391.302 235.739 391.79 236.02C392.008 236.156 392.25 236.246 392.504 236.285C392.758 236.324 393.016 236.312 393.265 236.248C393.514 236.185 393.747 236.071 393.95 235.915C394.154 235.759 394.324 235.564 394.45 235.34C394.927 234.471 395.116 233.473 394.99 232.49C394.82 230.66 393.8 230 393.91 229.83Z" fill="#263238"/>
<path d="M562.85 182.66C562.85 182.58 563.26 182.45 563.97 182.66C564.95 183.027 565.764 183.738 566.26 184.66C566.656 185.332 566.911 186.078 567.007 186.852C567.104 187.626 567.04 188.412 566.82 189.16C566.559 190.138 565.993 191.006 565.202 191.638C564.412 192.27 563.44 192.632 562.43 192.67C561.887 192.646 561.357 192.503 560.875 192.253C560.393 192.002 559.971 191.65 559.64 191.22C559.057 190.49 558.653 189.634 558.46 188.72C558.268 187.965 558.233 187.179 558.357 186.411C558.481 185.642 558.761 184.907 559.18 184.25C560.76 182.02 562.71 182.13 562.64 182.25C562.73 182.46 561.1 182.77 560.05 184.72C559.493 185.848 559.383 187.144 559.74 188.35C560.08 189.67 561.1 191.18 562.48 191.19C563.185 191.133 563.857 190.865 564.408 190.421C564.959 189.977 565.363 189.377 565.57 188.7C565.96 187.514 565.885 186.223 565.36 185.09C564.83 184.014 563.942 183.155 562.85 182.66Z" fill="#263238"/>
<path d="M417.2 36.4795H159.59V236.969H417.2V36.4795Z" fill="white"/>
<path d="M417.2 236.96C417.2 234.96 417.11 157.46 416.96 36.4699L417.2 36.7099H159.62L159.91 36.4199C159.91 108.69 159.91 177.04 159.91 236.91L159.65 236.65L417.26 236.91L159.65 237.17H159.39V236.91C159.39 177.04 159.39 108.69 159.39 36.4199V36.1299H159.71H417.29H417.53V36.3699C417.3 157.46 417.21 234.96 417.2 236.96Z" fill="#263238"/>
<path d="M213.849 62.8203H172.149V65.1403H213.849V62.8203Z" fill="#263238"/>
<path d="M192.759 68.25H172.149V70.57H192.759V68.25Z" fill="#263238"/>
<path d="M203.48 208.16H195.93V210.34H203.48V208.16Z" fill="#263238"/>
<path d="M222.68 219.8H213.02V221.98H222.68V219.8Z" fill="#263238"/>
<path d="M256.309 219.8H246.649V221.98H256.309V219.8Z" fill="#263238"/>
<path d="M289.939 219.8H280.279V221.98H289.939V219.8Z" fill="#263238"/>
<path d="M323.569 219.8H313.909V221.98H323.569V219.8Z" fill="#263238"/>
<path d="M357.2 219.8H347.54V221.98H357.2V219.8Z" fill="#263238"/>
<path d="M390.83 219.8H381.17V221.98H390.83V219.8Z" fill="#263238"/>
<path d="M203.48 179.09H195.93V181.27H203.48V179.09Z" fill="#263238"/>
<path d="M203.48 124.37H195.93V126.55H203.48V124.37Z" fill="#263238"/>
<path d="M203.48 96.8701H195.93V99.0501H203.48V96.8701Z" fill="#263238"/>
<path d="M203.86 151.729H196.31V153.91H203.86V151.729Z" fill="#263238"/>
<path d="M390.56 210.33C390.56 210.33 390.29 210.33 389.75 210.33H387.37L378.23 210.38L344.62 210.47L233.71 210.54H207.17V210.28C207.17 173.19 207.24 140.55 207.26 117.17C207.26 105.49 207.32 96.1702 207.34 89.6702C207.34 86.4602 207.34 83.9702 207.34 82.2702C207.34 81.4302 207.34 80.8002 207.34 80.3502C207.34 79.9002 207.34 79.7002 207.34 79.7002C207.34 79.7002 207.34 79.9202 207.34 80.3502C207.34 80.7802 207.34 81.4302 207.34 82.2702C207.34 83.9702 207.34 86.4602 207.34 89.6702C207.34 96.1302 207.34 105.49 207.42 117.17C207.42 140.55 207.47 173.17 207.51 210.28L207.25 210.02H233.71L344.62 210.1L378.23 210.18L387.37 210.23H389.75L390.56 210.33Z" fill="#263238"/>
<path d="M392.689 152.81C392.689 152.95 352.849 153.07 303.689 153.07C254.529 153.07 214.689 152.95 214.689 152.81C214.689 152.67 254.519 152.55 303.689 152.55C352.859 152.55 392.689 152.66 392.689 152.81Z" fill="#263238"/>
<path d="M392.689 125.449C392.689 125.589 352.849 125.709 303.689 125.709C254.529 125.709 214.689 125.589 214.689 125.449C214.689 125.309 254.519 125.189 303.689 125.189C352.859 125.189 392.689 125.309 392.689 125.449Z" fill="#263238"/>
<path d="M392.689 97.9494C392.689 98.0994 352.849 98.2095 303.689 98.2095C254.529 98.2095 214.689 98.0994 214.689 97.9494C214.689 97.7994 254.519 97.6895 303.689 97.6895C352.859 97.6895 392.689 97.8094 392.689 97.9494Z" fill="#263238"/>
<path d="M392.689 180.17C392.689 180.31 352.849 180.43 303.689 180.43C254.529 180.43 214.689 180.31 214.689 180.17C214.689 180.03 254.519 179.91 303.689 179.91C352.859 179.91 392.689 180.03 392.689 180.17Z" fill="#263238"/>
<path d="M216.569 204.44V180.17L231.699 156.66L241.969 164.54L263.039 131.81L275.469 140.56L292.759 110.36L306.759 121.81L327.909 81.7695L350.609 126.54L368.909 104.14L390.519 97.9495V204.44H216.569Z" fill="#455A64"/>
<path d="M392.689 89.3295C392.563 89.3381 392.436 89.3381 392.309 89.3295H391.179H386.799L370.209 89.3995L370.319 89.3395L352.539 112.659L352.469 112.739H352.369H307.869L308.089 112.619L289.379 143.759C283.009 154.359 276.839 164.609 271.009 174.289L270.819 174.619L270.599 174.309L246.479 141.179H246.829L224.909 175.459L218.799 184.939C218.099 186.019 217.559 186.849 217.179 187.419C216.799 187.989 216.609 188.259 216.609 188.259C216.609 188.259 216.779 187.959 217.129 187.389L218.689 184.879C220.079 182.669 222.109 179.439 224.689 175.329L246.489 140.959L246.659 140.699L246.849 140.949L271.019 174.039H270.599L288.909 143.519L307.639 112.379L307.709 112.259H307.909L352.409 112.309L352.249 112.389L370.139 89.2495V89.1895H370.209L386.799 89.2595H391.179H392.309L392.689 89.3295Z" fill="#263238"/>
<path d="M253.91 148.85C253.924 149.191 253.835 149.528 253.656 149.819C253.477 150.109 253.215 150.339 252.904 150.479C252.593 150.619 252.247 150.663 251.911 150.605C251.575 150.548 251.264 150.391 251.018 150.154C250.771 149.918 250.601 149.614 250.53 149.28C250.458 148.947 250.487 148.6 250.614 148.283C250.741 147.966 250.96 147.695 251.243 147.504C251.525 147.313 251.859 147.211 252.2 147.21C252.644 147.202 253.073 147.37 253.393 147.677C253.714 147.985 253.899 148.406 253.91 148.85Z" fill="#263238"/>
<path d="M305.27 119.66C305.284 120.001 305.196 120.339 305.016 120.629C304.836 120.92 304.574 121.15 304.262 121.29C303.951 121.43 303.604 121.473 303.268 121.414C302.931 121.356 302.62 121.198 302.374 120.96C302.129 120.723 301.959 120.418 301.889 120.084C301.818 119.75 301.849 119.402 301.978 119.086C302.106 118.769 302.327 118.499 302.611 118.309C302.894 118.119 303.229 118.018 303.57 118.02C303.789 118.016 304.007 118.055 304.212 118.135C304.416 118.216 304.602 118.335 304.76 118.488C304.918 118.64 305.044 118.822 305.132 119.023C305.219 119.224 305.266 119.44 305.27 119.66Z" fill="#263238"/>
<path d="M343.46 114.16C344.404 114.16 345.17 113.426 345.17 112.52C345.17 111.614 344.404 110.88 343.46 110.88C342.516 110.88 341.75 111.614 341.75 112.52C341.75 113.426 342.516 114.16 343.46 114.16Z" fill="#263238"/>
<path d="M170.359 44.7197C170.359 45.1153 170.242 45.502 170.022 45.8309C169.803 46.1598 169.49 46.4161 169.125 46.5675C168.759 46.7189 168.357 46.7585 167.969 46.6813C167.581 46.6041 167.225 46.4136 166.945 46.1339C166.665 45.8542 166.475 45.4979 166.398 45.1099C166.321 44.7219 166.36 44.3198 166.512 43.9544C166.663 43.5889 166.919 43.2766 167.248 43.0568C167.577 42.837 167.964 42.7197 168.359 42.7197C168.89 42.7197 169.399 42.9304 169.774 43.3055C170.149 43.6806 170.359 44.1893 170.359 44.7197Z" fill="#263238"/>
<path d="M176.12 44.7197C176.12 45.1153 176.003 45.502 175.783 45.8309C175.563 46.1598 175.251 46.4161 174.885 46.5675C174.52 46.7189 174.118 46.7585 173.73 46.6813C173.342 46.6041 172.986 46.4136 172.706 46.1339C172.426 45.8542 172.236 45.4979 172.159 45.1099C172.081 44.7219 172.121 44.3198 172.272 43.9544C172.424 43.5889 172.68 43.2766 173.009 43.0568C173.338 42.837 173.725 42.7197 174.12 42.7197C174.651 42.7197 175.159 42.9304 175.534 43.3055C175.909 43.6806 176.12 44.1893 176.12 44.7197Z" fill="#263238"/>
<path d="M181.909 44.7197C181.909 45.1153 181.792 45.502 181.572 45.8309C181.352 46.1598 181.04 46.4161 180.675 46.5675C180.309 46.7189 179.907 46.7585 179.519 46.6813C179.131 46.6041 178.775 46.4136 178.495 46.1339C178.215 45.8542 178.025 45.4979 177.948 45.1099C177.87 44.7219 177.91 44.3198 178.061 43.9544C178.213 43.5889 178.469 43.2766 178.798 43.0568C179.127 42.837 179.514 42.7197 179.909 42.7197C180.44 42.7197 180.948 42.9304 181.323 43.3055C181.698 43.6806 181.909 44.1893 181.909 44.7197Z" fill="#263238"/>
<path d="M416.989 52.5295C416.989 52.6695 359.429 52.7895 288.439 52.7895C217.449 52.7895 159.909 52.6595 159.909 52.5295C159.909 52.3995 217.459 52.2695 288.469 52.2695C359.479 52.2695 416.989 52.3795 416.989 52.5295Z" fill="#263238"/>
<path d="M0.829994 356.23L6.24 375.66C7.72795 380.936 11.1031 385.481 15.7236 388.431C20.3441 391.381 25.8876 392.53 31.3 391.66C31.3 391.66 41.54 406.26 45.91 408.66L49.85 439.79H73.22L75.07 427.18C91.8667 434.232 110.022 437.46 128.22 436.63C157.81 435.06 164.9 426.39 164.9 426.39L168.44 439.79H194.84L199.18 405.51C199.18 405.51 231.48 376.75 223.18 343.26C223.18 343.26 246.42 327.39 238.54 304.79L233.81 302.66C233.81 302.66 226.32 316.05 218.44 318.81C218.44 318.81 197.24 250.65 117.44 256.17C117.44 256.17 90.81 254.99 65.59 266.8C65.59 266.8 37.59 252.23 16.74 262.86C16.74 262.86 16.35 286.86 28.16 300.69C28.16 300.69 17.92 323.54 17.16 328.27L14.11 329.49C8.99072 331.527 4.8041 335.384 2.35328 340.318C-0.0975516 345.253 -0.639998 350.919 0.829994 356.23Z" fill="#455A64"/>
<path d="M57.2797 326.95C57.2797 328.241 56.8967 329.504 56.1792 330.578C55.4617 331.652 54.4419 332.489 53.2487 332.983C52.0554 333.477 50.7425 333.606 49.4758 333.354C48.2091 333.102 47.0456 332.481 46.1323 331.567C45.2191 330.654 44.5972 329.491 44.3452 328.224C44.0932 326.957 44.2226 325.644 44.7168 324.451C45.211 323.258 46.048 322.238 47.1219 321.52C48.1957 320.803 49.4582 320.42 50.7497 320.42C52.4816 320.42 54.1425 321.108 55.3671 322.333C56.5917 323.557 57.2797 325.218 57.2797 326.95Z" fill="#263238"/>
<g opacity="0.6">
<path opacity="0.6" d="M87.3604 273.469L90.2904 281.689C90.2904 281.689 125.8 271.119 148.69 281.689L151.92 273.469C151.92 273.469 124.04 260.559 87.3604 273.469Z" fill="black"/>
</g>
<path d="M154.8 285.459C154.575 285.348 154.358 285.221 154.15 285.079C153.73 284.809 153.1 284.439 152.29 283.969C149.985 282.659 147.565 281.561 145.06 280.689C141.345 279.404 137.503 278.518 133.6 278.049C128.815 277.491 123.994 277.31 119.18 277.509C114.36 277.645 109.551 278.029 104.77 278.659C100.87 279.161 97.0306 280.056 93.3102 281.329C90.8051 282.193 88.3984 283.319 86.1302 284.689C84.5202 285.689 83.7002 286.299 83.6602 286.249C83.8423 286.072 84.0398 285.912 84.2502 285.769C84.8156 285.319 85.4066 284.902 86.0202 284.519C88.2675 283.073 90.6732 281.888 93.1902 280.989C96.9176 279.653 100.776 278.715 104.7 278.189C109.499 277.536 114.329 277.146 119.17 277.019C124.008 276.818 128.854 277.012 133.66 277.599C137.593 278.101 141.459 279.029 145.19 280.369C147.696 281.283 150.108 282.439 152.39 283.819C153.2 284.319 153.81 284.729 154.2 285.019C154.411 285.15 154.612 285.297 154.8 285.459Z" fill="#263238"/>
<g opacity="0.2">
<path opacity="0.2" d="M15.7703 347.589C15.3941 346.574 14.7962 345.655 14.0203 344.899C13.6268 344.527 13.1329 344.279 12.5997 344.185C12.0666 344.091 11.5175 344.155 11.0203 344.369C10.2615 344.971 9.73204 345.814 9.52033 346.759C8.20232 352.712 9.23791 358.943 12.4103 364.149C12.6248 364.514 12.9139 364.828 13.2586 365.073C13.6032 365.318 13.9957 365.487 14.4103 365.569C16.2003 365.879 17.1403 364.249 17.5803 362.769C19.0903 357.779 17.9103 352.349 15.7703 347.589Z" fill="black"/>
</g>
<path d="M30.11 363.659C30.0597 363.164 30.0597 362.665 30.11 362.169C30.143 361.586 30.143 361.002 30.11 360.419C30.11 359.739 30.11 358.959 30.11 358.099C30.11 357.239 30.02 356.309 29.89 355.309C29.76 354.309 29.6 353.249 29.41 352.129C28.4945 347.294 26.7161 342.664 24.16 338.459C23.55 337.459 23 336.579 22.39 335.779C21.78 334.979 21.23 334.219 20.68 333.549C20.13 332.879 19.61 332.319 19.16 331.809C18.71 331.299 18.3 330.879 17.96 330.539C17.5953 330.206 17.2607 329.841 16.96 329.449C17.3743 329.731 17.7625 330.048 18.12 330.399C18.5644 330.78 18.9884 331.184 19.39 331.609C19.9509 332.15 20.4817 332.72 20.98 333.319C21.55 333.969 22.16 334.689 22.76 335.519C23.36 336.349 23.96 337.249 24.59 338.209C25.8886 340.318 26.9995 342.536 27.91 344.839C28.7834 347.167 29.4526 349.566 29.91 352.009C30.08 353.139 30.27 354.209 30.34 355.229C30.41 356.249 30.48 357.229 30.5 358.049C30.52 358.869 30.5 359.699 30.5 360.389C30.4891 360.975 30.4457 361.559 30.37 362.139C30.3245 362.652 30.2376 363.16 30.11 363.659Z" fill="#263238"/>
<path d="M37.2805 349.66C37.1805 349.66 36.8005 348.01 35.6905 345.48C35.0369 344.007 34.2714 342.586 33.4005 341.23C32.3106 339.607 31.0863 338.078 29.7405 336.66C28.3606 335.25 26.8617 333.962 25.2605 332.81C23.9436 331.883 22.556 331.06 21.1105 330.35C18.6405 329.14 16.9705 328.69 17.0105 328.59C17.4103 328.63 17.8034 328.721 18.1805 328.86C18.64 328.979 19.091 329.13 19.5305 329.31C20.1232 329.514 20.7041 329.751 21.2705 330.02C22.7606 330.695 24.1893 331.498 25.5405 332.42C27.1828 333.566 28.7129 334.865 30.1105 336.3C31.4897 337.758 32.7254 339.345 33.8005 341.04C34.6705 342.425 35.4167 343.884 36.0305 345.4C36.3105 346.04 36.4905 346.65 36.6705 347.17C36.8255 347.615 36.9524 348.069 37.0505 348.53C37.1751 348.895 37.2524 349.275 37.2805 349.66Z" fill="#263238"/>
<path d="M10.07 346.66C10.0277 346.478 10.0371 346.288 10.0972 346.111C10.1573 345.934 10.2656 345.778 10.41 345.66C10.7307 345.341 11.1502 345.14 11.6 345.09C11.8989 345.061 12.2007 345.092 12.4876 345.181C12.7744 345.27 13.0404 345.416 13.27 345.61C14.3014 346.676 15.0716 347.966 15.52 349.38C16.8812 352.694 17.5614 356.248 17.52 359.83C17.6299 361.314 17.358 362.801 16.73 364.15C16.4757 364.602 16.0927 364.968 15.6296 365.201C15.1665 365.434 14.6445 365.524 14.13 365.46C13.39 365.32 13.13 364.9 13.19 364.91C13.4941 365.097 13.8352 365.217 14.19 365.26C14.6515 365.281 15.1095 365.17 15.51 364.94C15.9105 364.71 16.2367 364.37 16.45 363.96C16.9966 362.656 17.213 361.237 17.08 359.83C17.0733 358.074 16.9026 356.323 16.57 354.6C16.2443 352.876 15.7623 351.186 15.13 349.55C14.7206 348.195 14.021 346.946 13.08 345.89C12.7468 345.578 12.3114 345.397 11.855 345.383C11.3987 345.368 10.9526 345.52 10.6 345.81C10.3374 346.03 10.1518 346.327 10.07 346.66Z" fill="#263238"/>
<path d="M60.3302 351.27C60.3302 351.27 60.4902 351.46 60.6702 351.87C60.9004 352.449 61.0485 353.059 61.1102 353.68C61.2319 354.715 61.1407 355.764 60.8424 356.762C60.5441 357.761 60.0448 358.688 59.3753 359.487C58.7058 360.286 57.8801 360.939 56.9489 361.407C56.0177 361.876 55.0007 362.149 53.9602 362.21C53.3376 362.258 52.7114 362.217 52.1002 362.09C51.6702 361.99 51.4502 361.9 51.4502 361.86C52.2726 361.915 53.0978 361.915 53.9202 361.86C55.8877 361.65 57.6973 360.685 58.969 359.169C60.2407 357.653 60.8755 355.704 60.7402 353.73C60.6537 352.902 60.5168 352.08 60.3302 351.27Z" fill="#263238"/>
<path d="M56.6296 311.009C54.5653 310.171 52.4003 309.606 50.1896 309.329C47.9636 309.225 45.7336 309.42 43.5596 309.909C44.126 309.549 44.7582 309.304 45.4196 309.189C46.9921 308.805 48.6162 308.677 50.2296 308.809C51.8434 308.945 53.4243 309.344 54.9096 309.989C55.5414 310.219 56.1247 310.565 56.6296 311.009Z" fill="#263238"/>
<path d="M166.74 267.86L166.49 267.78L165.76 267.5L162.97 266.39L160.97 265.57C160.23 265.28 159.41 265.02 158.54 264.72C156.78 264.14 154.82 263.37 152.54 262.8L149.02 261.8C147.8 261.47 146.5 261.23 145.16 260.93C142.51 260.27 139.61 259.87 136.58 259.37C129.951 258.5 123.262 258.166 116.58 258.37C109.914 258.658 103.282 259.484 96.7496 260.84C93.7496 261.55 90.8996 262.17 88.2996 263.02C86.9996 263.42 85.7096 263.75 84.5196 264.18L81.0796 265.42C78.8696 266.15 76.9696 267.06 75.2596 267.77C74.4096 268.14 73.6096 268.46 72.8996 268.77L70.9596 269.77L68.2596 271.09L67.5596 271.42C67.483 271.468 67.3983 271.502 67.3096 271.52C67.3096 271.52 67.3796 271.52 67.5296 271.38L68.2096 271L70.8696 269.59L72.7896 268.59C73.4996 268.24 74.2996 267.9 75.1396 267.52C76.8396 266.79 78.7396 265.85 80.9496 265.09L84.3896 263.82C85.5896 263.38 86.8696 263.04 88.1796 262.62C90.7896 261.75 93.6496 261.12 96.6496 260.39C103.206 259.003 109.865 258.157 116.56 257.86C123.244 257.672 129.933 258.03 136.56 258.93C139.61 259.44 142.51 259.86 145.18 260.53C146.51 260.85 147.82 261.1 149.04 261.45L152.56 262.45C154.82 263.04 156.78 263.84 158.56 264.45C159.43 264.76 160.25 265.04 160.99 265.33L162.99 266.2L165.74 267.41L166.45 267.74C166.67 267.81 166.75 267.85 166.74 267.86Z" fill="white"/>
<path d="M178.63 274.489C177.541 274.318 176.486 273.981 175.5 273.489C174.446 273.149 173.454 272.642 172.56 271.989C173.651 272.162 174.71 272.499 175.7 272.989C176.748 273.334 177.737 273.84 178.63 274.489Z" fill="white"/>
<path d="M12.41 334.569C12.41 334.659 11.5 335.039 10.12 335.909C6.51676 338.202 3.83926 341.694 2.56004 345.769C2.08004 347.329 1.96004 348.339 1.86004 348.329C1.81879 348.091 1.81879 347.848 1.86004 347.609C1.91621 346.95 2.03337 346.297 2.21004 345.659C2.75607 343.553 3.71881 341.578 5.04136 339.85C6.3639 338.122 8.01941 336.676 9.91004 335.599C10.4757 335.267 11.0717 334.989 11.69 334.769C11.9164 334.661 12.1601 334.593 12.41 334.569Z" fill="white"/>
<path d="M73.8402 433.95C73.8402 433.95 73.6602 433.71 73.2402 433.39C72.6117 432.95 71.8411 432.761 71.0802 432.86C70.4964 432.921 69.935 433.118 69.4403 433.434C68.9456 433.749 68.5313 434.176 68.2302 434.68C67.4825 436.035 67.1357 437.575 67.2302 439.12H66.7702C66.8509 438.334 66.7614 437.539 66.5077 436.79C66.2541 436.041 65.8422 435.356 65.3002 434.78C64.6958 434.156 63.9185 433.728 63.0684 433.549C62.2182 433.371 61.3342 433.451 60.5302 433.78C60.0149 434 59.5624 434.344 59.2133 434.783C58.8642 435.221 58.6294 435.739 58.5302 436.29C58.4074 436.804 58.4096 437.341 58.5366 437.854C58.6636 438.367 58.9117 438.842 59.2602 439.24L58.8502 439.49C58.3189 437.58 57.35 435.82 56.0202 434.35C55.4953 433.796 54.8375 433.386 54.1093 433.159C53.3812 432.931 52.6069 432.894 51.8602 433.05C51.3788 433.186 50.934 433.428 50.5585 433.759C50.183 434.089 49.8863 434.5 49.6902 434.96C49.5712 435.306 49.4973 435.665 49.4702 436.03C49.3721 435.659 49.3967 435.266 49.5402 434.91C49.7186 434.403 50.0131 433.944 50.4003 433.571C50.7875 433.197 51.2566 432.92 51.7702 432.76C52.573 432.562 53.4135 432.575 54.2095 432.8C55.0054 433.024 55.7293 433.451 56.3102 434.04C57.7167 435.536 58.7453 437.346 59.3102 439.32L59.7202 440.44L58.9102 439.56C58.5034 439.107 58.2119 438.562 58.0604 437.971C57.909 437.381 57.902 436.763 58.0402 436.17C58.1587 435.533 58.4336 434.935 58.8403 434.431C59.247 433.926 59.7727 433.531 60.3702 433.28C61.2719 432.911 62.2632 432.821 63.2167 433.021C64.1701 433.22 65.042 433.701 65.7202 434.4C66.3051 435.032 66.7471 435.782 67.0163 436.6C67.2855 437.418 67.3755 438.284 67.2802 439.14H66.8202C66.7359 437.516 67.1287 435.903 67.9502 434.5C68.3171 433.917 68.8219 433.432 69.4202 433.09C69.9378 432.817 70.5064 432.653 71.0902 432.61C71.908 432.534 72.7229 432.782 73.3602 433.3C73.571 433.474 73.7358 433.697 73.8402 433.95Z" fill="#263238"/>
<path d="M213.181 432.03L211.461 439.27C211.461 439.27 199.611 454.66 195.961 453.9C193.561 453.41 196.511 449.4 200.961 437.71L201.961 432.89L213.181 432.03Z" fill="#455A64"/>
<path d="M195.481 451.661C195.623 451.924 195.843 452.137 196.111 452.271C196.482 452.431 196.89 452.486 197.291 452.43C197.691 452.373 198.068 452.207 198.381 451.951C200.453 450.21 202.42 448.346 204.271 446.371C206.461 444.071 208.271 441.851 209.601 440.221L211.111 438.271C211.261 438.081 211.401 437.911 211.521 437.741C211.568 437.675 211.621 437.615 211.681 437.561C211.633 437.626 211.58 437.686 211.521 437.741L211.141 438.301C210.811 438.781 210.311 439.461 209.681 440.301C208.027 442.461 206.258 444.531 204.381 446.501C202.513 448.495 200.508 450.357 198.381 452.071C197.985 452.349 197.523 452.518 197.041 452.561C196.676 452.581 196.313 452.502 195.991 452.331C195.785 452.226 195.612 452.067 195.491 451.871C195.476 451.802 195.473 451.731 195.481 451.661Z" fill="#263238"/>
<path d="M197.15 446.661C197.468 446.534 197.813 446.496 198.15 446.551C198.944 446.629 199.708 446.893 200.38 447.321C201.079 447.721 201.642 448.32 202 449.041C202.162 449.332 202.251 449.658 202.26 449.991C202.26 449.991 202.15 449.631 201.87 449.111C201.488 448.445 200.936 447.893 200.27 447.511C199.621 447.094 198.892 446.818 198.13 446.701C197.805 446.67 197.478 446.657 197.15 446.661Z" fill="#263238"/>
<path d="M208.37 443.081C208.3 442.974 208.249 442.856 208.22 442.731C208.122 442.403 208.045 442.069 207.99 441.731C207.823 440.6 208.016 439.446 208.54 438.431C209.059 437.412 209.904 436.595 210.94 436.111C211.257 435.961 211.594 435.86 211.94 435.811C212.063 435.791 212.188 435.791 212.31 435.811C211.868 435.927 211.436 436.081 211.02 436.271C210.042 436.777 209.248 437.578 208.75 438.561C208.245 439.54 208.039 440.646 208.16 441.741C208.24 442.561 208.4 443.071 208.37 443.081Z" fill="#263238"/>
<path d="M212.43 433.261C212.43 433.261 212.21 434.261 211.99 435.571C211.898 436.357 211.689 437.126 211.37 437.851C211.37 437.851 211.56 436.851 211.78 435.531C211.876 434.744 212.095 433.978 212.43 433.261Z" fill="#263238"/>
<path d="M200.801 438.731C201.298 438.592 201.824 438.592 202.321 438.731C202.831 438.81 203.307 439.036 203.691 439.381C203.691 439.441 203.071 439.121 202.271 438.941C201.471 438.761 200.811 438.801 200.801 438.731Z" fill="#263238"/>
<path d="M200.561 439.971C200.975 439.824 201.427 439.824 201.841 439.971C202.277 440.034 202.675 440.255 202.961 440.591C202.961 440.641 202.451 440.331 201.791 440.181C201.131 440.031 200.571 440.041 200.561 439.971Z" fill="#263238"/>
<path d="M199.61 441.53C199.807 441.409 200.028 441.332 200.257 441.302C200.486 441.273 200.719 441.293 200.94 441.36C201.169 441.393 201.387 441.476 201.581 441.602C201.774 441.728 201.938 441.895 202.06 442.09C201.694 441.869 201.3 441.694 200.89 441.57C200.467 441.504 200.037 441.491 199.61 441.53Z" fill="#263238"/>
<path d="M201.62 438.21C201.62 438.21 202.16 438.07 203.01 437.74C203.502 437.544 203.98 437.313 204.44 437.05C204.69 436.9 204.96 436.73 205.22 436.55C205.48 436.37 205.73 436.11 205.72 435.83C205.71 435.55 205.36 435.39 205.09 435.46C204.808 435.558 204.557 435.727 204.36 435.95C203.92 436.36 203.55 436.75 203.25 437.09C202.64 437.77 202.31 438.22 202.25 438.2C202.301 438.078 202.368 437.964 202.45 437.86C202.59 437.65 202.81 437.35 203.1 436.99C203.443 436.578 203.807 436.185 204.19 435.81C204.409 435.556 204.692 435.366 205.01 435.26C205.106 435.23 205.206 435.221 205.306 435.234C205.405 435.247 205.5 435.281 205.585 435.335C205.669 435.388 205.741 435.459 205.796 435.543C205.85 435.627 205.886 435.721 205.9 435.82C205.88 436.005 205.818 436.183 205.717 436.339C205.616 436.496 205.48 436.626 205.32 436.72C205.057 436.903 204.783 437.07 204.5 437.22C204.031 437.484 203.539 437.705 203.03 437.88C202.687 438.001 202.336 438.098 201.98 438.17C201.76 438.22 201.62 438.23 201.62 438.21Z" fill="#263238"/>
<path d="M202.241 438.061C202.145 437.625 202.071 437.184 202.021 436.741C201.945 436.269 201.811 435.809 201.621 435.371C201.507 435.118 201.359 434.883 201.181 434.671C201.001 434.471 200.721 434.291 200.501 434.421C200.281 434.551 200.251 434.881 200.281 435.151C200.325 435.423 200.403 435.688 200.511 435.941C200.707 436.373 200.966 436.775 201.281 437.131C201.831 437.741 202.281 438.031 202.281 438.061C202.281 438.091 202.161 438.061 201.971 437.881C201.698 437.691 201.444 437.477 201.211 437.241C200.866 436.883 200.582 436.471 200.371 436.021C200.25 435.749 200.163 435.464 200.111 435.171C200.069 435.001 200.078 434.822 200.137 434.657C200.195 434.491 200.301 434.347 200.441 434.241C200.606 434.177 200.787 434.17 200.956 434.223C201.125 434.276 201.272 434.384 201.371 434.531C201.564 434.76 201.722 435.016 201.841 435.291C202.03 435.748 202.155 436.229 202.211 436.721C202.261 437.131 202.281 437.471 202.291 437.721C202.289 437.836 202.273 437.95 202.241 438.061Z" fill="#263238"/>
<path d="M269.91 435.391L269.96 425.731L251.91 425.511L251.66 439.661L252.78 439.751C257.78 440.091 278.17 441.111 281.52 440.141C285.26 439.041 269.91 435.391 269.91 435.391Z" fill="#455A64"/>
<path d="M251.41 439.23H251.72L252.62 439.3L255.9 439.48C258.68 439.62 262.52 439.75 266.76 439.81C271 439.87 274.84 439.81 277.62 439.81L280.91 439.72H277.62C274.85 439.72 271.01 439.72 266.77 439.72C262.53 439.72 258.7 439.55 255.92 439.46L252.63 439.34H251.74L251.41 439.23Z" fill="#263238"/>
<path d="M275.78 440.03C275.935 439.49 276.146 438.967 276.41 438.47C276.744 438.017 277.126 437.601 277.55 437.23C276.985 437.425 276.514 437.825 276.23 438.35C275.877 438.835 275.717 439.434 275.78 440.03Z" fill="#263238"/>
<path d="M270.48 437.26C270.53 437.26 270.79 436.98 271.05 436.57C271.31 436.16 271.5 435.8 271.45 435.76C271.4 435.72 271.14 436.04 270.87 436.45C270.6 436.86 270.42 437.22 270.48 437.26Z" fill="#263238"/>
<path d="M269.02 436.461C269.02 436.511 269.35 436.321 269.66 436.051C269.97 435.781 270.2 435.511 270.16 435.461C270.12 435.411 269.83 435.611 269.52 435.881C269.21 436.151 268.98 436.421 269.02 436.461Z" fill="#263238"/>
<path d="M268.12 434.74C268.419 434.856 268.74 434.904 269.06 434.881C269.396 434.928 269.738 434.897 270.06 434.791C269.742 434.668 269.399 434.624 269.06 434.661C268.745 434.619 268.424 434.646 268.12 434.74Z" fill="#263238"/>
<path d="M267.811 433.54C268.124 433.743 268.488 433.853 268.861 433.86C269.23 433.927 269.611 433.879 269.951 433.72C269.606 433.671 269.258 433.651 268.911 433.66C268.549 433.584 268.18 433.544 267.811 433.54Z" fill="#263238"/>
<path d="M271.11 435.66C271.494 435.724 271.886 435.724 272.27 435.66C272.691 435.621 273.107 435.537 273.51 435.41C273.758 435.342 273.996 435.245 274.22 435.12C274.362 435.047 274.469 434.921 274.52 434.77C274.54 434.684 274.535 434.594 274.505 434.51C274.475 434.427 274.421 434.354 274.35 434.301C273.909 434.077 273.403 434.014 272.92 434.121C272.437 434.229 272.006 434.501 271.7 434.89C271.517 435.117 271.384 435.379 271.31 435.66C271.284 435.762 271.284 435.869 271.31 435.97C271.43 435.608 271.613 435.27 271.85 434.97C272.116 434.669 272.464 434.45 272.85 434.34C273.077 434.264 273.318 434.234 273.557 434.253C273.796 434.272 274.028 434.339 274.24 434.45C274.42 434.59 274.35 434.8 274.14 434.92C273.932 435.036 273.71 435.127 273.48 435.19C273.089 435.322 272.688 435.423 272.28 435.49C271.55 435.66 271.11 435.66 271.11 435.66Z" fill="#263238"/>
<path d="M271.41 435.75C271.557 435.508 271.607 435.218 271.55 434.94C271.522 434.637 271.419 434.345 271.25 434.09C271.151 433.911 271.007 433.76 270.831 433.653C270.656 433.546 270.456 433.486 270.25 433.48C270.132 433.507 270.028 433.577 269.959 433.678C269.89 433.778 269.862 433.9 269.88 434.02C269.907 434.205 269.972 434.382 270.07 434.54C270.22 434.799 270.401 435.037 270.61 435.25C270.789 435.461 271.015 435.625 271.27 435.73C271.27 435.73 271.04 435.52 270.73 435.14C270.544 434.926 270.383 434.691 270.25 434.44C270.09 434.19 269.99 433.75 270.25 433.7C270.51 433.65 270.84 433.97 271.01 434.2C271.17 434.428 271.279 434.687 271.33 434.96C271.378 435.221 271.405 435.485 271.41 435.75Z" fill="#263238"/>
<path d="M251.851 434.28C251.851 434.28 252.361 434.28 253.181 434.34C254.246 434.471 255.252 434.901 256.082 435.581C256.912 436.26 257.532 437.162 257.871 438.18C258.141 438.96 258.161 439.48 258.201 439.48C258.22 439.358 258.22 439.233 258.201 439.11C258.18 438.771 258.12 438.435 258.021 438.11C257.711 437.043 257.084 436.094 256.223 435.391C255.362 434.687 254.308 434.262 253.201 434.17C252.868 434.139 252.533 434.139 252.201 434.17C252.078 434.185 251.959 434.222 251.851 434.28Z" fill="#263238"/>
<path d="M253.82 426.78C253.674 428.011 253.604 429.25 253.61 430.49C253.537 431.729 253.537 432.971 253.61 434.21C253.75 432.975 253.816 431.733 253.81 430.49C253.883 429.255 253.887 428.016 253.82 426.78Z" fill="#263238"/>
<path d="M260.521 437.85C261.385 438.055 262.272 438.153 263.161 438.14C264.048 438.201 264.939 438.14 265.811 437.96C265.811 437.9 264.621 437.96 263.171 437.96C261.721 437.96 260.531 437.78 260.521 437.85Z" fill="#263238"/>
<path d="M256.98 437.8C256.93 437.8 257.07 438.05 257.19 438.32C257.31 438.59 257.37 438.83 257.43 438.83C257.49 438.83 257.53 438.55 257.43 438.23C257.33 437.91 257.02 437.75 256.98 437.8Z" fill="#263238"/>
<path d="M255.66 436.12C255.66 436.12 255.73 436.35 255.92 436.54C256.11 436.73 256.29 436.85 256.33 436.81C256.37 436.77 256.26 436.58 256.08 436.39C255.9 436.2 255.71 436.07 255.66 436.12Z" fill="#263238"/>
<path d="M253.761 435.33C253.761 435.39 254.011 435.39 254.281 435.49C254.551 435.59 254.731 435.73 254.781 435.69C254.831 435.65 254.681 435.4 254.351 435.28C254.021 435.16 253.741 435.28 253.761 435.33Z" fill="#263238"/>
<path d="M252.4 434.96C252.4 435.01 252.48 435.11 252.63 435.17C252.78 435.23 252.92 435.23 252.94 435.17C252.96 435.11 252.86 435.02 252.72 434.96C252.58 434.9 252.43 434.9 252.4 434.96Z" fill="#263238"/>
<path d="M282.13 250.431L275.19 431.741L247.02 432.331L251.7 275.231L220.01 433.531H193.23L227.73 250.801L282.13 250.431Z" fill="#263238"/>
<path d="M258.19 257.021C258.169 258.028 258.062 259.031 257.87 260.021C257.61 261.851 257.21 264.391 256.74 267.171C256.56 268.5 256.293 269.816 255.94 271.111C255.621 272.198 254.979 273.164 254.1 273.881C253.509 274.359 252.802 274.673 252.05 274.791C251.781 274.86 251.499 274.86 251.23 274.791C252.201 274.649 253.114 274.244 253.87 273.621C254.658 272.917 255.224 272 255.5 270.981C255.823 269.702 256.073 268.407 256.25 267.101C256.72 264.311 257.17 261.791 257.52 259.971C257.665 258.971 257.889 257.984 258.19 257.021Z" fill="#455A64"/>
<path d="M252.331 257.891C252.391 257.891 252.161 258.231 252.331 258.701C252.365 258.829 252.424 258.948 252.505 259.053C252.585 259.158 252.686 259.245 252.801 259.311C252.945 259.362 253.1 259.373 253.25 259.343C253.4 259.313 253.54 259.244 253.653 259.141C253.767 259.039 253.851 258.908 253.896 258.761C253.942 258.615 253.947 258.46 253.911 258.311C253.864 258.188 253.792 258.076 253.699 257.983C253.606 257.89 253.494 257.818 253.371 257.771C252.911 257.571 252.591 257.771 252.561 257.701C252.531 257.631 252.821 257.291 253.481 257.431C253.67 257.477 253.846 257.566 253.995 257.691C254.144 257.816 254.262 257.973 254.341 258.151C254.424 258.388 254.432 258.644 254.364 258.886C254.296 259.128 254.155 259.342 253.961 259.501C253.78 259.673 253.55 259.784 253.303 259.82C253.055 259.856 252.803 259.814 252.581 259.701C252.414 259.6 252.273 259.461 252.169 259.297C252.065 259.132 252.001 258.945 251.981 258.751C251.911 258.091 252.311 257.831 252.331 257.891Z" fill="#455A64"/>
<path d="M237.201 260.48C236.871 259.667 236.747 258.785 236.841 257.912C236.935 257.04 237.245 256.204 237.741 255.48C237.871 255.54 237.461 256.61 237.331 257.98C237.201 259.35 237.341 260.44 237.201 260.48Z" fill="#455A64"/>
<path d="M240.591 260.261C240.178 259.439 240.034 258.508 240.181 257.601C240.168 256.678 240.44 255.773 240.961 255.011C241.091 255.011 240.771 256.201 240.681 257.631C240.697 258.508 240.667 259.386 240.591 260.261Z" fill="#455A64"/>
<path d="M269.711 261.001C269.684 260.091 269.737 259.181 269.871 258.281C269.837 257.369 269.877 256.456 269.991 255.551C270.366 256.415 270.495 257.368 270.361 258.301C270.395 259.243 270.17 260.177 269.711 261.001Z" fill="#455A64"/>
<path d="M273.391 260.8C273.251 260.74 273.691 259.55 273.791 258.03C273.891 256.51 273.631 255.28 273.791 255.24C274.192 256.126 274.367 257.098 274.301 258.068C274.235 259.038 273.929 259.977 273.411 260.8H273.391Z" fill="#455A64"/>
<path d="M242.911 174.991L260.311 173.601C260.421 171.601 260.311 163.721 260.311 163.721C260.311 163.721 267.551 162.591 267.641 155.361C267.731 148.131 266.471 131.511 266.471 131.511C262.35 129.726 257.827 129.077 253.371 129.631C248.915 130.185 244.689 131.921 241.131 134.661L240.061 135.491L242.911 174.991Z" fill="#FFBE9D"/>
<path d="M260.25 163.66C256.91 163.728 253.626 162.795 250.82 160.98C250.82 160.98 253.05 166.19 260.27 165.54L260.25 163.66Z" fill="#EB996E"/>
<path d="M263.581 142.851C263.581 143.116 263.475 143.37 263.288 143.558C263.1 143.745 262.846 143.851 262.581 143.851C262.449 143.86 262.317 143.844 262.192 143.802C262.067 143.76 261.952 143.694 261.852 143.608C261.753 143.522 261.672 143.416 261.613 143.298C261.554 143.18 261.52 143.052 261.511 142.921C261.511 142.655 261.616 142.401 261.804 142.213C261.991 142.026 262.246 141.921 262.511 141.921C262.642 141.911 262.774 141.928 262.899 141.969C263.024 142.011 263.14 142.077 263.239 142.163C263.338 142.25 263.42 142.355 263.478 142.473C263.537 142.591 263.572 142.719 263.581 142.851Z" fill="#263238"/>
<path d="M265.03 141.66C264.9 141.79 264.12 141.21 263.03 141.21C261.94 141.21 261.1 141.77 260.98 141.64C260.86 141.51 261.05 141.33 261.41 141.07C261.894 140.742 262.466 140.568 263.05 140.57C263.629 140.568 264.193 140.75 264.66 141.09C264.98 141.38 265.09 141.66 265.03 141.66Z" fill="#263238"/>
<path d="M252.35 143.11C252.35 143.376 252.245 143.63 252.057 143.817C251.87 144.005 251.615 144.11 251.35 144.11C251.219 144.12 251.087 144.103 250.962 144.062C250.837 144.02 250.721 143.954 250.622 143.868C250.523 143.781 250.441 143.676 250.383 143.558C250.324 143.44 250.289 143.312 250.28 143.18C250.28 142.915 250.386 142.661 250.573 142.473C250.761 142.286 251.015 142.18 251.28 142.18C251.412 142.171 251.544 142.187 251.669 142.229C251.794 142.271 251.909 142.337 252.009 142.423C252.108 142.509 252.189 142.615 252.248 142.733C252.307 142.851 252.341 142.979 252.35 143.11Z" fill="#263238"/>
<path d="M254.101 141.89C253.971 142.03 253.191 141.45 252.101 141.45C251.011 141.45 250.171 142.01 250.051 141.87C249.931 141.73 250.121 141.57 250.481 141.31C250.96 140.973 251.535 140.798 252.121 140.81C252.699 140.808 253.263 140.99 253.731 141.33C254.051 141.59 254.171 141.83 254.101 141.89Z" fill="#263238"/>
<path d="M258.141 150.141C258.726 149.959 259.33 149.848 259.941 149.811C260.231 149.811 260.501 149.731 260.541 149.531C260.567 149.238 260.5 148.944 260.351 148.691C260.091 148.011 259.811 147.281 259.511 146.531C258.734 144.701 258.105 142.812 257.631 140.881C258.555 142.646 259.337 144.482 259.971 146.371C260.251 147.121 260.511 147.851 260.771 148.541C260.948 148.886 260.997 149.283 260.911 149.661C260.869 149.762 260.806 149.852 260.724 149.925C260.643 149.998 260.546 150.051 260.441 150.081C260.285 150.126 260.123 150.149 259.961 150.151C259.356 150.223 258.745 150.22 258.141 150.141Z" fill="#263238"/>
<path d="M254.91 150.91C255.09 150.91 255.09 152.1 256.12 152.96C257.15 153.82 258.44 153.69 258.45 153.85C258.46 154.01 258.16 154.09 257.62 154.1C256.915 154.112 256.228 153.875 255.68 153.43C255.137 153.004 254.779 152.384 254.68 151.7C254.65 151.2 254.78 150.9 254.91 150.91Z" fill="#263238"/>
<path d="M254.39 137.541C254.28 137.841 253.17 137.691 251.87 137.851C250.57 138.011 249.51 138.371 249.33 138.091C249.26 137.961 249.44 137.681 249.86 137.391C250.429 137.031 251.072 136.805 251.74 136.73C252.409 136.656 253.086 136.735 253.72 136.961C254.2 137.151 254.44 137.391 254.39 137.541Z" fill="#263238"/>
<path d="M264.62 138.47C264.43 138.72 263.62 138.47 262.74 138.47C261.86 138.47 261.04 138.64 260.86 138.37C260.68 138.1 260.86 137.99 261.25 137.75C261.704 137.455 262.24 137.312 262.78 137.34C263.319 137.352 263.842 137.526 264.28 137.84C264.6 138.08 264.71 138.34 264.62 138.47Z" fill="#263238"/>
<path d="M240.91 143.001C240.79 142.951 235.91 141.531 236.1 146.481C236.29 151.431 241.19 150.251 241.2 150.111C241.21 149.971 240.91 143.001 240.91 143.001Z" fill="#FFBE9D"/>
<path d="M239.661 148.28C239.661 148.28 239.581 148.34 239.441 148.41C239.232 148.495 238.999 148.495 238.791 148.41C238.474 148.212 238.214 147.934 238.039 147.604C237.863 147.274 237.778 146.904 237.791 146.53C237.762 146.104 237.83 145.676 237.991 145.28C238.032 145.126 238.11 144.983 238.218 144.865C238.326 144.746 238.46 144.656 238.611 144.6C238.709 144.572 238.815 144.579 238.909 144.619C239.004 144.659 239.082 144.73 239.131 144.82C239.201 144.96 239.131 145.06 239.201 145.07C239.271 145.08 239.301 144.98 239.261 144.78C239.226 144.657 239.152 144.548 239.051 144.47C238.91 144.376 238.739 144.337 238.571 144.36C238.369 144.407 238.183 144.506 238.03 144.646C237.878 144.786 237.764 144.963 237.701 145.16C237.499 145.594 237.41 146.072 237.441 146.55C237.429 146.991 237.55 147.426 237.787 147.798C238.024 148.17 238.366 148.463 238.771 148.64C238.904 148.675 239.043 148.68 239.178 148.654C239.313 148.628 239.44 148.572 239.551 148.49C239.661 148.4 239.681 148.29 239.661 148.28Z" fill="#EB996E"/>
<path d="M269.171 125.26C268.643 124.218 267.885 123.311 266.952 122.607C266.02 121.904 264.939 121.423 263.792 121.202C262.645 120.981 261.463 121.025 260.336 121.332C259.209 121.638 258.167 122.199 257.291 122.97C256.741 121.875 255.932 120.931 254.933 120.222C253.934 119.512 252.776 119.058 251.561 118.9C250.345 118.742 249.11 118.885 247.963 119.316C246.816 119.746 245.792 120.452 244.981 121.37C243.591 122.95 242.871 125.08 241.251 126.37C239.841 127.52 237.941 127.9 236.521 129.03C235.737 129.659 235.141 130.491 234.8 131.436C234.459 132.381 234.385 133.402 234.587 134.386C234.788 135.371 235.258 136.28 235.943 137.015C236.628 137.75 237.503 138.281 238.471 138.55C238.115 139.262 237.907 140.038 237.861 140.833C237.814 141.627 237.93 142.422 238.2 143.17C238.47 143.918 238.89 144.604 239.433 145.185C239.976 145.766 240.632 146.231 241.361 146.55L242.081 146.25C243.427 144.718 244.289 142.821 244.556 140.798C244.823 138.776 244.484 136.72 243.581 134.89C243.667 134.895 243.754 134.895 243.841 134.89C245.085 135.585 246.542 135.793 247.931 135.475C249.32 135.158 250.542 134.336 251.361 133.17C252.363 133.872 253.545 134.273 254.768 134.324C255.991 134.376 257.203 134.076 258.261 133.46C258.557 133.235 258.898 133.075 259.261 132.99C259.719 132.998 260.165 133.133 260.551 133.38C261.624 133.961 262.847 134.205 264.061 134.08C264.62 134.012 265.153 133.804 265.611 133.475C266.069 133.147 266.437 132.708 266.681 132.2H266.771C267.462 132.043 268.097 131.698 268.607 131.204C269.116 130.711 269.481 130.087 269.661 129.4C270.021 128.008 269.846 126.531 269.171 125.26Z" fill="#263238"/>
<path d="M280.15 212.101L280.791 179.501C275.001 173.811 271.911 172.111 263.851 171.161L261.661 170.911L260.971 165.541L241.21 164.421L242.21 170.801C239.35 170.921 236.971 171.801 234.541 172.271C226.861 173.741 221.331 179.331 219.801 184.501C218.531 188.751 210.421 220.261 210.421 220.261L208.771 229.771L226.911 223.191V230.041V255.201H281.911C282.101 249.201 280.15 212.101 280.15 212.101Z" fill="#E4E4E4"/>
<g opacity="0.2">
<path opacity="0.2" d="M280.15 212.101L280.791 179.501C275.001 173.811 271.911 172.111 263.851 171.161L261.661 170.911L260.971 165.541L241.21 164.421L242.21 170.801C239.35 170.921 236.971 171.801 234.541 172.271C226.861 173.741 221.331 179.331 219.801 184.501C218.531 188.751 210.421 220.261 210.421 220.261L208.771 229.771L226.911 223.191V230.041V255.201H281.911C282.101 249.201 280.15 212.101 280.15 212.101Z" fill="black"/>
</g>
<path d="M217.03 220.71L244.16 216.86L249.32 226.1L224.1 237.47C222.694 238.115 221.167 238.456 219.62 238.47C217.455 238.465 215.34 237.814 213.547 236.601C211.753 235.388 210.362 233.668 209.55 231.66L208.73 229.66L217.03 220.71Z" fill="#E4E4E4"/>
<g opacity="0.2">
<path opacity="0.2" d="M217.03 220.71L244.16 216.86L249.32 226.1L224.1 237.47C222.694 238.115 221.167 238.456 219.62 238.47C217.455 238.465 215.34 237.814 213.547 236.601C211.753 235.388 210.362 233.668 209.55 231.66L208.73 229.66L217.03 220.71Z" fill="black"/>
</g>
<path d="M272.471 173.15C272.471 173.15 280.141 175.76 283.361 183.15C285.461 187.97 288.551 211.15 288.551 211.15L292.441 218.66C293.376 220.461 293.863 222.461 293.861 224.49V225.64C293.864 228.555 292.861 231.38 291.021 233.64C289.953 234.953 288.633 236.038 287.139 236.832C285.645 237.626 284.006 238.111 282.321 238.26C278.431 238.61 273.731 238.76 272.731 237.62C270.961 235.62 268.301 230.15 268.301 230.15L279.631 224.15L274.751 215.15L272.471 173.15Z" fill="#E4E4E4"/>
<g opacity="0.2">
<path opacity="0.2" d="M272.471 173.15C272.471 173.15 280.141 175.76 283.361 183.15C285.461 187.97 288.551 211.15 288.551 211.15L292.441 218.66C293.376 220.461 293.863 222.461 293.861 224.49V225.64C293.864 228.555 292.861 231.38 291.021 233.64C289.953 234.953 288.633 236.038 287.139 236.832C285.645 237.626 284.006 238.111 282.321 238.26C278.431 238.61 273.731 238.76 272.731 237.62C270.961 235.62 268.301 230.15 268.301 230.15L279.631 224.15L274.751 215.15L272.471 173.15Z" fill="black"/>
</g>
<path d="M225.99 236.66C225.99 236.66 226.13 236.56 226.43 236.41L227.73 235.78L232.6 233.5L249.22 225.91L249.11 226.26L245.93 220.56L243.93 217.02L244.17 217.14L224.29 219.09L218.39 219.62L216.79 219.74C216.605 219.769 216.416 219.769 216.23 219.74C216.411 219.691 216.595 219.657 216.78 219.64L218.37 219.44L224.26 218.76L244.14 216.66H244.3L244.38 216.8L246.38 220.34L249.55 226.04L249.68 226.27L249.44 226.38L232.75 233.81L227.82 235.95L226.48 236.51C226.322 236.575 226.158 236.626 225.99 236.66Z" fill="#263238"/>
<path d="M230.811 218.03C230.671 218.03 230.561 213.18 230.561 207.2C230.561 201.22 230.671 196.37 230.811 196.37C230.951 196.37 231.061 201.22 231.061 207.2C231.061 213.18 230.911 218.03 230.811 218.03Z" fill="#263238"/>
<path d="M277.51 225.28C277.51 225.28 277.8 225.191 278.33 225.151C279.096 225.079 279.868 225.123 280.62 225.28C281.171 225.398 281.671 225.685 282.05 226.101C282.447 226.598 282.705 227.191 282.8 227.821C282.924 228.514 282.862 229.228 282.62 229.891C282.347 230.599 281.87 231.211 281.25 231.65C280.051 232.383 278.713 232.86 277.32 233.051C276.21 233.266 275.082 233.376 273.95 233.381C272.905 233.47 271.854 233.287 270.9 232.851C271.909 233.006 272.93 233.066 273.95 233.03C275.054 232.978 276.151 232.834 277.23 232.601C278.55 232.4 279.818 231.942 280.96 231.25C281.482 230.878 281.889 230.366 282.134 229.774C282.38 229.182 282.455 228.533 282.35 227.9C282.278 227.345 282.068 226.815 281.74 226.361C281.419 226 280.998 225.742 280.53 225.621C279.811 225.44 279.072 225.346 278.33 225.34C278.056 225.352 277.781 225.332 277.51 225.28Z" fill="#263238"/>
<path d="M282.011 238.391C281.363 238.587 280.686 238.665 280.011 238.621C278.412 238.672 276.819 238.41 275.321 237.851C274.493 237.538 273.709 237.118 272.991 236.601C272.407 236.163 271.918 235.612 271.551 234.981C271.176 234.427 270.937 233.794 270.851 233.131C270.931 233.131 271.191 233.811 271.851 234.791C272.236 235.353 272.716 235.844 273.271 236.241C273.97 236.708 274.722 237.091 275.511 237.381C276.956 237.919 278.479 238.22 280.021 238.271C280.686 238.264 281.351 238.304 282.011 238.391Z" fill="#263238"/>
<path d="M287.43 214.891C287.04 215.472 286.591 216.011 286.09 216.501C285.22 217.451 283.99 218.751 282.61 220.161C281.23 221.571 279.97 222.841 279.03 223.731C278.56 224.251 278.029 224.715 277.45 225.111C277.826 224.519 278.273 223.975 278.78 223.491C279.65 222.491 280.88 221.231 282.25 219.821C283.848 218.047 285.58 216.399 287.43 214.891Z" fill="#263238"/>
<path d="M275.071 209.83C274.82 207.777 274.737 205.707 274.821 203.64C274.737 201.57 274.82 199.497 275.071 197.44C275.321 199.497 275.405 201.57 275.321 203.64C275.405 205.707 275.321 207.777 275.071 209.83Z" fill="#263238"/>
<path d="M261.121 171.101C257.99 171.343 254.849 171.413 251.711 171.311C248.574 171.383 245.435 171.276 242.311 170.991C245.438 170.755 248.576 170.688 251.711 170.791C254.851 170.724 257.992 170.828 261.121 171.101Z" fill="#263238"/>
<path d="M281.431 241.231C281.431 241.371 269.031 241.491 253.741 241.491C238.451 241.491 226.051 241.371 226.051 241.231C226.051 241.091 238.441 240.971 253.741 240.971C269.041 240.971 281.431 241.081 281.431 241.231Z" fill="#263238"/>
<path d="M268.611 212.421L268.021 211.981C266.511 210.847 264.781 210.042 262.942 209.617C261.103 209.191 259.195 209.155 257.341 209.511C254.288 210.096 251.431 211.437 249.031 213.411L244.381 217.241L249.321 226.101L252.691 221.391C252.691 221.391 255.831 225.651 256.391 225.201C256.889 224.67 257.303 224.066 257.621 223.411L255.381 220.271L260.761 221.391L268.611 217.801L265.241 213.541L268.611 214.661V212.421Z" fill="#FFBE9D"/>
<path d="M260.321 211.61L243.051 232.52L244.371 233.96L272.401 229.69L286.291 208.77L285.001 207.61L260.321 211.61Z" fill="#263238"/>
<path d="M278.64 217.131C278.102 217.129 277.575 217.29 277.131 217.594C276.686 217.898 276.344 218.329 276.15 218.831C275.847 219.875 275.258 220.814 274.45 221.541C273.2 222.221 271.05 222.761 269.92 222.211C268.79 221.661 264.26 217.581 263.47 218.031C262.68 218.481 262 219.501 262.79 220.411C263.58 221.321 267.79 224.031 266.98 224.941C266.17 225.851 257.35 221.861 255.98 222.211C254.61 222.561 253.83 223.391 254.62 223.941C255.41 224.491 261.41 226.751 261.75 227.541C261.75 227.541 252.69 225.161 252.35 225.731C252.01 226.301 251.45 227.201 252.35 227.541C253.25 227.881 261.07 229.921 261.75 230.261C262.873 230.722 264.043 231.057 265.24 231.261C266.475 231.582 267.694 231.966 268.89 232.411C270.722 233.052 272.725 232.999 274.52 232.261L275.44 231.891C276.136 231.606 276.725 231.111 277.125 230.474C277.525 229.837 277.716 229.091 277.67 228.341L277.49 225.261L278.49 222.711L278.64 217.131Z" fill="#FFBE9D"/>
<path d="M286.351 208.961C286.183 209.025 286.009 209.069 285.831 209.091L284.331 209.351L278.811 210.241L270.611 211.491L265.771 212.221C264.062 212.409 262.438 213.066 261.081 214.121C259.835 215.332 258.694 216.647 257.671 218.051C256.601 219.371 255.581 220.651 254.601 221.871L249.391 228.321L245.841 232.661L244.841 233.821C244.732 233.961 244.608 234.089 244.471 234.201C244.471 234.201 244.551 234.041 244.761 233.761L245.671 232.541L249.091 228.121L254.221 221.591L257.221 217.751C258.265 216.321 259.429 214.983 260.701 213.751C262.127 212.641 263.834 211.949 265.631 211.751L270.481 211.051L278.701 209.901L284.251 209.171L285.761 209.001C285.954 208.955 286.153 208.941 286.351 208.961Z" fill="#455A64"/>
<path d="M273.241 213.54C272.941 213.696 272.676 213.91 272.461 214.17C272.363 214.307 272.311 214.472 272.311 214.64C272.311 214.809 272.363 214.973 272.461 215.11C272.621 215.251 272.827 215.328 273.041 215.328C273.254 215.328 273.46 215.251 273.621 215.11C273.847 214.95 274.004 214.711 274.061 214.44C274.09 214.306 274.084 214.166 274.044 214.035C274.004 213.904 273.93 213.785 273.831 213.69C273.722 213.606 273.588 213.56 273.451 213.56C273.313 213.56 273.18 213.606 273.071 213.69" fill="#FAFAFA"/>
</g>
</g>
<defs>
<clipPath id="clip0_2008_471">
<rect width="672" height="454" fill="white"/>
</clipPath>
</defs>
</svg>
