<?xml version="1.0" encoding="UTF-8"?> <svg xmlns="http://www.w3.org/2000/svg" width="618" height="423" viewBox="0 0 618 423" fill="none"> <g clip-path="url(#clip0)"> <path d="M382.231 286.66C382.85 282.848 384.794 279.377 387.721 276.858C390.648 274.34 394.369 272.934 398.231 272.89C432.771 272.43 520.711 271.64 525.431 275.38C531.311 280.05 534.431 282.44 533.921 289.85C533.491 296.65 526.081 414.14 526.081 414.14H361.471L382.231 286.66Z" fill="#455A64"></path> <path d="M507.301 414.2C507.276 414.085 507.259 413.968 507.251 413.85C507.251 413.6 507.251 413.26 507.171 412.85C507.101 411.93 507.001 410.61 506.881 408.94C506.761 407.27 506.621 405.15 506.541 402.73C506.461 400.31 506.301 397.55 506.301 394.5C506.301 392.97 506.301 391.37 506.251 389.71C506.201 388.05 506.251 386.31 506.311 384.52C506.311 380.93 506.521 377.1 506.691 373.07C507.151 365.01 507.911 356.17 509.141 346.94C510.371 337.71 512.051 328.94 513.761 321.09C514.671 317.16 515.511 313.42 516.451 309.95C516.911 308.22 517.321 306.54 517.781 304.95C518.241 303.36 518.691 301.82 519.111 300.35C519.931 297.41 520.821 294.8 521.541 292.48C522.261 290.16 522.951 288.2 523.541 286.59C524.131 284.98 524.541 283.77 524.861 282.89L525.221 281.89C525.301 281.68 525.351 281.57 525.351 281.57C525.337 281.686 525.31 281.8 525.271 281.91L524.961 282.91C524.671 283.8 524.261 285.05 523.731 286.65C523.201 288.25 522.521 290.24 521.831 292.56C521.141 294.88 520.271 297.5 519.481 300.44C519.061 301.91 518.631 303.44 518.181 305.05C517.731 306.66 517.331 308.34 516.881 310.05C515.961 313.51 515.141 317.26 514.241 321.18C512.551 329.06 510.951 337.78 509.671 347C508.391 356.22 507.671 365 507.181 373.08C507.001 377.08 506.781 380.93 506.751 384.52C506.751 386.31 506.661 388.04 506.661 389.7C506.661 391.36 506.661 392.96 506.661 394.48C506.661 397.53 506.771 400.29 506.831 402.71C506.891 405.13 506.981 407.21 507.071 408.91C507.161 410.61 507.221 411.91 507.261 412.84C507.261 413.26 507.261 413.6 507.261 413.84C507.286 413.959 507.299 414.079 507.301 414.2Z" fill="#263238"></path> <path d="M414.751 332.03C414.751 332.03 414.831 332.03 415.001 331.93C415.252 331.89 415.509 331.89 415.761 331.93C416.24 331.984 416.702 332.139 417.117 332.384C417.532 332.628 417.891 332.958 418.171 333.35C418.585 333.945 418.826 334.643 418.869 335.367C418.911 336.09 418.753 336.811 418.411 337.45C418.041 338.214 417.492 338.876 416.811 339.38C416.058 339.905 415.176 340.213 414.261 340.27C413.331 340.343 412.405 340.1 411.631 339.58C411.273 339.332 410.969 339.015 410.736 338.647C410.502 338.28 410.344 337.87 410.271 337.44C410.148 336.731 410.198 336.002 410.417 335.316C410.637 334.63 411.019 334.007 411.531 333.5C413.381 331.92 415.011 331.87 414.981 332.02C414.951 332.17 414.891 332.02 414.731 332.02C414.491 332.079 414.256 332.16 414.031 332.26C413.2 332.601 412.441 333.092 411.791 333.71C411.348 334.185 411.022 334.757 410.839 335.381C410.657 336.004 410.623 336.662 410.741 337.3C410.807 337.665 410.946 338.014 411.148 338.324C411.351 338.635 411.614 338.902 411.921 339.11C412.599 339.56 413.409 339.768 414.221 339.7C415.042 339.652 415.834 339.379 416.511 338.91C417.138 338.47 417.643 337.878 417.981 337.19C418.297 336.625 418.454 335.983 418.435 335.335C418.416 334.687 418.221 334.056 417.871 333.51C417.374 332.775 416.61 332.262 415.741 332.08C415.412 332.043 415.081 332.027 414.751 332.03Z" fill="#263238"></path> <path d="M440.56 317.1C440.56 317.21 438.86 316.9 436.14 317.15C432.592 317.464 429.189 318.709 426.274 320.757C423.36 322.806 421.037 325.587 419.54 328.82C418.37 331.29 418.09 332.98 417.98 332.96C417.993 332.557 418.057 332.157 418.17 331.77C418.404 330.707 418.739 329.669 419.17 328.67C420.618 325.321 422.968 322.44 425.957 320.347C428.946 318.255 432.458 317.034 436.1 316.82C437.191 316.75 438.286 316.78 439.37 316.91C439.774 316.921 440.174 316.985 440.56 317.1Z" fill="#263238"></path> <path d="M392.82 347.67C392.911 347.37 393.042 347.084 393.21 346.82C393.623 346.08 394.109 345.383 394.66 344.74C396.473 342.568 398.847 340.936 401.524 340.022C404.202 339.109 407.078 338.949 409.84 339.56C410.669 339.74 411.479 339.998 412.26 340.33C412.554 340.436 412.833 340.581 413.09 340.76C413.09 340.86 411.85 340.29 409.77 339.92C407.071 339.426 404.289 339.633 401.692 340.518C399.094 341.404 396.766 342.94 394.93 344.98C393.52 346.54 392.91 347.72 392.82 347.67Z" fill="#263238"></path> <path d="M424.67 351.76C424.044 351.449 423.473 351.037 422.98 350.54C421.722 349.409 420.622 348.114 419.71 346.69C418.794 345.272 418.077 343.734 417.58 342.12C417.324 341.466 417.186 340.772 417.17 340.07C417.966 342.274 418.971 344.397 420.17 346.41C421.505 348.326 423.012 350.116 424.67 351.76Z" fill="#263238"></path> <path d="M470.331 333.42C470.331 333.42 470.411 333.37 470.581 333.32C470.833 333.28 471.09 333.28 471.341 333.32C471.82 333.376 472.281 333.532 472.696 333.776C473.111 334.021 473.47 334.349 473.751 334.74C474.16 335.337 474.399 336.033 474.443 336.755C474.487 337.477 474.334 338.198 474.001 338.84C473.628 339.603 473.075 340.266 472.391 340.77C471.639 341.295 470.757 341.603 469.841 341.66C468.912 341.733 467.985 341.489 467.211 340.97C466.493 340.465 466.004 339.695 465.851 338.83C465.715 338.11 465.758 337.368 465.976 336.669C466.194 335.97 466.58 335.335 467.101 334.82C468.951 333.25 470.581 333.19 470.551 333.34C470.521 333.49 470.461 333.34 470.301 333.39C470.061 333.449 469.827 333.529 469.601 333.63C468.771 333.97 468.012 334.462 467.361 335.08C466.927 335.559 466.61 336.133 466.437 336.757C466.263 337.38 466.237 338.035 466.361 338.67C466.5 339.406 466.924 340.056 467.541 340.48C468.22 340.93 469.03 341.137 469.841 341.07C470.663 341.021 471.455 340.748 472.131 340.28C472.758 339.839 473.264 339.248 473.601 338.56C473.918 337.994 474.075 337.353 474.056 336.705C474.036 336.057 473.841 335.426 473.491 334.88C472.995 334.144 472.23 333.631 471.361 333.45C471.019 333.418 470.675 333.408 470.331 333.42Z" fill="#263238"></path> <path d="M496.101 318.49C496.101 318.6 494.401 318.29 491.681 318.54C488.14 318.854 484.744 320.093 481.834 322.135C478.923 324.176 476.601 326.947 475.101 330.17C473.931 332.64 473.651 334.33 473.541 334.31C473.553 333.907 473.617 333.507 473.731 333.12C473.964 332.057 474.299 331.019 474.731 330.02C476.177 326.674 478.524 323.794 481.509 321.702C484.494 319.61 488.002 318.387 491.641 318.17C492.731 318.099 493.826 318.129 494.911 318.26C495.316 318.284 495.716 318.361 496.101 318.49Z" fill="#263238"></path> <path d="M448.4 349.06C448.491 348.76 448.623 348.474 448.79 348.21C449.207 347.472 449.693 346.776 450.24 346.13C452.056 343.962 454.431 342.333 457.107 341.42C459.783 340.507 462.658 340.344 465.42 340.95C466.252 341.132 467.065 341.39 467.85 341.72C468.145 341.823 468.422 341.971 468.67 342.16C468.67 342.25 467.43 341.68 465.35 341.31C462.652 340.816 459.872 341.023 457.276 341.908C454.68 342.794 452.354 344.33 450.52 346.37C449.1 347.93 448.49 349.11 448.4 349.06Z" fill="#263238"></path> <path d="M480.25 353.15C479.624 352.838 479.053 352.426 478.56 351.93C477.305 350.796 476.206 349.502 475.29 348.08C474.374 346.661 473.657 345.123 473.16 343.51C472.91 342.871 472.771 342.195 472.75 341.51C473.548 343.71 474.552 345.829 475.75 347.84C477.088 349.741 478.594 351.518 480.25 353.15Z" fill="#263238"></path> <path d="M539.711 250.25C495.411 206.48 440.251 196.03 440.251 196.03C407.451 215.59 385.321 248.42 368.471 287.82C396.731 313.97 433.071 339.04 464.171 341.34C513.351 328.91 539.711 250.25 539.711 250.25Z" fill="#A41F68"></path> <g opacity="0.4"> <path opacity="0.4" d="M539.711 250.25C495.411 206.48 440.251 196.03 440.251 196.03C407.451 215.59 385.321 248.42 368.471 287.82C396.731 313.97 433.071 339.04 464.171 341.34C513.351 328.91 539.711 250.25 539.711 250.25Z" fill="black"></path> </g> <path d="M523.922 285C523.875 284.904 523.838 284.803 523.812 284.7L523.532 283.8C523.282 282.98 522.932 281.8 522.472 280.28L518.581 267.05L518.771 267.16L497.042 274.16L497.182 274.03C497.165 274.068 497.145 274.105 497.122 274.14C497.062 274.22 496.912 274.26 496.862 274.22C496.799 274.192 496.75 274.142 496.722 274.08C496.717 274.027 496.717 273.973 496.722 273.92V273.68V273.24V272.35V270.57C496.722 269.37 496.722 268.16 496.722 266.92C496.722 264.45 496.722 261.92 496.722 259.3C496.722 256.68 496.612 254.02 496.462 251.3C496.336 248.522 496.049 245.754 495.602 243.01L495.912 243.21L476.042 247.82L464.042 250.61L463.782 250.67V250.41C462.002 241.07 460.302 232.2 458.782 224.02L459.081 224.21C448.748 226.991 438.186 228.835 427.522 229.72H427.362V229.56C426.532 222.76 425.872 217.36 425.422 213.63C425.202 211.8 425.042 210.37 424.922 209.39C424.872 208.92 424.842 208.56 424.812 208.29C424.805 208.167 424.805 208.043 424.812 207.92C424.852 208.036 424.875 208.157 424.882 208.28C424.882 208.55 424.982 208.91 425.052 209.37C425.182 210.37 425.382 211.78 425.632 213.61C426.122 217.33 426.832 222.73 427.722 229.52L427.542 229.37C438.11 228.439 448.577 226.582 458.821 223.82L459.071 223.75V224C460.641 232.18 462.351 241.05 464.141 250.38L463.831 250.18L475.831 247.38L495.592 242.8L495.852 242.74V243C496.303 245.764 496.587 248.552 496.701 251.35C496.851 254.08 496.911 256.76 496.951 259.35C496.991 261.94 496.951 264.51 496.951 266.98C496.951 268.22 496.951 269.44 496.951 270.63C496.951 271.23 496.951 271.82 496.951 272.41V273.29V273.71V273.91V273.96C496.951 273.96 497.001 273.96 496.951 273.96C496.901 273.96 496.851 273.96 496.821 274.01C496.791 274.06 496.821 274.01 496.821 274.01L496.692 273.93L496.581 273.88L496.831 273.8L518.682 266.82L518.831 266.77V266.93L522.581 280.2L523.581 283.74L523.821 284.65C523.874 284.76 523.908 284.879 523.922 285Z" fill="#A41F68"></path> <path d="M515.451 298.93C515.409 298.857 515.376 298.78 515.351 298.7C515.281 298.52 515.191 298.29 515.081 297.99L514.081 295.23C513.221 292.79 511.981 289.23 510.401 284.72L510.571 284.81L484.671 291.73L484.431 291.79V291.55C483.811 286.78 483.121 281.67 482.361 276.28C481.601 270.89 480.791 265.21 479.751 259.38L480.061 259.58L461.061 263.99L448.221 266.99L447.961 267.05V266.78C446.181 257.45 444.491 248.58 442.961 240.4L443.261 240.58C432.928 243.363 422.365 245.211 411.701 246.1H411.541V245.95C410.711 239.15 410.051 233.74 409.601 230.02C409.391 228.18 409.221 226.76 409.111 225.77C409.061 225.31 409.021 224.94 408.991 224.68C408.98 224.553 408.98 224.426 408.991 224.3C409.024 224.421 409.047 224.545 409.061 224.67C409.061 224.94 409.151 225.3 409.221 225.76C409.351 226.76 409.551 228.16 409.801 229.99C410.291 233.72 411.001 239.11 411.891 245.9L411.711 245.76C422.32 244.802 432.824 242.912 443.101 240.11L443.351 240.04V240.29C444.921 248.47 446.631 257.29 448.431 266.67L448.121 266.46L460.951 263.46L479.951 259.07L480.211 259.01V259.27C481.211 265.12 482.041 270.8 482.801 276.19C483.561 281.58 484.221 286.7 484.801 291.47L484.531 291.29L510.471 284.52H510.591L510.641 284.64C512.161 289.17 513.361 292.74 514.191 295.19C514.581 296.4 514.891 297.33 515.111 297.98C515.201 298.28 515.281 298.51 515.331 298.69L515.451 298.93Z" fill="#FAFAFA"></path> <path d="M498.101 320.49C498.101 320.49 498.101 320.2 498.101 319.66C498.101 319.12 498.211 318.29 498.301 317.25C498.491 315.11 498.761 312 499.111 308.02L499.281 308.16L472.421 317.08L472.191 317.16V316.92C470.071 305.92 467.571 292.92 464.851 278.83L465.161 279.03L448.731 282.82L433.361 286.38L433.101 286.44L433.051 286.18C431.271 276.84 429.581 267.97 428.051 259.8L428.341 259.98C418.007 262.762 407.445 264.609 396.781 265.5H396.621V265.34C395.791 258.54 395.131 253.13 394.681 249.41C394.471 247.57 394.301 246.15 394.191 245.17C394.141 244.7 394.101 244.34 394.071 244.08C394.06 243.954 394.06 243.827 394.071 243.7C394.071 243.7 394.071 243.83 394.141 244.07C394.211 244.31 394.231 244.69 394.301 245.16C394.431 246.16 394.631 247.56 394.881 249.39C395.371 253.11 396.071 258.5 396.971 265.3L396.791 265.16C407.423 264.209 417.95 262.322 428.251 259.52L428.501 259.45L428.551 259.7C430.121 267.87 431.831 276.7 433.631 286.07L433.321 285.87L448.691 282.3L465.101 278.53L465.361 278.47V278.74C468.041 292.83 470.521 305.84 472.611 316.84L472.341 316.68L499.251 307.91L499.431 307.85V308.05C499.031 312.05 498.721 315.12 498.501 317.26C498.391 318.26 498.301 319.1 498.241 319.67C498.181 320.24 498.101 320.49 498.101 320.49Z" fill="#A41F68"></path> <path d="M462.351 341.18L462.291 340.99L462.131 340.42C462.001 339.89 461.811 339.15 461.561 338.21C461.081 336.21 460.381 333.39 459.491 329.79C458.601 326.19 457.581 321.79 456.391 316.79C455.201 311.79 453.911 306.1 452.711 299.88L452.991 300.07L421.201 307.47L420.931 307.54L420.881 307.27C420.721 306.4 420.541 305.46 420.361 304.52C418.781 296.27 417.261 288.32 415.841 280.89L416.151 281.08C405.819 283.869 395.256 285.717 384.591 286.6H384.411V286.42C383.601 279.73 382.941 274.32 382.491 270.57C382.271 268.72 382.111 267.28 381.991 266.28C381.941 265.81 381.901 265.44 381.881 265.16C381.868 265.034 381.868 264.907 381.881 264.78C381.922 264.904 381.949 265.031 381.961 265.16L382.121 266.26C382.261 267.26 382.461 268.7 382.711 270.54C383.211 274.29 383.921 279.69 384.801 286.38L384.611 286.22C395.243 285.271 405.771 283.383 416.071 280.58L416.321 280.51L416.381 280.77C417.801 288.21 419.331 296.15 420.921 304.4C421.101 305.34 421.281 306.28 421.441 307.15L421.131 306.95L452.941 299.59L453.171 299.54L453.221 299.78C454.391 305.98 455.701 311.64 456.821 316.68C457.941 321.72 458.971 326.11 459.821 329.75C460.671 333.39 461.311 336.21 461.761 338.19C461.981 339.19 462.141 339.89 462.261 340.43L462.381 341C462.351 341.11 462.361 341.18 462.351 341.18Z" fill="#FAFAFA"></path> <path d="M445.46 337.6C445.298 337.152 445.174 336.69 445.09 336.22L444.23 332.361C443.53 329.091 442.57 324.511 441.52 319.361L441.83 319.56L438.83 320.26C432.98 321.62 427.67 322.82 423.83 323.66L419.27 324.66C418.715 324.799 418.15 324.896 417.58 324.951C418.112 324.74 418.66 324.576 419.22 324.461L423.75 323.331C427.57 322.391 432.87 321.131 438.75 319.771L441.75 319.081L442.01 319.021V319.28C443.01 324.47 443.93 329.06 444.55 332.35C444.83 333.94 445.07 335.241 445.25 336.241C445.354 336.688 445.425 337.143 445.46 337.6Z" fill="#A41F68"></path> <path d="M408.581 319.38C408.419 318.921 408.295 318.45 408.211 317.97C407.991 316.97 407.711 315.65 407.381 314.08C406.701 310.8 405.801 306.25 404.831 301.22C404.781 300.91 404.721 300.61 404.661 300.32L404.991 300.52C400.231 301.81 395.911 302.73 392.781 303.29C391.221 303.58 389.951 303.78 389.071 303.9C388.62 303.992 388.161 304.039 387.701 304.04C388.137 303.891 388.586 303.781 389.041 303.71L392.711 302.94C395.821 302.28 400.111 301.31 404.851 300.02L405.121 299.95L405.171 300.22L405.351 301.12C406.351 306.12 407.151 310.71 407.741 314.01C408.011 315.59 408.231 316.91 408.411 317.93C408.513 318.407 408.57 318.893 408.581 319.38Z" fill="#A41F68"></path> <path d="M371.47 290.57C370.859 288.515 370.589 286.373 370.67 284.23C371.057 285.235 371.279 286.295 371.33 287.37C371.553 288.422 371.6 289.503 371.47 290.57Z" fill="#A41F68"></path> <path d="M531.391 270.39C531.358 270.31 531.338 270.226 531.331 270.14C531.331 269.96 531.241 269.72 531.181 269.41C531.061 268.74 530.891 267.79 530.661 266.56C530.211 264.04 529.571 260.38 528.751 255.76L528.921 255.88L513.811 258.3H513.611V258.11C512.091 249.02 510.271 238.11 508.261 226.11L508.561 226.31L487.941 231.11L477.431 233.54L477.181 233.6L477.121 233.35C474.891 224.27 472.811 215.67 471.251 207.74L471.511 207.93L440.821 212.64H440.671V212.48C440.081 207.56 439.611 203.67 439.281 200.98C439.141 199.66 439.021 198.64 438.941 197.92C438.941 197.6 438.881 197.34 438.861 197.14C438.846 197.051 438.846 196.959 438.861 196.87C438.861 196.87 438.861 196.96 438.861 197.13L438.981 197.91L439.401 200.96C439.761 203.65 440.281 207.53 440.931 212.44L440.761 212.31L471.421 207.43H471.641L471.691 207.65C473.271 215.56 475.361 224.16 477.601 233.23L477.291 233.04L487.801 230.6L508.421 225.82L508.681 225.76V226.02C510.681 238.02 512.431 249.02 513.921 258.02L513.701 257.86L528.821 255.54H528.971V255.68C529.731 260.31 530.331 263.98 530.741 266.5C530.941 267.74 531.091 268.69 531.191 269.37C531.241 269.68 531.271 269.92 531.301 270.11C531.346 270.198 531.376 270.293 531.391 270.39Z" fill="#FAFAFA"></path> <path d="M534.77 249.5C534.681 249.548 534.587 249.585 534.49 249.61L533.66 249.86C532.94 250.1 531.85 250.34 530.49 250.86C526.636 252.177 522.913 253.851 519.37 255.86C514.115 258.819 509.222 262.38 504.79 266.47C499.362 271.478 494.503 277.068 490.3 283.14C486.133 289.243 482.426 295.647 479.21 302.3C476.21 308.41 473.79 314.06 471.83 318.83C469.87 323.6 468.35 327.49 467.29 330.17C466.76 331.48 466.35 332.52 466.05 333.26C465.92 333.58 465.81 333.85 465.72 334.05C465.685 334.144 465.642 334.234 465.59 334.32C465.605 334.221 465.632 334.123 465.67 334.03C465.74 333.82 465.84 333.55 465.96 333.22C466.227 332.473 466.607 331.433 467.1 330.1C468.1 327.39 469.58 323.49 471.49 318.69C473.4 313.89 475.79 308.23 478.78 302.08C481.988 295.389 485.699 288.951 489.88 282.82C494.1 276.713 498.994 271.101 504.47 266.09C508.939 261.994 513.88 258.445 519.19 255.52C522.765 253.54 526.531 251.925 530.43 250.7C531.8 250.23 532.91 250.02 533.64 249.81L534.48 249.61C534.573 249.565 534.67 249.528 534.77 249.5Z" fill="#263238"></path> <path d="M217.32 160.82L217.46 163.51C217.782 163.201 218.186 162.991 218.623 162.907C219.061 162.822 219.514 162.866 219.927 163.033C220.341 163.2 220.697 163.483 220.953 163.848C221.209 164.213 221.354 164.645 221.37 165.09C221.404 165.536 221.308 165.982 221.093 166.374C220.879 166.767 220.555 167.088 220.161 167.3C219.767 167.512 219.32 167.605 218.874 167.567C218.429 167.53 218.004 167.364 217.65 167.09L217.8 169.79C218.196 169.404 218.719 169.177 219.27 169.15C219.891 169.117 220.499 169.332 220.962 169.747C221.424 170.162 221.702 170.744 221.735 171.365C221.768 171.986 221.554 172.594 221.138 173.056C220.723 173.519 220.141 173.797 219.52 173.83C218.969 173.857 218.427 173.687 217.99 173.35L218.13 176.05C218.528 175.668 219.05 175.441 219.6 175.41C220.206 175.4 220.791 175.626 221.234 176.039C221.676 176.452 221.942 177.02 221.974 177.625C222.006 178.229 221.803 178.823 221.407 179.281C221.011 179.738 220.453 180.025 219.85 180.08C219.3 180.113 218.757 179.946 218.32 179.61L218.47 182.31C218.866 181.924 219.389 181.697 219.94 181.67C220.546 181.66 221.131 181.886 221.574 182.299C222.016 182.712 222.282 183.28 222.314 183.885C222.346 184.489 222.143 185.083 221.747 185.541C221.351 185.998 220.793 186.285 220.19 186.34C219.639 186.372 219.094 186.202 218.66 185.86L218.8 188.57C219.124 188.261 219.53 188.052 219.969 187.967C220.408 187.881 220.863 187.924 221.278 188.089C221.694 188.254 222.054 188.535 222.315 188.898C222.576 189.261 222.728 189.692 222.752 190.139C222.776 190.585 222.671 191.03 222.45 191.419C222.229 191.808 221.901 192.126 221.506 192.334C221.11 192.543 220.662 192.633 220.217 192.595C219.771 192.557 219.345 192.392 218.99 192.12L219.14 194.83C219.536 194.444 220.059 194.217 220.61 194.19C221.216 194.18 221.801 194.406 222.244 194.819C222.686 195.232 222.952 195.8 222.984 196.405C223.016 197.009 222.813 197.603 222.417 198.061C222.021 198.518 221.463 198.805 220.86 198.86C220.309 198.892 219.765 198.722 219.33 198.38L219.42 200.06L291.51 198.33L287.86 156.33L217.32 160.82Z" fill="#EBEBEB"></path> <path d="M215.72 159.04L215.87 161.74C216.266 161.356 216.788 161.129 217.34 161.1C217.717 161.076 218.095 161.145 218.44 161.299C218.786 161.453 219.088 161.688 219.323 161.985C219.557 162.282 219.716 162.631 219.786 163.003C219.856 163.374 219.835 163.758 219.725 164.119C219.614 164.481 219.418 164.81 219.152 165.08C218.886 165.349 218.559 165.549 218.199 165.665C217.839 165.78 217.456 165.806 217.083 165.741C216.711 165.675 216.359 165.521 216.06 165.29L216.2 167.99C216.521 167.681 216.925 167.472 217.363 167.387C217.8 167.302 218.253 167.346 218.667 167.513C219.08 167.68 219.436 167.963 219.692 168.328C219.948 168.693 220.093 169.125 220.11 169.57C220.144 170.016 220.047 170.462 219.833 170.855C219.618 171.247 219.294 171.568 218.9 171.78C218.506 171.992 218.06 172.085 217.614 172.048C217.168 172.01 216.743 171.844 216.39 171.57L216.54 174.27C216.936 173.886 217.458 173.659 218.01 173.63C218.386 173.608 218.762 173.678 219.106 173.833C219.45 173.988 219.751 174.224 219.984 174.52C220.217 174.816 220.375 175.165 220.444 175.535C220.514 175.906 220.493 176.288 220.383 176.648C220.273 177.009 220.077 177.338 219.813 177.607C219.549 177.876 219.223 178.077 218.865 178.193C218.506 178.309 218.124 178.336 217.753 178.273C217.381 178.21 217.03 178.058 216.73 177.83L216.87 180.53C217.268 180.148 217.789 179.921 218.34 179.89C218.945 179.881 219.53 180.106 219.973 180.519C220.416 180.932 220.681 181.5 220.713 182.105C220.746 182.709 220.543 183.303 220.147 183.761C219.751 184.219 219.193 184.505 218.59 184.56C218.04 184.593 217.497 184.426 217.06 184.09L217.21 186.79C217.606 186.406 218.128 186.179 218.68 186.15C219.285 186.141 219.87 186.366 220.313 186.779C220.756 187.192 221.021 187.76 221.053 188.365C221.086 188.969 220.883 189.563 220.487 190.021C220.091 190.479 219.533 190.765 218.93 190.82C218.378 190.851 217.835 190.68 217.4 190.34L217.54 193.05C217.864 192.741 218.269 192.532 218.708 192.447C219.148 192.361 219.602 192.404 220.018 192.569C220.434 192.734 220.793 193.015 221.055 193.378C221.316 193.741 221.467 194.172 221.491 194.619C221.515 195.066 221.41 195.51 221.189 195.899C220.969 196.288 220.641 196.606 220.245 196.814C219.849 197.023 219.402 197.113 218.956 197.075C218.51 197.038 218.085 196.873 217.73 196.6L217.82 198.28L289.9 194.43L287.8 155.2L215.72 159.04Z" fill="#F5F5F5"></path> <path d="M288.21 162.941C288.21 163.091 272.09 164.061 252.21 165.131C232.33 166.201 216.21 166.941 216.21 166.801C216.21 166.661 232.33 165.671 252.21 164.611C272.09 163.551 288.21 162.821 288.21 162.941Z" fill="#E0E0E0"></path> <path d="M288.55 169.22C288.55 169.36 272.43 170.34 252.55 171.41C232.67 172.48 216.5 173.22 216.5 173.07C216.5 172.92 232.61 171.95 252.5 170.89C272.39 169.83 288.54 169.07 288.55 169.22Z" fill="#E0E0E0"></path> <path d="M288.89 175.491C288.89 175.641 272.76 176.621 252.89 177.681C233.02 178.741 216.89 179.491 216.84 179.351C216.79 179.211 232.96 178.231 252.84 177.161C272.72 176.091 288.88 175.351 288.89 175.491Z" fill="#E0E0E0"></path> <path d="M289.22 181.82C289.22 181.96 273.1 182.94 253.22 184.01C233.34 185.08 217.17 185.82 217.17 185.68C217.17 185.54 233.29 184.55 253.17 183.49C273.05 182.43 289.21 181.63 289.22 181.82Z" fill="#E0E0E0"></path> <path d="M289.56 188.051C289.56 188.191 273.44 189.171 253.56 190.231C233.68 191.291 217.51 192.051 217.5 191.901C217.49 191.751 233.62 190.781 253.5 189.711C273.38 188.641 289.55 187.901 289.56 188.051Z" fill="#E0E0E0"></path> <path d="M225.981 158.498L225.481 158.524L227.578 197.748L228.078 197.722L225.981 158.498Z" fill="#A41F68"></path> <path d="M234.37 197.38C234.23 197.38 233.64 188.61 233.06 177.78C232.48 166.95 232.13 158.16 232.27 158.15C232.41 158.14 233 166.92 233.58 177.75C234.16 188.58 234.52 197.37 234.37 197.38Z" fill="#E0E0E0"></path> <path d="M221.54 198.06C221.4 198.06 220.81 189.3 220.23 178.47C219.65 167.64 219.3 158.82 219.44 158.82C219.58 158.82 220.17 167.58 220.75 178.42C221.33 189.26 221.69 198.06 221.54 198.06Z" fill="#E0E0E0"></path> <path d="M241.4 197C241.26 197 240.67 188.23 240.09 177.4C239.51 166.57 239.16 157.82 239.3 157.82C239.44 157.82 240.03 166.59 240.61 177.43C241.19 188.27 241.54 196.99 241.4 197Z" fill="#E0E0E0"></path> <path d="M248.43 196.63C248.28 196.63 247.7 187.86 247.12 177.03C246.54 166.2 246.19 157.41 246.33 157.4C246.47 157.39 247.06 166.16 247.64 177C248.22 187.84 248.57 196.62 248.43 196.63Z" fill="#E0E0E0"></path> <path d="M255.45 196.251C255.31 196.251 254.72 187.481 254.15 176.651C253.58 165.821 253.21 157.031 253.36 157.021C253.51 157.011 254.09 165.791 254.67 176.621C255.25 187.451 255.6 196.241 255.45 196.251Z" fill="#E0E0E0"></path> <path d="M262.48 195.87C262.34 195.87 261.75 187.11 261.17 176.27C260.59 165.43 260.24 156.65 260.38 156.65C260.52 156.65 261.11 165.41 261.69 176.25C262.27 187.09 262.63 195.87 262.48 195.87Z" fill="#E0E0E0"></path> <path d="M269.51 195.501C269.37 195.501 268.78 186.731 268.2 175.901C267.62 165.071 267.27 156.281 267.41 156.271C267.55 156.261 268.14 165.041 268.72 175.871C269.3 186.701 269.65 195.491 269.51 195.501Z" fill="#E0E0E0"></path> <path d="M276.54 195.121C276.39 195.121 275.81 186.351 275.23 175.521C274.65 164.691 274.29 155.901 274.44 155.891C274.59 155.881 275.17 164.661 275.75 175.501C276.33 186.341 276.68 195.111 276.54 195.121Z" fill="#E0E0E0"></path> <path d="M283.56 194.751C283.42 194.751 282.831 185.981 282.251 175.151C281.671 164.321 281.32 155.531 281.46 155.521C281.6 155.511 282.191 164.281 282.771 175.121C283.351 185.961 283.71 194.741 283.56 194.751Z" fill="#E0E0E0"></path> <path d="M282.69 170.99C282.525 171.043 282.353 171.07 282.18 171.07L280.7 171.2L275.29 171.56C270.71 171.85 264.38 172.2 257.4 172.56C250.42 172.92 244.07 173.17 239.49 173.31C234.91 173.45 232.06 173.47 232.07 173.31L257.37 172.04L275.27 171.21L280.69 171H282.17C282.342 170.969 282.518 170.965 282.69 170.99Z" fill="#263238"></path> <path d="M284.15 178.16C284.15 178.3 272.52 178.95 258.15 179.61C243.78 180.27 232.15 180.69 232.15 180.54C232.15 180.39 243.77 179.75 258.15 179.09C272.53 178.43 284.1 178.01 284.15 178.16Z" fill="#263238"></path> <path d="M284.92 184.43C284.92 184.58 273.3 185.23 258.92 185.89C244.54 186.55 232.92 186.96 232.92 186.82C232.92 186.68 244.54 186.02 258.92 185.37C273.3 184.72 284.91 184.29 284.92 184.43Z" fill="#263238"></path> <path d="M223.79 163.15C224.026 164.728 224.851 166.158 226.1 167.15C226.661 167.536 227.309 167.778 227.986 167.852C228.662 167.926 229.347 167.832 229.979 167.577C230.61 167.322 231.168 166.915 231.604 166.391C232.039 165.868 232.338 165.245 232.474 164.577C232.609 163.91 232.577 163.22 232.381 162.568C232.184 161.916 231.829 161.323 231.347 160.841C230.866 160.36 230.272 160.006 229.62 159.81C228.968 159.615 228.277 159.584 227.61 159.72" fill="#E0E0E0"></path> <path d="M223.62 163.14C223.654 163.788 223.88 164.411 224.269 164.931C224.658 165.45 225.192 165.843 225.803 166.058C226.415 166.274 227.077 166.304 227.706 166.144C228.334 165.984 228.901 165.64 229.335 165.158C229.769 164.675 230.049 164.075 230.142 163.433C230.234 162.791 230.134 162.136 229.854 161.55C229.574 160.965 229.127 160.476 228.569 160.145C228.011 159.814 227.368 159.656 226.72 159.69C225.851 159.737 225.037 160.126 224.455 160.773C223.874 161.42 223.574 162.272 223.62 163.14Z" fill="#455A64"></path> <path d="M221.73 161.931C221.838 162.386 222.103 162.79 222.478 163.07C222.853 163.351 223.315 163.491 223.783 163.466C224.25 163.441 224.694 163.253 225.038 162.934C225.381 162.615 225.601 162.185 225.66 161.721C225.697 161.43 225.669 161.135 225.58 160.856C225.49 160.577 225.34 160.322 225.141 160.107C224.941 159.892 224.697 159.724 224.425 159.615C224.154 159.505 223.862 159.456 223.569 159.472C223.277 159.487 222.991 159.567 222.733 159.705C222.474 159.843 222.25 160.036 222.074 160.271C221.899 160.505 221.777 160.776 221.717 161.062C221.658 161.349 221.662 161.646 221.73 161.931Z" fill="#455A64"></path> <path d="M223.57 163.75C223.57 163.67 223.88 163.69 224.28 163.54C224.533 163.449 224.763 163.306 224.956 163.12C225.149 162.934 225.3 162.709 225.4 162.46C225.483 162.202 225.512 161.93 225.487 161.66C225.461 161.39 225.38 161.128 225.25 160.89C225.05 160.5 224.82 160.32 224.86 160.25C224.9 160.18 225.22 160.25 225.55 160.68C225.765 160.951 225.908 161.272 225.967 161.612C226.026 161.953 226 162.302 225.89 162.63C225.769 162.956 225.565 163.244 225.299 163.466C225.032 163.689 224.712 163.839 224.37 163.9C223.84 163.98 223.55 163.82 223.57 163.75Z" fill="#263238"></path> <path d="M225.22 160.62C225.29 160.49 225.78 160.62 226.33 160.5C226.88 160.38 227.26 160.03 227.33 160.12C227.4 160.21 227.18 160.82 226.4 161.01C225.62 161.2 225.1 160.72 225.22 160.62Z" fill="#263238"></path> <path d="M225.72 165.6C225.58 165.6 225.44 164.99 224.92 164.51C224.4 164.03 223.79 163.92 223.79 163.78C223.79 163.64 224.58 163.48 225.28 164.13C225.98 164.78 225.86 165.63 225.72 165.6Z" fill="#263238"></path> <path d="M279.19 160.82C279.429 162.397 280.254 163.826 281.5 164.82C282.061 165.206 282.709 165.447 283.386 165.522C284.063 165.596 284.748 165.502 285.379 165.247C286.01 164.992 286.569 164.585 287.004 164.061C287.44 163.538 287.738 162.914 287.874 162.247C288.01 161.58 287.978 160.889 287.781 160.237C287.585 159.586 287.23 158.992 286.748 158.511C286.266 158.03 285.672 157.676 285.02 157.48C284.368 157.285 283.678 157.254 283.01 157.39" fill="#E0E0E0"></path> <path d="M285.53 159.95C285.563 160.576 285.409 161.197 285.089 161.736C284.769 162.274 284.296 162.706 283.73 162.976C283.165 163.246 282.532 163.342 281.912 163.253C281.292 163.164 280.712 162.892 280.246 162.474C279.78 162.055 279.448 161.508 279.293 160.9C279.138 160.293 279.166 159.654 279.374 159.063C279.582 158.472 279.961 157.956 280.462 157.58C280.963 157.204 281.564 156.985 282.19 156.95C282.606 156.927 283.023 156.987 283.417 157.125C283.81 157.264 284.172 157.478 284.483 157.757C284.793 158.036 285.045 158.373 285.225 158.749C285.405 159.126 285.508 159.534 285.53 159.95Z" fill="#A41F68"></path> <path d="M287.21 158.59C287.229 158.966 287.136 159.338 286.944 159.66C286.752 159.983 286.468 160.241 286.129 160.403C285.79 160.564 285.411 160.622 285.039 160.568C284.668 160.514 284.32 160.351 284.041 160.1C283.762 159.849 283.563 159.52 283.471 159.156C283.378 158.792 283.395 158.409 283.521 158.055C283.646 157.701 283.873 157.392 284.173 157.167C284.474 156.942 284.835 156.811 285.21 156.79C285.459 156.776 285.71 156.811 285.946 156.893C286.182 156.976 286.4 157.105 286.586 157.272C286.772 157.44 286.923 157.643 287.03 157.869C287.137 158.095 287.198 158.34 287.21 158.59Z" fill="#A41F68"></path> <path d="M285.641 160.53C285.641 160.53 285.401 160.78 284.891 160.76C284.554 160.741 284.228 160.633 283.947 160.447C283.666 160.261 283.439 160.003 283.291 159.7C283.15 159.397 283.086 159.064 283.107 158.73C283.128 158.396 283.233 158.073 283.411 157.79C283.691 157.36 284.011 157.25 284.041 157.3C284.071 157.35 283.891 157.57 283.741 157.96C283.639 158.199 283.587 158.456 283.587 158.715C283.587 158.975 283.639 159.231 283.741 159.47C283.859 159.701 284.026 159.903 284.23 160.063C284.433 160.224 284.669 160.339 284.921 160.4C285.341 160.5 285.621 160.45 285.641 160.53Z" fill="#263238"></path> <path d="M283.73 157.69C283.84 157.79 283.37 158.29 282.59 158.2C281.81 158.11 281.48 157.51 281.59 157.43C281.7 157.35 282.1 157.63 282.64 157.69C283.18 157.75 283.65 157.57 283.73 157.69Z" fill="#263238"></path> <path d="M283.761 162.53C283.621 162.53 283.431 161.78 284.031 161.07C284.631 160.36 285.451 160.44 285.431 160.58C285.411 160.72 284.861 160.89 284.431 161.41C284.001 161.93 283.911 162.52 283.761 162.53Z" fill="#263238"></path> <path d="M162.82 254.2L221.74 261.71L220.95 240.15L162.82 254.2Z" fill="#E0E0E0"></path> <path d="M220.914 240.573L164.351 235.854L162.784 254.628L219.347 259.348L220.914 240.573Z" fill="#455A64"></path> <path d="M212.96 246.21C212.96 246.35 203.46 245.68 191.77 244.7C180.08 243.72 170.62 242.82 170.63 242.7C170.64 242.58 180.13 243.23 191.82 244.2C203.51 245.17 212.97 246.07 212.96 246.21Z" fill="#263238"></path> <path d="M212.851 251.11C212.851 251.25 203.351 250.58 191.661 249.6C179.971 248.62 170.511 247.72 170.521 247.6C170.531 247.48 180.011 248.13 191.711 249.1C203.411 250.07 212.861 250.97 212.851 251.11Z" fill="#263238"></path> <path d="M181.12 234.561L203.03 236.391L201.88 237.371L203.38 238.681L201.59 239.501L203.19 240.921L180.22 239.001L181.66 237.791L180.94 236.491L182.18 235.861L181.12 234.561Z" fill="#EBEBEB"></path> <path d="M129.41 200.59C129.64 200.977 129.765 201.418 129.769 201.869C129.774 202.32 129.66 202.763 129.437 203.155C129.214 203.547 128.892 203.873 128.502 204.1C128.113 204.327 127.67 204.446 127.22 204.446C126.769 204.446 126.326 204.327 125.937 204.1C125.547 203.873 125.225 203.547 125.002 203.155C124.78 202.763 124.665 202.32 124.67 201.869C124.675 201.418 124.799 200.977 125.03 200.59H122.03C122.261 200.981 122.385 201.426 122.39 201.88C122.392 202.273 122.304 202.662 122.131 203.015C121.958 203.369 121.706 203.677 121.394 203.917C121.083 204.157 120.72 204.322 120.334 204.398C119.948 204.474 119.55 204.46 119.17 204.357C118.79 204.253 118.44 204.064 118.146 203.802C117.852 203.541 117.622 203.215 117.475 202.851C117.328 202.486 117.267 202.092 117.297 201.7C117.328 201.308 117.448 200.928 117.65 200.59H114.7C114.936 200.979 115.06 201.425 115.06 201.88C115.062 202.273 114.974 202.662 114.801 203.015C114.628 203.369 114.376 203.677 114.064 203.917C113.753 204.157 113.39 204.322 113.004 204.398C112.618 204.474 112.22 204.46 111.84 204.357C111.46 204.253 111.11 204.064 110.816 203.802C110.522 203.541 110.292 203.215 110.145 202.851C109.998 202.486 109.937 202.092 109.967 201.7C109.998 201.308 110.118 200.928 110.32 200.59H107.32C107.556 200.979 107.68 201.425 107.68 201.88C107.701 202.227 107.652 202.576 107.534 202.904C107.416 203.231 107.232 203.531 106.993 203.785C106.755 204.039 106.467 204.241 106.147 204.38C105.828 204.518 105.483 204.589 105.135 204.589C104.786 204.589 104.442 204.518 104.122 204.38C103.802 204.241 103.514 204.039 103.276 203.785C103.037 203.531 102.854 203.231 102.735 202.904C102.617 202.576 102.568 202.227 102.59 201.88C102.589 201.425 102.714 200.979 102.95 200.59H99.9496C100.186 200.979 100.31 201.425 100.31 201.88C100.331 202.227 100.282 202.576 100.164 202.904C100.046 203.231 99.8618 203.531 99.6233 203.785C99.3848 204.039 99.0969 204.241 98.7772 204.38C98.4575 204.518 98.1129 204.589 97.7646 204.589C97.4163 204.589 97.0717 204.518 96.752 204.38C96.4323 204.241 96.1444 204.039 95.9059 203.785C95.6675 203.531 95.4835 203.231 95.3655 202.904C95.2475 202.576 95.1978 202.227 95.2196 201.88C95.219 201.425 95.3436 200.979 95.5796 200.59H92.5796C92.8105 200.977 92.9347 201.418 92.9395 201.869C92.9443 202.32 92.8296 202.763 92.607 203.155C92.3844 203.547 92.062 203.873 91.6725 204.1C91.2829 204.327 90.8403 204.446 90.3896 204.446C89.9389 204.446 89.4963 204.327 89.1068 204.1C88.7173 203.873 88.3948 203.547 88.1722 203.155C87.9497 202.763 87.8349 202.32 87.8398 201.869C87.8446 201.418 87.9687 200.977 88.1996 200.59H86.3496V253.21L132.35 255.74L130.15 200.59H129.41Z" fill="#E0E0E0"></path> <path d="M128.74 199.15C128.971 199.537 129.095 199.979 129.1 200.429C129.105 200.88 128.99 201.324 128.767 201.716C128.545 202.108 128.222 202.434 127.833 202.66C127.443 202.887 127.001 203.007 126.55 203.007C126.099 203.007 125.657 202.887 125.267 202.66C124.878 202.434 124.555 202.108 124.333 201.716C124.11 201.324 123.995 200.88 124 200.429C124.005 199.979 124.129 199.537 124.36 199.15H121.41C121.642 199.541 121.766 199.986 121.77 200.44C121.773 200.834 121.684 201.222 121.511 201.576C121.339 201.929 121.087 202.238 120.775 202.478C120.463 202.718 120.1 202.882 119.714 202.958C119.328 203.034 118.93 203.02 118.551 202.917C118.171 202.814 117.82 202.624 117.526 202.363C117.232 202.102 117.003 201.776 116.856 201.411C116.708 201.046 116.647 200.652 116.678 200.26C116.708 199.868 116.829 199.488 117.03 199.15H114.03C114.266 199.539 114.391 199.986 114.39 200.44C114.393 200.834 114.304 201.222 114.131 201.576C113.959 201.929 113.707 202.238 113.395 202.478C113.083 202.718 112.72 202.882 112.334 202.958C111.948 203.034 111.55 203.02 111.171 202.917C110.791 202.814 110.44 202.624 110.146 202.363C109.852 202.102 109.623 201.776 109.476 201.411C109.328 201.046 109.267 200.652 109.298 200.26C109.328 199.868 109.449 199.488 109.65 199.15H106.7C106.936 199.539 107.061 199.986 107.06 200.44C107.082 200.788 107.032 201.136 106.914 201.464C106.796 201.792 106.612 202.092 106.374 202.346C106.135 202.6 105.847 202.802 105.528 202.94C105.208 203.079 104.863 203.15 104.515 203.15C104.167 203.15 103.822 203.079 103.503 202.94C103.183 202.802 102.895 202.6 102.656 202.346C102.418 202.092 102.234 201.792 102.116 201.464C101.998 201.136 101.948 200.788 101.97 200.44C101.97 199.986 102.094 199.539 102.33 199.15H99.3801C99.5816 199.488 99.7022 199.868 99.7325 200.26C99.7628 200.652 99.7019 201.046 99.5547 201.411C99.4075 201.776 99.1778 202.102 98.8838 202.363C98.5897 202.624 98.2392 202.814 97.8597 202.917C97.4802 203.02 97.0818 203.034 96.696 202.958C96.3101 202.882 95.947 202.718 95.6353 202.478C95.3235 202.238 95.0714 201.929 94.8988 201.576C94.7262 201.222 94.6376 200.834 94.6401 200.44C94.6395 199.986 94.7641 199.539 95.0001 199.15H92.1001C92.331 199.537 92.4552 199.979 92.46 200.429C92.4648 200.88 92.3501 201.324 92.1275 201.716C91.9049 202.108 91.5825 202.434 91.193 202.66C90.8035 202.887 90.3608 203.007 89.9101 203.007C89.4594 203.007 89.0168 202.887 88.6273 202.66C88.2377 202.434 87.9153 202.108 87.6927 201.716C87.4702 201.324 87.3555 200.88 87.3603 200.429C87.3651 199.979 87.4892 199.537 87.7201 199.15H85.8701V251.82H129.71V199.15H128.74Z" fill="#F5F5F5"></path> <path d="M83.2001 254.2C83.0501 254.2 82.8101 241.45 82.6501 225.72C82.4901 209.99 82.4701 197.23 82.6501 197.23C82.8301 197.23 83.0401 209.98 83.2001 225.71C83.3601 241.44 83.3401 254.2 83.2001 254.2Z" fill="#E0E0E0"></path> <path d="M90.2404 254.13C90.0904 254.13 89.8404 241.38 89.6804 225.65C89.5204 209.92 89.5104 197.16 89.6804 197.16C89.8504 197.16 90.0704 209.91 90.2304 225.64C90.3904 241.37 90.3804 254.13 90.2404 254.13Z" fill="#E0E0E0"></path> <path d="M93.7303 254.13C93.5903 254.13 93.3403 241.38 93.1803 225.65C93.0203 209.92 93.0003 197.16 93.1803 197.16C93.3603 197.16 93.5703 209.91 93.7303 225.64C93.8903 241.37 93.8703 254.13 93.7303 254.13Z" fill="#E0E0E0"></path> <path d="M100.84 254.13C100.7 254.13 100.45 241.38 100.29 225.65C100.13 209.92 100.12 197.16 100.29 197.16C100.46 197.16 100.68 209.91 100.84 225.64C101 241.37 100.99 254.13 100.84 254.13Z" fill="#E0E0E0"></path> <path d="M107.95 254.13C107.81 254.13 107.56 241.38 107.4 225.65C107.24 209.92 107.23 197.16 107.4 197.16C107.57 197.16 107.79 209.91 107.95 225.64C108.11 241.37 108.1 254.13 107.95 254.13Z" fill="#E0E0E0"></path> <path d="M115.101 254.13C114.961 254.13 114.711 241.38 114.551 225.65C114.391 209.92 114.381 197.16 114.551 197.16C114.721 197.16 114.941 209.91 115.101 225.64C115.261 241.37 115.211 254.13 115.101 254.13Z" fill="#E0E0E0"></path> <path d="M121.811 254.13C121.671 254.13 121.42 241.38 121.26 225.65C121.1 209.92 121.09 197.16 121.26 197.16C121.43 197.16 121.651 209.91 121.811 225.64C121.971 241.37 121.961 254.13 121.811 254.13Z" fill="#E0E0E0"></path> <path d="M128.56 254.13C128.42 254.13 128.17 241.38 128.01 225.65C127.85 209.92 127.83 197.16 128.01 197.16C128.19 197.16 128.4 209.91 128.56 225.64C128.72 241.37 128.7 254.13 128.56 254.13Z" fill="#E0E0E0"></path> <path d="M97.2705 254.061C97.1305 254.061 96.8805 241.301 96.7205 225.571C96.5605 209.841 96.5505 197.091 96.7205 197.091C96.8905 197.091 97.1105 209.831 97.2705 225.571C97.4305 241.311 97.4205 254.051 97.2705 254.061Z" fill="#E0E0E0"></path> <path d="M104.31 253.981C104.17 253.981 103.92 241.231 103.76 225.501C103.6 209.771 103.58 197.021 103.76 197.011C103.94 197.001 104.15 209.761 104.31 225.501C104.47 241.241 104.45 253.981 104.31 253.981Z" fill="#E0E0E0"></path> <path d="M111.35 253.91C111.2 253.91 110.95 241.16 110.79 225.43C110.63 209.7 110.62 196.94 110.79 196.94C110.96 196.94 111.18 209.69 111.34 225.43C111.5 241.17 111.49 253.91 111.35 253.91Z" fill="#E0E0E0"></path> <path d="M118.38 253.821C118.24 253.821 117.99 241.071 117.83 225.341C117.67 209.611 117.66 196.851 117.83 196.851C118 196.851 118.22 209.601 118.38 225.331C118.54 241.061 118.53 253.821 118.38 253.821Z" fill="#E0E0E0"></path> <path d="M125.1 254.2C124.95 254.2 124.71 241.45 124.55 225.72C124.39 209.99 124.37 197.23 124.55 197.23C124.73 197.23 124.94 209.98 125.1 225.71C125.26 241.44 125.27 254.2 125.1 254.2Z" fill="#E0E0E0"></path> <path d="M132.46 253.7C132.31 253.7 132.07 240.94 131.9 225.21C131.73 209.48 131.73 196.73 131.9 196.73C132.07 196.73 132.29 209.47 132.46 225.21C132.63 240.95 132.6 253.69 132.46 253.7Z" fill="#E0E0E0"></path> <path d="M140.01 247.02C140.01 247.16 127.25 247.41 111.53 247.56C95.81 247.71 83.04 247.73 83.04 247.56C83.04 247.39 95.79 247.17 111.52 247.01C127.25 246.85 140 246.88 140.01 247.02Z" fill="#E0E0E0"></path> <path d="M140.3 250.621C140.3 250.761 127.55 251.011 111.82 251.161C96.0901 251.311 83.3301 251.331 83.3301 251.161C83.3301 250.991 96.0801 250.771 111.82 250.611C127.56 250.451 140.3 250.471 140.3 250.621Z" fill="#E0E0E0"></path> <path d="M139.94 239.981C139.94 240.131 127.18 240.371 111.46 240.531C95.7397 240.691 82.9697 240.701 82.9697 240.531C82.9697 240.361 95.7197 240.141 111.45 239.991C127.18 239.841 139.93 239.821 139.94 239.981Z" fill="#E0E0E0"></path> <path d="M139.87 232.951C139.87 233.091 127.11 233.331 111.38 233.491C95.6504 233.651 82.9004 233.661 82.9004 233.491C82.9004 233.321 95.6504 233.111 111.38 232.951C127.11 232.791 139.86 232.821 139.87 232.951Z" fill="#E0E0E0"></path> <path d="M139.8 225.911C139.8 226.051 127.04 226.301 111.31 226.451C95.5801 226.601 82.8301 226.621 82.8301 226.451C82.8301 226.281 95.5701 226.061 111.31 225.901C127.05 225.741 139.79 225.761 139.8 225.911Z" fill="#E0E0E0"></path> <path d="M139.72 218.87C139.72 219.02 126.97 219.26 111.24 219.42C95.5098 219.58 82.7598 219.58 82.7598 219.42C82.7598 219.26 95.4998 219.03 111.24 218.88C126.98 218.73 139.72 218.73 139.72 218.87Z" fill="#E0E0E0"></path> <path d="M139.65 211.821C139.65 211.971 126.9 212.211 111.17 212.371C95.4404 212.531 82.6904 212.541 82.6904 212.371C82.6904 212.201 95.4304 211.991 111.17 211.831C126.91 211.671 139.65 211.691 139.65 211.821Z" fill="#E0E0E0"></path> <path d="M139.58 204.82C139.58 204.96 126.83 205.21 111.1 205.36C95.3704 205.51 82.6204 205.53 82.6104 205.36C82.6004 205.19 95.3604 204.97 111.1 204.81C126.84 204.65 139.58 204.65 139.58 204.82Z" fill="#E0E0E0"></path> <path d="M139.58 201.981C139.58 202.121 126.83 202.371 111.1 202.521C95.3704 202.671 82.6204 202.691 82.6104 202.521C82.6004 202.351 95.3604 202.131 111.1 201.971C126.84 201.811 139.58 201.821 139.58 201.981Z" fill="#E0E0E0"></path> <path d="M139.58 208.391C139.58 208.541 126.83 208.781 111.1 208.941C95.3704 209.101 82.6204 209.111 82.6104 208.941C82.6004 208.771 95.3604 208.551 111.1 208.401C126.84 208.251 139.58 208.251 139.58 208.391Z" fill="#E0E0E0"></path> <path d="M139.58 215.37C139.58 215.52 126.83 215.76 111.1 215.92C95.3704 216.08 82.6204 216.09 82.6104 215.92C82.6004 215.75 95.3604 215.54 111.1 215.38C126.84 215.22 139.58 215.23 139.58 215.37Z" fill="#E0E0E0"></path> <path d="M139.58 222.351C139.58 222.501 126.83 222.741 111.1 222.901C95.3704 223.061 82.6204 223.071 82.6104 222.901C82.6004 222.731 95.3604 222.521 111.1 222.361C126.84 222.201 139.58 222.211 139.58 222.351Z" fill="#E0E0E0"></path> <path d="M139.58 229.341C139.58 229.481 126.83 229.721 111.1 229.881C95.3704 230.041 82.6204 230.051 82.6104 229.881C82.6004 229.711 95.3604 229.501 111.1 229.341C126.84 229.181 139.58 229.191 139.58 229.341Z" fill="#E0E0E0"></path> <path d="M139.58 236.321C139.58 236.461 126.83 236.701 111.1 236.861C95.3704 237.021 82.6204 237.031 82.6104 236.861C82.6004 236.691 95.3604 236.471 111.1 236.311C126.84 236.151 139.58 236.171 139.58 236.321Z" fill="#E0E0E0"></path> <path d="M139.58 243.3C139.58 243.44 126.83 243.68 111.1 243.84C95.3704 244 82.6204 244.01 82.6104 243.84C82.6004 243.67 95.3604 243.45 111.1 243.29C126.84 243.13 139.58 243.15 139.58 243.3Z" fill="#E0E0E0"></path> <path d="M104.78 206.82C105.016 208.398 105.842 209.828 107.09 210.82C107.651 211.206 108.299 211.447 108.976 211.522C109.653 211.596 110.337 211.502 110.969 211.247C111.6 210.992 112.159 210.585 112.594 210.061C113.029 209.538 113.328 208.914 113.464 208.247C113.599 207.58 113.568 206.889 113.371 206.237C113.175 205.586 112.819 204.992 112.338 204.511C111.856 204.03 111.262 203.676 110.61 203.48C109.958 203.285 109.267 203.254 108.6 203.39" fill="#E0E0E0"></path> <path d="M104.7 206.76C104.735 207.408 104.96 208.031 105.349 208.551C105.738 209.07 106.272 209.463 106.883 209.679C107.495 209.895 108.157 209.924 108.786 209.764C109.414 209.604 109.981 209.26 110.415 208.778C110.849 208.295 111.129 207.695 111.222 207.053C111.314 206.411 111.214 205.756 110.934 205.17C110.654 204.585 110.207 204.096 109.649 203.765C109.091 203.434 108.448 203.276 107.8 203.31C106.931 203.357 106.117 203.746 105.536 204.393C104.954 205.04 104.654 205.892 104.7 206.76Z" fill="#A41F68"></path> <path d="M102.82 205.55C102.835 205.948 102.968 206.333 103.203 206.655C103.438 206.976 103.763 207.221 104.138 207.356C104.512 207.492 104.919 207.512 105.305 207.415C105.691 207.319 106.04 207.109 106.306 206.812C106.572 206.516 106.744 206.147 106.799 205.753C106.854 205.358 106.79 204.956 106.616 204.598C106.441 204.24 106.163 203.943 105.819 203.744C105.474 203.544 105.077 203.453 104.68 203.48C104.162 203.516 103.678 203.753 103.331 204.139C102.984 204.525 102.8 205.031 102.82 205.55Z" fill="#A41F68"></path> <path d="M104.65 207.37C104.65 207.29 104.96 207.32 105.36 207.17C105.613 207.077 105.843 206.932 106.036 206.744C106.229 206.556 106.381 206.33 106.48 206.08C106.563 205.822 106.592 205.55 106.567 205.28C106.541 205.01 106.46 204.748 106.33 204.51C106.13 204.13 105.9 203.94 105.94 203.88C105.98 203.82 106.3 203.88 106.63 204.3C106.853 204.577 107.001 204.906 107.061 205.256C107.12 205.606 107.089 205.965 106.97 206.3C106.849 206.625 106.645 206.914 106.379 207.136C106.112 207.359 105.792 207.509 105.45 207.57C104.93 207.6 104.63 207.42 104.65 207.37Z" fill="#263238"></path> <path d="M106.3 204.24C106.37 204.11 106.86 204.24 107.41 204.13C107.96 204.02 108.34 203.66 108.46 203.74C108.58 203.82 108.31 204.45 107.53 204.63C106.75 204.81 106.21 204.35 106.3 204.24Z" fill="#263238"></path> <path d="M106.8 209.22C106.66 209.22 106.52 208.61 106.01 208.13C105.5 207.65 104.87 207.54 104.87 207.4C104.87 207.26 105.66 207.11 106.36 207.75C107.06 208.39 106.95 209.25 106.8 209.22Z" fill="#263238"></path> <path d="M124.8 217.95C124.8 218.09 117.8 218.21 109.18 218.21C100.56 218.21 93.5498 218.09 93.5498 217.95C93.5498 217.81 100.55 217.69 109.18 217.69C117.81 217.69 124.8 217.82 124.8 217.95Z" fill="#263238"></path> <path d="M124.8 221.2C124.8 221.34 117.8 221.46 109.18 221.46C100.56 221.46 93.5498 221.34 93.5498 221.2C93.5498 221.06 100.55 220.94 109.18 220.94C117.81 220.94 124.8 221.05 124.8 221.2Z" fill="#263238"></path> <path d="M124.8 224.45C124.8 224.59 117.8 224.71 109.18 224.71C100.56 224.71 93.5498 224.59 93.5498 224.45C93.5498 224.31 100.55 224.19 109.18 224.19C117.81 224.19 124.8 224.3 124.8 224.45Z" fill="#263238"></path> <path d="M124.8 227.69C124.8 227.84 117.8 227.95 109.18 227.95C100.56 227.95 93.5498 227.84 93.5498 227.69C93.5498 227.54 100.55 227.43 109.18 227.43C117.81 227.43 124.8 227.55 124.8 227.69Z" fill="#263238"></path> <path d="M124.8 230.94C124.8 231.09 117.8 231.2 109.18 231.2C100.56 231.2 93.5498 231.09 93.5498 230.94C93.5498 230.79 100.55 230.68 109.18 230.68C117.81 230.68 124.8 230.82 124.8 230.94Z" fill="#263238"></path> <path d="M124.8 234.19C124.8 234.33 117.8 234.45 109.18 234.45C100.56 234.45 93.5498 234.33 93.5498 234.19C93.5498 234.05 100.55 233.93 109.18 233.93C117.81 233.93 124.8 234.05 124.8 234.19Z" fill="#263238"></path> <path d="M124.8 237.44C124.8 237.58 117.8 237.7 109.18 237.7C100.56 237.7 93.5498 237.58 93.5498 237.44C93.5498 237.3 100.55 237.18 109.18 237.18C117.81 237.18 124.8 237.29 124.8 237.44Z" fill="#263238"></path> <path d="M47.6297 386.97C47.3986 386.964 47.1758 386.882 46.9952 386.738C46.8147 386.593 46.6863 386.394 46.6297 386.17L11.0397 250.67C11.0042 250.535 10.9958 250.394 11.0148 250.255C11.0338 250.116 11.0799 249.983 11.1504 249.862C11.221 249.742 11.3147 249.636 11.4261 249.551C11.5375 249.467 11.6644 249.405 11.7997 249.37C11.9349 249.334 12.0759 249.326 12.2144 249.345C12.3529 249.364 12.4864 249.41 12.6071 249.481C12.7278 249.551 12.8334 249.645 12.918 249.756C13.0025 249.868 13.0642 249.994 13.0997 250.13L48.6597 385.63C48.6958 385.765 48.7048 385.906 48.6861 386.045C48.6673 386.184 48.6213 386.317 48.5507 386.438C48.48 386.559 48.3861 386.665 48.2744 386.749C48.1626 386.833 48.0353 386.895 47.8997 386.93C47.8125 386.958 47.7213 386.971 47.6297 386.97Z" fill="#263238"></path> <path d="M38.23 390.319C38.0002 390.314 37.7784 390.234 37.5981 390.091C37.4177 389.949 37.2885 389.752 37.23 389.529L1.65004 254.019C1.61458 253.884 1.60611 253.743 1.62511 253.605C1.64412 253.466 1.69022 253.333 1.76079 253.212C1.83137 253.091 1.92502 252.986 2.03642 252.901C2.14782 252.817 2.27477 252.755 2.41003 252.719C2.54529 252.684 2.68622 252.675 2.82475 252.694C2.96329 252.713 3.09672 252.76 3.21744 252.83C3.33815 252.901 3.44378 252.994 3.5283 253.106C3.61282 253.217 3.67458 253.344 3.71004 253.479L39.27 388.989C39.3062 389.125 39.3151 389.266 39.2964 389.404C39.2777 389.543 39.2317 389.677 39.161 389.798C39.0903 389.919 38.9964 390.024 38.8847 390.109C38.773 390.193 38.6456 390.254 38.51 390.289C38.418 390.309 38.3242 390.319 38.23 390.319Z" fill="#263238"></path> <path d="M5.91996 248.14L4.20996 246.87L95.5 124.01L178.78 139.97L178.38 142.06L96.41 126.36L5.91996 248.14Z" fill="#263238"></path> <path d="M101.899 127.908L12.0918 249.187L13.8036 250.454L103.611 129.175L101.899 127.908Z" fill="#263238"></path> <path d="M93.2304 129.65C93.6186 130.768 94.3288 131.746 95.2717 132.461C96.2145 133.177 97.3479 133.597 98.5292 133.67C99.7105 133.743 100.887 133.465 101.911 132.871C102.934 132.277 103.759 131.393 104.282 130.331C104.804 129.269 105.001 128.077 104.848 126.903C104.694 125.729 104.197 124.628 103.419 123.736C102.64 122.844 101.616 122.203 100.474 121.892C99.3316 121.581 98.1232 121.615 97.0004 121.99C96.247 122.241 95.551 122.639 94.9527 123.162C94.3544 123.684 93.8658 124.32 93.5151 125.032C93.1644 125.745 92.9587 126.52 92.9098 127.312C92.8609 128.105 92.9699 128.9 93.2304 129.65Z" fill="#A41F68"></path> <path d="M174.84 133.099L173.35 124.419L179.77 123.939L180.24 132.319L174.84 133.099Z" fill="#A41F68"></path> <g opacity="0.3"> <path opacity="0.3" d="M174.84 133.099L173.35 124.419L179.77 123.939L180.24 132.319L174.84 133.099Z" fill="black"></path> </g> <path d="M169.58 132.5L163.65 164.7L148.64 207.25L233.18 195.06L199.06 157.92L184.82 130.3L169.58 132.5Z" fill="#A41F68"></path> <path d="M0 251.739C0 253.066 0.393532 254.364 1.13084 255.467C1.86814 256.571 2.9161 257.431 4.14219 257.939C5.36828 258.446 6.71745 258.579 8.01906 258.32C9.32067 258.061 10.5163 257.422 11.4547 256.484C12.3931 255.546 13.0322 254.35 13.2911 253.048C13.55 251.747 13.4171 250.398 12.9092 249.172C12.4014 247.945 11.5413 246.897 10.4379 246.16C9.33442 245.423 8.03711 245.029 6.71 245.029C4.9304 245.029 3.22368 245.736 1.96531 246.995C0.70694 248.253 0 249.96 0 251.739Z" fill="#A41F68"></path> <path d="M20.86 414.08C20.86 413.63 20.79 413.19 20.79 412.73C20.9257 405.703 23.8126 399.009 28.8303 394.087C33.8481 389.165 40.5963 386.408 47.625 386.408C54.6537 386.408 61.402 389.165 66.4197 394.087C71.4375 399.009 74.3244 405.703 74.46 412.73C74.46 413.19 74.41 413.63 74.39 414.08H20.86Z" fill="#A41F68"></path> <path d="M167.22 404.029C166.89 404.099 165.48 405.529 167.49 407.799C169.5 410.069 181.62 416.279 183.85 412.569C186.08 408.859 180.7 406.279 180.7 406.279L167.22 404.029Z" fill="#FFBE9D"></path> <path d="M180.53 400.03C180.53 400.03 193.03 398.65 198.13 399.3C203.66 400.01 209.53 397.22 213.01 393.4C215.189 390.866 216.698 387.827 217.4 384.56L225.4 379C225.4 379 226.26 360.09 213.65 363.14L198.92 363.66C198.92 363.66 169.92 368.46 165.44 372.07C165.44 372.07 159.98 377.38 158.39 379.43C157.79 380.21 157.28 388 162.82 390.66C162.82 390.66 159.55 394.83 162.43 397.19L163.78 398.19C163.78 398.19 161.91 402.36 163.67 403.55C165.43 404.74 179.34 408.96 183.29 406.21C187.24 403.46 182.66 400.29 180.57 400.01" fill="#FFBE9D"></path> <path d="M164.95 389.92C165.497 389.944 166.041 390.005 166.58 390.1C167.63 390.23 169.15 390.42 171.04 390.56C171.98 390.62 173.04 390.68 174.12 390.7C175.2 390.72 176.41 390.7 177.68 390.79C179.044 390.828 180.371 391.247 181.51 392C182.135 392.418 182.638 392.995 182.966 393.672C183.295 394.348 183.438 395.1 183.38 395.85C183.26 396.63 182.862 397.34 182.26 397.85C181.704 398.319 181.062 398.676 180.37 398.9C179.1 399.295 177.787 399.54 176.46 399.63C174.231 399.799 171.991 399.755 169.77 399.5C167.88 399.3 166.37 399.05 165.33 398.87C164.781 398.807 164.238 398.693 163.71 398.53C164.259 398.537 164.807 398.584 165.35 398.67C166.41 398.79 167.93 398.98 169.81 399.13C172.006 399.322 174.214 399.322 176.41 399.13C177.697 399.03 178.968 398.785 180.2 398.4C180.827 398.192 181.41 397.87 181.92 397.45C182.42 397.021 182.753 396.43 182.86 395.78C182.905 395.123 182.776 394.465 182.487 393.874C182.197 393.282 181.757 392.777 181.21 392.41C180.145 391.713 178.912 391.315 177.64 391.26C176.42 391.15 175.22 391.19 174.11 391.13C173 391.07 171.95 391.02 171 390.92C169.11 390.74 167.6 390.5 166.55 390.3C166.005 390.229 165.469 390.101 164.95 389.92Z" fill="#EB996E"></path> <path d="M163.93 380.89C164.477 380.907 165.022 380.967 165.56 381.07C166.56 381.21 168.12 381.41 169.99 381.57C171.86 381.73 174.1 381.86 176.59 381.86C177.935 381.752 179.286 381.954 180.54 382.45C181.217 382.789 181.75 383.36 182.04 384.06C182.319 384.772 182.392 385.548 182.25 386.3C182.089 387.021 181.782 387.701 181.346 388.298C180.911 388.895 180.358 389.396 179.72 389.77C178.566 390.469 177.265 390.891 175.92 391C173.699 391.092 171.473 390.989 169.27 390.69L164.83 390.24C164.281 390.207 163.736 390.127 163.2 390C163.746 389.958 164.294 389.958 164.84 390L169.3 390.29C171.482 390.527 173.679 390.59 175.87 390.48C177.139 390.364 178.365 389.957 179.45 389.29C180.024 388.954 180.522 388.503 180.914 387.967C181.307 387.43 181.584 386.818 181.73 386.17C181.883 385.537 181.826 384.873 181.568 384.276C181.31 383.679 180.865 383.182 180.3 382.86C179.122 382.395 177.853 382.204 176.59 382.3C174.08 382.3 171.84 382.11 169.96 381.9C168.08 381.69 166.57 381.43 165.53 381.23C164.988 381.164 164.452 381.05 163.93 380.89Z" fill="#EB996E"></path> <path d="M170.38 381.99C169.943 381.25 169.565 380.478 169.25 379.68C168.782 378.961 168.381 378.201 168.05 377.41C168.15 377.31 169.05 378.13 169.71 379.41C170.2 380.177 170.435 381.08 170.38 381.99Z" fill="#EB996E"></path> <path d="M208.62 363.9L196.8 362.33C196.8 362.33 163.4 355.52 163.07 356.4C162.74 357.28 161.07 357.59 162.33 361.17C163.59 364.75 182.84 367.92 183.7 369.06C184.56 370.2 185.18 376.83 192.7 379.88C200.22 382.93 204.96 381.88 204.96 381.88" fill="#FFBE9D"></path> <path d="M205 381.9L204.75 381.97L203.98 382.08C202.982 382.164 201.979 382.164 200.98 382.08C199.415 381.947 197.866 381.672 196.35 381.26C194.329 380.747 192.377 379.988 190.54 379C188.323 377.718 186.516 375.831 185.33 373.56C184.708 372.302 184.173 371.002 183.73 369.67C183.667 369.519 183.594 369.372 183.51 369.23C183.409 369.135 183.29 369.06 183.16 369.01C182.833 368.876 182.499 368.759 182.16 368.66C181.46 368.44 180.74 368.25 180 368.06C177.06 367.29 173.95 366.55 170.77 365.62C169.18 365.15 167.57 364.62 165.97 363.99C165.157 363.668 164.371 363.28 163.62 362.83C163.227 362.592 162.865 362.306 162.54 361.98C162.373 361.799 162.235 361.593 162.13 361.37C162.02 361.14 161.99 360.93 161.91 360.72C161.597 359.844 161.541 358.897 161.75 357.99C161.902 357.549 162.147 357.147 162.47 356.81C162.599 356.671 162.71 356.517 162.8 356.35C162.8 356.35 162.8 356.35 162.88 356.22C162.929 356.16 162.995 356.118 163.07 356.1C163.143 356.093 163.217 356.093 163.29 356.1H163.64C165.38 356.21 167.03 356.5 168.64 356.76C171.91 357.3 175.05 357.88 178.04 358.45C184.04 359.58 189.38 360.66 193.89 361.59C195.01 361.81 196.09 362.07 197.1 362.24L200 362.64L204.63 363.3L207.56 363.74L208.32 363.87L208.58 363.93C208.491 363.946 208.4 363.946 208.31 363.93L207.55 363.86L204.6 363.51L199.95 362.94L197.04 362.57C196.04 362.41 194.95 362.17 193.82 361.96L177.95 358.96C174.95 358.41 171.82 357.83 168.56 357.3C166.93 357.05 165.25 356.76 163.56 356.65H163.26H163.16C163.16 356.65 163.16 356.57 163.11 356.53C163.5 356.67 163.21 356.53 163.3 356.62C163.199 356.839 163.061 357.039 162.89 357.21C162.614 357.495 162.403 357.836 162.27 358.21C162.099 359.017 162.158 359.855 162.44 360.63C162.516 361.023 162.696 361.389 162.96 361.69C163.262 361.983 163.598 362.238 163.96 362.45C164.687 362.881 165.446 363.255 166.23 363.57C167.8 364.21 169.39 364.72 170.98 365.19C174.14 366.13 177.24 366.87 180.18 367.65C180.92 367.85 181.65 368.05 182.36 368.27C182.722 368.373 183.076 368.5 183.42 368.65C183.631 368.726 183.818 368.857 183.96 369.03C184.072 369.195 184.163 369.373 184.23 369.56C184.664 370.881 185.189 372.171 185.8 373.42C186.927 375.633 188.662 377.478 190.8 378.74C192.601 379.733 194.515 380.505 196.5 381.04C197.994 381.471 199.524 381.769 201.07 381.93C202.047 382.035 203.029 382.068 204.01 382.03C204.35 382.03 204.61 382.03 204.78 382.03L205 381.9Z" fill="#EB996E"></path> <path d="M176.89 399.44C177.3 399.394 177.716 399.414 178.12 399.5C179.233 399.662 180.317 399.982 181.34 400.45C182.049 400.775 182.719 401.178 183.34 401.65C183.728 401.919 184.059 402.263 184.313 402.661C184.567 403.06 184.74 403.505 184.82 403.97C184.844 404.504 184.718 405.035 184.456 405.501C184.195 405.967 183.808 406.352 183.34 406.61C182.369 407.142 181.262 407.372 180.16 407.27C176.481 407.072 172.829 406.533 169.25 405.66C167.88 405.31 166.79 404.95 166.05 404.66C165.657 404.538 165.278 404.374 164.92 404.17C165.326 404.224 165.725 404.321 166.11 404.46C166.87 404.68 167.96 404.98 169.33 405.28C172.904 406.043 176.531 406.528 180.18 406.73C181.178 406.827 182.183 406.629 183.07 406.16C183.462 405.952 183.789 405.639 184.013 405.256C184.238 404.872 184.351 404.434 184.34 403.99C184.195 403.183 183.739 402.465 183.07 401.99C182.481 401.519 181.84 401.117 181.16 400.79C179.8 400.159 178.365 399.705 176.89 399.44Z" fill="#EB996E"></path> <path d="M263.84 331.17C263.84 331.17 278.65 306.79 281.98 290.7C285.31 274.61 302.51 249.08 308.1 242.42C313.69 235.76 335.85 228 335.85 228L344.03 223.58L407.42 218.01C407.42 218.01 449.59 222.45 462.36 234.1C475.13 245.75 485.1 272.39 485.1 285.7C485.1 299.01 497.99 414.34 497.99 414.34L341.78 414.14L345.28 357.28C345.28 357.28 326.41 344.52 321.42 333.42C316.43 322.32 319.2 327.87 319.2 327.87C319.2 327.87 301.49 365.52 295.39 369.96C289.29 374.4 218.34 396.17 218.34 396.17L208.63 358.94L263.84 331.17Z" fill="#A41F68"></path> <path d="M448.27 238.75C446.56 239.28 425.4 293.93 423.91 298.9C422.42 303.87 423.91 335.19 423.91 335.19L430.91 348.12C430.91 348.12 428.91 357.56 430.41 362.04L399.09 368.04C399.09 368.04 391.14 362.57 383.68 368.04L346.68 371.17C346.68 371.17 357.53 371.29 354.3 387.93C351.14 404.23 348.73 407.81 348.73 407.81L478.58 404.81C478.58 404.81 493.01 404.09 490.81 376.35C488.61 348.61 482.42 272.09 482.42 272.09C482.42 272.09 472.96 231.09 448.27 238.75Z" fill="#A41F68"></path> <path d="M423.62 330.82C423.488 330.611 423.384 330.386 423.31 330.15L422.52 328.15C422.18 327.3 421.77 326.25 421.37 325C420.97 323.75 420.44 322.36 420.02 320.77C419.6 319.18 419.02 317.45 418.63 315.56C418.24 313.67 417.77 311.65 417.37 309.56C416.559 304.901 416.048 300.194 415.84 295.47C415.688 290.742 415.831 286.01 416.27 281.3C416.53 279.14 416.74 277.08 417.09 275.17C417.25 274.17 417.38 273.29 417.56 272.4C417.74 271.51 417.92 270.68 418.09 269.87C418.41 268.26 418.82 266.87 419.15 265.55C419.48 264.23 419.79 263.21 420.08 262.33C420.37 261.45 420.57 260.83 420.73 260.33C420.805 260.092 420.892 259.859 420.99 259.63C420.967 259.879 420.914 260.124 420.83 260.36C420.69 260.87 420.5 261.55 420.27 262.36C420.04 263.17 419.71 264.36 419.43 265.6C419.15 266.84 418.74 268.3 418.43 269.92C418.27 270.73 418.11 271.57 417.94 272.45C417.77 273.33 417.65 274.25 417.5 275.2C417.17 277.11 416.97 279.2 416.73 281.32C415.845 290.7 416.211 300.156 417.82 309.44C418.21 311.58 418.57 313.61 419.03 315.44C419.49 317.27 419.92 319.06 420.35 320.65C420.78 322.24 421.25 323.65 421.63 324.89C422.01 326.13 422.38 327.2 422.69 328.06L423.39 330.06C423.483 330.308 423.56 330.562 423.62 330.82Z" fill="#263238"></path> <path d="M468.801 390.09C468.801 390.09 468.671 389.97 468.461 389.71L467.601 388.56C467.231 388.05 466.771 387.44 466.211 386.76C465.651 386.08 465.041 385.27 464.291 384.44C463.541 383.61 462.751 382.68 461.831 381.75C460.911 380.82 459.911 379.83 458.831 378.82C456.469 376.661 453.971 374.657 451.351 372.82C448.711 371.02 445.959 369.39 443.111 367.94C441.781 367.3 440.531 366.67 439.311 366.18C438.091 365.69 436.971 365.18 435.931 364.83C434.891 364.48 433.931 364.14 433.081 363.83C432.231 363.52 431.511 363.33 430.911 363.17L429.531 362.76C429.363 362.723 429.201 362.663 429.051 362.58C429.22 362.588 429.388 362.614 429.551 362.66L430.961 362.97C431.571 363.11 432.311 363.29 433.171 363.55C434.031 363.81 435.001 364.07 436.051 364.47C437.101 364.87 438.271 365.24 439.481 365.76C440.691 366.28 441.981 366.86 443.321 367.49C446.208 368.921 448.991 370.551 451.651 372.37C454.285 374.218 456.79 376.243 459.151 378.43C460.221 379.43 461.241 380.43 462.151 381.43C463.061 382.43 463.861 383.32 464.581 384.18C465.301 385.04 465.901 385.86 466.451 386.56C467.001 387.26 467.451 387.9 467.771 388.42C468.091 388.94 468.351 389.3 468.561 389.63C468.66 389.773 468.74 389.927 468.801 390.09Z" fill="#263238"></path> <path d="M479.731 382.82C479.651 382.89 478.501 381.58 476.341 379.82C475.076 378.792 473.739 377.857 472.341 377.02C470.615 376.009 468.813 375.137 466.951 374.409C465.077 373.718 463.151 373.176 461.191 372.79C459.586 372.485 457.962 372.295 456.331 372.219C453.541 372.109 451.811 372.319 451.801 372.219C452.195 372.107 452.601 372.04 453.011 372.02C453.484 371.949 453.962 371.905 454.441 371.89C455.001 371.89 455.631 371.82 456.341 371.89C457.997 371.917 459.649 372.075 461.281 372.36C463.274 372.724 465.232 373.263 467.131 373.969C469.027 374.699 470.854 375.596 472.591 376.649C473.998 377.517 475.336 378.493 476.591 379.57C477.141 380.02 477.591 380.479 477.981 380.869C478.335 381.182 478.669 381.515 478.981 381.869C479.264 382.158 479.516 382.477 479.731 382.82Z" fill="#263238"></path> <path d="M467.719 364.53C467.659 364.62 466.129 363.4 463.329 362.02C462.568 361.643 461.787 361.309 460.989 361.02C460.149 360.66 459.209 360.39 458.229 360.08C453.92 358.84 449.397 358.53 444.959 359.17C443.959 359.34 442.959 359.48 442.099 359.72C441.267 359.909 440.446 360.142 439.639 360.42C436.639 361.42 434.999 362.42 434.949 362.3C435.313 362.023 435.705 361.785 436.119 361.59C436.579 361.318 437.057 361.077 437.549 360.87C438.201 360.568 438.869 360.301 439.549 360.07C440.356 359.767 441.181 359.513 442.019 359.31C442.974 359.052 443.942 358.845 444.919 358.69C449.422 357.989 454.025 358.307 458.389 359.62C459.339 359.896 460.27 360.23 461.179 360.62C461.985 360.934 462.769 361.298 463.529 361.71C464.161 362.033 464.776 362.39 465.369 362.78C465.831 363.046 466.272 363.347 466.689 363.68C467.064 363.922 467.41 364.208 467.719 364.53Z" fill="#263238"></path> <path d="M391.78 405.51C392.198 403.677 392.505 401.82 392.7 399.95C392.857 397.915 392.84 395.871 392.65 393.84C392.406 391.353 391.972 388.889 391.35 386.47C390.689 384.08 389.857 381.74 388.86 379.47C388.003 377.613 387 375.828 385.86 374.13C384.766 372.596 383.587 371.123 382.33 369.72C382.739 370.022 383.124 370.356 383.48 370.72C383.917 371.131 384.325 371.572 384.7 372.04L385.42 372.89C385.67 373.21 385.9 373.55 386.16 373.89C387.351 375.577 388.388 377.368 389.26 379.24C391.384 383.837 392.684 388.772 393.1 393.82C393.269 395.877 393.249 397.946 393.04 400C392.99 400.44 392.94 400.85 392.9 401.25L392.68 402.35C392.586 402.94 392.445 403.522 392.26 404.09C392.138 404.575 391.977 405.05 391.78 405.51Z" fill="#263238"></path> <path d="M370.01 367.98C369.976 367.887 369.956 367.789 369.95 367.69C369.95 367.47 369.87 367.19 369.81 366.84C369.7 366.05 369.54 364.95 369.34 363.55C368.93 360.69 368.4 356.55 367.78 351.41C366.55 341.16 365.08 326.96 363.93 311.24C362.78 295.52 362.18 281.24 361.93 270.93C361.79 265.77 361.72 261.59 361.7 258.7C361.7 257.29 361.7 256.17 361.7 255.38V254.51C361.664 254.502 361.631 254.482 361.609 254.452C361.587 254.422 361.577 254.385 361.581 254.348C361.585 254.311 361.602 254.277 361.629 254.252C361.657 254.227 361.693 254.213 361.73 254.213C361.767 254.213 361.803 254.227 361.831 254.252C361.858 254.277 361.876 254.311 361.879 254.348C361.883 254.385 361.873 254.422 361.851 254.452C361.829 254.482 361.796 254.502 361.76 254.51C361.76 254.74 361.76 255.02 361.76 255.38C361.76 256.17 361.82 257.28 361.87 258.7C361.96 261.62 362.09 265.79 362.25 270.92C362.62 281.24 363.25 295.49 364.42 311.21C365.59 326.93 366.98 341.11 368.12 351.37C368.7 356.47 369.18 360.61 369.51 363.52C369.67 364.93 369.79 366.03 369.88 366.83C369.88 367.18 369.95 367.46 369.97 367.69C369.992 367.785 370.006 367.882 370.01 367.98Z" fill="#263238"></path> <path d="M319 328.59C318.736 328.097 318.509 327.586 318.32 327.06C317.92 326.06 317.32 324.63 316.57 322.86C315.07 319.33 312.83 314.52 310.15 309.3C307.47 304.08 305.05 299.45 303.24 295.97C302.37 294.25 301.67 292.86 301.24 291.89C300.978 291.394 300.754 290.879 300.57 290.35C300.896 290.803 301.181 291.285 301.42 291.79L303.59 295.79C305.41 299.17 307.97 303.79 310.65 309.06C313.33 314.33 315.52 319.13 316.94 322.71C317.65 324.5 318.2 325.96 318.54 326.98C318.736 327.503 318.89 328.042 319 328.59Z" fill="#263238"></path> <path d="M311.02 310.109C310.71 310.099 310.403 310.042 310.11 309.939C309.54 309.799 308.72 309.559 307.71 309.229C302.466 307.491 297.491 305.027 292.93 301.909C292.06 301.309 291.37 300.799 290.93 300.429C290.678 300.256 290.45 300.051 290.25 299.819C291.25 300.361 292.222 300.956 293.16 301.599C294.94 302.719 297.44 304.189 300.32 305.599C303.2 307.009 305.88 308.119 307.85 308.859C308.927 309.223 309.985 309.64 311.02 310.109Z" fill="#263238"></path> <path d="M297.61 344.259C297.225 344.086 296.863 343.867 296.53 343.609C295.87 343.159 294.89 342.519 293.66 341.779C287.25 337.865 280.154 335.208 272.75 333.949C271.33 333.699 270.18 333.539 269.38 333.439C268.96 333.417 268.544 333.346 268.14 333.229C268.558 333.181 268.981 333.181 269.4 333.229C270.2 333.229 271.4 333.369 272.81 333.569C276.567 334.103 280.255 335.042 283.81 336.369C287.347 337.699 290.733 339.402 293.91 341.449C295.12 342.249 296.07 342.929 296.7 343.449C297.026 343.692 297.331 343.963 297.61 344.259Z" fill="#263238"></path> <path d="M405.73 218.1C405.724 218.37 405.704 218.641 405.67 218.91C405.6 219.49 405.51 220.26 405.4 221.23C405.14 223.23 404.78 226.15 404.17 229.73C403.483 233.928 402.548 238.082 401.37 242.17C399.933 247.19 397.824 251.994 395.1 256.45C393.584 258.839 391.839 261.077 389.89 263.13L389.69 263.35L389.5 263.1C387.001 259.765 383.749 257.069 380.01 255.23C378.413 254.441 376.737 253.825 375.01 253.39C373.519 253.029 371.994 252.825 370.46 252.78C368.264 252.701 366.07 253.009 363.98 253.69C362.53 254.2 361.76 254.58 361.74 254.53C361.915 254.417 362.099 254.32 362.29 254.24C362.817 253.964 363.362 253.724 363.92 253.52C366.019 252.764 368.24 252.401 370.47 252.45C372.032 252.472 373.588 252.659 375.11 253.01C376.87 253.433 378.58 254.044 380.21 254.83C384.035 256.684 387.361 259.427 389.91 262.83H389.52C391.437 260.796 393.158 258.586 394.66 256.23C397.363 251.812 399.471 247.058 400.93 242.09C402.119 238.025 403.087 233.899 403.83 229.73C404.49 226.17 404.9 223.26 405.22 221.26C405.37 220.26 405.5 219.53 405.59 218.96C405.601 218.668 405.649 218.379 405.73 218.1Z" fill="#263238"></path> <path d="M406.581 218.73L396.951 205.96L386.481 206.29L352.461 224.26L406.581 218.73Z" fill="#A41F68"></path> <path d="M361.721 254.53C361.538 254.552 361.353 254.552 361.171 254.53C360.642 254.477 360.118 254.391 359.601 254.27C357.705 253.777 355.895 253.002 354.231 251.97C353.108 251.265 351.874 250.754 350.581 250.46C349.091 250.139 347.55 250.139 346.061 250.46C344.357 250.846 342.776 251.648 341.459 252.794C340.141 253.941 339.128 255.396 338.511 257.03L337.971 258.49V256.93C337.971 256.54 337.971 256.13 337.971 255.71C338.091 247.83 338.101 240.71 338.421 235.52C338.571 232.94 338.771 230.85 338.991 229.42C339.081 228.7 339.191 228.15 339.271 227.78C339.302 227.589 339.348 227.402 339.411 227.22C339.461 227.22 339.321 228.01 339.191 229.45C339.061 230.89 338.891 232.96 338.791 235.54C338.561 240.7 338.621 247.83 338.491 255.72C338.491 256.14 338.491 256.56 338.491 256.95L337.991 256.85C338.639 255.137 339.705 253.614 341.092 252.418C342.478 251.222 344.142 250.39 345.931 250C347.378 249.709 348.869 249.707 350.317 249.994C351.765 250.28 353.143 250.85 354.371 251.67C355.998 252.712 357.762 253.527 359.611 254.09C360.961 254.43 361.731 254.48 361.721 254.53Z" fill="#263238"></path> <path d="M396.95 144.12V220.82C396.956 225.211 395.408 229.461 392.58 232.82C388.246 237.953 383.031 242.27 377.18 245.57L361.72 254.28L348.92 242.82C347.06 241.155 345.553 239.133 344.49 236.874C343.427 234.615 342.828 232.165 342.73 229.67C342.51 224.09 342.51 218.46 342.51 218.46C342.51 218.46 320.84 216.9 318.8 195.53C317.8 185.47 317.54 164.86 317.49 145.86C317.467 135.41 321.38 125.335 328.449 117.639C335.518 109.944 345.226 105.192 355.64 104.33L356.25 104.28C361.558 104.152 366.837 105.088 371.776 107.034C376.716 108.98 381.215 111.896 385.009 115.61C388.803 119.323 391.814 123.76 393.865 128.656C395.916 133.553 396.965 138.811 396.95 144.12Z" fill="#FFBE9D"></path> <path d="M342.449 218.139C342.449 218.139 356.059 218.139 369.689 207.899C369.689 207.899 364.369 223.839 342.859 223.679L342.449 218.139Z" fill="#EB996E"></path> <path d="M324.69 160.21C324.749 161.007 325.117 161.749 325.714 162.279C326.312 162.81 327.092 163.086 327.89 163.05C328.28 163.049 328.666 162.97 329.025 162.818C329.384 162.665 329.709 162.443 329.981 162.164C330.253 161.884 330.466 161.554 330.609 161.191C330.751 160.828 330.82 160.44 330.81 160.05C330.754 159.254 330.389 158.512 329.793 157.982C329.197 157.451 328.417 157.174 327.62 157.21C327.23 157.21 326.843 157.288 326.483 157.44C326.122 157.591 325.796 157.813 325.523 158.093C325.25 158.372 325.036 158.704 324.893 159.067C324.75 159.431 324.681 159.82 324.69 160.21Z" fill="#263238"></path> <path d="M322.95 154.47C323.36 154.83 325.53 152.93 328.82 152.67C332.11 152.41 334.66 153.85 334.98 153.42C335.14 153.22 334.7 152.54 333.58 151.86C332.068 150.984 330.319 150.602 328.58 150.77C326.869 150.9 325.246 151.577 323.95 152.7C323.03 153.56 322.75 154.3 322.95 154.47Z" fill="#263238"></path> <path d="M355.969 158.88C356.028 159.677 356.396 160.419 356.993 160.949C357.591 161.48 358.371 161.756 359.169 161.72C359.56 161.719 359.946 161.64 360.305 161.488C360.665 161.336 360.991 161.114 361.263 160.834C361.536 160.555 361.75 160.224 361.894 159.861C362.038 159.498 362.107 159.11 362.099 158.72C362.04 157.923 361.673 157.181 361.076 156.651C360.478 156.121 359.697 155.844 358.899 155.88C358.509 155.881 358.123 155.96 357.763 156.112C357.404 156.264 357.078 156.487 356.805 156.766C356.533 157.045 356.318 157.376 356.175 157.739C356.031 158.102 355.961 158.49 355.969 158.88Z" fill="#263238"></path> <path d="M355.321 152.409C355.731 152.769 357.911 150.869 361.191 150.609C364.471 150.349 367.031 151.789 367.351 151.349C367.511 151.159 367.071 150.469 365.951 149.799C364.438 148.924 362.691 148.54 360.951 148.699C359.242 148.834 357.62 149.51 356.321 150.629C355.401 151.489 355.101 152.239 355.321 152.409Z" fill="#263238"></path> <path d="M345.401 177.82C345.401 177.63 343.331 177.44 339.981 177.29C339.141 177.29 338.331 177.18 338.141 176.62C337.998 175.757 338.12 174.872 338.491 174.08C339.121 171.98 339.771 169.79 340.491 167.48C343.181 158.09 345.061 150.4 344.681 150.3C344.301 150.2 341.811 157.72 339.121 167.1C338.471 169.42 337.851 171.62 337.271 173.73C336.824 174.786 336.767 175.966 337.111 177.06C337.255 177.347 337.464 177.598 337.72 177.792C337.977 177.986 338.275 178.119 338.591 178.18C339.065 178.268 339.549 178.295 340.031 178.26C343.341 178.12 345.411 177.96 345.401 177.82Z" fill="#263238"></path> <path d="M355.27 179.249C354.73 179.249 355.02 182.829 352.17 185.619C349.32 188.409 345.5 188.329 345.51 188.829C345.51 189.049 346.42 189.449 348.03 189.359C350.121 189.215 352.094 188.337 353.6 186.879C355.054 185.483 355.905 183.574 355.97 181.559C355.98 180.059 355.51 179.209 355.27 179.249Z" fill="#263238"></path> <path d="M353.4 139.59C353.8 140.46 357.05 139.76 360.94 139.91C364.83 140.06 368.05 140.85 368.49 140C368.69 139.6 368.08 138.81 366.75 138C364.982 137.079 363.028 136.573 361.035 136.519C359.043 136.466 357.064 136.866 355.25 137.69C353.88 138.42 353.23 139.18 353.4 139.59Z" fill="#263238"></path> <path d="M323.37 144.819C324.01 145.519 326.21 144.559 328.93 144.299C331.65 144.039 334 144.379 334.47 143.559C334.67 143.159 334.25 142.439 333.18 141.819C331.762 141.063 330.144 140.766 328.55 140.969C326.953 141.124 325.445 141.779 324.24 142.839C323.34 143.709 323.1 144.509 323.37 144.819Z" fill="#263238"></path> <path d="M371.779 122.58L371.899 122.66C375.547 125.059 378.126 128.774 379.099 133.03L379.189 133.46C380.529 139.46 380.899 145.71 382.299 151.73C383.699 157.75 383.439 162.35 389.469 163.73C391.049 164.076 392.696 163.935 394.193 163.326C395.691 162.718 396.969 161.669 397.859 160.32C398.308 159.437 398.492 158.444 398.389 157.46C398.319 142.64 401.299 136.88 399.989 121.46C399.827 119.397 399.174 117.402 398.085 115.642C396.996 113.881 395.503 112.407 393.729 111.34C390.309 109.29 386.169 107.22 382.729 109.21C379.289 111.2 375.199 118.3 372.649 121.38" fill="#263238"></path> <path d="M390.529 154.389C390.889 154.209 404.869 148.829 405.619 163.499C406.369 178.169 391.479 175.879 391.439 175.499C391.399 175.119 390.529 154.389 390.529 154.389Z" fill="#FFBE9D"></path> <path d="M395.639 169.68C395.699 169.63 395.899 169.85 396.339 170.02C396.959 170.249 397.645 170.227 398.249 169.96C399.769 169.32 400.949 166.79 400.889 164.14C400.864 162.881 400.556 161.644 399.989 160.52C399.831 160.071 399.567 159.667 399.218 159.343C398.87 159.019 398.448 158.785 397.989 158.66C397.691 158.595 397.381 158.638 397.112 158.781C396.843 158.924 396.633 159.157 396.519 159.44C396.339 159.86 396.449 160.14 396.369 160.17C396.289 160.2 396.049 159.94 396.129 159.33C396.196 158.963 396.382 158.629 396.659 158.38C397.053 158.061 397.554 157.904 398.059 157.94C398.667 158.03 399.241 158.274 399.727 158.648C400.214 159.023 400.597 159.515 400.839 160.08C401.522 161.305 401.896 162.678 401.929 164.08C401.989 167.08 400.619 169.88 398.529 170.6C398.141 170.735 397.727 170.782 397.318 170.735C396.91 170.688 396.517 170.55 396.169 170.33C395.679 170.03 395.589 169.71 395.639 169.68Z" fill="#EB996E"></path> <path d="M383.369 111.42C386.489 105.27 375.929 97.6798 368.519 95.9998C361.109 94.3198 351.889 98.6298 344.909 101.61C340.499 103.49 336.159 105.96 331.369 106.15C328.159 106.29 325.009 105.38 321.899 104.56C318.789 103.74 315.569 103 312.389 103.49C309.209 103.98 306.059 105.94 305.099 109.01C304.139 112.08 306.199 116.01 309.409 116.17C305.179 114.28 299.559 117.68 299.289 122.31C299.019 126.94 304.169 130.99 308.599 129.64C306.389 128.23 303.409 131.1 303.889 133.64C304.369 136.18 306.889 137.92 309.339 138.77C315.669 140.94 322.709 139.5 328.849 136.85C334.989 134.2 340.559 130.41 346.629 127.61C352.699 124.81 362.849 119.85 369.309 121.54C374.069 122.79 377.749 128.1 380.309 126.65C381.489 125.883 382.473 124.851 383.182 123.635C383.89 122.419 384.304 121.054 384.389 119.65C384.511 116.847 384.174 114.043 383.389 111.35" fill="#263238"></path> <path d="M307.61 115.909C307.73 115.829 308.45 116.909 310.17 118.509C312.612 120.698 315.55 122.26 318.73 123.059C323.409 124.323 328.397 123.71 332.63 121.349C337.42 118.709 341.31 113.889 345.86 109.289C350.41 104.689 355.91 101.029 361.65 100.029C367.39 99.0295 372.83 100.669 376.03 103.709C377.297 104.885 378.314 106.303 379.02 107.881C379.727 109.458 380.107 111.162 380.14 112.889C380.13 113.821 379.992 114.746 379.73 115.639C379.51 116.229 379.37 116.529 379.32 116.509C379.498 115.318 379.582 114.114 379.57 112.909C379.306 109.657 377.794 106.632 375.35 104.469C372.35 101.769 367.21 100.319 361.89 101.339C356.57 102.359 351.32 105.779 346.89 110.339C342.46 114.899 338.42 119.789 333.29 122.549C329.501 124.544 325.172 125.269 320.94 124.619C316.708 123.969 312.796 121.978 309.78 118.939C309.142 118.279 308.57 117.559 308.07 116.789C307.72 116.229 307.57 115.939 307.61 115.909Z" fill="#455A64"></path> <path d="M394.209 153.45C394.159 153.5 393.539 153.1 392.889 151.98C392.024 150.374 391.623 148.56 391.729 146.74C391.659 142 395.409 136.6 395.399 130.05C395.524 127.01 394.707 124.007 393.059 121.45C391.633 119.433 389.585 117.94 387.229 117.2C385.634 116.68 383.93 116.591 382.289 116.94C381.129 117.23 380.529 117.55 380.459 117.44C380.389 117.33 380.939 116.88 382.129 116.44C383.864 115.844 385.737 115.778 387.509 116.25C390.172 116.928 392.519 118.507 394.149 120.72C396.031 123.476 396.978 126.764 396.849 130.1C396.743 133.349 396.045 136.551 394.789 139.55C393.795 141.878 393.122 144.33 392.789 146.84C392.329 151.15 394.409 153.36 394.209 153.45Z" fill="#455A64"></path> <path d="M402.709 162.239L400.326 160.03C399.459 159.226 398.105 159.278 397.301 160.145L388.363 169.79C387.56 170.657 387.611 172.011 388.478 172.815L390.862 175.024C391.729 175.827 393.083 175.775 393.886 174.908L402.825 165.263C403.628 164.396 403.576 163.042 402.709 162.239Z" fill="#263238"></path> <path d="M485.161 288.99C485.161 288.99 485.161 289.19 485.221 289.58C485.281 289.97 485.291 290.58 485.351 291.3C485.461 292.83 485.611 295.08 485.821 298C486.221 303.88 486.821 312.47 487.531 323.36C488.241 334.25 489.101 347.44 490.101 362.51C490.341 366.277 490.594 370.16 490.861 374.16C491.011 376.16 491.091 378.16 491.181 380.26C491.236 381.296 491.236 382.334 491.181 383.37C491.179 384.422 491.122 385.474 491.011 386.52L490.621 389.7C490.391 390.75 490.161 391.81 489.941 392.87C489.721 393.93 489.281 394.95 488.941 396C488.601 397.05 488.101 398.05 487.561 399C485.461 402.89 482.191 406.53 477.651 408H477.591H379.761H348.761H348.421L348.511 407.67C349.461 404.29 350.401 400.95 351.331 397.62C351.804 395.96 352.268 394.294 352.721 392.62C353.228 391.008 353.615 389.36 353.881 387.69C354.361 384.395 354.067 381.032 353.021 377.87C352.535 376.32 351.739 374.884 350.681 373.65C349.66 372.427 348.246 371.597 346.681 371.3L344.631 370.98L346.631 370.81L383.581 367.71H383.471C385.781 366.008 388.603 365.143 391.471 365.26C394.209 365.406 396.864 366.253 399.181 367.72H399.011L430.341 361.82L430.201 362.06C429.846 360.862 429.664 359.62 429.661 358.37C429.624 357.179 429.657 355.987 429.761 354.8C429.938 352.53 430.255 350.272 430.711 348.04V348.16C428.201 343.47 425.901 339.16 423.771 335.22V335.16C423.281 323.63 423.101 314.54 423.191 308.34C423.191 305.24 423.341 302.86 423.501 301.26C423.546 300.654 423.636 300.053 423.771 299.46C423.861 299.06 423.911 298.86 423.911 298.86C423.911 298.86 423.911 299.07 423.811 299.47C423.693 300.064 423.616 300.666 423.581 301.27C423.441 302.87 423.351 305.27 423.341 308.34C423.341 314.54 423.521 323.63 424.051 335.15V335.09C426.181 339.04 428.501 343.32 431.051 348V348.06C430.598 350.292 430.281 352.55 430.101 354.82C430.001 355.997 429.97 357.18 430.011 358.36C430.018 359.573 430.197 360.778 430.541 361.94L430.601 362.14H430.401L399.081 368.14H399.001L398.921 368.09C396.672 366.673 394.096 365.86 391.441 365.73C388.689 365.623 385.983 366.459 383.771 368.1H383.711H383.651L346.711 371.24V370.75C348.399 371.053 349.928 371.937 351.031 373.25C352.131 374.538 352.961 376.035 353.471 377.65C354.546 380.885 354.851 384.327 354.361 387.7C354.097 389.394 353.705 391.065 353.191 392.7C352.731 394.354 352.268 396.02 351.801 397.7C350.868 401.034 349.931 404.367 348.991 407.7L348.741 407.37H379.741L477.571 407.44C479.699 406.713 481.637 405.517 483.241 403.94C484.827 402.395 486.16 400.61 487.191 398.65C487.721 397.65 488.101 396.65 488.551 395.65C489.001 394.65 489.231 393.59 489.551 392.56C489.871 391.53 490.001 390.47 490.231 389.43C490.461 388.39 490.491 387.32 490.621 386.28C490.735 385.244 490.795 384.203 490.801 383.16C490.856 382.131 490.856 381.1 490.801 380.07C490.711 378.02 490.641 376 490.491 374C490.244 370 489.998 366.114 489.751 362.34C488.751 347.27 487.961 334.07 487.271 323.17C486.581 312.27 486.061 303.69 485.691 297.81C485.521 294.89 485.381 292.63 485.291 291.1C485.291 290.35 485.221 289.78 485.201 289.38C485.181 288.98 485.161 288.99 485.161 288.99Z" fill="#263238"></path> <path d="M456.839 234.5C456.266 234.902 455.672 235.273 455.059 235.61C453.442 236.61 451.895 237.719 450.429 238.93C445.63 242.98 441.57 247.832 438.429 253.27C435.317 258.716 432.641 264.4 430.429 270.27L428.349 275.59L427.769 277.04C427.714 277.213 427.636 277.377 427.539 277.53C427.558 277.348 427.602 277.17 427.669 277C427.799 276.61 427.969 276.12 428.159 275.52C428.599 274.24 429.239 272.4 430.089 270.13C432.21 264.192 434.85 258.453 437.979 252.98C441.139 247.491 445.273 242.625 450.179 238.62C451.677 237.427 453.269 236.356 454.939 235.42C455.519 235.07 456.009 234.86 456.319 234.7C456.484 234.614 456.659 234.547 456.839 234.5Z" fill="#263238"></path> <g opacity="0.3"> <path opacity="0.3" d="M417.7 272.689C413.542 282.091 411.625 292.33 412.1 302.599C412.48 312.759 413.7 322.949 412.7 333.079C411.7 343.209 408.19 353.539 400.64 360.349C399.664 361.092 398.837 362.011 398.2 363.059C397.894 363.59 397.774 364.208 397.859 364.815C397.944 365.422 398.229 365.983 398.67 366.409C399.143 366.675 399.666 366.841 400.206 366.897C400.746 366.954 401.291 366.9 401.81 366.739C409.04 365.479 416.36 364.579 423.6 363.329C425.15 363.059 430.36 362.039 430.36 362.039C430 360.061 429.853 358.049 429.92 356.039C430.15 354.229 430.86 348.039 430.86 348.039C430.518 347.119 430.05 346.251 429.47 345.459C426.76 340.635 424.74 335.455 423.47 330.069C421 325.019 419.89 319.939 418.74 315.219C415.57 302.109 415.66 289.219 417.68 272.609" fill="black"></path> </g> <g opacity="0.3"> <path opacity="0.3" d="M338.429 257.76C339.019 259.26 339.619 260.76 340.209 262.27C340.269 262.506 340.377 262.728 340.524 262.922C340.672 263.117 340.857 263.279 341.069 263.4C341.959 263.74 342.669 262.65 343.069 261.79C343.925 260.105 345.181 258.656 346.728 257.57C348.274 256.484 350.064 255.794 351.939 255.56C354.939 255.21 358.099 256.09 361.089 255.47C358.501 253.79 355.73 252.411 352.829 251.36C349.904 250.301 346.705 250.269 343.759 251.27C342.306 251.793 341.026 252.708 340.06 253.913C339.095 255.119 338.482 256.568 338.289 258.1" fill="black"></path> </g> <g opacity="0.3"> <path opacity="0.3" d="M363.15 253.97C366.706 253.916 370.257 254.251 373.74 254.97C377.249 255.681 380.432 257.513 382.81 260.19C385.23 263.14 386.13 267.01 387.11 270.69C387.3 271.4 387.64 272.24 388.36 272.32C388.805 272.319 389.233 272.151 389.56 271.85C395.56 267.45 399.5 260.72 401.66 253.62C403.82 246.52 404.32 239.04 404.44 231.62C401.58 236.73 400.34 242.55 398.44 248.09C396.54 253.63 393.77 259.21 388.87 262.41C388.925 261.78 388.854 261.145 388.662 260.543C388.47 259.94 388.16 259.382 387.75 258.9C386.931 257.938 385.946 257.132 384.84 256.52C381.523 254.544 377.83 253.281 373.998 252.811C370.165 252.341 366.277 252.674 362.58 253.79" fill="black"></path> </g> <path d="M347.61 371.76H335.36C335.36 371.76 307.73 361.76 302.05 362.76C296.93 363.62 278.2 376.06 274.53 378.53C274.121 378.802 273.809 379.198 273.64 379.66C273.277 380.634 273.308 381.712 273.726 382.664C274.144 383.616 274.917 384.368 275.88 384.76L276.26 384.92L276.1 385.48C275.876 386.204 275.778 386.962 275.81 387.72C275.86 388.287 276.088 388.824 276.461 389.254C276.835 389.683 277.335 389.984 277.889 390.113C278.444 390.241 279.025 390.192 279.55 389.97C280.074 389.749 280.515 389.367 280.81 388.88L280.11 390.14C279.818 390.65 279.683 391.234 279.72 391.82L279.78 392.95C279.814 393.57 280.034 394.165 280.413 394.658C280.791 395.15 281.31 395.517 281.9 395.71C282.463 395.884 283.063 395.893 283.631 395.735C284.198 395.577 284.708 395.259 285.1 394.82C287.48 392.21 292.61 386.98 296.1 386.4C299.862 385.945 303.651 385.755 307.44 385.83C308.212 385.833 308.965 386.068 309.602 386.505C310.239 386.942 310.729 387.56 311.01 388.28C308.95 388.43 294.59 395.92 289.51 398.6C288.723 398.991 288.043 399.567 287.529 400.28C287.015 400.993 286.683 401.82 286.56 402.69C286.37 404.28 287.17 405.94 290.32 405.21C297.07 403.63 309.22 398.05 309.22 398.05C309.22 398.05 315.48 396.26 319.54 399.12C325.25 403.12 327.87 404.63 332.77 403C335.752 401.993 338.611 400.652 341.29 399L350.95 398C350.95 398 360.1 375.26 347.61 371.76Z" fill="#FFBE9D"></path> <path d="M311.1 376.42C311.1 376.53 309.1 375.91 305.91 375.7C301.7 375.417 297.483 376.133 293.603 377.789C289.722 379.445 286.288 381.995 283.58 385.23C282.485 386.594 281.461 388.012 280.51 389.48C280.663 389.031 280.867 388.601 281.12 388.2C281.753 387.075 282.479 386.004 283.29 385C285.969 381.639 289.442 378.997 293.395 377.311C297.349 375.625 301.66 374.947 305.94 375.34C307.225 375.45 308.499 375.664 309.75 375.98C310.214 376.077 310.667 376.224 311.1 376.42Z" fill="#EB996E"></path> <path d="M308.2 369.71C305.195 368.769 302.017 368.517 298.901 368.97C295.786 369.424 292.812 370.572 290.2 372.33C286.47 374.73 283.074 377.611 280.1 380.9L277.32 383.82C277.002 384.189 276.646 384.524 276.26 384.82C276.532 384.404 276.836 384.009 277.17 383.64C277.78 382.9 278.68 381.85 279.83 380.58C282.766 377.183 286.178 374.229 289.96 371.81C293.806 369.409 298.277 368.198 302.81 368.33C304.17 368.399 305.515 368.648 306.81 369.07C307.151 369.18 307.484 369.31 307.81 369.46L308.2 369.71Z" fill="#EB996E"></path> <path d="M174.84 414.63L141.66 331.34C140.986 329.687 140.729 327.893 140.911 326.117C141.094 324.341 141.71 322.638 142.706 321.156C143.702 319.674 145.046 318.46 146.622 317.62C148.197 316.78 149.955 316.341 151.74 316.34H255.1C257.375 316.34 259.593 317.053 261.442 318.379C263.291 319.704 264.679 321.575 265.41 323.73L293.91 407.73L327.2 407.89C329.9 407.89 332.09 411.89 332.09 414.56L295.45 414.14L174.84 414.63Z" fill="#263238"></path> <path d="M222.62 368.91C222.622 370.24 222.229 371.54 221.492 372.646C220.755 373.753 219.706 374.616 218.478 375.126C217.251 375.636 215.899 375.77 214.595 375.512C213.291 375.254 212.092 374.615 211.151 373.675C210.211 372.736 209.57 371.539 209.31 370.235C209.049 368.931 209.182 367.579 209.69 366.351C210.199 365.122 211.06 364.072 212.165 363.333C213.271 362.595 214.57 362.2 215.9 362.2C217.68 362.2 219.388 362.907 220.648 364.165C221.908 365.423 222.617 367.13 222.62 368.91Z" fill="#F5F5F5"></path> <path d="M617.39 414.14C617.39 414.28 479.93 414.4 310.39 414.4C140.85 414.4 3.38965 414.28 3.38965 414.14C3.38965 414 140.82 413.88 310.39 413.88C479.96 413.88 617.39 413.99 617.39 414.14Z" fill="#263238"></path> <path d="M94.7605 379.821C84.9805 374.151 79.7605 360.961 79.3605 350.161C78.9605 339.361 83.4605 328.111 92.3605 321.921C101.68 315.401 114.96 315.521 124.54 321.651C134.12 327.781 139.74 339.371 139.3 350.741C138.86 362.111 132.67 372.961 123.51 379.741" fill="#A41F68"></path> <path d="M110.37 380.82C110.229 380.005 110.168 379.177 110.19 378.35C110.14 376.58 110.07 374.35 110 371.62C109.85 365.93 109.63 358.08 109.25 349.42C108.87 340.76 108.4 332.91 108.04 327.24C107.88 324.53 107.75 322.24 107.64 320.51C107.555 319.689 107.555 318.861 107.64 318.04C107.848 318.839 107.979 319.656 108.03 320.48C108.22 322.06 108.46 324.35 108.72 327.19C109.24 332.85 109.81 340.7 110.19 349.38C110.57 358.06 110.69 365.92 110.67 371.61C110.67 374.45 110.67 376.76 110.57 378.35C110.581 379.178 110.514 380.005 110.37 380.82Z" fill="white"></path> <path d="M82.2505 347.701C82.2505 347.951 80.6705 348.031 78.7705 347.871C76.8705 347.711 75.3405 347.381 75.3605 347.131C75.3805 346.881 76.9406 346.801 78.8406 346.961C80.7406 347.121 82.2705 347.451 82.2505 347.701Z" fill="#263238"></path> <path d="M82.7902 338.011C82.6802 338.241 81.3402 337.871 79.7902 337.181C78.2402 336.491 77.0602 335.741 77.1602 335.511C77.2602 335.281 78.6102 335.651 80.1602 336.341C81.7102 337.031 82.8902 337.821 82.7902 338.011Z" fill="#263238"></path> <path d="M87.7706 330.82C87.6406 331.03 86.1306 330.32 84.5506 329.02C82.9706 327.72 82.0006 326.36 82.1806 326.2C82.3606 326.04 83.6106 327.05 85.1806 328.31C86.7506 329.57 87.9106 330.61 87.7706 330.82Z" fill="#263238"></path> <path d="M92.7803 324.041C92.5503 324.141 91.7803 323.041 91.1603 321.511C90.5403 319.981 90.1603 318.711 90.3803 318.611C90.6003 318.511 91.3803 319.611 92.0003 321.141C92.6203 322.671 93.0103 323.941 92.7803 324.041Z" fill="#263238"></path> <path d="M100.65 319.23C100.42 319.33 99.6503 318.13 99.1203 316.46C98.5903 314.79 98.5603 313.35 98.8003 313.31C99.0403 313.27 99.4903 314.58 100 316.18C100.51 317.78 100.88 319.12 100.65 319.23Z" fill="#263238"></path> <path d="M113.771 313.821C114.011 313.911 113.861 314.941 113.441 316.121C113.021 317.301 112.441 318.201 112.251 318.121C112.061 318.041 112.161 317.001 112.581 315.821C113.001 314.641 113.531 313.721 113.771 313.821Z" fill="#263238"></path> <path d="M123.5 317.981C123.67 318.171 123.05 318.981 122.11 319.891C121.17 320.801 120.26 321.321 120.11 321.141C119.96 320.961 120.56 320.091 121.5 319.221C122.44 318.351 123.33 317.821 123.5 317.981Z" fill="#263238"></path> <path d="M132.101 323.51C132.241 323.72 131.481 324.51 130.401 325.22C129.321 325.93 128.321 326.37 128.181 326.16C128.041 325.95 128.801 325.16 129.881 324.46C130.961 323.76 131.931 323.3 132.101 323.51Z" fill="#263238"></path> <path d="M138.15 331.761C138.25 332.001 137.05 332.761 135.47 333.401C133.89 334.041 132.53 334.401 132.47 334.201C132.41 334.001 133.57 333.201 135.15 332.561C136.73 331.921 138.1 331.531 138.15 331.761Z" fill="#263238"></path> <path d="M140.55 340.761C140.55 341.011 139.36 341.371 137.82 341.561C136.28 341.751 135.01 341.701 134.98 341.451C134.95 341.201 136.17 340.841 137.71 340.651C139.25 340.461 140.52 340.511 140.55 340.761Z" fill="#263238"></path> <path d="M141.79 351.821C141.69 352.051 140.39 351.711 138.89 351.051C137.39 350.391 136.25 349.681 136.35 349.451C136.45 349.221 137.75 349.561 139.25 350.211C140.75 350.861 141.89 351.601 141.79 351.821Z" fill="#263238"></path> <path d="M140.7 361.341C140.62 361.571 138.97 361.181 137.25 360.051C135.53 358.921 134.51 357.581 134.69 357.411C134.87 357.241 136.13 358.231 137.75 359.281C139.37 360.331 140.79 361.091 140.7 361.341Z" fill="#263238"></path> <path d="M135.751 369.991C135.601 370.191 134.291 369.421 133.031 368.061C131.771 366.701 131.101 365.351 131.311 365.211C131.521 365.071 132.501 366.141 133.701 367.441C134.901 368.741 135.911 369.821 135.751 369.991Z" fill="#263238"></path> <path d="M88.7606 371.01C88.8806 371.23 87.5006 372.18 85.6906 373.12C83.8806 374.06 82.3106 374.65 82.2006 374.42C82.0906 374.19 83.4506 373.25 85.2706 372.31C87.0906 371.37 88.6406 370.82 88.7606 371.01Z" fill="#263238"></path> <path d="M84.4704 363.18C84.5704 363.41 83.4704 364.18 82.0104 364.8C80.5504 365.42 79.2704 365.8 79.1704 365.59C79.0704 365.38 80.1704 364.59 81.6304 363.97C83.0904 363.35 84.3604 362.95 84.4704 363.18Z" fill="#263238"></path> <path d="M81.3103 356.25C81.3103 356.5 79.9903 356.9 78.3103 357.14C76.6303 357.38 75.1903 357.38 75.1503 357.14C75.1103 356.9 76.4803 356.49 78.1503 356.25C79.8203 356.01 81.2803 356 81.3103 356.25Z" fill="#263238"></path> <path d="M91.6604 352.431C91.7404 352.671 90.4104 353.281 88.6604 353.481C86.9104 353.681 85.4704 353.371 85.4904 353.131C85.5104 352.891 86.8804 352.761 88.5604 352.571C90.2404 352.381 91.5904 352.181 91.6604 352.431Z" fill="#263238"></path> <path d="M100.261 343.88C100.331 344.11 99.2606 344.65 97.8606 344.78C96.4606 344.91 95.3006 344.61 95.3306 344.36C95.3606 344.11 96.4506 344 97.7706 343.87C99.0906 343.74 100.181 343.63 100.261 343.88Z" fill="#263238"></path> <path d="M101.9 337.02C101.82 337.26 100.68 337.09 99.3501 336.63C98.0201 336.17 97.0201 335.63 97.1101 335.37C97.2001 335.11 98.3301 335.3 99.6501 335.76C100.97 336.22 101.98 336.82 101.9 337.02Z" fill="#263238"></path> <path d="M105.1 330.091C104.93 330.271 104.1 329.751 103.59 328.781C103.08 327.811 102.97 326.871 103.21 326.781C103.45 326.691 103.88 327.431 104.38 328.291C104.88 329.151 105.24 329.921 105.1 330.091Z" fill="#263238"></path> <path d="M101.251 358.461C101.311 358.711 100.331 359.161 99.0507 359.461C98.4458 359.618 97.8254 359.709 97.2007 359.731L97.0107 359.191C97.3507 359.131 97.5607 359.191 97.6007 359.251C97.6407 359.311 97.5107 359.511 97.2407 359.711L97.0607 359.18C97.6252 358.909 98.2191 358.705 98.8307 358.571C100.101 358.271 101.191 358.221 101.251 358.461Z" fill="#263238"></path> <path d="M103.02 370.61C103.12 370.85 101.86 371.56 100.21 372.21C98.56 372.86 97.16 373.21 97.07 372.95C96.98 372.69 98.23 372 99.88 371.36C101.53 370.72 102.93 370.38 103.02 370.61Z" fill="#263238"></path> <path d="M93.3099 365.221C93.3899 365.461 92.5599 365.961 91.4399 366.341C90.3199 366.721 89.3499 366.831 89.2699 366.591C89.1899 366.351 90.0299 365.851 91.1399 365.471C92.2499 365.091 93.2299 364.981 93.3099 365.221Z" fill="#263238"></path> <path d="M94.1001 340.49C94.0401 340.73 92.5801 340.59 90.8901 339.98C89.2001 339.37 87.9701 338.58 88.0801 338.36C88.1901 338.14 89.5501 338.54 91.1901 339.12C92.8301 339.7 94.1001 340.24 94.1001 340.49Z" fill="#263238"></path> <path d="M117.56 337.82C117.7 338.03 116.87 338.82 115.72 339.58C114.57 340.34 113.51 340.79 113.38 340.58C113.25 340.37 114.06 339.58 115.21 338.82C116.36 338.06 117.42 337.59 117.56 337.82Z" fill="#263238"></path> <path d="M118.83 350C118.89 350.25 118.02 350.64 116.9 350.87C115.78 351.1 114.84 351.09 114.78 350.87C114.72 350.65 115.6 350.23 116.72 350C117.84 349.77 118.78 349.75 118.83 350Z" fill="#263238"></path> <path d="M120.321 363.721C120.211 363.951 118.971 363.601 117.541 362.931C116.111 362.261 115.031 361.551 115.141 361.321C115.251 361.091 116.491 361.441 117.921 362.101C119.351 362.761 120.431 363.491 120.321 363.721Z" fill="#263238"></path> <path d="M117.18 377.071C116.98 377.231 116.18 376.571 115.37 375.601C114.56 374.631 114.08 373.701 114.27 373.541C114.46 373.381 115.27 374.041 116.08 375.011C116.89 375.981 117.37 376.911 117.18 377.071Z" fill="#263238"></path> <path d="M116.531 328.82C116.691 329.01 116.151 329.68 115.241 330.14C114.331 330.6 113.471 330.63 113.401 330.39C113.331 330.15 114.001 329.74 114.831 329.32C115.661 328.9 116.381 328.61 116.531 328.82Z" fill="#263238"></path> <path d="M128.1 341.12C128.18 341.35 127.1 341.94 125.66 342.12C124.22 342.3 123.02 342.05 123.04 341.81C123.06 341.57 124.18 341.41 125.53 341.21C126.88 341.01 127.97 340.88 128.1 341.12Z" fill="#263238"></path> <path d="M125.76 330.081C125.87 330.301 124.81 331.081 123.31 331.531C121.81 331.981 120.5 332.011 120.47 331.771C120.44 331.531 121.6 331.121 123.03 330.661C124.46 330.201 125.64 329.821 125.76 330.081Z" fill="#263238"></path> <path d="M130.56 358.23C130.56 358.48 128.75 358.64 126.56 358.23C124.37 357.82 122.74 357.05 122.82 356.82C122.9 356.59 124.62 356.95 126.72 357.32C128.82 357.69 130.57 357.97 130.56 358.23Z" fill="#263238"></path> <path d="M126.28 374.27C126.13 374.47 124.8 373.69 123.47 372.35C122.14 371.01 121.36 369.68 121.56 369.53C121.76 369.38 122.83 370.41 124.12 371.7C125.41 372.99 126.44 374.07 126.28 374.27Z" fill="#263238"></path> <path d="M107.47 317.02C107.6 317.22 103.81 318.75 99.4698 323.37C93.8799 329.5 90.3786 337.245 89.4698 345.49C89.0503 350.013 89.2522 354.572 90.0698 359.04C90.7242 362.706 91.5721 366.334 92.6098 369.91C93.4898 372.97 94.2998 375.43 94.8398 377.13C95.1669 377.999 95.4244 378.891 95.6098 379.8C95.1636 378.986 94.792 378.132 94.4998 377.25C93.8598 375.58 92.9498 373.15 91.9898 370.1C90.8498 366.52 89.9314 362.873 89.2398 359.18C88.3565 354.636 88.1276 349.989 88.5598 345.38C89.6898 335.53 94.4198 327.38 99.0098 322.92C100.794 321.099 102.811 319.522 105.01 318.23C105.604 317.863 106.218 317.529 106.85 317.23C107.22 317.08 107.45 316.99 107.47 317.02Z" fill="white"></path> <path d="M119.961 380.39C119.761 380.29 122.021 376.81 124.081 370.54C126.844 362.41 127.686 353.751 126.541 345.24C125.918 340.572 124.604 336.022 122.641 331.74C121 328.279 118.747 325.141 115.991 322.48C114.052 320.767 111.85 319.376 109.471 318.36C107.771 317.65 106.761 317.48 106.771 317.36C107.022 317.333 107.275 317.35 107.521 317.41C108.227 317.544 108.922 317.732 109.601 317.97C112.09 318.896 114.398 320.25 116.421 321.97C119.324 324.632 121.699 327.818 123.421 331.36C125.451 335.705 126.8 340.335 127.421 345.09C128.599 353.738 127.652 362.542 124.661 370.74C124.151 372.32 123.481 373.67 122.981 374.9C122.481 376.13 121.911 377.11 121.461 377.9C121.035 378.773 120.533 379.607 119.961 380.39Z" fill="white"></path> <path d="M84.4707 378.221H134.981L135.291 388.331H84.4707V378.221Z" fill="#263238"></path> <path d="M88.7607 383.271L91.6607 414.141H128.591L131.561 383.611L88.7607 383.271Z" fill="#263238"></path> <path d="M135.29 388.45C135.29 388.7 123.92 388.91 109.89 388.91C95.8605 388.91 84.4805 388.7 84.4805 388.45C84.4805 388.2 95.8505 387.99 109.89 387.99C123.93 387.99 135.29 388.2 135.29 388.45Z" fill="#455A64"></path> <path d="M130.16 397.821C129.909 398.537 129.552 399.211 129.1 399.821C127.959 401.497 126.645 403.048 125.18 404.451L124.95 404.671L124.72 404.431C121.687 401.25 118.373 398.348 114.82 395.761H115.38L110.99 399.611L105.8 404.131L105.51 404.381L105.22 404.131L96.7902 397.041L97.2802 396.991L92.9202 402.311C92.4152 402.997 91.8386 403.627 91.2002 404.191C91.6044 403.446 92.0764 402.739 92.6102 402.081L96.7402 396.561L96.9502 396.281L97.2302 396.511L105.79 403.451H105.22L110.38 398.911L114.79 395.071L115.06 394.841L115.35 395.051C118.93 397.687 122.23 400.683 125.2 403.991H124.74C126.706 402.079 128.518 400.016 130.16 397.821Z" fill="#455A64"></path> </g> <defs> <clipPath id="clip0"> <rect width="617.39" height="422.01" fill="white"></rect> </clipPath> </defs> </svg> 